<svg xmlns="http://www.w3.org/2000/svg"><symbol id="construction" viewBox="0 0 838.3 490.6"><path d="M230.8 55.2h-3.7v-5.5h-27.3v32.5a31.5 31.5 0 0 1-.7 7.4 4.7 4.7 0 0 1-2.7 3.1 17.4 17.4 0 0 1-6.3 1.1v2.7l24.2-.4c6.4 0 15.7.1 27.9.4v-3.1a37.5 37.5 0 0 1-9.7-.9 5.9 5.9 0 0 1-4.2-3.4c-.8-1.8-1.2-4.5-1.2-8.3V57.9h5c10.8 0 19.4-1.6 25.9-4.6a42.9 42.9 0 0 0 6.4-3.6H243c-2.5 3.6-6.6 5.5-12.2 5.5zm83.5 2.4h-25.2l3-7.9h-3.2L277.8 78c-2 5.3-4 9.2-6 11.6a10.5 10.5 0 0 1-6.3 4.2v2.7a97.5 97.5 0 0 1 10.4-.4c5 0 10.9.1 17.6.4v-2.7c-4-.1-7-.9-9.1-2.3s-3.1-3.8-3.1-7.5 1.5-10.1 4.4-17.6l2.3-6.1h27.2l8.1 22.2a20.2 20.2 0 0 1 1.6 6.3 3.7 3.7 0 0 1-2.2 3.7 19.4 19.4 0 0 1-7.3 1.3v2.7c4.9-.3 12.4-.4 22.7-.4s18.1.1 24.6.4v-2.7a6.7 6.7 0 0 1-4.2-2.2 19.6 19.6 0 0 1-3.8-6.4l-13.8-35.5h-29.5zm52.5 18.3a37.7 37.7 0 0 0 17 16.7c7.5 3.9 16.9 5.8 28.1 5.8 6.2 0 13.8-2.2 22.8-6.5 4.2-2.1 7.2-3.1 9.1-3.1s2.3.8 3 2.4a13.3 13.3 0 0 1 1.3 5.3h2.7V69.7a44.7 44.7 0 0 1 .4-7.4 5.3 5.3 0 0 1 1.5-3.1 8 8 0 0 1 3.6-1.1v-2.7c-4.3.3-11.3.5-20.8.5-11.5 0-20.1-.2-25.8-.5v2.7a27.5 27.5 0 0 1 8.8 1.5 6.8 6.8 0 0 1 3.8 4.3c.7 2.1 1 5.4 1 9.9v13.5c0 3.2-.9 5.4-2.8 6.8s-3.8 1.6-6.7 1.6c-6.7 0-12-3.9-15.9-11.6s-5.7-19.1-5.7-34.4h-31.1c0 10.2 1.9 19 5.7 26.2zm104.9 6.3a31.5 31.5 0 0 1-.7 7.4 4.7 4.7 0 0 1-2.7 3.1 17.4 17.4 0 0 1-6.3 1.1v2.7c10.5-.3 26.2-.4 47.3-.4 14.5 0 24.8.1 30.9.4-.6-5.9-.9-13.5-.9-22.7 0-5 .1-9.2.4-12.4h-3.1c-1.4 7.7-3.4 13.9-6.1 18.6s-5.7 8.2-9 10.3a17.9 17.9 0 0 1-9.8 3.1h-4.5a17 17 0 0 1-5.3-.6 4 4 0 0 1-2.3-2.3 18.4 18.4 0 0 1-.6-5.6V49.8h1.4a16.7 16.7 0 0 1 8.9 2.3 19.9 19.9 0 0 1 6.5 6.4 24.9 24.9 0 0 1 3.4 9.1h3.1c-.5-8-.8-14-.9-17.9h-49.7z"/><path d="M218.1 16.2a32 32 0 0 1 .6-7.2 4.7 4.7 0 0 1 2.1-3.4 8.3 8.3 0 0 1 4.6-1 10.3 10.3 0 0 1 10 6.2c2 4.1 3 10.6 3 19.3s-1.2 14.4-3.5 19l-.9 1.6h21.4a25.5 25.5 0 0 0 7.3-7.8 27.4 27.4 0 0 0 4.1-14.2 22.2 22.2 0 0 0-4.6-14c-3-4-7.5-7.1-13.6-9.3S235 2 226.1 2l-9.4.2h-12.3c-10.4 0-18.1-.1-23.3-.4v2.8a17.4 17.4 0 0 1 6.3 1.1 4.6 4.6 0 0 1 2.6 3.1 26.1 26.1 0 0 1 .8 7.4v34.5h27.3zm74.9 8.7l9.4 25.8h29.5L313 1.9a68.1 68.1 0 0 1-7 .3c-2.9 0-5.2-.1-7.2-.3l-18.9 48.8h3.2zM383.1 50a91.6 91.6 0 0 1 2.6-21.8 39.2 39.2 0 0 1 8.5-17.2 19.9 19.9 0 0 1 15.6-6.8 27.1 27.1 0 0 1 7.4 1.1 24.9 24.9 0 0 1 6.6 2.9 25.4 25.4 0 0 1 6.7 6.8 28.4 28.4 0 0 1 3.8 8.7 79.7 79.7 0 0 1 1.9 12h3.1c0-16.2.2-27.4.5-33.8h-3.1a23.1 23.1 0 0 1-1.1 6.2c-.6 1.3-1.3 1.9-2.2 1.9a4.1 4.1 0 0 1-2.7-1.2 40.5 40.5 0 0 0-11.4-6.5A43.6 43.6 0 0 0 404.4 0a57 57 0 0 0-27.1 6.3 46 46 0 0 0-18.5 17.8c-4.5 7.7-6.7 16.5-6.7 26.4v.2h31.1c0-.3-.1-.5-.1-.7zm129.3-.6v-6c0-3.5.2-7.9.6-13.1h-3.1a26.5 26.5 0 0 1-3.4 8.3 24.1 24.1 0 0 1-6.3 6.8 14.9 14.9 0 0 1-8.7 2.7H490V13.5a19.3 19.3 0 0 1 .6-5.6 3.7 3.7 0 0 1 2.3-2.3 17 17 0 0 1 5.3-.6h1.8a21.5 21.5 0 0 1 15.9 6.8q6.6 6.9 9 22.5h3.1a81.4 81.4 0 0 1-.4-9.7c0-6.7.3-14.3.9-22.7-5.6.3-15 .4-28.2.4-21.1 0-36.8-.1-47.3-.4v2.7a17.4 17.4 0 0 1 6.3 1.1 4.8 4.8 0 0 1 2.6 3.1 26.9 26.9 0 0 1 .7 7.4v34.5h49.8zm-78.5 149.4c0 11.2-1.8 19.8-5.4 25.9s-9.7 9-18.2 9a18.8 18.8 0 0 1-9.5-2.1 13.7 13.7 0 0 1-5.6-7.3c-1.2-3.4-1.8-8.1-1.8-13.9v-20.7H366v8a110.4 110.4 0 0 0 .9 15.3 36.3 36.3 0 0 0 3.3 11 22.9 22.9 0 0 0 6.9 8c6 4.3 14.5 6.5 25.3 6.5 14.4 0 24-4.2 29-12.6 3.7-6 5.6-15.6 5.6-28.6v-7.6h-3.1zm97.1.5l-9-9.6h-40.2l42.9 46.9a45.2 45.2 0 0 1 5.1-.2 30.3 30.3 0 0 1 4.4.2v-46.9H531zm-69.2 13.5a72.8 72.8 0 0 1-.7 12.1 10.5 10.5 0 0 1-2.7 6.1c-1.3 1.3-3.4 2.2-6.2 2.9v2.7a110.9 110.9 0 0 1 11.2-.4c6.5 0 11.6.1 15.2.4v-2.7q-6.6-1.1-9.3-3a9.8 9.8 0 0 1-3.6-6.5 92.5 92.5 0 0 1-.8-14.3v-20.4h-3.1zm154.7 9.8c-3.9 7.7-10.4 11.5-19.3 11.5a17 17 0 0 1-6.4-.9 5.6 5.6 0 0 1-3-3.4 26.5 26.5 0 0 1-.7-7.3v-32.8h-27.4v32.6a26.1 26.1 0 0 1-.7 7.3 4.8 4.8 0 0 1-2.6 3.2 19.9 19.9 0 0 1-6.3 1.1v2.7c5.1-.3 13-.4 23.5-.4 2.2 0 5.8 0 10.8.2l9.4.2c11.9 0 22-2 30.6-6.1a44.8 44.8 0 0 0 19.6-17 47.9 47.9 0 0 0 6.7-23.8h-28.3c-.1 14.5-2.1 25.5-5.9 32.9zm48.8-.3a30.6 30.6 0 0 1-.7 7.3 4.9 4.9 0 0 1-2.7 3.2 19.9 19.9 0 0 1-6.3 1.1v2.7c10.5-.3 26.3-.4 47.3-.4 14.5 0 24.8.1 30.9.4-.6-6-.9-13.5-.9-22.7 0-5.1.1-9.2.4-12.4h-3.1c-1.4 7.6-3.4 13.9-6.1 18.6s-5.7 8.2-9 10.3a18.5 18.5 0 0 1-9.8 3.1h-4.4a17.3 17.3 0 0 1-5.4-.6 3.6 3.6 0 0 1-2.2-2.3 15.5 15.5 0 0 1-.7-5.6v-35.2h1.4a16.7 16.7 0 0 1 8.9 2.4 18.9 18.9 0 0 1 6.5 6.4 24.9 24.9 0 0 1 3.4 9.1h3.1c-.5-8.1-.8-14-.9-18h-49.7zm85.7 0a26.1 26.1 0 0 1-.7 7.3 5 5 0 0 1-2.6 3.2 19.9 19.9 0 0 1-6.3 1.1v2.7c5.1-.3 13.1-.4 24-.4s17.3.1 22.6.4v-2.7a19.9 19.9 0 0 1-6.3-1.1 4.5 4.5 0 0 1-2.6-3.2 25.3 25.3 0 0 1-.8-7.3v-31.1h6.2c3.1 0 5.5 1.6 7 4.9s2.8 8 3.7 14.3l2.1 13.4c.7 5.4 2.9 9.1 6.3 11.3s8.3 3.4 14.5 3.4a34.9 34.9 0 0 0 11.3-1.7 23.5 23.5 0 0 0 8.9-5.6l-1.8-1.8a5.4 5.4 0 0 1-4.1 1.8 4.3 4.3 0 0 1-3.7-2c-.9-1.2-1.7-3.5-2.4-6.8l-2.8-14a18 18 0 0 0-8.7-12.6c-4.7-2.8-11.7-4.5-20.8-5 2.6-.3 5-.6 7.3-1.1H751z"/><path fill="none" d="M786.6 150.4c-2-3.8-5.3-5.7-10-5.7a9.4 9.4 0 0 0-4.6.9 5.6 5.6 0 0 0-2.1 3.4 33.6 33.6 0 0 0-.6 7.3v33.2h3.7c4.4 0 7.8-1 10.3-2.9a14.5 14.5 0 0 0 5-7.8 43.9 43.9 0 0 0 1.3-11.7c0-7.4-1-13-3-16.7z"/><path d="M428 165.7a73.6 73.6 0 0 1 .7-12.1 9.9 9.9 0 0 1 2.7-6 12.4 12.4 0 0 1 6.2-2.9V142c-2.7.2-6.5.4-11.2.4-6.4 0-11.5-.2-15.2-.4v2.7q6.6.9 9.3 3c1.9 1.4 3 3.5 3.6 6.4a93.4 93.4 0 0 1 .8 14.3v22.3h3.1zm-43.6-9.4a25.6 25.6 0 0 1 .8-7.4 5.6 5.6 0 0 1 3-3.2 26.4 26.4 0 0 1 7.1-1V142c-5.5.2-13.6.4-24.2.4s-18.6-.2-23.7-.4v2.7a20.5 20.5 0 0 1 6.3 1 5.3 5.3 0 0 1 2.6 3.2 30.9 30.9 0 0 1 .7 7.4v34.4h27.4zm140.8 9.4a73.6 73.6 0 0 1 .7-12.1 9.9 9.9 0 0 1 2.7-6 12 12 0 0 1 6.2-2.9V142c-2.7.2-6.5.4-11.3.4-6.4 0-11.4-.2-15.1-.4v2.7q6.6.9 9.3 3a9.8 9.8 0 0 1 3.5 6.4c.6 2.9.8 7.7.8 14.3v22.3h3.2zm-69.3 6.5l16.9 18.5H513L466.9 142c-3.4.2-7.5.4-12.5.4s-8.5-.2-11.2-.4v2.7a20.3 20.3 0 0 1 6.2 1 5.1 5.1 0 0 1 2.7 3.2 26.4 26.4 0 0 1 .7 7.4v34.4h3.1zM578 156a25.4 25.4 0 0 1 .8-7.2 5.3 5.3 0 0 1 2.9-3.4c1.4-.7 3.5-1 6.4-1 8.7 0 15.1 3.7 19.2 11s6.1 18.6 6.1 33.8v1.5h28.3c0-.6.1-1.3.1-2 0-15.2-4.6-26.8-13.9-34.8S604.7 142 586 142l-21.7.4h-4.8c-5.7 0-11.9-.1-18.4-.4v2.7a20.3 20.3 0 0 1 6.2 1 5.1 5.1 0 0 1 2.7 3.2 30.9 30.9 0 0 1 .7 7.4v34.4H578zm128 33.5v-6.1c0-3.4.1-7.8.5-13.1h-3.1a25.6 25.6 0 0 1-3.4 8.3 21.6 21.6 0 0 1-6.3 6.8 14.9 14.9 0 0 1-8.7 2.7h-1.4v-34.5a18.8 18.8 0 0 1 .6-5.6 4 4 0 0 1 2.3-2.3 17.3 17.3 0 0 1 5.4-.6h1.7a21.5 21.5 0 0 1 15.9 6.8q6.6 6.9 9 22.5h3.1a82.5 82.5 0 0 1-.4-9.7c0-6.7.3-14.3.9-22.7-5.6.2-15 .4-28.2.4-21 0-36.8-.2-47.3-.4v2.7a20.5 20.5 0 0 1 6.3 1 4.7 4.7 0 0 1 2.6 3.2 25.6 25.6 0 0 1 .8 7.4v34.4H706zm104.4-6.6a23.1 23.1 0 0 0 7.6-17.3c0-8-3.4-13.9-10.1-17.7s-16.9-5.8-30.6-5.8h-9.4l-12.3.2c-10.4 0-18.1-.2-23.2-.4v2.7a20.3 20.3 0 0 1 6.2 1 4.7 4.7 0 0 1 2.6 3.2 25.6 25.6 0 0 1 .8 7.4v34.4h50.3c8.1-1.4 14.2-4 18.1-7.7zm-27.1 3.7c-2.5 1.9-5.9 2.9-10.3 2.9h-3.7v-33.2a33.6 33.6 0 0 1 .6-7.3 5.6 5.6 0 0 1 2.1-3.4 9.4 9.4 0 0 1 4.6-.9c4.7 0 8 1.9 10 5.7s3 9.3 3 16.7a43.9 43.9 0 0 1-1.3 11.7 14.5 14.5 0 0 1-5 7.8zm-768 170.8a42.1 42.1 0 0 0 17.8 16.9c7.7 3.9 16.6 5.8 26.8 5.8a37 37 0 0 0 9.8-1.2 34.1 34.1 0 0 0 7.8-2.9 79 79 0 0 0 7.4-4.7 5.6 5.6 0 0 1 2.7-1.1c1 0 1.7.6 2.3 1.9a22.3 22.3 0 0 1 1 6.1H94c-.3-6.7-.5-18.3-.5-35.1h-3.1a93.4 93.4 0 0 1-1.9 13.4 28.2 28.2 0 0 1-3.7 9.2 20.8 20.8 0 0 1-6.8 6.7 23.1 23.1 0 0 1-12.6 4c-6.4 0-11.5-2.3-15.3-6.8a38.5 38.5 0 0 1-7.8-17.1 95.1 95.1 0 0 1-2.2-21.2H9q0 15.1 6.3 26.1zm159.3-2.6c-1.9 7.2-4.4 12.8-7.8 16.8s-7.2 6-11.6 6-8.1-1.9-11.6-5.8-6.3-9.3-8.4-16.5a86.3 86.3 0 0 1-3.1-24h-28.4c.1 10.1 2.2 18.8 6.4 26.1a41.5 41.5 0 0 0 17.8 16.9c7.6 3.9 16.5 5.8 26.7 5.8a54.9 54.9 0 0 0 26.5-6.3 46.9 46.9 0 0 0 18.1-17.8 52.3 52.3 0 0 0 6.4-24.7h-28.3a103.3 103.3 0 0 1-2.7 23.5zm115-13.9l-9.1-9.6h-40.1l42.9 46.9a45.2 45.2 0 0 1 5.1-.2 30.3 30.3 0 0 1 4.4.2v-46.9h-3.2zm-69.2 13.5a72.8 72.8 0 0 1-.7 12.1 11.5 11.5 0 0 1-2.7 6.1 12.4 12.4 0 0 1-6.2 2.9v2.7a109.6 109.6 0 0 1 11.2-.4c6.5 0 11.5.1 15.1.4v-2.7q-6.4-.9-9.3-3a10.1 10.1 0 0 1-3.5-6.5 92.5 92.5 0 0 1-.8-14.3v-20.4h-3.1zm113.8-17a117.1 117.1 0 0 1 10.8 8 31.4 31.4 0 0 1 6.5 7.8 19.5 19.5 0 0 1 2.4 9.6 11.8 11.8 0 0 1-4.4 9.7c-2.9 2.3-6.8 3.5-11.8 3.5-8.1 0-14-3.3-17.9-10s-6.1-15.4-6.7-26.1H310c0 19.3-.1 32.3-.5 39.2h3.1a14.5 14.5 0 0 1 1.1-4.5 1.9 1.9 0 0 1 1.9-1.4c1 0 2.5.6 4.5 1.9a55.9 55.9 0 0 0 10.2 3.6 58 58 0 0 0 13.8 1.4 54.4 54.4 0 0 0 18.5-3 29.9 29.9 0 0 0 13.2-9 22.5 22.5 0 0 0 5-14.8 26.4 26.4 0 0 0-2.8-12.2 34.1 34.1 0 0 0-7.2-9.2l-.7-.6h-44.6c2.5 1.9 5.4 3.9 8.7 6.1zm86.2 25.5a23.5 23.5 0 0 1-1.1 8.3 6.3 6.3 0 0 1-4.2 3.4 36.6 36.6 0 0 1-9.6.9v2.7c12.1-.3 21.3-.4 27.7-.4s17 .1 29.6.4v-2.7a36.6 36.6 0 0 1-9.6-.9 6.3 6.3 0 0 1-4.2-3.4c-.8-1.7-1.2-4.5-1.2-8.3v-31.6h-27.4zm75.7-31.6v32.6a31.5 31.5 0 0 1-.7 7.4 4.9 4.9 0 0 1-2.7 3.1 19.9 19.9 0 0 1-6.3 1.1v2.7c5.2-.3 13.2-.4 24.1-.4s17.3.1 22.5.4v-2.7a19.7 19.7 0 0 1-6.2-1.1 4.9 4.9 0 0 1-2.7-3.1 31.5 31.5 0 0 1-.7-7.4v-31.1h6.2c3.1 0 5.5 1.6 7 4.9s2.8 8 3.7 14.3l2 13.5c.8 5.3 3 9 6.4 11.3s8.3 3.3 14.5 3.3a34.9 34.9 0 0 0 11.3-1.7 22.3 22.3 0 0 0 8.9-5.6l-1.8-1.8a5.4 5.4 0 0 1-4.1 1.8 4.4 4.4 0 0 1-3.7-1.9c-1-1.3-1.7-3.6-2.4-6.9l-2.8-14a18 18 0 0 0-8.7-12.6c-4.7-2.8-11.7-4.5-20.9-5zm162.5 9.1c0 11.2-1.8 19.8-5.4 25.9s-9.6 9-18.2 9a19.1 19.1 0 0 1-9.5-2.1 13.6 13.6 0 0 1-5.5-7.3c-1.3-3.4-1.9-8-1.9-13.9v-20.7h-27.4v8a110.4 110.4 0 0 0 .9 15.3 35.5 35.5 0 0 0 3.3 11 22.9 22.9 0 0 0 6.9 8c6 4.3 14.5 6.5 25.4 6.5 14.3 0 24-4.2 29-12.6 3.7-6 5.5-15.6 5.5-28.6v-7.6h-3.1z"/><path fill="none" d="M531.7 292c-2-3.8-5.4-5.7-10-5.7a8.3 8.3 0 0 0-4.6 1 4.7 4.7 0 0 0-2.1 3.3 33.6 33.6 0 0 0-.6 7.3v33.2h3.7c4.4 0 7.8-.9 10.3-2.9a14.5 14.5 0 0 0 5-7.8 43.9 43.9 0 0 0 1.3-11.7c0-7.4-1-13-3-16.7z"/><path d="M31 331.6a101.2 101.2 0 0 1 2.3-21.8 38.5 38.5 0 0 1 7.8-17.1c3.8-4.5 8.9-6.8 15.3-6.8a22.5 22.5 0 0 1 12.5 4 23.3 23.3 0 0 1 6.9 6.7 28.2 28.2 0 0 1 3.7 8.7 77.7 77.7 0 0 1 1.9 12h3.1c0-16.1.2-27.3.5-33.7h-3.1c-.4 5.4-1.6 8-3.4 8a5 5 0 0 1-2.6-1.1 45.3 45.3 0 0 0-11.1-6.5 37.6 37.6 0 0 0-13.8-2.3 54.9 54.9 0 0 0-26.5 6.3 45.3 45.3 0 0 0-18 17.8A53 53 0 0 0 0 332.2h31.1a1.5 1.5 0 0 1-.1-.6zm92.1 0a101.2 101.2 0 0 1 2.7-24.6q2.7-10.8 7.8-16.8c3.3-4.1 7.2-6.1 11.6-6.1s8.1 2 11.6 5.8 6.3 9.4 8.4 16.5a88.3 88.3 0 0 1 3.1 24.7v1.2h28.3v-1.7c0-10.2-2.1-18.9-6.3-26.3a41.9 41.9 0 0 0-17.8-16.8c-7.6-3.9-16.5-5.8-26.7-5.8s-18.8 2.1-26.5 6.3a46.2 46.2 0 0 0-18.1 17.8 53 53 0 0 0-6.5 26.4h28.4zm160.7-24.3a73.6 73.6 0 0 1 .7-12.1 10.5 10.5 0 0 1 2.6-6 12.4 12.4 0 0 1 6.2-2.9v-2.7a109.6 109.6 0 0 1-11.2.4c-6.4 0-11.4-.1-15.1-.4v2.7q6.6.9 9.3 3a9.8 9.8 0 0 1 3.5 6.4 93.4 93.4 0 0 1 .8 14.3v22.3h3.2zm-69.3 6.6l16.9 18.4h40.1l-46.1-48.7c-3.3.3-7.5.4-12.4.4a109.6 109.6 0 0 1-11.2-.4v2.7a17.2 17.2 0 0 1 6.2 1.1 4.7 4.7 0 0 1 2.7 3.1 31.5 31.5 0 0 1 .7 7.4v34.4h3.1zm135.4 9.9c-7.5-5.2-12.6-8.9-15.3-10.9a29.2 29.2 0 0 1-6.2-6.6 14.5 14.5 0 0 1-2.3-8.4c0-4 1.3-7 3.8-9.2a14.9 14.9 0 0 1 10-3.3 17.3 17.3 0 0 1 11.8 4.4 29.7 29.7 0 0 1 8.2 11.5 46.5 46.5 0 0 1 3.5 14.7h3.1c0-15.5.2-26.5.7-32.9h-3.1a20.9 20.9 0 0 1-1.1 4.5 2.1 2.1 0 0 1-1.9 1.4 3.9 3.9 0 0 1-1.8-.4l-2.8-1.5a48.8 48.8 0 0 0-38.6-2.6 25.9 25.9 0 0 0-12.1 8.5c-3.1 3.8-4.6 8.6-4.6 14.2a24 24 0 0 0 3.1 12.4 35.2 35.2 0 0 0 7.9 9.3l4.3 3.4h44.6c-2.9-2.4-6.6-5.3-11.2-8.5zm88.9-37.1h.2c5.4 0 10.4 2.6 15.1 7.8s8.5 13.7 11.4 25.5h3.1c-.2-2.3-.4-5.5-.4-9.6 0-7.9.3-16.8 1-26.8-8.6.3-23.2.4-44 .4s-35.6-.1-44.2-.4c.6 10 1 18.9 1 26.8 0 4.1-.2 7.3-.4 9.6h3.1c2.9-11.9 6.8-20.4 11.4-25.6s9.7-7.7 15.2-7.7h.1v45.6h27.4zm116.7 37.8a23.1 23.1 0 0 0 7.6-17.3c0-8-3.4-13.9-10.1-17.7s-16.9-5.8-30.6-5.8l-9.4.2h-12.3c-10.4 0-18.1-.1-23.3-.4v2.7a17.4 17.4 0 0 1 6.3 1.1 4.3 4.3 0 0 1 2.6 3.1 26.1 26.1 0 0 1 .8 7.4v34.4h50.3c8.1-1.4 14.1-4 18.1-7.7zm-27.1 3.7c-2.5 2-5.9 2.9-10.3 2.9h-3.7v-33.2a33.6 33.6 0 0 1 .6-7.3 4.7 4.7 0 0 1 2.1-3.3 8.3 8.3 0 0 1 4.6-1c4.6 0 8 1.9 10 5.7s3 9.3 3 16.7a43.9 43.9 0 0 1-1.3 11.7 14.5 14.5 0 0 1-5 7.8zm124.3-20.9a73.6 73.6 0 0 1 .7-12.1 9.9 9.9 0 0 1 2.7-6 12.4 12.4 0 0 1 6.2-2.9v-2.7a109.6 109.6 0 0 1-11.2.4c-6.4 0-11.5-.1-15.1-.4v2.7c4.3.6 7.4 1.6 9.2 3a9.5 9.5 0 0 1 3.6 6.4 93.4 93.4 0 0 1 .8 14.3v22.3h3.1zm-43.6-9.4a26.1 26.1 0 0 1 .8-7.4 5 5 0 0 1 3.1-3.1 21.8 21.8 0 0 1 7.1-1.1v-2.7c-5.6.3-13.6.4-24.2.4s-18.7-.1-23.8-.4v2.7a17.4 17.4 0 0 1 6.3 1.1 4.6 4.6 0 0 1 2.6 3.1 26.4 26.4 0 0 1 .7 7.4v34.4h27.4zM408.2 468a41.3 41.3 0 0 0 17.8 16.8c7.6 3.9 16.5 5.8 26.7 5.8a42.2 42.2 0 0 0 9.9-1.1 38.6 38.6 0 0 0 7.7-3 84.6 84.6 0 0 0 7.4-4.6 5.6 5.6 0 0 1 2.8-1.2c.9 0 1.7.7 2.2 1.9a22.2 22.2 0 0 1 1.1 6.1h3.1q-.6-9.9-.6-35.1h-3.1a95 95 0 0 1-1.8 13.4 28.3 28.3 0 0 1-3.8 9.2 19.8 19.8 0 0 1-6.8 6.7 22.5 22.5 0 0 1-12.5 4c-6.5 0-11.6-2.2-15.4-6.8a39.9 39.9 0 0 1-7.8-17 102.1 102.1 0 0 1-2.2-21.2h-31.1c.1 10.1 2.2 18.8 6.4 26.1zm122.4 5.5c0 3.8-.4 6.5-1.2 8.2a5.7 5.7 0 0 1-4.1 3.4 38.1 38.1 0 0 1-9.7.9v2.7c12.2-.3 21.4-.4 27.8-.4s16.9.1 29.6.4V486a36.6 36.6 0 0 1-9.6-.9 5.7 5.7 0 0 1-4.2-3.4c-.8-1.7-1.2-4.4-1.2-8.2v-31.6h-27.4zm76.3.9a26.9 26.9 0 0 1-.7 7.4 4.3 4.3 0 0 1-2.6 3.1 17.4 17.4 0 0 1-6.3 1.1v2.7c5.1-.3 13.1-.4 24-.4s17.3.1 22.6.4V486a16.7 16.7 0 0 1-6.2-1.1 4.7 4.7 0 0 1-2.7-3.1 26.9 26.9 0 0 1-.7-7.4v-32.5h-27.4zm113.3-9.1c-1.8 7.2-4.4 12.8-7.7 16.8s-7.2 6.1-11.7 6.1-8.1-2-11.6-5.8-6.3-9.4-8.3-16.5a83.7 83.7 0 0 1-3.1-24h-28.4q0 15.2 6.3 26.1a42.4 42.4 0 0 0 17.8 16.8c7.7 3.9 16.6 5.8 26.8 5.8a54.2 54.2 0 0 0 26.4-6.3 44.9 44.9 0 0 0 18.1-17.8 52.3 52.3 0 0 0 6.5-24.6H723a96.8 96.8 0 0 1-2.8 23.4zm45.2-.3a73.6 73.6 0 0 1-.7 12.1 11.2 11.2 0 0 1-2.7 6 12.4 12.4 0 0 1-6.2 2.9v2.7a109.6 109.6 0 0 1 11.2-.4c6.5 0 11.5.1 15.1.4V486q-6.5-.9-9.3-3a9.8 9.8 0 0 1-3.5-6.4 93.4 93.4 0 0 1-.8-14.3v-20.4h-3.1zm69.2-13.5l-9.1-9.6h-40.1l42.9 46.8 5.1-.2 4.4.2v-46.8h-3.2z"/><path d="M423.9 442.2a101.6 101.6 0 0 1 2.2-21.9 39.9 39.9 0 0 1 7.8-17c3.8-4.6 8.9-6.9 15.4-6.9a22.7 22.7 0 0 1 12.5 4.1 21.5 21.5 0 0 1 6.8 6.6 31 31 0 0 1 3.8 8.7 80.4 80.4 0 0 1 1.8 12.1h3.1c0-16.2.2-27.4.6-33.8h-3.1c-.5 5.4-1.6 8.1-3.5 8.1a4.6 4.6 0 0 1-2.6-1.2 48.7 48.7 0 0 0-11.1-6.5 37.4 37.4 0 0 0-13.7-2.3c-10 0-18.8 2.1-26.5 6.3a46.9 46.9 0 0 0-18.1 17.8 53.2 53.2 0 0 0-6.5 26.4v.2h31.1zm125.1-45h.1c5.4 0 10.5 2.6 15.2 7.8s8.5 13.8 11.4 25.6h3.1a82.5 82.5 0 0 1-.4-9.7c0-7.9.3-16.8.9-26.8-8.5.3-23.2.4-43.9.4s-35.6-.1-44.2-.4c.6 10 .9 18.9.9 26.8a82.5 82.5 0 0 1-.4 9.7h3.1c3-11.9 6.8-20.5 11.5-25.6s9.7-7.8 15.2-7.8h.1v45.7H549zm76.3 11.2a32.8 32.8 0 0 1 .6-7.4 4.9 4.9 0 0 1 2.7-3.1 19.9 19.9 0 0 1 6.3-1.1v-2.7c-5.3.3-12.8.4-22.6.4s-18.9-.1-24-.4v2.7a19.7 19.7 0 0 1 6.2 1.1 4.9 4.9 0 0 1 2.7 3.1 26.9 26.9 0 0 1 .7 7.4v34.5h27.4zm43.5 33.8a102.1 102.1 0 0 1 2.7-24.7c1.8-7.2 4.4-12.8 7.7-16.8s7.3-6 11.7-6 8.1 1.9 11.6 5.8 6.3 9.3 8.4 16.5a91.1 91.1 0 0 1 3.1 24.7v1.2h28.3v-1.8c0-10.1-2.1-18.9-6.3-26.2a42.1 42.1 0 0 0-17.8-16.9c-7.7-3.9-16.6-5.8-26.8-5.8a54.2 54.2 0 0 0-26.4 6.3 46.2 46.2 0 0 0-18.1 17.8 53.2 53.2 0 0 0-6.5 26.4v.2h28.4zm90.7-17.8l16.9 18.5h40.1l-46.1-48.8c-3.3.3-7.5.4-12.4.4a109.6 109.6 0 0 1-11.2-.4v2.7a19.7 19.7 0 0 1 6.2 1.1 4.9 4.9 0 0 1 2.7 3.1 31.5 31.5 0 0 1 .7 7.4v34.5h3.1zm69.3-6.5a72.8 72.8 0 0 1 .7-12.1 10.8 10.8 0 0 1 2.6-6.1 12.4 12.4 0 0 1 6.2-2.9v-2.7a109.6 109.6 0 0 1-11.2.4c-6.4 0-11.4-.1-15.1-.4v2.7q6.6.9 9.3 3a10.1 10.1 0 0 1 3.5 6.5 92.5 92.5 0 0 1 .8 14.3v22.3h3.2z"/></symbol><symbol id="404" viewBox="0 0 239.5 98.2"><path d="M71.7 78.1V62.3h-13V48.5H38.5v13.8H12.7l10.1-13.8h-3L0 75.3v2.8h38.5V82a25.6 25.6 0 0 1-.8 7.4 5.4 5.4 0 0 1-3.1 3.2 24.9 24.9 0 0 1-7 1v2.7c4.4-.2 10.4-.4 18-.4 9.6 0 16.8.2 21.4.4v-2.7a15.1 15.1 0 0 1-5.4-1 4.9 4.9 0 0 1-2.3-3.2 32.2 32.2 0 0 1-.6-7.4v-3.9zm64.2-29.6c0 15.4-1.2 27.1-3.5 35.1s-5.9 12.2-10.5 12.2-8.5-4-11.1-11.9-3.9-19.6-3.9-35.1v-.3H81.2v.8c0 10.2 1.7 18.9 5 26.3a37.2 37.2 0 0 0 14 16.8 38.2 38.2 0 0 0 21.1 5.8 35.7 35.7 0 0 0 20.8-6.3 41.2 41.2 0 0 0 14.3-17.8c3.4-7.4 5.1-16 5.2-25.6zm103.6 29.6V62.3h-12.9V48.5h-20.3v13.8h-25.8l10.2-13.8h-3.1l-19.8 26.8v2.8h38.5V82a25.6 25.6 0 0 1-.8 7.4 5.6 5.6 0 0 1-3 3.2 26.4 26.4 0 0 1-7.1 1v2.7c4.4-.2 10.4-.4 18-.4 9.7 0 16.8.2 21.4.4v-2.7a15.1 15.1 0 0 1-5.4-1 4.5 4.5 0 0 1-2.2-3.2 32.2 32.2 0 0 1-.6-7.4v-3.9z"/><path d="M65.6 0L28.8 49.7h3.1l15.6-21.2v21.2h20.3V0zm100 22.6a38.3 38.3 0 0 0-14-16.8c-6-3.9-13.1-5.8-21.1-5.8a35.7 35.7 0 0 0-20.8 6.3 41.8 41.8 0 0 0-14.3 17.8 62.9 62.9 0 0 0-5.1 25.6h25.6c0-15.3 1.2-27 3.5-35.1s5.9-12.2 10.5-12.2 8.5 4 11.1 11.9 4 19.7 4 35.1v.3h25.6v-.8c0-10.1-1.6-18.9-5-26.3zM233.4 0l-36.7 49.7h3l15.7-21.2v21.2h20.2V0z"/></symbol></svg>