<svg id="Layer_1" data-name="Layer 1" xmlns="http://www.w3.org/2000/svg" width="538.1" height="210.1" viewBox="0 0 538.1 210.1"><title>quote</title><path d="M58.4,59.9h0Z" fill="#d9b0bc"/><path d="M97.8,90.2a24,24,0,0,1-7.5,7.5,38,38,0,0,1-11.7,4.1,115.3,115.3,0,0,1-22.8,1.9l-24.3-.5a73.8,73.8,0,0,0,7.7-2.7L46.1,98a31.5,31.5,0,0,1,5.6-1.2,52.5,52.5,0,0,0,25.1-6.7A44.3,44.3,0,0,0,93.9,72.7,51.6,51.6,0,0,0,100,48.1H72.2a98.5,98.5,0,0,1-2.7,24q-2.7,10.6-7.6,16.5T50.4,94.5q-6.2,0-11.4-5.7T30.8,72.6a87.2,87.2,0,0,1-3-24.2v-.3H0c0,.3,0,.5,0,.8Q0,62.6,5.3,72.9a40.8,40.8,0,0,0,15,16.3,52.4,52.4,0,0,0,22.8,7.3l-5.5,2.2L31.9,101a42.2,42.2,0,0,1-4.9,1.5,25.1,25.1,0,0,0-10.1-2.4,11.1,11.1,0,0,0-5.5,1.1,3.3,3.3,0,0,0-1.8,3,3.3,3.3,0,0,0,1.7,3,8.9,8.9,0,0,0,4.5,1A23.2,23.2,0,0,0,27,104.9a15.2,15.2,0,0,1,3.2.9l11.7,5.1a172.1,172.1,0,0,0,16.5,6.4,50.6,50.6,0,0,0,15.8,2.5,34.7,34.7,0,0,0,9.2-1.2,21.1,21.1,0,0,0,7.4-3.5,20.9,20.9,0,0,0,6.5-9.3,53.5,53.5,0,0,0,3.1-15Z" fill="#d9b0bc"/><path d="M284.1,48.1a98.5,98.5,0,0,1-2.7,24q-2.7,10.6-7.6,16.5t-11.5,5.9q-6.2,0-11.4-5.7t-8.2-16.2a87.2,87.2,0,0,1-3-24.2v-.3H212c0,.3,0,.5,0,.8q0,14.9,6.2,25.8a41,41,0,0,0,17.5,16.5q11.2,5.7,26.3,5.7a53.3,53.3,0,0,0,25.9-6.2,44.5,44.5,0,0,0,17.8-17.5,51.3,51.3,0,0,0,6.4-25.1Z" fill="#d9b0bc"/><path d="M380.4,91.5a6,6,0,0,1-4.1-3.4q-1.1-2.5-1.1-8.1V48.1H348.2V80q0,5.6-1.1,8.1a6,6,0,0,1-4.1,3.4,38.2,38.2,0,0,1-9.4.8V95l27.2-.4,29,.4V92.3A38.2,38.2,0,0,1,380.4,91.5Z" fill="#d9b0bc"/><path d="M486.8,72.7q0-7.4.4-12.2h-3q-2,11.2-6,18.3t-8.8,10.1a17.9,17.9,0,0,1-9.6,3h-4.4a16.8,16.8,0,0,1-5.2-.6,3.6,3.6,0,0,1-2.2-2.3,17.6,17.6,0,0,1-.6-5.5V49.1h1.4a16.8,16.8,0,0,1,8.7,2.3,18.6,18.6,0,0,1,6.4,6.3,24.3,24.3,0,0,1,3.3,9h3q-.8-12.8-.8-18.6H420.5V80.9a27.7,27.7,0,0,1-.7,7.2,4.6,4.6,0,0,1-2.6,3.1,18.5,18.5,0,0,1-6.2,1V95q15.4-.4,46.4-.4,21.3,0,30.3.4A221.9,221.9,0,0,1,486.8,72.7Z" fill="#d9b0bc"/><path d="M107.5,22.2A41,41,0,0,0,90,5.7Q78.8,0,63.8,0a53.2,53.2,0,0,0-26,6.2A44.6,44.6,0,0,0,20.1,23.7a51.4,51.4,0,0,0-6.4,25.1H41.5a98.5,98.5,0,0,1,2.7-24q2.7-10.6,7.6-16.5T63.3,2.4q6.2,0,11.4,5.7t8.2,16.2a87.4,87.4,0,0,1,3,24.2v.3h27.8c0-.3,0-.5,0-.8Q113.7,33,107.5,22.2Z" fill="#d9b0bc"/><path d="M319.5,22.2A41,41,0,0,0,302,5.7Q290.7,0,275.7,0a53.2,53.2,0,0,0-26,6.2,44.6,44.6,0,0,0-17.7,17.5,51.3,51.3,0,0,0-6.4,25.1h27.8a98.5,98.5,0,0,1,2.7-24q2.7-10.6,7.6-16.5t11.4-5.9q6.2,0,11.4,5.7t8.2,16.2a87.4,87.4,0,0,1,3,24.2v.3h27.8c0-.3,0-.5,0-.8Q325.7,33,319.5,22.2Z" fill="#d9b0bc"/><path d="M418.6,1.9q-12.5.4-43.1.4t-43.3-.4q.9,14.7.9,26.3a89.5,89.5,0,0,1-.4,9.5h3q4.4-17.5,11.2-25.1t14.9-7.6h.1V48.8h26.9V4.9h.1q8,0,14.8,7.7t11.2,25.1h3a89.5,89.5,0,0,1-.4-9.5Q417.7,16.6,418.6,1.9Z" fill="#d9b0bc"/><path d="M498.8,1.9q-8.2.4-27.7.4-31,0-46.4-.4V4.5a18.4,18.4,0,0,1,6.1,1,4.8,4.8,0,0,1,2.6,3.1,26.7,26.7,0,0,1,.7,7.2V48.8H483V42.6q0-5.1.5-12.9h-3a25.2,25.2,0,0,1-3.3,8.2,22.2,22.2,0,0,1-6.2,6.7,14.5,14.5,0,0,1-8.5,2.6H461V13.3a17.6,17.6,0,0,1,.6-5.5,3.6,3.6,0,0,1,2.2-2.3,16.8,16.8,0,0,1,5.2-.6h1.7a20.9,20.9,0,0,1,15.6,6.7q6.5,6.7,8.8,22.1h3a90,90,0,0,1-.4-9.6Q497.9,14.3,498.8,1.9Z" fill="#d9b0bc"/><path d="M222,171.6q-3.9-5.1-12.3-8.6t-21.5-4.1H148v35.3a27.8,27.8,0,0,1-.7,7.3,4.6,4.6,0,0,1-2.6,3.1,18.7,18.7,0,0,1-6.2,1v2.7q7.6-.4,23.2-.4l14.3.2,9.9.2q19.1,0,29.5-6.4t10.4-19.4A17.7,17.7,0,0,0,222,171.6Zm-38.3,33.6a13.7,13.7,0,0,1-5.6-.8,4.7,4.7,0,0,1-2.5-3.1,26.7,26.7,0,0,1-.7-7.1V160.5h1.9q11,0,16,5.5t5,15.9Q197.9,205.2,183.6,205.2Z" fill="#d9b0bc"/><path d="M329.8,158.9H301.8c0,.7,0,1.4,0,2a99.4,99.4,0,0,1-2.7,24.3q-2.7,10.6-7.6,16.6T280,207.7q-6.2,0-11.4-5.7t-8.3-16.3a87.9,87.9,0,0,1-3.1-24.3c0-.9,0-1.7,0-2.6H229.4c0,1-.1,2-.1,3.1q0,15,6.2,25.9a41.3,41.3,0,0,0,17.5,16.6q11.3,5.7,26.4,5.7a53.5,53.5,0,0,0,26.1-6.2,44.7,44.7,0,0,0,17.8-17.5q6.4-11.3,6.4-26Q329.8,159.6,329.8,158.9Z" fill="#d9b0bc"/><path d="M436.5,158.9H408.6c0,.7,0,1.4,0,2a99.1,99.1,0,0,1-2.7,24.3q-2.7,10.6-7.6,16.6t-11.5,5.9q-6.2,0-11.4-5.7t-8.3-16.3a87.9,87.9,0,0,1-3.1-24.3c0-.9,0-1.7,0-2.6H336.1c0,1-.1,2-.1,3.1q0,15,6.2,25.9a41.2,41.2,0,0,0,17.5,16.6q11.3,5.7,26.4,5.7a53.5,53.5,0,0,0,26.1-6.2,44.7,44.7,0,0,0,17.8-17.5q6.4-11.3,6.4-26Q436.5,159.6,436.5,158.9Z" fill="#d9b0bc"/><path d="M533.6,202.3a27.6,27.6,0,0,1-3.6-4.8l-23.2-38.6h-58v35.3a27.8,27.8,0,0,1-.7,7.3,4.7,4.7,0,0,1-2.6,3.1,18.7,18.7,0,0,1-6.2,1v2.7q7.6-.4,23.7-.4,14.4,0,22.2.4v-2.7a18.4,18.4,0,0,1-6.1-1,4.7,4.7,0,0,1-2.6-3.1,26.6,26.6,0,0,1-.7-7.3V161.1a5.9,5.9,0,0,1,3.1,1.5,22.6,22.6,0,0,1,3.2,4.4l19.3,32.6a8.6,8.6,0,0,1,1.4,3.4c0,.8-.6,1.4-1.7,1.8a26.2,26.2,0,0,1-5.9.7v2.7q9.2-.4,19-.4,12.7,0,24,.4v-2.7A18.2,18.2,0,0,1,533.6,202.3Z" fill="#d9b0bc"/><path d="M199,125.1q-4-4.7-12.1-7.3t-19.9-2.6H145.5q-15.3,0-22.9-.4v2.7a18.5,18.5,0,0,1,6.1,1,4.8,4.8,0,0,1,2.6,3.1,26.6,26.6,0,0,1,.7,7.3v30.7h40.2v-.2a48,48,0,0,0,17-5,28.8,28.8,0,0,0,10.4-8.7,17.3,17.3,0,0,0,3.4-9.9A16.4,16.4,0,0,0,199,125.1Zm-26.2,28.2q-2.8,5.9-10,5.9h-3.6V129.1a34.6,34.6,0,0,1,.5-7.1,5.1,5.1,0,0,1,2.1-3.3,8.9,8.9,0,0,1,4.6-.9q5,0,7.1,4.9t2.1,15Q175.6,147.5,172.7,153.3Z" fill="#d9b0bc"/><path d="M307.7,135.5a41.2,41.2,0,0,0-17.5-16.6q-11.3-5.7-26.4-5.7a53.5,53.5,0,0,0-26.1,6.2,44.8,44.8,0,0,0-17.8,17.5,50.8,50.8,0,0,0-6.3,22.9h27.9a96.3,96.3,0,0,1,2.7-21.8q2.7-10.6,7.6-16.6t11.5-5.9q6.2,0,11.4,5.7t8.3,16.3a85.5,85.5,0,0,1,3,22.3h27.9Q313.6,145.8,307.7,135.5Z" fill="#d9b0bc"/><path d="M414.4,135.5a41.3,41.3,0,0,0-17.5-16.6q-11.3-5.7-26.4-5.7a53.5,53.5,0,0,0-26.1,6.2,44.8,44.8,0,0,0-17.8,17.5,50.7,50.7,0,0,0-6.3,22.9h27.9a96.3,96.3,0,0,1,2.7-21.8q2.7-10.6,7.6-16.6t11.5-5.9q6.2,0,11.4,5.7t8.3,16.3a85.5,85.5,0,0,1,3,22.3h27.9Q420.3,145.8,414.4,135.5Z" fill="#d9b0bc"/><path d="M504.7,115.4q-11.4,0-22.5-.4v2.5a13.5,13.5,0,0,1,7.9,2.5,7.5,7.5,0,0,1,3.1,6.2q0,5.3-5.9,12l-4.5,5.1q-7.4,8.3-12.4,11.8a20.3,20.3,0,0,1-10.4,4v-30a27.8,27.8,0,0,1,.7-7.3,4.6,4.6,0,0,1,2.6-3.1,18.7,18.7,0,0,1,6.2-1V115q-7.8.4-22.2.4-16.1,0-23.7-.4v2.7a18.4,18.4,0,0,1,6.1,1,4.8,4.8,0,0,1,2.6,3.1,26.6,26.6,0,0,1,.7,7.3v30.7h58L483.2,147l13.1-14.8q10.2-11.5,21.8-14.6V115Q512.7,115.4,504.7,115.4Z" fill="#d9b0bc"/><path d="M182.1,48.4v8.8q0,16.4-5.2,25.2t-17.7,8.8a18.1,18.1,0,0,1-9.2-2.1,12.9,12.9,0,0,1-5.4-7.1q-1.8-5-1.8-13.5V48.4H116v7.7a108.5,108.5,0,0,0,.9,14.9,34.3,34.3,0,0,0,3.2,10.7,21.4,21.4,0,0,0,6.7,7.8q8.8,6.3,24.7,6.3,20.9,0,28.2-12.2,5.4-8.8,5.4-27.8V48.4Z" fill="#d9b0bc"/><path d="M198.6,2.4q-9.4,0-14.8-.4V4.6q6.4.9,9,2.9a9.6,9.6,0,0,1,3.5,6.2,88.2,88.2,0,0,1,.8,13.9V49.4h3V25.1a75.9,75.9,0,0,1,.7-11.8,10.5,10.5,0,0,1,2.6-5.9,12.3,12.3,0,0,1,6.1-2.8V2Q205.5,2.4,198.6,2.4ZM121.7,2V4.6a18.1,18.1,0,0,1,6.1,1,4.6,4.6,0,0,1,2.5,3,27.4,27.4,0,0,1,.7,7.2V49.4h26.7V15.9a23.4,23.4,0,0,1,.8-7.2,4.9,4.9,0,0,1,2.9-3.1,23.3,23.3,0,0,1,6.9-1V2q-8.1.4-23.5.4T121.7,2Z" fill="#d9b0bc"/></svg>