<svg id="Layer_1" data-name="Layer 1" xmlns="http://www.w3.org/2000/svg" width="420.4" height="91.8" viewBox="0 0 420.4 91.8"><title>mdna</title><path d="M37.7,0C30.2.2,21.2.4,10.8.4,6.2.4,2.6.2,0,0V2.6a18.2,18.2,0,0,1,6,1A5.1,5.1,0,0,1,8.6,6.7a28,28,0,0,1,.7,7.1V46h2.9V8.4L28.7,46H58.2ZM94.8.4H83.6L65.8,46h3.1L82.3,11.7V46h26.4V13.8a30.8,30.8,0,0,1,.6-7.2,4.9,4.9,0,0,1,2.6-3,18.2,18.2,0,0,1,6-1V0C112.5.2,104.9.4,94.8.4Z" fill="#d6162f"/><path d="M208.7,11.5C199.8,3.8,186.4,0,168.4,0L147.5.4h-4.6c-5.6,0-11.5-.1-17.8-.4V2.6a18.2,18.2,0,0,1,6,1,4.8,4.8,0,0,1,2.6,3.1,28,28,0,0,1,.7,7.1V46h26.3V13.5a24.4,24.4,0,0,1,.8-7,5.1,5.1,0,0,1,2.7-3.2,14,14,0,0,1,6.1-1c8.5,0,14.6,3.6,18.6,10.6s5.9,17.9,5.9,32.6V46H222V45C222,30.3,217.6,19.1,208.7,11.5Z" fill="#d6162f"/><path d="M252.4,0c-3.2.2-7.2.4-12,.4S232.2.2,229.6,0V2.6a19.3,19.3,0,0,1,6,1,5.1,5.1,0,0,1,2.6,3.1,28,28,0,0,1,.7,7.1V46h2.9V29.1L257.3,46h38.6Zm54.5.4c-6.1,0-11-.2-14.5-.4V2.6c4.2.6,7.2,1.5,8.9,2.9s2.9,3.4,3.4,6.2a85.3,85.3,0,0,1,.8,13.7V46h3V22.8a67.7,67.7,0,0,1,.7-11.6,10.8,10.8,0,0,1,2.5-5.8,12,12,0,0,1,6-2.8V0C315.1.2,311.5.4,306.9.4Z" fill="#d6162f"/><path d="M370.4,0c-1.9.2-4.1.2-6.8.2s-5,0-6.9-.2L338.8,46h3.1l9.2-23.9L359.8,46h28.4Z" fill="#d6162f"/><path d="M122.8,88.2a4.4,4.4,0,0,1-2.6-3,30.4,30.4,0,0,1-.6-7.1V45.8H93.2V78.1a24.2,24.2,0,0,1-.8,7.1,4.6,4.6,0,0,1-2.9,3,20.7,20.7,0,0,1-6.8,1v2.6c4.9-.2,12.6-.3,23-.3s17.7.1,23.1.3V89.2A15.9,15.9,0,0,1,122.8,88.2ZM73.1,55l-4-9.2H39.6L59.8,91.7h2l18-45.9H76.7ZM23.9,80.2a86.8,86.8,0,0,1-.8-13.8V45.8H20.2V69a78.9,78.9,0,0,1-.7,11.6,9.8,9.8,0,0,1-2.6,5.8,12,12,0,0,1-6,2.8v2.6q3.9-.3,10.8-.3c6.2,0,11.1.1,14.6.3V89.2c-4.2-.6-7.2-1.5-9-2.8A9.9,9.9,0,0,1,23.9,80.2Z" fill="#d6162f"/><path d="M205.7,45.8c-.1,14.4-2,25.3-5.7,32.6s-10,11.1-18.6,11.1a16.2,16.2,0,0,1-6.2-.9,4.9,4.9,0,0,1-2.8-3.3,23.4,23.4,0,0,1-.8-7V45.8H145.3V78.1a24.9,24.9,0,0,1-.7,7.1,4.3,4.3,0,0,1-2.5,3,17,17,0,0,1-6.1,1v2.6c5-.2,12.5-.3,22.7-.3h10.4l9,.2c11.4,0,21.2-1.9,29.4-5.8a41.7,41.7,0,0,0,18.9-16.4,45.3,45.3,0,0,0,6.5-23.8Z" fill="#d6162f"/><path d="M316.4,45.8V56l-9.6-10.2H268.2l42.1,46,4.9-.2,4.2.2v-46ZM253.5,80.2a86.8,86.8,0,0,1-.8-13.8V45.8h-2.9V69a78.9,78.9,0,0,1-.7,11.6c-.5,2.6-1.3,4.6-2.6,5.8a12,12,0,0,1-6,2.8v2.6q3.9-.3,10.8-.3c6.2,0,11.1.1,14.6.3V89.2c-4.2-.6-7.2-1.5-9-2.8A9.5,9.5,0,0,1,253.5,80.2Z" fill="#d6162f"/><path d="M416.4,87.1a18.4,18.4,0,0,1-3.7-6.2L399.1,45.8H370.7l3.1,8.6H349.5l3.3-8.6h-3.1L338.8,74c-2,5.2-4,8.9-5.9,11.2s-3.9,3.7-6.1,4v2.6c2.6-.2,6-.3,10.1-.3l17,.3V89.2c-3.9-.1-6.9-.8-8.8-2.1s-3-3.8-3-7.3,1.4-9.7,4.2-17l2.2-5.8h26.2l7.8,21.3a22.2,22.2,0,0,1,1.6,6.2,3.4,3.4,0,0,1-2.2,3.5c-1.4.7-3.7,1.1-7,1.2v2.6c4.7-.2,12-.3,21.8-.3s17.5.1,23.7.3V89.2C419.1,89.2,417.8,88.4,416.4,87.1Z" fill="#d6162f"/></svg>