<svg id="Layer_1" data-name="Layer 1" xmlns="http://www.w3.org/2000/svg" width="592.4" height="211.6" viewBox="0 0 592.4 211.6"><title>branding</title><path d="M146.7,46.5a20.9,20.9,0,0,0,4.5-.4H143v.4Z" fill="none"/><path d="M48.7,87.5a4.5,4.5,0,0,0,2.5,3.1,13.3,13.3,0,0,0,5.6.9c9.6,0,14.5-7.9,14.5-23.7,0-7.1-1.7-12.4-5.2-16.1s-8.8-5.6-16.2-5.6H48V80.3A26.2,26.2,0,0,0,48.7,87.5Z" fill="none"/><path d="M273.6,202.9a5.5,5.5,0,0,0,2.9,3.4,17.4,17.4,0,0,0,6.4.9c9,0,15.4-3.8,19.4-11.5s5.9-19.1,5.9-34.3v-.2H272.8v34.4A25.8,25.8,0,0,0,273.6,202.9Z" fill="none"/><path d="M66.1,51.7c3.5,3.7,5.2,9,5.2,16.1,0,15.8-4.9,23.7-14.5,23.7a13.3,13.3,0,0,1-5.6-.9,4.5,4.5,0,0,1-2.5-3.1,26.2,26.2,0,0,1-.7-7.2V46.1H20.6V80.3a26.9,26.9,0,0,1-.7,7.4,4.3,4.3,0,0,1-2.6,3.1A19.9,19.9,0,0,1,11,91.9v2.7c5.2-.3,13-.4,23.5-.4l14.5.2,10.1.2C72,94.6,82,92.4,89,88.1S99.6,77.2,99.6,68.4a17.8,17.8,0,0,0-3.9-11c-2.6-3.5-6.8-6.4-12.5-8.7a49.9,49.9,0,0,0-8.5-2.6H49.9C57.3,46.1,62.7,48,66.1,51.7Z"/><path d="M245.7,55.7H220.5l3.7-9.6h-3.3l-11.6,30c-2.1,5.3-4.1,9.2-6.1,11.6l-.8.9-1.2-1.2a5.4,5.4,0,0,1-4.1,1.8,4.4,4.4,0,0,1-3.7-1.9q-1.3-2-2.4-6.9l-2.8-14a17.7,17.7,0,0,0-8.7-12.6c-4.7-2.8-11.6-4.5-20.8-5,0,0,1.1-1.4,5-2.7H151.2a20.9,20.9,0,0,1-4.5.4H143v-.4H115.7V80.3a26.9,26.9,0,0,1-.7,7.4,4.6,4.6,0,0,1-2.6,3.1,19.9,19.9,0,0,1-6.3,1.1v2.7c5.1-.3,13.1-.4,24-.4s17.3.1,22.6.4V91.9a19.9,19.9,0,0,1-6.3-1.1,4.6,4.6,0,0,1-2.6-3.1,26.1,26.1,0,0,1-.8-7.4V49.2h6.2c3.1,0,5.5,1.6,7,4.9s2.8,8,3.7,14.3L162,81.9c.8,5.3,2.9,9,6.3,11.3s8.3,3.3,14.5,3.3a34.9,34.9,0,0,0,11.3-1.7l2.8-1.1v.9a98.7,98.7,0,0,1,10.4-.4c5.1,0,11,.1,17.7.4V91.9c-4.1-.2-7.1-.9-9.2-2.3s-3-3.9-3-7.5,1.4-10.1,4.3-17.6l2.3-6.1h27.3l8,22.1a21.6,21.6,0,0,1,1.7,6.4,3.8,3.8,0,0,1-2.3,3.7c-1.4.7-3.9,1.1-7.2,1.3v2.7c4.8-.3,12.4-.4,22.6-.4s18.1.1,24.6.4V91.9a6.7,6.7,0,0,1-4.1-2.2,20.2,20.2,0,0,1-3.9-6.5L271.7,46.1H242.3Z"/><path d="M307,70.8a72.8,72.8,0,0,1-.7,12.1,10.2,10.2,0,0,1-2.7,6.1,12.4,12.4,0,0,1-6.2,2.9v2.7a110.9,110.9,0,0,1,11.2-.4c6.5,0,11.6.1,15.2.4V91.9q-6.6-.9-9.3-3a9.5,9.5,0,0,1-3.6-6.4,94,94,0,0,1-.8-14.4v-22H307Z"/><path d="M376.2,57.3,365.6,46.1h-40l44.3,48.5a45.2,45.2,0,0,1,5.1-.2,30.3,30.3,0,0,1,4.4.2V46.1h-3.2Z"/><path d="M308.2,161.4c0,15.2-2,26.6-5.9,34.3s-10.4,11.5-19.4,11.5a17.4,17.4,0,0,1-6.4-.9,5.5,5.5,0,0,1-2.9-3.4,25.8,25.8,0,0,1-.8-7.3V161.2H245.4v34.2a26.9,26.9,0,0,1-.7,7.4,4.5,4.5,0,0,1-2.6,3.1,19.9,19.9,0,0,1-6.3,1.1v2.7c5.2-.3,13-.4,23.5-.4,2.3,0,5.9,0,10.9.2l9.4.2c11.8,0,22-2,30.5-6.1a44.3,44.3,0,0,0,19.6-17,47.3,47.3,0,0,0,6.8-25.4H308.2Z"/><path d="M353.7,195.4a26.9,26.9,0,0,1-.7,7.4,4.5,4.5,0,0,1-2.6,3.1,19.9,19.9,0,0,1-6.3,1.1v2.7c5.2-.3,13.2-.4,24.1-.4s17.2.1,22.5.4V207a19.7,19.7,0,0,1-6.2-1.1,4.9,4.9,0,0,1-2.7-3.1,26.9,26.9,0,0,1-.7-7.4V161.2H353.7Z"/><path d="M477.3,172.4l-10.6-11.2h-40L471,209.7a45.2,45.2,0,0,1,5.1-.2,30.3,30.3,0,0,1,4.4.2V161.2h-3.2Z"/><path d="M408.1,185.9a72.8,72.8,0,0,1-.7,12.1,10.2,10.2,0,0,1-2.7,6.1,12.4,12.4,0,0,1-6.2,2.9v2.7a110.9,110.9,0,0,1,11.2-.4c6.5,0,11.6.1,15.2.4V207q-6.6-.9-9.3-3a9.8,9.8,0,0,1-3.6-6.5,92.5,92.5,0,0,1-.8-14.3v-22h-3.1Z"/><path d="M497.2,162.7q0,15.5,5.7,26.4a38.1,38.1,0,0,0,17,16.7c7.6,3.9,16.9,5.8,28.1,5.8,6.2,0,13.8-2.2,22.8-6.5,4.2-2.1,7.3-3.1,9.2-3.1s2.2.8,3,2.4a15.2,15.2,0,0,1,1.2,5.3h2.7V182.9a44.7,44.7,0,0,1,.4-7.4,5,5,0,0,1,1.5-3.1,7.7,7.7,0,0,1,3.6-1.1v-2.7c-4.3.3-11.2.5-20.8.5-11.5,0-20.1-.2-25.8-.5v2.7a27.5,27.5,0,0,1,8.8,1.5,6.6,6.6,0,0,1,3.8,4.3,33.6,33.6,0,0,1,1.1,9.9v13.5c0,3.2-1,5.4-2.9,6.7a11.5,11.5,0,0,1-6.6,1.7c-6.8,0-12.1-3.9-15.9-11.6s-5.8-19.5-5.8-35.2v-.9h-31C497.3,161.7,497.2,162.2,497.2,162.7Z"/><path d="M271.8,117.5a16.5,16.5,0,0,0-6.3,1,5.2,5.2,0,0,0-2.9,3.4,22.2,22.2,0,0,0-.8,7.2v33.1h35.4c0-15.2-2.1-26.4-6.1-33.7S280.5,117.5,271.8,117.5Z" fill="none"/><path d="M50.9,38.9c1.9-4,2.8-9.4,2.8-16.1S53,10.9,51.5,7.6a7.4,7.4,0,0,0-7.2-4.9,8.6,8.6,0,0,0-4.7,1,5,5,0,0,0-2.1,3.4,41.3,41.3,0,0,0-.5,7.2V44.8h3.7C45.5,44.8,48.9,42.8,50.9,38.9Z" fill="none"/><path d="M151,36.8a43.9,43.9,0,0,0,1.3-11.7c0-7.4-1-12.9-3-16.7s-5.3-5.7-9.9-5.7a8.4,8.4,0,0,0-4.7,1,5,5,0,0,0-2.1,3.4,32,32,0,0,0-.6,7.2V47.1h8.2a13.3,13.3,0,0,0,5.8-2.5A14.5,14.5,0,0,0,151,36.8Z" fill="none"/><path d="M38.9,47.1H63.7a85,85,0,0,0-13.3-1.6v-.3a49.1,49.1,0,0,0,17.2-5,29.3,29.3,0,0,0,10.5-8.8,17.7,17.7,0,0,0,3.4-10,16.7,16.7,0,0,0-4-11.2c-2.8-3.1-6.9-5.6-12.3-7.4S53,.1,45,.1L35.6.3H23.3C12.9.4,5.1.3,0,0V2.7A16.7,16.7,0,0,1,6.2,3.8,4.7,4.7,0,0,1,8.9,6.9a26.9,26.9,0,0,1,.7,7.4V47.1H38.9ZM37,14.3a41.3,41.3,0,0,1,.5-7.2,5,5,0,0,1,2.1-3.4,8.6,8.6,0,0,1,4.7-1,7.4,7.4,0,0,1,7.2,4.9c1.5,3.3,2.2,8.4,2.2,15.2s-.9,12.1-2.8,16.1-5.4,5.9-10.2,5.9H37Z"/><path d="M132,14a32,32,0,0,1,.6-7.2,5.3,5.3,0,0,1,2.1-3.4,8.4,8.4,0,0,1,4.7-1q6.9,0,9.9,5.7c2,3.8,3,9.4,3,16.7A45.2,45.2,0,0,1,151,36.6a14.7,14.7,0,0,1-5,7.7,13.4,13.4,0,0,1-5.8,2.6h21.4c4.9-1.6,8.7-3.6,11.5-6.3a22.6,22.6,0,0,0,7.6-17.3c0-7.9-3.4-13.8-10.1-17.7S153.7-.1,140-.1H118.3C108,.1,100.2,0,95.1-.3V2.4a19.7,19.7,0,0,1,6.2,1.1A4.9,4.9,0,0,1,104,6.6a31.5,31.5,0,0,1,.7,7.4V46.9H132Z"/><path d="M222.5,22.9l8.8,24.2h29.4L242.4,0a66.7,66.7,0,0,1-7,.3,70.2,70.2,0,0,1-7.1-.3L209.9,47.1h3.3Z"/><path d="M368.4,23.7a73.6,73.6,0,0,1,.7-12.1,10.5,10.5,0,0,1,2.6-6,12.8,12.8,0,0,1,6.2-2.9V0a108.4,108.4,0,0,1-11.2.4c-6.4,0-11.4-.1-15.1-.4V2.7q6.6.9,9.3,3a9.8,9.8,0,0,1,3.5,6.4c.6,2.9.8,7.7.8,14.3V47.1h3.2Z"/><path d="M299.1,30.3l15.5,16.8h40L310,0c-3.3.3-7.4.4-12.4.4A109.6,109.6,0,0,1,286.4,0V2.7a17.2,17.2,0,0,1,6.2,1.1,4.7,4.7,0,0,1,2.7,3.1,26.9,26.9,0,0,1,.7,7.4V47.1h3.1Z"/><path d="M261.8,129.1a22.2,22.2,0,0,1,.8-7.2,5.2,5.2,0,0,1,2.9-3.4,16.5,16.5,0,0,1,6.3-1c8.7,0,15.2,3.7,19.3,11s6.1,18.5,6.1,33.7h28.3v-.4q0-22.8-13.8-34.8c-9.3-7.9-23.3-11.9-41.9-11.9l-21.7.4h-4.8c-5.8,0-11.9-.2-18.5-.5v2.7a19.7,19.7,0,0,1,6.2,1,5.1,5.1,0,0,1,2.7,3.2,26.9,26.9,0,0,1,.7,7.4v32.8h27.4Z"/><path d="M370.1,129.4a26.9,26.9,0,0,1,.7-7.4,4.7,4.7,0,0,1,2.6-3.2,20.5,20.5,0,0,1,6.3-1v-2.7c-5.3.3-12.8.4-22.5.4s-19-.1-24.1-.4v2.7a19.7,19.7,0,0,1,6.2,1A5.1,5.1,0,0,1,342,122a26.9,26.9,0,0,1,.7,7.4v32.8h27.4Z"/><path d="M469.5,138.8a73.6,73.6,0,0,1,.7-12.1,9.9,9.9,0,0,1,2.7-6,12,12,0,0,1,6.1-2.9v-2.7a108.4,108.4,0,0,1-11.2.4c-6.4,0-11.4-.1-15.1-.4v2.7q6.6.9,9.3,3a9.8,9.8,0,0,1,3.5,6.4c.6,2.9.8,7.7.8,14.3v20.7h3.2Z"/><path d="M400.2,145.3l15.5,16.9h40l-44.5-47.1c-3.4.3-7.5.4-12.5.4a109.6,109.6,0,0,1-11.2-.4v2.7a20.3,20.3,0,0,1,6.2,1,5.1,5.1,0,0,1,2.7,3.2,26.9,26.9,0,0,1,.7,7.4v32.8h3.1Z"/><path d="M519.8,141.4a40.3,40.3,0,0,1,8.5-17.2,20,20,0,0,1,15.7-6.8,27.6,27.6,0,0,1,7.4,1.1,21.4,21.4,0,0,1,6.5,2.9,27.4,27.4,0,0,1,6.8,6.8,30.9,30.9,0,0,1,3.7,8.7,67.4,67.4,0,0,1,1.9,11.9h3.1c0-16.1.2-27.3.6-33.7h-3.1a26.9,26.9,0,0,1-1.2,6.2c-.5,1.3-1.3,1.9-2.2,1.9a3.8,3.8,0,0,1-2.7-1.3,39.5,39.5,0,0,0-26.2-8.7,57.4,57.4,0,0,0-27.2,6.3,46,46,0,0,0-18.5,17.8,51.3,51.3,0,0,0-6.6,24.9h31A94.7,94.7,0,0,1,519.8,141.4Z"/></svg>