<svg id="Layer_1" data-name="Layer 1" xmlns="http://www.w3.org/2000/svg" width="703.1" height="209.9" viewBox="0 0 703.1 209.9"><title>illustration</title><path d="M139.4,90.8a4.8,4.8,0,0,1-2.6-3.2,25.3,25.3,0,0,1-.8-7.3V46.5H108.7V80.3a26.1,26.1,0,0,1-.7,7.3,4.8,4.8,0,0,1-2.6,3.2,19.9,19.9,0,0,1-6.3,1.1v2.7c5.1-.3,13.1-.4,24-.4s17.3.1,22.6.4V91.9A19.9,19.9,0,0,1,139.4,90.8Z"/><path d="M228.4,70.5c0-5,.1-9.2.4-12.4h-3.1a50.5,50.5,0,0,1-5.9,16.1,46.2,46.2,0,0,1-10,12.5c-3.7,3.2-7.1,4.8-10.3,4.8h-4.4a12.1,12.1,0,0,1-4.5-.6,3.4,3.4,0,0,1-1.9-2.4,18.1,18.1,0,0,1-.6-5.5V46.5H160.8V80.3a30.6,30.6,0,0,1-.7,7.3,5,5,0,0,1-2.6,3.2,19.9,19.9,0,0,1-6.3,1.1v2.7c10.4-.3,26.2-.4,47.2-.4,14.5,0,24.8.1,30.9.4C228.7,88.3,228.4,80.3,228.4,70.5Z"/><path d="M311.6,70.5c0-5,.1-9.2.4-12.4h-3.1a48.4,48.4,0,0,1-6,16.1,42.7,42.7,0,0,1-10,12.5q-5.5,4.8-10.2,4.8h-4.5a12.4,12.4,0,0,1-4.5-.6,3.7,3.7,0,0,1-1.9-2.4,23.2,23.2,0,0,1-.5-5.5V46.5H243.9V80.3a26.1,26.1,0,0,1-.7,7.3,4.5,4.5,0,0,1-2.6,3.2,19.9,19.9,0,0,1-6.3,1.1v2.7c10.5-.3,26.2-.4,47.3-.4,14.5,0,24.8.1,30.9.4C311.9,88.3,311.6,80.3,311.6,70.5Z"/><path d="M389.7,46.5V56.8c0,11.2-1.8,19.8-5.4,25.9s-9.6,9-18.2,9a19.1,19.1,0,0,1-9.5-2.1,13.6,13.6,0,0,1-5.5-7.3c-1.3-3.4-1.9-8.1-1.9-13.9V46.5H321.8v9.2a110.4,110.4,0,0,0,.9,15.3A36.3,36.3,0,0,0,326,82a22.9,22.9,0,0,0,6.9,8c6,4.3,14.5,6.5,25.4,6.5,14.3,0,24-4.2,29-12.6,3.7-6,5.5-15.6,5.5-28.6V46.5Z"/><path d="M113.1.4C102.2.4,94.2.3,89.1,0V2.7a17.2,17.2,0,0,1,6.2,1.1A4.7,4.7,0,0,1,98,6.9a31.5,31.5,0,0,1,.7,7.4V47.8H126V14.3a31.5,31.5,0,0,1,.7-7.4,4.7,4.7,0,0,1,2.7-3.1,17.4,17.4,0,0,1,6.3-1.1V0C130.4.3,122.9.4,113.1.4Z"/><path d="M165.2.4C154.3.4,146.3.3,141.1,0V2.7a17.4,17.4,0,0,1,6.3,1.1A4.3,4.3,0,0,1,150,6.9a26.1,26.1,0,0,1,.8,7.4V47.8h27.3V14.3a22.3,22.3,0,0,1,.9-7.4,4.7,4.7,0,0,1,3-3.1,21.8,21.8,0,0,1,7.1-1.1V0C183.5.3,175.6.4,165.2.4Z"/><path d="M248.4.4c-10.9,0-19-.1-24.1-.4V2.7a16.7,16.7,0,0,1,6.2,1.1,4.7,4.7,0,0,1,2.7,3.1,26.9,26.9,0,0,1,.7,7.4V47.8h27.4V14.3a26.1,26.1,0,0,1,.8-7.4,5.1,5.1,0,0,1,3-3.1,22.3,22.3,0,0,1,7.1-1.1V0C266.7.3,258.7.4,248.4.4Z"/><path d="M381.2.4c-6.4,0-11.5-.1-15.1-.4V2.7c4.3.6,7.4,1.6,9.2,3a9.5,9.5,0,0,1,3.6,6.4,93.4,93.4,0,0,1,.8,14.3V47.8h3.1V23.7a73.6,73.6,0,0,1,.7-12.1,9.9,9.9,0,0,1,2.7-6,12.4,12.4,0,0,1,6.2-2.9V0A109.6,109.6,0,0,1,381.2.4ZM326,.4C315.2.4,307.3.3,302.2,0V2.7a17.4,17.4,0,0,1,6.3,1.1,4.6,4.6,0,0,1,2.6,3.1,26.4,26.4,0,0,1,.7,7.4V47.8h27.4V14.3a26.1,26.1,0,0,1,.8-7.4,5,5,0,0,1,3.1-3.1,21.8,21.8,0,0,1,7.1-1.1V0C344.6.3,336.6.4,326,.4Z"/><path d="M77.8,171a34.1,34.1,0,0,0-7.2-9.2L68.5,160H23.7c2.8,2.1,6.3,4.6,10.3,7.3a101.3,101.3,0,0,1,10.8,8,28.2,28.2,0,0,1,6.5,7.8,19,19,0,0,1,2.4,9.6c0,4.1-1.4,7.3-4.3,9.6s-6.9,3.5-11.9,3.5c-8.1,0-14-3.3-17.9-10s-6.1-15.3-6.6-26H9.9c0,19.2-.2,32.3-.6,39.1h3.1a18.2,18.2,0,0,1,1.1-4.5,2.1,2.1,0,0,1,1.9-1.4c1,0,2.5.6,4.6,1.9a46.7,46.7,0,0,0,10.1,3.7,59.3,59.3,0,0,0,13.8,1.3A56.5,56.5,0,0,0,62.4,207a30.3,30.3,0,0,0,13.3-9,22.8,22.8,0,0,0,4.9-14.8A25.3,25.3,0,0,0,77.8,171Z"/><path d="M151.7,204.5a6,6,0,0,1-4.2-3.5c-.8-1.7-1.2-4.4-1.2-8.2V160H118.9v32.8c0,3.8-.4,6.5-1.2,8.2a6.1,6.1,0,0,1-4.1,3.5,44.7,44.7,0,0,1-9.7.8V208l27.8-.4,29.6.4v-2.7A43,43,0,0,1,151.7,204.5Z"/><path d="M278.7,200.8a5.4,5.4,0,0,1-4.1,1.8,4.2,4.2,0,0,1-3.7-1.9q-1.3-1.9-2.4-6.9l-2.8-14a18.1,18.1,0,0,0-8.7-12.6c-4.7-2.8-11.6-4.5-20.8-5a82,82,0,0,0,12.6-2.2H193.2v33.7a26.4,26.4,0,0,1-.7,7.4,5,5,0,0,1-2.6,3.2,20.5,20.5,0,0,1-6.3,1V208c5.1-.2,13.1-.4,24-.4s17.3.2,22.6.4v-2.7a20.5,20.5,0,0,1-6.3-1,5,5,0,0,1-2.6-3.2,25.6,25.6,0,0,1-.8-7.4v-31h6.2c3.1,0,5.5,1.6,7,4.8s2.8,8,3.7,14.3l2.1,13.5c.8,5.3,2.9,9.1,6.3,11.3s8.3,3.3,14.5,3.3a35,35,0,0,0,11.3-1.6,22.6,22.6,0,0,0,8.9-5.7Z"/><path d="M374.9,203.1a18,18,0,0,1-3.8-6.4L356.8,160H327.3l3.4,9.1H305.4l3.5-9.1h-3.2l-11.5,29.5a42.6,42.6,0,0,1-6.1,11.7c-2,2.4-4.1,3.8-6.3,4.1V208c2.7-.2,6.2-.4,10.4-.4s11,.2,17.7.4v-2.7c-4-.1-7.1-.9-9.1-2.2s-3.1-3.9-3.1-7.6,1.5-10,4.4-17.6l2.3-6.1h27.2l8,22.2a20.9,20.9,0,0,1,1.7,6.4,3.9,3.9,0,0,1-2.2,3.7c-1.5.7-3.9,1.1-7.3,1.2V208c4.8-.2,12.4-.4,22.7-.4s18,.2,24.6.4v-2.7A6.7,6.7,0,0,1,374.9,203.1Z"/><path d="M434.1,204.5a6.5,6.5,0,0,1-4.2-3.5c-.7-1.7-1.1-4.4-1.1-8.2V160H401.4v32.8c0,3.8-.4,6.5-1.2,8.2a6.5,6.5,0,0,1-4.2,3.5,43,43,0,0,1-9.6.8V208l27.7-.4,29.6.4v-2.7A43,43,0,0,1,434.1,204.5Z"/><path d="M506.4,204.3a5.1,5.1,0,0,1-2.7-3.2,26.4,26.4,0,0,1-.7-7.4V160H475.6v33.7a32.2,32.2,0,0,1-.6,7.4,5.1,5.1,0,0,1-2.7,3.2,20.5,20.5,0,0,1-6.3,1V208c5.2-.2,13.2-.4,24.1-.4s17.3.2,22.5.4v-2.7A20.3,20.3,0,0,1,506.4,204.3Z"/><path d="M591,160a102.6,102.6,0,0,1-2.7,24.7c-1.8,7.1-4.4,12.7-7.7,16.8s-7.3,6-11.7,6-8.1-1.9-11.6-5.8-6.3-9.4-8.4-16.5a92.1,92.1,0,0,1-3.1-24.7V160H517.5v1c0,10.2,2.1,18.9,6.3,26.3a41.8,41.8,0,0,0,17.8,16.8c7.7,3.9,16.6,5.8,26.8,5.8a54.2,54.2,0,0,0,26.4-6.3,44.9,44.9,0,0,0,18.1-17.8,53.1,53.1,0,0,0,6.5-25.8Z"/><path d="M700,160v10.8L689.8,160H649.7l43.9,48,5.1-.2,4.4.2V160Zm-61.8,42.3a9.8,9.8,0,0,1-3.5-6.4c-.6-2.9-.8-7.7-.8-14.3V160h-3.1v24.3a85.9,85.9,0,0,1-.7,12.1,11.2,11.2,0,0,1-2.7,6,13.2,13.2,0,0,1-6.3,2.9V208c2.8-.2,6.5-.4,11.2-.4,6.5,0,11.6.2,15.2.4v-2.7Q641.1,204.4,638.2,202.3Z"/><path d="M62.9,112.8a16.3,16.3,0,0,1-1.1,4.5,2,2,0,0,1-1.9,1.4,4.2,4.2,0,0,1-1.8-.4l-2.8-1.5a47.4,47.4,0,0,0-9.3-4,47.6,47.6,0,0,0-12.6-1.4,50,50,0,0,0-16.7,2.7,26.8,26.8,0,0,0-12.1,8.6C1.5,126.5,0,131.3,0,136.9a23.7,23.7,0,0,0,3.1,12.3,35.9,35.9,0,0,0,7.9,9.4l3.1,2.5H58.8c-2.7-2.3-6.1-4.8-10.1-7.6-7.5-5.2-12.6-8.9-15.3-10.9a29.2,29.2,0,0,1-6.2-6.6,15.5,15.5,0,0,1-2.3-8.4c0-4,1.3-7,3.8-9.2a14.9,14.9,0,0,1,10-3.3,17.6,17.6,0,0,1,11.9,4.4A30.6,30.6,0,0,1,58.7,131a43.9,43.9,0,0,1,3.5,14.7h3.1c0-15.5.2-26.5.7-32.9Z"/><path d="M166.6,113.3c-8.5.3-23.1.4-43.9.4s-35.6-.1-44.2-.4c.6,10,.9,18.9.9,26.8a80.6,80.6,0,0,1-.4,9.6h3.1c3-11.9,6.8-20.4,11.5-25.6s9.7-7.7,15.2-7.7h.1v44.7h27.4V116.4h.1c5.5,0,10.5,2.6,15.2,7.8s8.5,13.7,11.4,25.5h3.1c-.2-2.3-.4-5.5-.4-9.6C165.7,132.2,166,123.3,166.6,113.3Z"/><path d="M249.1,119.2c-6.7-3.9-16.9-5.8-30.6-5.8l-9.3.2H196.8c-10.3,0-18.1-.1-23.2-.4V116a20.3,20.3,0,0,1,6.2,1,5.1,5.1,0,0,1,2.7,3.2,30.9,30.9,0,0,1,.7,7.4v33.5h54.6q9-2.4,13.8-6.9a22.8,22.8,0,0,0,7.6-17.3C259.2,128.9,255.8,123,249.1,119.2Zm-19.6,30.9a14.5,14.5,0,0,1-5,7.8c-2.5,1.9-5.9,2.9-10.3,2.9h-3.7V127.6a33.6,33.6,0,0,1,.6-7.3,5.6,5.6,0,0,1,2.1-3.4,9.5,9.5,0,0,1,4.7-.9q6.9,0,9.9,5.7c2,3.7,3,9.3,3,16.7A43.9,43.9,0,0,1,229.5,150.1Z"/><path d="M328.4,113.3a84.2,84.2,0,0,1-14.2,0l-18.6,47.8h3.2l9.6-24.9,9,24.9h29.5Z"/><path d="M449.1,113.3c-8.5.3-23.2.4-44,.4s-35.6-.1-44.1-.4c.6,10,.9,18.9.9,26.8a80.6,80.6,0,0,1-.4,9.6h3.1c3-11.9,6.8-20.4,11.4-25.6s9.7-7.7,15.2-7.7h.2v44.7h27.4V116.4h.1c5.4,0,10.5,2.6,15.1,7.8s8.5,13.7,11.5,25.5h3.1a80.6,80.6,0,0,1-.4-9.6C448.2,132.2,448.5,123.3,449.1,113.3Z"/><path d="M480.1,113.7c-10.9,0-18.9-.1-24.1-.4V116a19.7,19.7,0,0,1,6.2,1,5.1,5.1,0,0,1,2.7,3.2,26.4,26.4,0,0,1,.7,7.4v33.5H493V127.6a26.4,26.4,0,0,1,.7-7.4,5,5,0,0,1,2.6-3.2,20.5,20.5,0,0,1,6.3-1v-2.7C497.4,113.6,489.8,113.7,480.1,113.7Z"/><path d="M603.1,134a42.4,42.4,0,0,0-17.8-16.8c-7.7-3.9-16.6-5.8-26.8-5.8a54.9,54.9,0,0,0-26.5,6.3,45.3,45.3,0,0,0-18,17.8,52.3,52.3,0,0,0-6.5,25.6h28.3a99.2,99.2,0,0,1,2.8-24.4c1.8-7.2,4.4-12.8,7.7-16.9s7.2-6,11.7-6,8.1,1.9,11.6,5.8,6.3,9.4,8.3,16.5a88.3,88.3,0,0,1,3.1,24.7v.3h28.4v-.8C609.4,150.1,607.3,141.4,603.1,134Z"/><path d="M634.8,113.3c-3.3.3-7.5.4-12.5.4s-8.4-.1-11.2-.4V116a20.5,20.5,0,0,1,6.3,1,4.7,4.7,0,0,1,2.6,3.2,25.6,25.6,0,0,1,.8,7.4v33.5h3.1V143.5l16,17.6H680Zm56.7.4c-6.4,0-11.5-.1-15.1-.4V116q6.5.9,9.3,3a9.8,9.8,0,0,1,3.5,6.4,93.4,93.4,0,0,1,.8,14.3v21.4h3.1V137a87,87,0,0,1,.7-12.1,11.2,11.2,0,0,1,2.7-6,12.4,12.4,0,0,1,6.2-2.9v-2.7A109.6,109.6,0,0,1,691.5,113.7Z"/></svg>