<svg id="Layer_1" data-name="Layer 1" xmlns="http://www.w3.org/2000/svg" width="792" height="216" viewBox="0 0 792 216"><title>motion</title><path d="M74.4,173.5c-11.5,0-20.2-.2-25.8-.5v2.7a27.5,27.5,0,0,1,8.8,1.5,6.6,6.6,0,0,1,3.8,4.3c.7,2.1,1,5.4,1,9.9v13.5c0,3.2-.9,5.4-2.8,6.7a11.6,11.6,0,0,1-6.7,1.7c-6.7,0-12-3.9-15.9-11.6s-5.7-19.5-5.7-35.2v-.2H0v.8q0,15.5,5.7,26.4a37.2,37.2,0,0,0,17,16.7c7.5,3.9,16.9,5.8,28.1,5.8,6.2,0,13.8-2.2,22.8-6.5,4.2-2.1,7.2-3.1,9.1-3.1s2.3.8,3,2.4a11.8,11.8,0,0,1,1.2,5.3h2.8V187.3a44.7,44.7,0,0,1,.4-7.4,5,5,0,0,1,1.5-3.1,6.9,6.9,0,0,1,3.6-1.1V173C90.9,173.3,83.9,173.5,74.4,173.5Z"/><path d="M197.3,208.1l-1.2-1.2a5.4,5.4,0,0,1-4.1,1.8,4.6,4.6,0,0,1-3.8-1.9c-.9-1.3-1.6-3.6-2.3-6.9l-2.8-14a18,18,0,0,0-8.7-12.6c-4.7-2.8-11.7-4.5-20.9-5a83.3,83.3,0,0,0,11.7-2H110.6v33.5a30.6,30.6,0,0,1-.7,7.3,4.9,4.9,0,0,1-2.7,3.2,19.9,19.9,0,0,1-6.3,1.1v2.7c5.2-.3,13.2-.4,24.1-.4s17.2.1,22.5.4v-2.7a19.7,19.7,0,0,1-6.2-1.1,4.9,4.9,0,0,1-2.7-3.2,30.6,30.6,0,0,1-.7-7.3V168.7H144c3.2,0,5.6,1.6,7.1,4.9s2.8,8,3.7,14.3l2,13.4c.8,5.4,2.9,9.1,6.4,11.4s8.3,3.3,14.5,3.3a35.3,35.3,0,0,0,11.3-1.7l2.8-1.1a25.2,25.2,0,0,0,6.1-4.5Z"/><path d="M281.8,209.2a18.6,18.6,0,0,1-3.8-6.5l-14.1-36.4H234.4l3.2,8.9H212.4l3.4-8.9h-3.3l-11.4,29.2c-2,5.4-4.1,9.3-6.1,11.7l-.7.9a9.8,9.8,0,0,1-5.5,3.3v2.7a97.5,97.5,0,0,1,10.4-.4c5,0,10.9.1,17.6.4v-2.7c-4-.2-7.1-.9-9.1-2.3s-3.1-3.9-3.1-7.6,1.5-10,4.4-17.6l2.3-6h27.2l8.1,22.1a20.6,20.6,0,0,1,1.6,6.4,3.7,3.7,0,0,1-2.2,3.7c-1.5.7-3.9,1.1-7.3,1.3v2.7c4.9-.3,12.4-.4,22.7-.4s18.1.1,24.6.4v-2.7A7.2,7.2,0,0,1,281.8,209.2Z"/><path d="M324,175.4q16,0,25.8-4.5a40.2,40.2,0,0,0,7.7-4.6H335.4c-2.4,4.3-6.7,6.4-12.7,6.4H319v-6.4H291.6v33.5a26.1,26.1,0,0,1-.7,7.3,4.5,4.5,0,0,1-2.6,3.2,19.9,19.9,0,0,1-6.3,1.1v2.7l24.2-.4c6.4,0,15.7.1,27.8.4V211a38.1,38.1,0,0,1-9.7-.9,6.3,6.3,0,0,1-4.2-3.4c-.8-1.8-1.1-4.5-1.1-8.3v-23Z"/><path d="M467.6,210.3a5,5,0,0,1-2.6-3.2,26.1,26.1,0,0,1-.7-7.3V166.3H379.1v33.5a26.1,26.1,0,0,1-.7,7.3,4.5,4.5,0,0,1-2.6,3.2,19.9,19.9,0,0,1-6.3,1.1v2.7c5.1-.3,13.2-.4,24-.4s17.3.1,22.6.4v-2.7a19.1,19.1,0,0,1-6.2-1.1,4.9,4.9,0,0,1-2.7-3.2,26.1,26.1,0,0,1-.7-7.3V167.3h30.4v32.5a30.9,30.9,0,0,1-.7,7.4,5.1,5.1,0,0,1-2.6,3.1,19.9,19.9,0,0,1-6.3,1.1v2.7c5.5-.3,13.5-.4,23.9-.4s17.8.1,22.6.4v-2.7A19.7,19.7,0,0,1,467.6,210.3Z"/><path d="M94.6,118.8a22.3,22.3,0,0,1-1.1,6.2c-.6,1.3-1.3,2-2.2,2a4.3,4.3,0,0,1-2.7-1.3,43.1,43.1,0,0,0-11.4-6.5,43.6,43.6,0,0,0-14.9-2.3c-10.1,0-19.2,2.1-27.1,6.4a45.3,45.3,0,0,0-18.5,17.8c-4.4,7.4-6.6,15.9-6.7,25.5H41a93.6,93.6,0,0,1,2.6-21.4A38.7,38.7,0,0,1,52.1,128c4-4.6,9.2-6.8,15.6-6.8a26.9,26.9,0,0,1,7.4,1,22.2,22.2,0,0,1,6.6,3,24,24,0,0,1,6.7,6.8,26.4,26.4,0,0,1,3.8,8.7,76.2,76.2,0,0,1,1.9,11.9h3.1c0-16.1.2-27.4.5-33.8Z"/><path d="M186.5,124.7q-10-5.7-30.6-5.7H134.2c-10.4,0-18.1-.1-23.3-.4v2.8c2.9.1,5,.4,6.2,1a4.9,4.9,0,0,1,2.7,3.2,26.4,26.4,0,0,1,.7,7.4v33.4h54.7c6-1.5,10.6-3.8,13.8-6.8a23.2,23.2,0,0,0,7.5-17.4C196.5,134.5,193.2,128.6,186.5,124.7Zm-19.6,31a15.5,15.5,0,0,1-5.1,7.8c-2.4,1.9-5.8,2.9-10.2,2.9h-3.7V133.2a32.4,32.4,0,0,1,.6-7.3,4.6,4.6,0,0,1,2.1-3.4,9.4,9.4,0,0,1,4.6-.9c4.6,0,7.9,1.8,10,5.6s3,9.4,3,16.8A45,45,0,0,1,166.9,155.7Z"/><path d="M255.3,118.8a68.1,68.1,0,0,1-7,.3c-2.9,0-5.2-.1-7.2-.3l-18.6,47.8h3.3l9.5-24.8,9.1,24.8h29.5Z"/><path d="M373.1,131.6c-3-4-7.6-7.1-13.7-9.3s-13.5-3.3-22.5-3.3H315.2c-10.3,0-18.1-.1-23.2-.4v2.8a17.6,17.6,0,0,1,6.2,1,4.9,4.9,0,0,1,2.7,3.2,26.4,26.4,0,0,1,.7,7.4v33.4H329V133.2a33.7,33.7,0,0,1,.5-7.3,5.3,5.3,0,0,1,2.1-3.4,9.8,9.8,0,0,1,4.7-.9c4.6,0,8,2,10,6.1s3,10.6,3,19.4-1.2,14.3-3.6,19l-.3.5h22.1a24,24,0,0,0,6.1-6.7,27.6,27.6,0,0,0,4-14.3A22.8,22.8,0,0,0,373.1,131.6Z"/><path d="M461.2,119.2c-10.4,0-18.4-.1-23.9-.4v2.8a17.6,17.6,0,0,1,6.2,1,4.9,4.9,0,0,1,2.7,3.2,32.2,32.2,0,0,1,.6,7.4V165H416.5V133.2a26.4,26.4,0,0,1,.7-7.4,4.5,4.5,0,0,1,2.6-3.2,17.8,17.8,0,0,1,6.3-1v-2.8c-5.3.3-12.8.4-22.6.4s-18.9-.1-24-.4v2.8a17.6,17.6,0,0,1,6.2,1,4.9,4.9,0,0,1,2.7,3.2,26.4,26.4,0,0,1,.7,7.4v33.4h85.2V133.2a26.4,26.4,0,0,1,.7-7.4,4.5,4.5,0,0,1,2.6-3.2c1.2-.6,3.3-.9,6.2-1v-2.8C479,119.1,471.4,119.2,461.2,119.2Z"/><path d="M703.1,176.6a30.6,30.6,0,0,0-7.2-9.2l-2.1-1.8H649.1c2.8,2.2,6.2,4.6,10.2,7.3a117.1,117.1,0,0,1,10.8,8,29.4,29.4,0,0,1,6.5,7.8,19,19,0,0,1,2.4,9.6,11.9,11.9,0,0,1-4.3,9.7c-2.9,2.3-6.9,3.5-11.9,3.5-8,0-14-3.4-17.8-10.1s-6.1-15.3-6.7-26h-3.1c0,19.3-.2,32.3-.6,39.2h3.1a19.2,19.2,0,0,1,1.1-4.6,2.2,2.2,0,0,1,1.9-1.4c1.1,0,2.6.7,4.6,1.9a49.5,49.5,0,0,0,10.2,3.7,57.7,57.7,0,0,0,13.7,1.4,54,54,0,0,0,18.5-3,29.7,29.7,0,0,0,13.3-9,22.6,22.6,0,0,0,4.9-14.8A25.3,25.3,0,0,0,703.1,176.6Z"/><path d="M709.2,118.4a16,16,0,0,1-1,4.5,2.2,2.2,0,0,1-1.9,1.4,3.9,3.9,0,0,1-1.8-.4l-2.8-1.5a38.7,38.7,0,0,0-21.9-5.4,46.8,46.8,0,0,0-16.7,2.8,27,27,0,0,0-12.2,8.5,22.3,22.3,0,0,0-4.5,14.2,24,24,0,0,0,3.1,12.4,37.3,37.3,0,0,0,7.9,9.4l3,2.4h44.7c-2.7-2.3-6-4.8-10-7.6-7.6-5.2-12.6-8.9-15.3-10.9a29.8,29.8,0,0,1-6.3-6.6,15,15,0,0,1-2.2-8.4c0-3.9,1.2-7,3.8-9.2a14.6,14.6,0,0,1,9.9-3.3,17.9,17.9,0,0,1,11.9,4.4,30.8,30.8,0,0,1,8.2,11.5,49.3,49.3,0,0,1,3.5,14.7h3.1c0-15.5.2-26.5.6-32.9Z"/><path d="M525,209.9a4.9,4.9,0,0,1-2.7-3.2,30.9,30.9,0,0,1-.7-7.4V165.6H494.3v33.7a30.9,30.9,0,0,1-.7,7.4,4.9,4.9,0,0,1-2.7,3.2,17.8,17.8,0,0,1-6.3,1v2.7c5.2-.2,13.2-.3,24.1-.3s17.3.1,22.5.3v-2.7A17.6,17.6,0,0,1,525,209.9Z"/><path d="M518.7,119.3c-10.9,0-18.9-.1-24.1-.4v2.7a19.9,19.9,0,0,1,6.3,1.1,4.3,4.3,0,0,1,2.6,3.1,26.1,26.1,0,0,1,.8,7.4v33.5h27.3V133.2a31.5,31.5,0,0,1,.7-7.4,4.7,4.7,0,0,1,2.7-3.1c1.2-.6,3.3-.9,6.2-1.1v-2.7C536,119.2,528.5,119.3,518.7,119.3Z"/><polygon points="273.2 49.4 287 49.4 287 14 273.2 49.4" fill="none"/><polygon points="713.2 49.4 729 49.4 713.2 32.2 713.2 49.4" fill="none"/><path d="M652.8,8.2c-3.5-3.8-7.4-5.8-11.6-5.8s-8.4,2-11.7,6.1-5.9,9.6-7.7,16.8A102.3,102.3,0,0,0,619,49.4h45.2a87,87,0,0,0-3.1-24.6C659.1,17.6,656.3,12.1,652.8,8.2Z" fill="none"/><path d="M393.6,8.2c-3.5-3.8-7.3-5.8-11.6-5.8s-8.3,2-11.6,6.1-5.9,9.6-7.8,16.8a97.5,97.5,0,0,0-2.7,24.1h45.2A87,87,0,0,0,402,24.8C400,17.6,397.2,12.1,393.6,8.2Z" fill="none"/><polygon points="214.2 49.4 231.2 49.4 214.2 10.7 214.2 49.4" fill="none"/><path d="M214.2,10.7l17,38.7h30.6L240.7,1.9c-7.8.3-17.1.4-28,.4a110.9,110.9,0,0,1-11.2-.4V4.6a16.7,16.7,0,0,1,6.2,1.1,4.7,4.7,0,0,1,2.7,3.1,26.9,26.9,0,0,1,.7,7.4V49.4h3.1Z"/><path d="M287,14V49.4h27.4V16.2a26.4,26.4,0,0,1,.7-7.4,4.6,4.6,0,0,1,2.6-3.1A17.4,17.4,0,0,1,324,4.6V1.9c-5.6.3-13.5.4-24,.4H288.3L270,49.4h3.2Z"/><path d="M362.6,25.3c1.9-7.2,4.4-12.8,7.8-16.8s7.2-6.1,11.6-6.1,8.1,2,11.6,5.8,6.4,9.4,8.4,16.6a87,87,0,0,1,3.1,24.6h28.3a.7.7,0,0,0,.1-.5c0-10.1-2.1-18.9-6.4-26.3A41.9,41.9,0,0,0,409.3,5.8C401.7,1.9,392.8,0,382.6,0s-18.8,2.1-26.5,6.3A46.2,46.2,0,0,0,338,24.1a52.5,52.5,0,0,0-6.4,25.3h28.3A97.5,97.5,0,0,1,362.6,25.3Z"/><path d="M499.3,5h.1c5.4,0,10.4,2.6,15.1,7.8s8.5,13.7,11.4,25.6H529c-.2-2.4-.3-5.6-.3-9.7,0-7.9.3-16.8.9-26.8-8.6.3-23.2.4-44,.4s-35.6-.1-44.2-.4c.7,10,1,18.9,1,26.8,0,4.1-.2,7.3-.4,9.7h3.1c3-11.9,6.8-20.5,11.4-25.6S466.2,5,471.7,5h.1V49.4h27.5Z"/><path d="M573.5,16.2a26.9,26.9,0,0,1,.7-7.4,4.3,4.3,0,0,1,2.6-3.1,17.4,17.4,0,0,1,6.3-1.1V1.9c-5.3.3-12.8.4-22.5.4s-19-.1-24.1-.4V4.6a16.7,16.7,0,0,1,6.2,1.1,4.7,4.7,0,0,1,2.7,3.1,26.9,26.9,0,0,1,.7,7.4V49.4h27.4Z"/><path d="M621.8,25.3c1.8-7.2,4.4-12.8,7.7-16.8s7.2-6.1,11.7-6.1,8.1,2,11.6,5.8,6.3,9.4,8.3,16.6a87,87,0,0,1,3.1,24.6h28.4v-.5c0-10.1-2.1-18.9-6.3-26.3A43,43,0,0,0,668.5,5.8C660.8,1.9,651.9,0,641.7,0a54.6,54.6,0,0,0-26.5,6.3,45.3,45.3,0,0,0-18,17.8c-4.2,7.4-6.3,15.8-6.5,25.3H619A102.3,102.3,0,0,1,621.8,25.3Z"/><path d="M713.2,32.2,729,49.4h40L724.1,1.9c-3.3.3-7.5.4-12.5.4s-8.4-.1-11.2-.4V4.6a17.4,17.4,0,0,1,6.3,1.1,4.6,4.6,0,0,1,2.6,3.1,26.1,26.1,0,0,1,.8,7.4V49.4h3.1Z"/><path d="M782.4,25.6a87,87,0,0,1,.7-12.1,11.2,11.2,0,0,1,2.7-6A12.4,12.4,0,0,1,792,4.6V1.9a109.6,109.6,0,0,1-11.2.4c-6.4,0-11.5-.1-15.1-.4V4.6q6.4.9,9.3,3a9.8,9.8,0,0,1,3.5,6.4,93.4,93.4,0,0,1,.8,14.3V49.4h3.1Z"/><polygon points="770.3 49 759.9 49 770.3 60 770.3 49" fill="none"/><path d="M613.1,74.4q3.1,10.8,8.4,16.5c3.5,3.9,7.4,5.8,11.6,5.8s8.3-2,11.7-6,5.9-9.6,7.7-16.8a102.1,102.1,0,0,0,2.7-24.7V49H610v.7A87.8,87.8,0,0,0,613.1,74.4Z" fill="none"/><polygon points="261.1 49 252.7 49 257.2 59 261.1 49" fill="none"/><path d="M354,74.4c2.1,7.2,4.8,12.7,8.4,16.5s7.3,5.8,11.6,5.8,8.3-2,11.6-6,6-9.6,7.8-16.8a102.1,102.1,0,0,0,2.7-24.7V49H350.9v.7A87.8,87.8,0,0,0,354,74.4Z" fill="none"/><path d="M202.1,73.5a72.8,72.8,0,0,1-.7,12.1,9.9,9.9,0,0,1-2.7,6c-1.3,1.4-3.4,2.3-6.2,2.9v2.7c2.7-.2,6.5-.3,11.2-.3,6.5,0,11.6.1,15.2.3V94.5q-6.6-.9-9.3-3c-1.9-1.3-3.1-3.5-3.6-6.4a92.5,92.5,0,0,1-.8-14.3V49h-3.1Z"/><polygon points="257.2 59 252.7 49 222.1 49 243.2 97.1 245.4 97.1 264.2 49 261.1 49 257.2 59"/><path d="M278,82.9a25.6,25.6,0,0,1-.8,7.4,5.2,5.2,0,0,1-3.1,3.2c-1.4.6-3.8.9-7.1,1v2.7q7.8-.3,24-.3c10.5,0,18.4.1,24,.3V94.5a17.8,17.8,0,0,1-6.3-1,4.8,4.8,0,0,1-2.6-3.2,26.4,26.4,0,0,1-.7-7.4V49H278Z"/><path d="M396.1,49.2a102.1,102.1,0,0,1-2.7,24.7q-2.7,10.8-7.8,16.8c-3.3,4-7.2,6-11.6,6s-8.1-1.9-11.6-5.8-6.3-9.3-8.4-16.5a87.8,87.8,0,0,1-3.1-24.7V49H322.6c0,.4-.1.8-.1,1.2,0,10.2,2.2,19,6.4,26.3a41.5,41.5,0,0,0,17.8,16.9c7.6,3.8,16.5,5.8,26.7,5.8a53.9,53.9,0,0,0,26.5-6.4A45.6,45.6,0,0,0,418,75a52.4,52.4,0,0,0,6.4-26H396.1Z"/><path d="M462.8,82a23.9,23.9,0,0,1-1.1,8.3,6.3,6.3,0,0,1-4.2,3.4c-2,.6-5.2.8-9.6.8v2.7l27.7-.3,29.6.3V94.5c-4.4,0-7.6-.2-9.6-.8a6.3,6.3,0,0,1-4.2-3.4c-.8-1.8-1.2-4.5-1.2-8.3V49H462.8Z"/><path d="M537.1,82.9a26.4,26.4,0,0,1-.7,7.4,4.5,4.5,0,0,1-2.6,3.2,17.8,17.8,0,0,1-6.3,1v2.7q7.7-.3,24-.3c9.8,0,17.3.1,22.6.3V94.5a17.2,17.2,0,0,1-6.2-1,4.9,4.9,0,0,1-2.7-3.2,26.4,26.4,0,0,1-.7-7.4V49H537.1Z"/><path d="M655.2,49.2a102.1,102.1,0,0,1-2.7,24.7c-1.8,7.2-4.4,12.8-7.7,16.8s-7.3,6-11.7,6-8.1-1.9-11.6-5.8-6.3-9.3-8.4-16.5A87.8,87.8,0,0,1,610,49.7V49H581.7v1.2c0,10.2,2.1,19,6.3,26.3a42.1,42.1,0,0,0,17.8,16.9c7.6,3.8,16.6,5.8,26.8,5.8s18.7-2.1,26.4-6.4A44.9,44.9,0,0,0,677.1,75c4.3-7.5,6.4-16.2,6.5-26H655.2Z"/><path d="M770.3,60,759.9,49H719.8l44.1,48.2h9.5V49h-3.1Z"/><path d="M701,73.5a89.3,89.3,0,0,1-.6,12.1,11.2,11.2,0,0,1-2.7,6c-1.4,1.4-3.5,2.3-6.3,2.9v2.7c2.7-.2,6.5-.3,11.2-.3,6.5,0,11.6.1,15.2.3V94.5q-6.6-.9-9.3-3c-1.8-1.3-3-3.5-3.6-6.4a92.5,92.5,0,0,1-.8-14.3V49H701Z"/><path d="M539.8,167c0,10.2,2.1,18.9,6.3,26.3a42.4,42.4,0,0,0,17.8,16.8c7.7,3.9,16.6,5.8,26.8,5.8a41.3,41.3,0,0,0,9.8-1.1,39.6,39.6,0,0,0,7.8-3c2.2-1.2,4.7-2.8,7.4-4.6a5.3,5.3,0,0,1,2.8-1.2c.9,0,1.7.7,2.2,1.9a26.9,26.9,0,0,1,1.1,6.1h3c-.3-6.6-.5-18.3-.5-35.1h-3.1a79.5,79.5,0,0,1-1.9,13.4,29.7,29.7,0,0,1-3.7,9.3,20.5,20.5,0,0,1-6.8,6.6,22.8,22.8,0,0,1-12.6,4c-6.4,0-11.5-2.2-15.3-6.8a38.7,38.7,0,0,1-7.8-17,101.6,101.6,0,0,1-2.2-21.9V166H539.8Z"/><path d="M583.1,145.6a39.7,39.7,0,0,1,7.8-17.1c3.8-4.5,8.9-6.8,15.3-6.8a24.4,24.4,0,0,1,19.4,10.7,28.2,28.2,0,0,1,3.7,8.7,67.2,67.2,0,0,1,1.9,12h3.1c0-16.1.2-27.3.5-33.7h-3.1c-.4,5.4-1.5,8-3.4,8a4.6,4.6,0,0,1-2.6-1.2,48.2,48.2,0,0,0-11.1-6.4,37.6,37.6,0,0,0-13.8-2.3,54.2,54.2,0,0,0-26.4,6.3,45.6,45.6,0,0,0-18.1,17.8c-4.2,7.4-6.3,15.8-6.5,25.3h31.1A96.1,96.1,0,0,1,583.1,145.6Z"/></svg>