<svg id="Layer_1" data-name="Layer 1" xmlns="http://www.w3.org/2000/svg" width="675" height="209.7" viewBox="0 0 675 209.7"><title>photography</title><path d="M42,58.4c10.7,0,19.3-1.5,25.8-4.6a37.3,37.3,0,0,0,7.7-4.6H53.4c-2.4,4.3-6.7,6.5-12.7,6.5H37V49.2H9.6V82.7a26.9,26.9,0,0,1-.7,7.4,4.3,4.3,0,0,1-2.6,3.1A17.4,17.4,0,0,1,0,94.3V97l24.2-.4c6.4,0,15.7.1,27.8.4V93.9a36.6,36.6,0,0,1-9.6-.9,6.1,6.1,0,0,1-4.3-3.4A23.9,23.9,0,0,1,37,81.3V58.4Z"/><path d="M188.7,93.2a4.7,4.7,0,0,1-2.7-3.1,26.9,26.9,0,0,1-.7-7.4V49.2H100.1V82.7a26.9,26.9,0,0,1-.7,7.4,4.3,4.3,0,0,1-2.6,3.1,17.4,17.4,0,0,1-6.3,1.1V97c5.1-.3,13.2-.4,24.1-.4s17.2.1,22.5.4V94.3a16.7,16.7,0,0,1-6.2-1.1,4.7,4.7,0,0,1-2.7-3.1,26.9,26.9,0,0,1-.7-7.4V50.3h30.4V82.7a30.9,30.9,0,0,1-.7,7.4,4.6,4.6,0,0,1-2.6,3.1,17.4,17.4,0,0,1-6.3,1.1V97c5.6-.3,13.5-.4,23.9-.4s17.9.1,22.7.4V94.3A16.3,16.3,0,0,1,188.7,93.2Z"/><path d="M276.1,49.2a104.3,104.3,0,0,1-2.8,24.4c-1.8,7.2-4.4,12.8-7.7,16.8s-7.2,6.1-11.7,6.1-8.1-2-11.6-5.8-6.3-9.4-8.4-16.5a92.1,92.1,0,0,1-3.1-24.7v-.3H202.5V50c0,10.2,2.1,18.9,6.3,26.3a43,43,0,0,0,17.8,16.8c7.7,3.9,16.6,5.8,26.8,5.8a54.2,54.2,0,0,0,26.4-6.3,44.9,44.9,0,0,0,18.1-17.8,52.6,52.6,0,0,0,6.5-25.6Z"/><path d="M375.5,93.4a5.7,5.7,0,0,1-4.1-3.4c-.8-1.7-1.2-4.4-1.2-8.2V49.2H342.8V81.8c0,3.8-.4,6.5-1.2,8.2a5.9,5.9,0,0,1-4.2,3.4,36.6,36.6,0,0,1-9.6.9V97c12.1-.3,21.4-.4,27.8-.4s16.9.1,29.6.4V94.3A38.1,38.1,0,0,1,375.5,93.4Z"/><path d="M482.1,49.2a99.5,99.5,0,0,1-2.7,24.4q-2.7,10.8-7.8,16.8c-3.3,4.1-7.2,6.1-11.6,6.1s-8.1-2-11.6-5.8-6.3-9.4-8.4-16.5a88.3,88.3,0,0,1-3.1-24.7v-.3H408.6V50c0,10.2,2.1,18.9,6.3,26.3a41.9,41.9,0,0,0,17.8,16.8c7.6,3.9,16.5,5.8,26.7,5.8a54.9,54.9,0,0,0,26.5-6.3A46.2,46.2,0,0,0,504,74.8a52.6,52.6,0,0,0,6.5-25.6Z"/><path d="M91.1,14.7c-3-4-7.5-7.1-13.6-9.3S63.9,2.1,55,2.1H33.3c-10.4,0-18.2-.1-23.3-.4V4.6a19.1,19.1,0,0,1,6.2,1.1,4.7,4.7,0,0,1,2.7,3.1,26.9,26.9,0,0,1,.7,7.4V49.7H47V16.2A41.3,41.3,0,0,1,47.5,9a4.8,4.8,0,0,1,2.2-3.4,8.1,8.1,0,0,1,4.6-1,10.3,10.3,0,0,1,10,6.2c2,4.1,3,10.6,3,19.3s-1.2,14.4-3.6,19l-.3.6H85.5A25.4,25.4,0,0,0,91.6,43a27.9,27.9,0,0,0,4-14.3A22.8,22.8,0,0,0,91.1,14.7Z"/><path d="M182.2,2.3c-10.4,0-18.3-.1-23.9-.4V4.6c2.9.2,5,.5,6.2,1.1a4.7,4.7,0,0,1,2.7,3.1,31.5,31.5,0,0,1,.7,7.4V48.1H137.5V16.2a26.9,26.9,0,0,1,.7-7.4,4.3,4.3,0,0,1,2.6-3.1,19.9,19.9,0,0,1,6.3-1.1V1.9c-5.3.3-12.8.4-22.5.4s-18.9-.1-24.1-.4V4.6a19.1,19.1,0,0,1,6.2,1.1,4.7,4.7,0,0,1,2.7,3.1,26.9,26.9,0,0,1,.7,7.4V49.7h85.2V16.2a26.9,26.9,0,0,1,.7-7.4,4.6,4.6,0,0,1,2.6-3.1,19.9,19.9,0,0,1,6.3-1.1V1.9C200,2.2,192.5,2.3,182.2,2.3Z"/><path d="M308.1,22.7A42.1,42.1,0,0,0,290.3,5.8C282.6,1.9,273.7,0,263.5,0a54.2,54.2,0,0,0-26.4,6.3A45.6,45.6,0,0,0,219,24.1a52.6,52.6,0,0,0-6.5,25.6h28.3a104.3,104.3,0,0,1,2.8-24.4c1.8-7.2,4.4-12.8,7.7-16.8s7.3-6.1,11.7-6.1,8.1,2,11.6,5.8,6.3,9.4,8.4,16.6a90.8,90.8,0,0,1,3.1,24.6v.3h28.3v-.8C314.4,38.8,312.3,30,308.1,22.7Z"/><path d="M410.5,1.9c-8.5.3-23.2.4-43.9.4s-35.6-.1-44.2-.4c.6,10,.9,18.9.9,26.8a83.6,83.6,0,0,1-.4,9.7H326c3-11.9,6.8-20.5,11.5-25.6S347.2,5,352.6,5h.2V49.7h27.4V5h.1c5.4,0,10.5,2.6,15.2,7.8s8.5,13.8,11.4,25.6H410a83.6,83.6,0,0,1-.4-9.7C409.6,20.8,409.9,11.9,410.5,1.9Z"/><path d="M514.1,22.7A41.5,41.5,0,0,0,496.3,5.8C488.7,1.9,479.8,0,469.6,0a54.6,54.6,0,0,0-26.5,6.3,46,46,0,0,0-18,17.8c-4.3,7.5-6.4,16-6.5,25.6h28.3a99.5,99.5,0,0,1,2.7-24.4c1.9-7.2,4.4-12.8,7.8-16.8s7.2-6.1,11.7-6.1,8,2,11.6,5.8,6.3,9.4,8.3,16.6a87,87,0,0,1,3.1,24.6v.3h28.4v-.8C520.5,38.8,518.4,30,514.1,22.7Z"/><path d="M164.7,167.2c-11.5,0-20.1-.2-25.8-.5v2.7c4,.2,7,.7,8.8,1.5a6.8,6.8,0,0,1,3.8,4.3,33.6,33.6,0,0,1,1.1,9.9v13.5c0,3.2-1,5.4-2.9,6.7a11.5,11.5,0,0,1-6.6,1.7c-6.8,0-12.1-3.9-15.9-11.6s-5.8-19.5-5.8-35.1V160h-31a1.9,1.9,0,0,0-.1.8q0,15.4,5.7,26.4a38.1,38.1,0,0,0,17,16.7c7.6,3.9,16.9,5.8,28.1,5.8,6.2,0,13.8-2.2,22.8-6.5,4.2-2.1,7.3-3.1,9.2-3.1s2.3.8,3,2.4a15.2,15.2,0,0,1,1.2,5.3H180V181a44.7,44.7,0,0,1,.4-7.4,5.3,5.3,0,0,1,1.5-3.1,9,9,0,0,1,3.6-1.1v-2.7C181.2,167,174.3,167.2,164.7,167.2Z"/><path d="M287.6,201.8l-1.1-1.2a5.8,5.8,0,0,1-4.2,1.8,4.4,4.4,0,0,1-3.7-1.9q-1.4-2-2.4-6.9l-2.8-14a17.7,17.7,0,0,0-8.7-12.6c-4.7-2.8-11.6-4.5-20.8-5a88.7,88.7,0,0,0,11.7-2H200.9v33.5a26.9,26.9,0,0,1-.7,7.4,4.6,4.6,0,0,1-2.6,3.1,19.9,19.9,0,0,1-6.3,1.1v2.7c5.1-.3,13.1-.4,24-.4s17.3.1,22.6.4v-2.7a19.9,19.9,0,0,1-6.3-1.1,4.6,4.6,0,0,1-2.6-3.1,26.9,26.9,0,0,1-.7-7.4V162.4h6.1c3.1,0,5.5,1.6,7,4.9s2.8,8,3.7,14.3l2.1,13.5c.8,5.3,2.9,9,6.3,11.3s8.3,3.3,14.5,3.3a34.9,34.9,0,0,0,11.3-1.7l2.8-1.1a23.4,23.4,0,0,0,6.1-4.5Z"/><path d="M373.2,202.9a18.6,18.6,0,0,1-3.8-6.5L355.2,160H325.7l3.2,8.9H303.7l3.4-8.9h-3.2l-11.4,29.3c-2.1,5.3-4.1,9.2-6.1,11.6l-.8.9a9.5,9.5,0,0,1-5.5,3.3v2.7a99.9,99.9,0,0,1,10.4-.4c5.1,0,11,.1,17.7.4v-2.7c-4.1-.2-7.1-.9-9.1-2.3s-3.1-3.9-3.1-7.5,1.4-10.1,4.3-17.6l2.3-6.1h27.3l8,22.1a21.6,21.6,0,0,1,1.7,6.4,3.8,3.8,0,0,1-2.2,3.7c-1.5.7-3.9,1.1-7.3,1.3v2.7c4.8-.3,12.4-.4,22.6-.4s18.1.1,24.6.4v-2.7A6.7,6.7,0,0,1,373.2,202.9Z"/><path d="M423.3,169.2c10.7,0,19.4-1.6,25.9-4.6a43.6,43.6,0,0,0,7.7-4.6H434.7c-2.4,4.3-6.6,6.4-12.7,6.4h-3.7V160H391v33.5a31.5,31.5,0,0,1-.7,7.4,4.7,4.7,0,0,1-2.7,3.1,19.9,19.9,0,0,1-6.3,1.1v2.7l24.2-.4c6.4,0,15.7.1,27.8.4v-3.1a36.6,36.6,0,0,1-9.6-.9,5.7,5.7,0,0,1-4.2-3.4c-.8-1.8-1.2-4.5-1.2-8.3V169.2Z"/><path d="M570,204a4.3,4.3,0,0,1-2.6-3.1,26.1,26.1,0,0,1-.8-7.4V160H481.5v33.5a31.5,31.5,0,0,1-.7,7.4,4.7,4.7,0,0,1-2.7,3.1,19.9,19.9,0,0,1-6.3,1.1v2.7c5.2-.3,13.2-.4,24.1-.4s17.3.1,22.5.4v-2.7a19.7,19.7,0,0,1-6.2-1.1,4.7,4.7,0,0,1-2.7-3.1,31.5,31.5,0,0,1-.7-7.4V161h30.4v32.5a26.4,26.4,0,0,1-.7,7.4,4.3,4.3,0,0,1-2.6,3.1,19.9,19.9,0,0,1-6.3,1.1v2.7c5.6-.3,13.5-.4,23.9-.4s17.9.1,22.7.4v-2.7A19.1,19.1,0,0,1,570,204Z"/><path d="M642.4,204a4.8,4.8,0,0,1-2.6-3.1,26.9,26.9,0,0,1-.7-7.4V160H607l4.7,8.6v24.9a30.9,30.9,0,0,1-.7,7.4,4.8,4.8,0,0,1-2.6,3.1,19.9,19.9,0,0,1-6.3,1.1v2.7c4.9-.3,12.6-.4,23.3-.4s18,.1,23.2.4v-2.7A19.7,19.7,0,0,1,642.4,204Z"/><path d="M184,112.5a25.8,25.8,0,0,1-1.2,6.2c-.5,1.3-1.2,2-2.2,2a4.3,4.3,0,0,1-2.7-1.3,41,41,0,0,0-11.3-6.5,43.6,43.6,0,0,0-14.9-2.3c-10.2,0-19.2,2.1-27.1,6.4A45.6,45.6,0,0,0,106,134.8a50.9,50.9,0,0,0-6.6,25.5h31a93.6,93.6,0,0,1,2.5-21.4c1.7-6.9,4.5-12.7,8.5-17.2s9.2-6.8,15.7-6.8a27.4,27.4,0,0,1,7.4,1,20.5,20.5,0,0,1,6.5,3,24.4,24.4,0,0,1,6.8,6.8,28.7,28.7,0,0,1,3.8,8.7,90.2,90.2,0,0,1,1.9,11.9h3.1c0-16.1.1-27.4.5-33.8Z"/><path d="M275.9,118.4c-6.7-3.8-17-5.7-30.7-5.7H223.5c-10.3,0-18.1-.1-23.2-.4v2.8a17.6,17.6,0,0,1,6.2,1,4.9,4.9,0,0,1,2.7,3.2,26.4,26.4,0,0,1,.7,7.4v33.4h54.7c5.9-1.5,10.5-3.8,13.7-6.8a23,23,0,0,0,7.6-17.4C285.9,128.2,282.6,122.3,275.9,118.4Zm-19.7,31a15.3,15.3,0,0,1-5,7.8c-2.4,1.9-5.9,2.9-10.2,2.9h-3.7V126.9a33.7,33.7,0,0,1,.5-7.3,5.3,5.3,0,0,1,2.1-3.4,9.8,9.8,0,0,1,4.7-.9c4.6,0,7.9,1.8,9.9,5.6s3.1,9.4,3.1,16.8A44.6,44.6,0,0,1,256.2,149.4Z"/><path d="M345.7,112.5a84.2,84.2,0,0,1-14.2,0l-18.6,47.8h3.2l9.6-24.8,9,24.8h29.5Z"/><path d="M471.5,125.3c-3.1-4-7.6-7.1-13.7-9.3s-13.6-3.3-22.5-3.3H413.6c-10.4,0-18.1-.1-23.3-.4v2.8a17.8,17.8,0,0,1,6.3,1,4.5,4.5,0,0,1,2.6,3.2,25.6,25.6,0,0,1,.8,7.4v33.4h27.3V126.9a32.4,32.4,0,0,1,.6-7.3,5.3,5.3,0,0,1,2.1-3.4,9.4,9.4,0,0,1,4.6-.9c4.7,0,8,2,10,6.1s3,10.6,3,19.4-1.2,14.3-3.5,19l-.3.5h22.1a22.2,22.2,0,0,0,6-6.7,27.8,27.8,0,0,0,4.1-14.3A22.8,22.8,0,0,0,471.5,125.3Z"/><path d="M562.5,112.9c-10.4,0-18.3-.1-23.8-.4v2.8a17.6,17.6,0,0,1,6.2,1,4.5,4.5,0,0,1,2.6,3.2,26.4,26.4,0,0,1,.7,7.4v31.8H517.8V126.9a30.9,30.9,0,0,1,.7-7.4,4.9,4.9,0,0,1,2.7-3.2,17.8,17.8,0,0,1,6.3-1v-2.8c-5.3.3-12.8.4-22.6.4s-18.9-.1-24.1-.4v2.8a17.8,17.8,0,0,1,6.3,1,4.5,4.5,0,0,1,2.6,3.2,25.6,25.6,0,0,1,.8,7.4v33.4h85.1V126.9a30.9,30.9,0,0,1,.7-7.4,5,5,0,0,1,2.6-3.2,17.8,17.8,0,0,1,6.3-1v-2.8C580.4,112.8,572.8,112.9,562.5,112.9Z"/><path d="M664.6,112.8c-5.1,0-11-.1-17.7-.4v2.7c7.2.3,10.8,3.7,10.8,10s-2.1,11.6-6.4,20.1l-6.1,12.2-19.3-37a4.8,4.8,0,0,1-.6-2.1c0-1.3.9-2.2,2.7-2.5a43.2,43.2,0,0,1,8.2-.5v-2.9c-12,.5-21.9.8-29.7.8s-13.1-.3-18.6-.8v2.9a5.6,5.6,0,0,1,3.6,1.8,24.7,24.7,0,0,1,4.2,5.7L616,160.3h32.1v-2.4L660.6,133c4.9-9.6,9.7-15.6,14.4-17.9v-2.7A99.9,99.9,0,0,1,664.6,112.8Z"/></svg>