<?xml version="1.0" encoding="utf-8"?>
<!-- Generator: Adobe Illustrator 22.0.1, SVG Export Plug-In . SVG Version: 6.00 Build 0)  -->
<svg version="1.1" id="Layer_1" xmlns="http://www.w3.org/2000/svg" xmlns:xlink="http://www.w3.org/1999/xlink" x="0px" y="0px"
	 viewBox="0 0 239.6 98.2" style="enable-background:new 0 0 239.6 98.2;" xml:space="preserve">
<title>404</title>
<path d="M71.7,78.1V62.3H58.8V48.5H38.5v13.8H12.7l10.2-13.8h-3.1L0,75.3v2.8h38.5V82c0.1,2.5-0.2,5-0.8,7.4c-0.5,1.4-1.6,2.6-3,3.2
	c-2.3,0.7-4.7,1-7.1,1v2.7c4.4-0.2,10.4-0.4,18-0.4c9.7,0,16.8,0.2,21.4,0.4v-2.7c-1.8,0-3.7-0.3-5.4-1c-1.2-0.7-2-1.9-2.2-3.2
	c-0.5-2.4-0.7-4.9-0.6-7.4v-3.9H71.7z"/>
<path d="M135.9,48.5c0,15.4-1.1,27.1-3.5,35.1s-5.8,12.2-10.5,12.2s-8.4-4-11.1-11.9s-3.9-19.6-3.9-35.1v-0.3H81.2v0.8
	c0,10.2,1.7,18.9,5,26.3s8,13,14.1,16.8s13,5.8,21,5.8c7.4,0.1,14.7-2.1,20.8-6.3c6.2-4.2,10.9-10.1,14.4-17.8
	c3.4-8.1,5.2-16.8,5.1-25.6L135.9,48.5z"/>
<path d="M239.6,78.1V62.3h-13V48.5h-20.2v13.8h-25.9l10.2-13.8h-3l-19.8,26.8v2.8h38.5V82c0.1,2.5-0.2,5-0.9,7.4
	c-0.5,1.5-1.6,2.7-3,3.2c-2.3,0.7-4.7,1-7.1,1v2.7c4.4-0.2,10.5-0.4,18.1-0.4c9.6,0,16.7,0.2,21.3,0.4v-2.7c-1.8,0-3.7-0.3-5.4-1
	c-1.2-0.7-2-1.9-2.2-3.2c-0.5-2.4-0.7-4.9-0.6-7.4v-3.9H239.6z"/>
<path d="M65.6,0L28.9,49.7h3l15.7-21.2v21.2h20.2V0H65.6z"/>
<path d="M165.7,22.6c-3.4-7.3-8-12.9-14.1-16.8S138.5,0,130.5,0c-7.4-0.1-14.7,2.1-20.8,6.3c-6.3,4.5-11.3,10.7-14.3,17.8
	c-3.4,8.1-5.2,16.8-5.1,25.6h25.6c0-15.3,1.2-27,3.5-35.1S125.3,2.4,130,2.4s8.4,4,11,11.9s4,19.7,4,35.1v0.3h25.6v-0.8
	C170.6,38.8,169,30,165.7,22.6z"/>
<path d="M233.5,0l-36.8,49.7h3l15.7-21.2v21.2h20.2V0H233.5z"/>
</svg>
