<svg xmlns="http://www.w3.org/2000/svg"><symbol id="404" viewBox="0 0 239.6 98.2"><path d="M71.7 78.1V62.3H58.8V48.5H38.5v13.8H12.7l10.2-13.8h-3.1L0 75.3v2.8h38.5V82c.1 2.5-.2 5-.8 7.4-.5 1.4-1.6 2.6-3 3.2-2.3.7-4.7 1-7.1 1v2.7c4.4-.2 10.4-.4 18-.4 9.7 0 16.8.2 21.4.4v-2.7c-1.8 0-3.7-.3-5.4-1-1.2-.7-2-1.9-2.2-3.2-.5-2.4-.7-4.9-.6-7.4v-3.9h12.9zm64.2-29.6c0 15.4-1.1 27.1-3.5 35.1s-5.8 12.2-10.5 12.2-8.4-4-11.1-11.9-3.9-19.6-3.9-35.1v-.3H81.2v.8c0 10.2 1.7 18.9 5 26.3s8 13 14.1 16.8 13 5.8 21 5.8c7.4.1 14.7-2.1 20.8-6.3 6.2-4.2 10.9-10.1 14.4-17.8 3.4-8.1 5.2-16.8 5.1-25.6h-25.7zm103.7 29.6V62.3h-13V48.5h-20.2v13.8h-25.9l10.2-13.8h-3l-19.8 26.8v2.8h38.5V82c.1 2.5-.2 5-.9 7.4-.5 1.5-1.6 2.7-3 3.2-2.3.7-4.7 1-7.1 1v2.7c4.4-.2 10.5-.4 18.1-.4 9.6 0 16.7.2 21.3.4v-2.7c-1.8 0-3.7-.3-5.4-1-1.2-.7-2-1.9-2.2-3.2-.5-2.4-.7-4.9-.6-7.4v-3.9h13z"/><path d="M65.6 0L28.9 49.7h3l15.7-21.2v21.2h20.2V0h-2.2zm100.1 22.6c-3.4-7.3-8-12.9-14.1-16.8S138.5 0 130.5 0c-7.4-.1-14.7 2.1-20.8 6.3-6.3 4.5-11.3 10.7-14.3 17.8-3.4 8.1-5.2 16.8-5.1 25.6h25.6c0-15.3 1.2-27 3.5-35.1S125.3 2.4 130 2.4s8.4 4 11 11.9 4 19.7 4 35.1v.3h25.6v-.8c0-10.1-1.6-18.9-4.9-26.3zM233.5 0l-36.8 49.7h3l15.7-21.2v21.2h20.2V0h-2.1z"/></symbol></svg>