<svg id="Layer_1" data-name="Layer 1" xmlns="http://www.w3.org/2000/svg" width="239.6" height="98.2" viewBox="0 0 239.6 98.2"><title>404</title><path d="M71.7,78.1V62.3H58.8V48.5H38.5V62.3H12.7L22.9,48.5H19.8L0,75.3v2.8H38.5V82a25.6,25.6,0,0,1-.8,7.4,5.6,5.6,0,0,1-3,3.2,26.4,26.4,0,0,1-7.1,1v2.7c4.4-.2,10.4-.4,18-.4,9.7,0,16.8.2,21.4.4V93.6a15.1,15.1,0,0,1-5.4-1,4.5,4.5,0,0,1-2.2-3.2,32.2,32.2,0,0,1-.6-7.4V78.1Z"/><path d="M135.9,48.5c0,15.4-1.1,27.1-3.5,35.1s-5.8,12.2-10.5,12.2-8.4-4-11.1-11.9-3.9-19.6-3.9-35.1v-.3H81.2v.8c0,10.2,1.7,18.9,5,26.3s8,13,14.1,16.8,13,5.8,21,5.8a35.7,35.7,0,0,0,20.8-6.3c6.2-4.2,10.9-10.1,14.4-17.8a64.2,64.2,0,0,0,5.1-25.6Z"/><path d="M239.6,78.1V62.3h-13V48.5H206.4V62.3H180.5l10.2-13.8h-3L167.9,75.3v2.8h38.5V82a21.9,21.9,0,0,1-.9,7.4,5,5,0,0,1-3,3.2,25.7,25.7,0,0,1-7.1,1v2.7c4.4-.2,10.5-.4,18.1-.4,9.6,0,16.7.2,21.3.4V93.6a15.1,15.1,0,0,1-5.4-1,4.8,4.8,0,0,1-2.2-3.2,32.2,32.2,0,0,1-.6-7.4V78.1Z"/><path d="M65.6,0,28.9,49.7h3L47.6,28.5V49.7H67.8V0Z"/><path d="M165.7,22.6c-3.4-7.3-8-12.9-14.1-16.8S138.5,0,130.5,0a35.7,35.7,0,0,0-20.8,6.3A41.8,41.8,0,0,0,95.4,24.1a64.6,64.6,0,0,0-5.1,25.6h25.6c0-15.3,1.2-27,3.5-35.1S125.3,2.4,130,2.4s8.4,4,11,11.9,4,19.7,4,35.1v.3h25.6v-.8C170.6,38.8,169,30,165.7,22.6Z"/><path d="M233.5,0,196.7,49.7h3l15.7-21.2V49.7h20.2V0Z"/></svg>