<svg xmlns="http://www.w3.org/2000/svg"><symbol id="branding" viewBox="0 0 592.4 211.6"><path fill="none" d="M146.7 46.5a20.9 20.9 0 0 0 4.5-.4H143v.4zm-98 41a4.5 4.5 0 0 0 2.5 3.1 13.3 13.3 0 0 0 5.6.9c9.6 0 14.5-7.9 14.5-23.7 0-7.1-1.7-12.4-5.2-16.1s-8.8-5.6-16.2-5.6H48v34.2a26.2 26.2 0 0 0 .7 7.2zm224.9 115.4a5.5 5.5 0 0 0 2.9 3.4 17.4 17.4 0 0 0 6.4.9c9 0 15.4-3.8 19.4-11.5s5.9-19.1 5.9-34.3v-.2h-35.4v34.4a25.8 25.8 0 0 0 .8 7.3z"/><path d="M66.1 51.7c3.5 3.7 5.2 9 5.2 16.1 0 15.8-4.9 23.7-14.5 23.7a13.3 13.3 0 0 1-5.6-.9 4.5 4.5 0 0 1-2.5-3.1 26.2 26.2 0 0 1-.7-7.2V46.1H20.6v34.2a26.9 26.9 0 0 1-.7 7.4 4.3 4.3 0 0 1-2.6 3.1 19.9 19.9 0 0 1-6.3 1.1v2.7c5.2-.3 13-.4 23.5-.4l14.5.2 10.1.2C72 94.6 82 92.4 89 88.1s10.6-10.9 10.6-19.7a17.8 17.8 0 0 0-3.9-11c-2.6-3.5-6.8-6.4-12.5-8.7a49.9 49.9 0 0 0-8.5-2.6H49.9c7.4 0 12.8 1.9 16.2 5.6zm179.6 4h-25.2l3.7-9.6h-3.3l-11.6 30c-2.1 5.3-4.1 9.2-6.1 11.6l-.8.9-1.2-1.2a5.4 5.4 0 0 1-4.1 1.8 4.4 4.4 0 0 1-3.7-1.9q-1.3-2-2.4-6.9l-2.8-14a17.7 17.7 0 0 0-8.7-12.6c-4.7-2.8-11.6-4.5-20.8-5 0 0 1.1-1.4 5-2.7h-12.5a20.9 20.9 0 0 1-4.5.4H143v-.4h-27.3v34.2a26.9 26.9 0 0 1-.7 7.4 4.6 4.6 0 0 1-2.6 3.1 19.9 19.9 0 0 1-6.3 1.1v2.7c5.1-.3 13.1-.4 24-.4s17.3.1 22.6.4v-2.7a19.9 19.9 0 0 1-6.3-1.1 4.6 4.6 0 0 1-2.6-3.1 26.1 26.1 0 0 1-.8-7.4V49.2h6.2c3.1 0 5.5 1.6 7 4.9s2.8 8 3.7 14.3l2.1 13.5c.8 5.3 2.9 9 6.3 11.3s8.3 3.3 14.5 3.3a34.9 34.9 0 0 0 11.3-1.7l2.8-1.1v.9a98.7 98.7 0 0 1 10.4-.4c5.1 0 11 .1 17.7.4v-2.7c-4.1-.2-7.1-.9-9.2-2.3s-3-3.9-3-7.5 1.4-10.1 4.3-17.6l2.3-6.1h27.3l8 22.1a21.6 21.6 0 0 1 1.7 6.4 3.8 3.8 0 0 1-2.3 3.7c-1.4.7-3.9 1.1-7.2 1.3v2.7c4.8-.3 12.4-.4 22.6-.4s18.1.1 24.6.4v-2.7a6.7 6.7 0 0 1-4.1-2.2 20.2 20.2 0 0 1-3.9-6.5l-14.4-37.1h-29.4zM307 70.8a72.8 72.8 0 0 1-.7 12.1 10.2 10.2 0 0 1-2.7 6.1 12.4 12.4 0 0 1-6.2 2.9v2.7a110.9 110.9 0 0 1 11.2-.4c6.5 0 11.6.1 15.2.4v-2.7q-6.6-.9-9.3-3a9.5 9.5 0 0 1-3.6-6.4 94 94 0 0 1-.8-14.4v-22H307zm69.2-13.5l-10.6-11.2h-40l44.3 48.5a45.2 45.2 0 0 1 5.1-.2 30.3 30.3 0 0 1 4.4.2V46.1h-3.2zm-68 104.1c0 15.2-2 26.6-5.9 34.3s-10.4 11.5-19.4 11.5a17.4 17.4 0 0 1-6.4-.9 5.5 5.5 0 0 1-2.9-3.4 25.8 25.8 0 0 1-.8-7.3v-34.4h-27.4v34.2a26.9 26.9 0 0 1-.7 7.4 4.5 4.5 0 0 1-2.6 3.1 19.9 19.9 0 0 1-6.3 1.1v2.7c5.2-.3 13-.4 23.5-.4 2.3 0 5.9 0 10.9.2l9.4.2c11.8 0 22-2 30.5-6.1a44.3 44.3 0 0 0 19.6-17 47.3 47.3 0 0 0 6.8-25.4h-28.3zm45.5 34a26.9 26.9 0 0 1-.7 7.4 4.5 4.5 0 0 1-2.6 3.1 19.9 19.9 0 0 1-6.3 1.1v2.7c5.2-.3 13.2-.4 24.1-.4s17.2.1 22.5.4V207a19.7 19.7 0 0 1-6.2-1.1 4.9 4.9 0 0 1-2.7-3.1 26.9 26.9 0 0 1-.7-7.4v-34.2h-27.4zm123.6-23l-10.6-11.2h-40l44.3 48.5a45.2 45.2 0 0 1 5.1-.2 30.3 30.3 0 0 1 4.4.2v-48.5h-3.2zm-69.2 13.5a72.8 72.8 0 0 1-.7 12.1 10.2 10.2 0 0 1-2.7 6.1 12.4 12.4 0 0 1-6.2 2.9v2.7a110.9 110.9 0 0 1 11.2-.4c6.5 0 11.6.1 15.2.4V207q-6.6-.9-9.3-3a9.8 9.8 0 0 1-3.6-6.5 92.5 92.5 0 0 1-.8-14.3v-22h-3.1zm89.1-23.2q0 15.5 5.7 26.4a38.1 38.1 0 0 0 17 16.7c7.6 3.9 16.9 5.8 28.1 5.8 6.2 0 13.8-2.2 22.8-6.5 4.2-2.1 7.3-3.1 9.2-3.1s2.2.8 3 2.4a15.2 15.2 0 0 1 1.2 5.3h2.7v-26.8a44.7 44.7 0 0 1 .4-7.4 5 5 0 0 1 1.5-3.1 7.7 7.7 0 0 1 3.6-1.1v-2.7c-4.3.3-11.2.5-20.8.5-11.5 0-20.1-.2-25.8-.5v2.7a27.5 27.5 0 0 1 8.8 1.5 6.6 6.6 0 0 1 3.8 4.3 33.6 33.6 0 0 1 1.1 9.9v13.5c0 3.2-1 5.4-2.9 6.7a11.5 11.5 0 0 1-6.6 1.7c-6.8 0-12.1-3.9-15.9-11.6s-5.8-19.5-5.8-35.2v-.9h-31c0 .5-.1 1-.1 1.5z"/><path fill="none" d="M271.8 117.5a16.5 16.5 0 0 0-6.3 1 5.2 5.2 0 0 0-2.9 3.4 22.2 22.2 0 0 0-.8 7.2v33.1h35.4c0-15.2-2.1-26.4-6.1-33.7s-10.6-11-19.3-11zM50.9 38.9c1.9-4 2.8-9.4 2.8-16.1S53 10.9 51.5 7.6a7.4 7.4 0 0 0-7.2-4.9 8.6 8.6 0 0 0-4.7 1 5 5 0 0 0-2.1 3.4 41.3 41.3 0 0 0-.5 7.2v30.5h3.7c4.8 0 8.2-2 10.2-5.9zM151 36.8a43.9 43.9 0 0 0 1.3-11.7c0-7.4-1-12.9-3-16.7s-5.3-5.7-9.9-5.7a8.4 8.4 0 0 0-4.7 1 5 5 0 0 0-2.1 3.4 32 32 0 0 0-.6 7.2v32.8h8.2a13.3 13.3 0 0 0 5.8-2.5 14.5 14.5 0 0 0 5-7.8z"/><path d="M38.9 47.1h24.8a85 85 0 0 0-13.3-1.6v-.3a49.1 49.1 0 0 0 17.2-5 29.3 29.3 0 0 0 10.5-8.8 17.7 17.7 0 0 0 3.4-10 16.7 16.7 0 0 0-4-11.2c-2.8-3.1-6.9-5.6-12.3-7.4S53 .1 45 .1l-9.4.2H23.3C12.9.4 5.1.3 0 0v2.7a16.7 16.7 0 0 1 6.2 1.1 4.7 4.7 0 0 1 2.7 3.1 26.9 26.9 0 0 1 .7 7.4v32.8h29.3zM37 14.3a41.3 41.3 0 0 1 .5-7.2 5 5 0 0 1 2.1-3.4 8.6 8.6 0 0 1 4.7-1 7.4 7.4 0 0 1 7.2 4.9c1.5 3.3 2.2 8.4 2.2 15.2s-.9 12.1-2.8 16.1-5.4 5.9-10.2 5.9H37zm95-.3a32 32 0 0 1 .6-7.2 5.3 5.3 0 0 1 2.1-3.4 8.4 8.4 0 0 1 4.7-1q6.9 0 9.9 5.7c2 3.8 3 9.4 3 16.7a45.2 45.2 0 0 1-1.3 11.8 14.7 14.7 0 0 1-5 7.7 13.4 13.4 0 0 1-5.8 2.6h21.4c4.9-1.6 8.7-3.6 11.5-6.3a22.6 22.6 0 0 0 7.6-17.3c0-7.9-3.4-13.8-10.1-17.7S153.7-.1 140-.1h-21.7c-10.3.2-18.1.1-23.2-.2v2.7a19.7 19.7 0 0 1 6.2 1.1 4.9 4.9 0 0 1 2.7 3.1 31.5 31.5 0 0 1 .7 7.4v32.9H132zm90.5 8.9l8.8 24.2h29.4L242.4 0a66.7 66.7 0 0 1-7 .3 70.2 70.2 0 0 1-7.1-.3l-18.4 47.1h3.3zm145.9.8a73.6 73.6 0 0 1 .7-12.1 10.5 10.5 0 0 1 2.6-6 12.8 12.8 0 0 1 6.2-2.9V0a108.4 108.4 0 0 1-11.2.4c-6.4 0-11.4-.1-15.1-.4v2.7q6.6.9 9.3 3a9.8 9.8 0 0 1 3.5 6.4c.6 2.9.8 7.7.8 14.3v20.7h3.2zm-69.3 6.6l15.5 16.8h40L310 0c-3.3.3-7.4.4-12.4.4a109.6 109.6 0 0 1-11.2-.4v2.7a17.2 17.2 0 0 1 6.2 1.1 4.7 4.7 0 0 1 2.7 3.1 26.9 26.9 0 0 1 .7 7.4v32.8h3.1zm-37.3 98.8a22.2 22.2 0 0 1 .8-7.2 5.2 5.2 0 0 1 2.9-3.4 16.5 16.5 0 0 1 6.3-1c8.7 0 15.2 3.7 19.3 11s6.1 18.5 6.1 33.7h28.3v-.4q0-22.8-13.8-34.8c-9.3-7.9-23.3-11.9-41.9-11.9l-21.7.4h-4.8c-5.8 0-11.9-.2-18.5-.5v2.7a19.7 19.7 0 0 1 6.2 1 5.1 5.1 0 0 1 2.7 3.2 26.9 26.9 0 0 1 .7 7.4v32.8h27.4zm108.3.3a26.9 26.9 0 0 1 .7-7.4 4.7 4.7 0 0 1 2.6-3.2 20.5 20.5 0 0 1 6.3-1v-2.7c-5.3.3-12.8.4-22.5.4s-19-.1-24.1-.4v2.7a19.7 19.7 0 0 1 6.2 1 5.1 5.1 0 0 1 2.7 3.2 26.9 26.9 0 0 1 .7 7.4v32.8h27.4zm99.4 9.4a73.6 73.6 0 0 1 .7-12.1 9.9 9.9 0 0 1 2.7-6 12 12 0 0 1 6.1-2.9v-2.7a108.4 108.4 0 0 1-11.2.4c-6.4 0-11.4-.1-15.1-.4v2.7q6.6.9 9.3 3a9.8 9.8 0 0 1 3.5 6.4c.6 2.9.8 7.7.8 14.3v20.7h3.2zm-69.3 6.5l15.5 16.9h40l-44.5-47.1c-3.4.3-7.5.4-12.5.4a109.6 109.6 0 0 1-11.2-.4v2.7a20.3 20.3 0 0 1 6.2 1 5.1 5.1 0 0 1 2.7 3.2 26.9 26.9 0 0 1 .7 7.4v32.8h3.1zm119.6-3.9a40.3 40.3 0 0 1 8.5-17.2 20 20 0 0 1 15.7-6.8 27.6 27.6 0 0 1 7.4 1.1 21.4 21.4 0 0 1 6.5 2.9 27.4 27.4 0 0 1 6.8 6.8 30.9 30.9 0 0 1 3.7 8.7 67.4 67.4 0 0 1 1.9 11.9h3.1c0-16.1.2-27.3.6-33.7h-3.1a26.9 26.9 0 0 1-1.2 6.2c-.5 1.3-1.3 1.9-2.2 1.9a3.8 3.8 0 0 1-2.7-1.3 39.5 39.5 0 0 0-26.2-8.7 57.4 57.4 0 0 0-27.2 6.3 46 46 0 0 0-18.5 17.8 51.3 51.3 0 0 0-6.6 24.9h31a94.7 94.7 0 0 1 2.5-20.8z"/></symbol><symbol id="motion" viewBox="0 0 800 216"><path d="M82.4 173.5c-11.5 0-20.1-.2-25.8-.5v2.7a27.5 27.5 0 0 1 8.8 1.5 6.6 6.6 0 0 1 3.8 4.3c.7 2.1 1 5.4 1 9.9v13.5c0 3.2-.9 5.4-2.8 6.7a11.6 11.6 0 0 1-6.7 1.7c-6.7 0-12-3.9-15.9-11.6s-5.7-19.5-5.7-35.2v-.2H8v.8q0 15.5 5.7 26.4a37.7 37.7 0 0 0 17 16.7c7.5 3.9 16.9 5.8 28.1 5.8 6.2 0 13.8-2.2 22.8-6.5 4.2-2.1 7.2-3.1 9.1-3.1s2.3.8 3 2.4a13.3 13.3 0 0 1 1.3 5.3h2.7v-26.8a44.7 44.7 0 0 1 .4-7.4 5 5 0 0 1 1.5-3.1 6.9 6.9 0 0 1 3.6-1.1V173c-4.3.3-11.3.5-20.8.5zm122.9 34.6l-1.2-1.2a5.4 5.4 0 0 1-4.1 1.8 4.6 4.6 0 0 1-3.8-1.9c-.9-1.3-1.6-3.6-2.3-6.9l-2.8-14a18 18 0 0 0-8.7-12.6c-4.7-2.8-11.7-4.5-20.9-5a83.3 83.3 0 0 0 11.7-2h-54.6v33.5a30.6 30.6 0 0 1-.7 7.3 4.9 4.9 0 0 1-2.7 3.2 19.9 19.9 0 0 1-6.3 1.1v2.7c5.2-.3 13.2-.4 24.1-.4s17.3.1 22.5.4v-2.7a19.7 19.7 0 0 1-6.2-1.1 4.9 4.9 0 0 1-2.7-3.2 30.6 30.6 0 0 1-.7-7.3v-31.1h6.1c3.2 0 5.6 1.6 7.1 4.9s2.8 8 3.7 14.3l2 13.4c.8 5.4 2.9 9.1 6.4 11.4s8.3 3.3 14.5 3.3a35.3 35.3 0 0 0 11.3-1.7l2.8-1.1a23.4 23.4 0 0 0 6.1-4.5z"/><path d="M289.8 209.2a20.2 20.2 0 0 1-3.8-6.5l-14.1-36.4h-29.5l3.2 8.9h-25.2l3.4-8.9h-3.3l-11.3 29.2c-2.1 5.4-4.1 9.3-6.1 11.7l-.8.9a9.8 9.8 0 0 1-5.5 3.3v2.7a97.5 97.5 0 0 1 10.4-.4c5 0 10.9.1 17.6.4v-2.7c-4-.2-7-.9-9.1-2.3s-3-3.9-3-7.6 1.4-10 4.3-17.6l2.3-6h27.2l8.1 22.1a20.6 20.6 0 0 1 1.6 6.4 3.7 3.7 0 0 1-2.2 3.7c-1.5.7-3.9 1.1-7.3 1.3v2.7c4.9-.3 12.4-.4 22.7-.4s18.1.1 24.6.4v-2.7a7.2 7.2 0 0 1-4.2-2.2z"/><path d="M332 175.4q16 0 25.8-4.5a40.2 40.2 0 0 0 7.7-4.6h-22.1c-2.4 4.3-6.7 6.4-12.7 6.4H327v-6.4h-27.4v33.5a26.1 26.1 0 0 1-.7 7.3 4.5 4.5 0 0 1-2.6 3.2 19.9 19.9 0 0 1-6.3 1.1v2.7l24.2-.4c6.4 0 15.7.1 27.8.4V211a38.1 38.1 0 0 1-9.7-.9 6.3 6.3 0 0 1-4.2-3.4 23.9 23.9 0 0 1-1.1-8.3v-23zm143.7 34.9a4.9 4.9 0 0 1-2.7-3.2 26.1 26.1 0 0 1-.7-7.3v-33.5h-85.2v33.5a26.1 26.1 0 0 1-.7 7.3 4.5 4.5 0 0 1-2.6 3.2 19.9 19.9 0 0 1-6.3 1.1v2.7c5.1-.3 13.2-.4 24.1-.4s17.2.1 22.5.4v-2.7a19.1 19.1 0 0 1-6.2-1.1 4.9 4.9 0 0 1-2.7-3.2 26.1 26.1 0 0 1-.7-7.3v-32.5h30.4v32.5a30.9 30.9 0 0 1-.7 7.4 5.1 5.1 0 0 1-2.6 3.1 19.9 19.9 0 0 1-6.3 1.1v2.7c5.5-.3 13.5-.4 23.9-.4s17.9.1 22.6.4v-2.7a18.4 18.4 0 0 1-6.1-1.1zm-373.1-91.5a22.3 22.3 0 0 1-1.1 6.2c-.6 1.3-1.3 2-2.2 2a4.3 4.3 0 0 1-2.7-1.3 43.1 43.1 0 0 0-11.4-6.5 43.6 43.6 0 0 0-14.9-2.3 56.2 56.2 0 0 0-27.1 6.4 45.3 45.3 0 0 0-18.5 17.8c-4.4 7.4-6.6 15.9-6.7 25.5h31.1a88.3 88.3 0 0 1 2.5-21.4 38.7 38.7 0 0 1 8.5-17.2c4-4.6 9.2-6.8 15.7-6.8a26.7 26.7 0 0 1 7.3 1 22.2 22.2 0 0 1 6.6 3 25.9 25.9 0 0 1 6.8 6.8 28.6 28.6 0 0 1 3.7 8.7 76.2 76.2 0 0 1 1.9 11.9h3.1c0-16.1.2-27.4.5-33.8zm91.9 5.9q-10-5.7-30.6-5.7h-21.7c-10.4 0-18.1-.1-23.3-.4v2.8a17.8 17.8 0 0 1 6.3 1 4.8 4.8 0 0 1 2.6 3.2 25.6 25.6 0 0 1 .8 7.4v33.4h54.6c6-1.5 10.6-3.8 13.8-6.8a23.3 23.3 0 0 0 7.6-17.4c0-7.7-3.4-13.6-10.1-17.5zm-19.6 31a15.3 15.3 0 0 1-5 7.8c-2.5 1.9-5.9 2.9-10.3 2.9h-3.7v-33.2a32.4 32.4 0 0 1 .6-7.3 4.6 4.6 0 0 1 2.1-3.4 9.4 9.4 0 0 1 4.6-.9c4.6 0 8 1.8 10 5.6s3 9.4 3 16.8a45 45 0 0 1-1.3 11.7zm88.4-36.9a68.1 68.1 0 0 1-7 .3q-4.2 0-7.2-.3l-18.6 47.8h3.3l9.5-24.8 9.1 24.8h29.5z"/><path d="M381.1 131.6c-3-4-7.6-7.1-13.7-9.3s-13.5-3.3-22.5-3.3h-21.6c-10.4 0-18.2-.1-23.3-.4v2.8a17.6 17.6 0 0 1 6.2 1 4.9 4.9 0 0 1 2.7 3.2 26.4 26.4 0 0 1 .7 7.4v33.4H337v-33.2a33.7 33.7 0 0 1 .5-7.3 5.3 5.3 0 0 1 2.1-3.4 9.8 9.8 0 0 1 4.7-.9c4.6 0 8 2 10 6.1s3 10.6 3 19.4-1.2 14.3-3.6 19l-.3.5h22.1a24 24 0 0 0 6.1-6.7 27.6 27.6 0 0 0 4-14.3 22.8 22.8 0 0 0-4.5-14zm88.1-12.4c-10.4 0-18.4-.1-23.9-.4v2.8a17.2 17.2 0 0 1 6.2 1 4.9 4.9 0 0 1 2.7 3.2 30.9 30.9 0 0 1 .7 7.4V165h-30.4v-31.8a26.4 26.4 0 0 1 .7-7.4 4.5 4.5 0 0 1 2.6-3.2 17.8 17.8 0 0 1 6.3-1v-2.8c-5.3.3-12.8.4-22.6.4s-18.9-.1-24-.4v2.8a17.6 17.6 0 0 1 6.2 1 4.9 4.9 0 0 1 2.7 3.2 26.4 26.4 0 0 1 .7 7.4v33.4h85.2v-33.4a26.4 26.4 0 0 1 .7-7.4 4.5 4.5 0 0 1 2.6-3.2c1.2-.6 3.3-.9 6.2-1v-2.8c-4.8.3-12.4.4-22.6.4zm241.9 57.4a30.6 30.6 0 0 0-7.2-9.2l-2.1-1.8h-44.7c2.8 2.2 6.2 4.6 10.2 7.3s8.1 5.7 10.9 8a30.9 30.9 0 0 1 6.4 7.8 18.1 18.1 0 0 1 2.5 9.6 11.9 11.9 0 0 1-4.4 9.7c-2.9 2.3-6.9 3.5-11.9 3.5-8 0-14-3.4-17.8-10.1s-6.1-15.3-6.7-26h-3.1c0 19.3-.2 32.3-.6 39.2h3.1a19.2 19.2 0 0 1 1.1-4.6 2.2 2.2 0 0 1 2-1.4c1 0 2.5.7 4.5 1.9a49.5 49.5 0 0 0 10.2 3.7 57.7 57.7 0 0 0 13.7 1.4 55 55 0 0 0 18.6-3 29.9 29.9 0 0 0 13.2-9 22.6 22.6 0 0 0 4.9-14.8 25.3 25.3 0 0 0-2.8-12.2z"/><path d="M717.2 118.4a16 16 0 0 1-1 4.5 2.1 2.1 0 0 1-1.9 1.4 3.9 3.9 0 0 1-1.8-.4l-2.8-1.5a48.8 48.8 0 0 0-38.6-2.6 27.5 27.5 0 0 0-12.2 8.5 22.3 22.3 0 0 0-4.5 14.2 24 24 0 0 0 3.1 12.4 37.3 37.3 0 0 0 7.9 9.4l3 2.4h44.7c-2.7-2.3-6-4.8-10-7.6-7.5-5.2-12.6-8.9-15.3-10.9a29.2 29.2 0 0 1-6.2-6.6 14.3 14.3 0 0 1-2.3-8.4 11.7 11.7 0 0 1 3.8-9.2c2.5-2.2 5.9-3.3 10-3.3a17.8 17.8 0 0 1 11.8 4.4 30.8 30.8 0 0 1 8.2 11.5 46.5 46.5 0 0 1 3.5 14.7h3.1c0-15.5.2-26.5.6-32.9zM533 209.9a4.9 4.9 0 0 1-2.7-3.2 30.9 30.9 0 0 1-.7-7.4v-33.7h-27.3v33.7a30.9 30.9 0 0 1-.7 7.4 4.9 4.9 0 0 1-2.7 3.2 17.8 17.8 0 0 1-6.3 1v2.7c5.2-.2 13.2-.3 24.1-.3s17.3.1 22.5.3v-2.7a17.6 17.6 0 0 1-6.2-1z"/><path d="M526.7 119.3c-10.9 0-18.9-.1-24-.4v2.7a19.7 19.7 0 0 1 6.2 1.1 4.7 4.7 0 0 1 2.7 3.1 31.5 31.5 0 0 1 .7 7.4v33.5h27.3v-33.5a31.5 31.5 0 0 1 .7-7.4 4.7 4.7 0 0 1 2.7-3.1 19.9 19.9 0 0 1 6.3-1.1v-2.7c-5.3.3-12.8.4-22.6.4z"/><path fill="none" d="M281.2 49.4H295V14l-13.8 35.4zm440 0H737l-15.8-17.2v17.2zM660.8 8.2c-3.5-3.8-7.4-5.8-11.6-5.8s-8.3 2-11.7 6.1-5.9 9.6-7.7 16.8a102.3 102.3 0 0 0-2.8 24.1h45.3a90.8 90.8 0 0 0-3.1-24.6c-2.1-7.2-4.9-12.7-8.4-16.6zm-259.1 0c-3.6-3.8-7.4-5.8-11.6-5.8s-8.4 2-11.7 6.1-5.9 9.6-7.8 16.8a102.6 102.6 0 0 0-2.7 24.1h45.2a87 87 0 0 0-3.1-24.6c-2-7.2-4.8-12.7-8.3-16.6zM222.2 49.4h17l-17-38.7v38.7z"/><path d="M222.2 10.7l17 38.7h30.6L248.7 1.9c-7.8.3-17.1.4-28 .4a110.9 110.9 0 0 1-11.2-.4v2.7a16.7 16.7 0 0 1 6.2 1.1 4.7 4.7 0 0 1 2.7 3.1 26.9 26.9 0 0 1 .7 7.4v33.2h3.1zM295 14v35.4h27.4V16.2a30.9 30.9 0 0 1 .7-7.4 4.6 4.6 0 0 1 2.6-3.1 17.4 17.4 0 0 1 6.3-1.1V1.9c-5.6.3-13.5.4-23.9.4h-11.8L278 49.4h3.2zm75.6 11.3c1.9-7.2 4.4-12.8 7.8-16.8s7.2-6.1 11.7-6.1 8 2 11.6 5.8 6.3 9.4 8.3 16.6a87 87 0 0 1 3.1 24.6h28.4v-.5c0-10.1-2.1-18.9-6.4-26.3a41.9 41.9 0 0 0-17.8-16.8C409.7 1.9 400.8 0 390.6 0a54.6 54.6 0 0 0-26.5 6.3 45.3 45.3 0 0 0-18 17.8 51.4 51.4 0 0 0-6.5 25.3h28.3a102.6 102.6 0 0 1 2.7-24.1zM507.3 5h.1c5.4 0 10.4 2.6 15.1 7.8S531 26.5 534 38.4h3.1a83.6 83.6 0 0 1-.4-9.7c0-7.9.3-16.8.9-26.8-8.5.3-23.2.4-44 .4s-35.6-.1-44.1-.4c.6 10 .9 18.9.9 26.8 0 4.1-.2 7.3-.4 9.7h3.1c3-11.9 6.8-20.5 11.4-25.6S474.2 5 479.7 5h.1v44.4h27.5zm74.2 11.2a26.9 26.9 0 0 1 .7-7.4 4.3 4.3 0 0 1 2.6-3.1 17.4 17.4 0 0 1 6.3-1.1V1.9c-5.3.3-12.8.4-22.5.4s-19-.1-24.1-.4v2.7a16.7 16.7 0 0 1 6.2 1.1 4.7 4.7 0 0 1 2.7 3.1 26.9 26.9 0 0 1 .7 7.4v33.2h27.4zm48.3 9.1c1.8-7.2 4.4-12.8 7.7-16.8s7.2-6.1 11.7-6.1 8.1 2 11.6 5.8 6.3 9.4 8.4 16.6a90.8 90.8 0 0 1 3.1 24.6h28.3v-.5c0-10.1-2.1-18.9-6.3-26.3a43 43 0 0 0-17.8-16.8C668.8 1.9 659.9 0 649.7 0a54.9 54.9 0 0 0-26.5 6.3 45.3 45.3 0 0 0-18 17.8c-4.2 7.4-6.3 15.8-6.5 25.3H627a102.3 102.3 0 0 1 2.8-24.1zm91.4 6.9L737 49.4h40.1l-45-47.5c-3.3.3-7.5.4-12.5.4s-8.4-.1-11.2-.4v2.7a17.4 17.4 0 0 1 6.3 1.1 4.3 4.3 0 0 1 2.6 3.1 26.1 26.1 0 0 1 .8 7.4v33.2h3.1zm69.2-6.6a87 87 0 0 1 .7-12.1 11.2 11.2 0 0 1 2.7-6 12.4 12.4 0 0 1 6.2-2.9V1.9a109.6 109.6 0 0 1-11.2.4c-6.4 0-11.5-.1-15.1-.4v2.7c4.4.6 7.4 1.6 9.3 3a9.8 9.8 0 0 1 3.5 6.4 93.4 93.4 0 0 1 .8 14.3v21.1h3.1z"/><path fill="none" d="M778.3 49h-10.4l10.4 11V49zM621.1 74.4q3.1 10.8 8.4 16.5c3.5 3.9 7.4 5.8 11.6 5.8s8.3-2 11.7-6 5.9-9.6 7.7-16.8a102.1 102.1 0 0 0 2.7-24.7V49H618v.7a91.6 91.6 0 0 0 3.1 24.7zM269.1 49h-8.4l4.5 10 3.9-10zM362 74.4q3.2 10.8 8.4 16.5c3.5 3.9 7.4 5.8 11.6 5.8s8.3-2 11.6-6 6-9.6 7.8-16.8a102.1 102.1 0 0 0 2.7-24.7V49h-45.2v.7a87.8 87.8 0 0 0 3.1 24.7z"/><path d="M210.1 73.5a72.8 72.8 0 0 1-.7 12.1 9.9 9.9 0 0 1-2.7 6c-1.3 1.4-3.4 2.3-6.2 2.9v2.7c2.7-.2 6.5-.3 11.2-.3 6.5 0 11.6.1 15.2.3v-2.7q-6.6-.9-9.3-3c-1.9-1.3-3.1-3.5-3.6-6.4a92.5 92.5 0 0 1-.8-14.3V49h-3.1zM265.2 59l-4.5-10h-30.6l21.2 48.1h2.1L272.2 49h-3.1l-3.9 10zM286 82.9a25.6 25.6 0 0 1-.8 7.4 5.2 5.2 0 0 1-3.1 3.2 21.7 21.7 0 0 1-7 1v2.7c5.1-.2 13.1-.3 23.9-.3s18.4.1 24 .3v-2.7a17.8 17.8 0 0 1-6.3-1 4.8 4.8 0 0 1-2.6-3.2 26.4 26.4 0 0 1-.7-7.4V49H286zm118.1-33.7a102.1 102.1 0 0 1-2.7 24.7q-2.7 10.8-7.8 16.8c-3.3 4-7.2 6-11.6 6s-8.1-1.9-11.6-5.8-6.3-9.3-8.4-16.5a87.8 87.8 0 0 1-3.1-24.7V49h-28.3v1.2c0 10.2 2.1 19 6.3 26.3a41.5 41.5 0 0 0 17.8 16.9c7.6 3.8 16.5 5.8 26.7 5.8a53.9 53.9 0 0 0 26.5-6.4A45.6 45.6 0 0 0 426 75c4.3-7.5 6.4-16.2 6.5-26h-28.4zM470.8 82a23.9 23.9 0 0 1-1.1 8.3 6.3 6.3 0 0 1-4.2 3.4c-2 .6-5.2.8-9.6.8v2.7l27.7-.3 29.6.3v-2.7c-4.4 0-7.6-.2-9.6-.8a6.3 6.3 0 0 1-4.2-3.4c-.8-1.8-1.1-4.5-1.1-8.3V49h-27.5zm74.3.9a26.4 26.4 0 0 1-.7 7.4 4.5 4.5 0 0 1-2.6 3.2 17.8 17.8 0 0 1-6.3 1v2.7c5.1-.2 13.2-.3 24.1-.3s17.2.1 22.5.3v-2.7a17.2 17.2 0 0 1-6.2-1 4.9 4.9 0 0 1-2.7-3.2 26.4 26.4 0 0 1-.7-7.4V49h-27.4zm118.1-33.7a102.1 102.1 0 0 1-2.7 24.7c-1.8 7.2-4.4 12.8-7.7 16.8s-7.3 6-11.7 6-8.1-1.9-11.6-5.8-6.3-9.3-8.4-16.5a91.6 91.6 0 0 1-3.1-24.7V49h-28.3v1.2c0 10.2 2.1 19 6.3 26.3a42.1 42.1 0 0 0 17.8 16.9 59.8 59.8 0 0 0 26.8 5.8c9.9 0 18.7-2.1 26.4-6.4A44.9 44.9 0 0 0 685.1 75c4.3-7.5 6.4-16.2 6.5-26h-28.4zM778.3 60l-10.4-11h-40.1l44.1 48.2h9.5V49h-3.1zm-69.2 13.5a85.9 85.9 0 0 1-.7 12.1 11.2 11.2 0 0 1-2.7 6c-1.4 1.4-3.5 2.3-6.3 2.9v2.7c2.8-.2 6.5-.3 11.2-.3 6.5 0 11.6.1 15.2.3v-2.7q-6.4-.9-9.3-3c-1.8-1.3-3-3.5-3.6-6.4a96 96 0 0 1-.7-14.3V49h-3.1zM547.8 167c0 10.2 2.1 18.9 6.4 26.3a41.3 41.3 0 0 0 17.8 16.8c7.6 3.9 16.5 5.8 26.7 5.8a41.3 41.3 0 0 0 9.8-1.1 39.6 39.6 0 0 0 7.8-3c2.2-1.2 4.7-2.8 7.4-4.6a5.3 5.3 0 0 1 2.8-1.2c.9 0 1.7.7 2.2 1.9a26.9 26.9 0 0 1 1.1 6.1h3.1q-.6-9.9-.6-35.1h-3.1a93 93 0 0 1-1.8 13.4 32.4 32.4 0 0 1-3.8 9.3 20.5 20.5 0 0 1-6.8 6.6 22.8 22.8 0 0 1-12.5 4c-6.5 0-11.6-2.2-15.4-6.8a39.9 39.9 0 0 1-7.8-17 101.6 101.6 0 0 1-2.2-21.9v-.5h-31a3.4 3.4 0 0 0-.1 1z"/><path d="M591.1 145.6a39.7 39.7 0 0 1 7.8-17.1c3.8-4.5 8.9-6.8 15.3-6.8a22.8 22.8 0 0 1 12.6 4 21.8 21.8 0 0 1 6.8 6.7 28.2 28.2 0 0 1 3.7 8.7 67.2 67.2 0 0 1 1.9 12h3.1c0-16.1.2-27.3.6-33.7h-3.1c-.5 5.4-1.6 8-3.5 8a4.6 4.6 0 0 1-2.6-1.2 48.2 48.2 0 0 0-11.1-6.4 37.6 37.6 0 0 0-13.8-2.3 54.2 54.2 0 0 0-26.4 6.3 45.6 45.6 0 0 0-18.1 17.8c-4.2 7.4-6.3 15.8-6.5 25.3h31.1a96.1 96.1 0 0 1 2.2-21.3z"/></symbol><symbol id="illustration" viewBox="0 0 703.1 209.9"><path d="M139.4 90.8a4.8 4.8 0 0 1-2.6-3.2 25.3 25.3 0 0 1-.8-7.3V46.5h-27.3v33.8a26.1 26.1 0 0 1-.7 7.3 4.8 4.8 0 0 1-2.6 3.2 19.9 19.9 0 0 1-6.3 1.1v2.7c5.1-.3 13.1-.4 24-.4s17.3.1 22.6.4v-2.7a19.9 19.9 0 0 1-6.3-1.1zm89-20.3c0-5 .1-9.2.4-12.4h-3.1a50.5 50.5 0 0 1-5.9 16.1 46.2 46.2 0 0 1-10 12.5c-3.7 3.2-7.1 4.8-10.3 4.8h-4.4a12.1 12.1 0 0 1-4.5-.6 3.4 3.4 0 0 1-1.9-2.4 18.1 18.1 0 0 1-.6-5.5V46.5h-27.3v33.8a30.6 30.6 0 0 1-.7 7.3 5 5 0 0 1-2.6 3.2 19.9 19.9 0 0 1-6.3 1.1v2.7c10.4-.3 26.2-.4 47.2-.4 14.5 0 24.8.1 30.9.4-.6-6.3-.9-14.3-.9-24.1zm83.2 0c0-5 .1-9.2.4-12.4h-3.1a48.4 48.4 0 0 1-6 16.1 42.7 42.7 0 0 1-10 12.5q-5.5 4.8-10.2 4.8h-4.5a12.4 12.4 0 0 1-4.5-.6 3.7 3.7 0 0 1-1.9-2.4 23.2 23.2 0 0 1-.5-5.5V46.5h-27.4v33.8a26.1 26.1 0 0 1-.7 7.3 4.5 4.5 0 0 1-2.6 3.2 19.9 19.9 0 0 1-6.3 1.1v2.7c10.5-.3 26.2-.4 47.3-.4 14.5 0 24.8.1 30.9.4-.6-6.3-.9-14.3-.9-24.1zm78.1-24v10.3c0 11.2-1.8 19.8-5.4 25.9s-9.6 9-18.2 9a19.1 19.1 0 0 1-9.5-2.1 13.6 13.6 0 0 1-5.5-7.3c-1.3-3.4-1.9-8.1-1.9-13.9V46.5h-27.4v9.2a110.4 110.4 0 0 0 .9 15.3 36.3 36.3 0 0 0 3.3 11 22.9 22.9 0 0 0 6.9 8c6 4.3 14.5 6.5 25.4 6.5 14.3 0 24-4.2 29-12.6 3.7-6 5.5-15.6 5.5-28.6v-8.8z"/><path d="M113.1.4c-10.9 0-18.9-.1-24-.4v2.7a17.2 17.2 0 0 1 6.2 1.1A4.7 4.7 0 0 1 98 6.9a31.5 31.5 0 0 1 .7 7.4v33.5H126V14.3a31.5 31.5 0 0 1 .7-7.4 4.7 4.7 0 0 1 2.7-3.1 17.4 17.4 0 0 1 6.3-1.1V0c-5.3.3-12.8.4-22.6.4zm52.1 0c-10.9 0-18.9-.1-24.1-.4v2.7a17.4 17.4 0 0 1 6.3 1.1 4.3 4.3 0 0 1 2.6 3.1 26.1 26.1 0 0 1 .8 7.4v33.5h27.3V14.3a22.3 22.3 0 0 1 .9-7.4 4.7 4.7 0 0 1 3-3.1 21.8 21.8 0 0 1 7.1-1.1V0c-5.6.3-13.5.4-23.9.4zm83.2 0c-10.9 0-19-.1-24.1-.4v2.7a16.7 16.7 0 0 1 6.2 1.1 4.7 4.7 0 0 1 2.7 3.1 26.9 26.9 0 0 1 .7 7.4v33.5h27.4V14.3a26.1 26.1 0 0 1 .8-7.4 5.1 5.1 0 0 1 3-3.1 22.3 22.3 0 0 1 7.1-1.1V0c-5.5.3-13.5.4-23.8.4zm132.8 0c-6.4 0-11.5-.1-15.1-.4v2.7c4.3.6 7.4 1.6 9.2 3a9.5 9.5 0 0 1 3.6 6.4 93.4 93.4 0 0 1 .8 14.3v21.4h3.1V23.7a73.6 73.6 0 0 1 .7-12.1 9.9 9.9 0 0 1 2.7-6 12.4 12.4 0 0 1 6.2-2.9V0a109.6 109.6 0 0 1-11.2.4zM326 .4c-10.8 0-18.7-.1-23.8-.4v2.7a17.4 17.4 0 0 1 6.3 1.1 4.6 4.6 0 0 1 2.6 3.1 26.4 26.4 0 0 1 .7 7.4v33.5h27.4V14.3a26.1 26.1 0 0 1 .8-7.4 5 5 0 0 1 3.1-3.1 21.8 21.8 0 0 1 7.1-1.1V0c-5.6.3-13.6.4-24.2.4zM77.8 171a34.1 34.1 0 0 0-7.2-9.2l-2.1-1.8H23.7c2.8 2.1 6.3 4.6 10.3 7.3a101.3 101.3 0 0 1 10.8 8 28.2 28.2 0 0 1 6.5 7.8 19 19 0 0 1 2.4 9.6c0 4.1-1.4 7.3-4.3 9.6s-6.9 3.5-11.9 3.5c-8.1 0-14-3.3-17.9-10s-6.1-15.3-6.6-26H9.9c0 19.2-.2 32.3-.6 39.1h3.1a18.2 18.2 0 0 1 1.1-4.5 2.1 2.1 0 0 1 1.9-1.4c1 0 2.5.6 4.6 1.9a46.7 46.7 0 0 0 10.1 3.7 59.3 59.3 0 0 0 13.8 1.3 56.5 56.5 0 0 0 18.5-2.9 30.3 30.3 0 0 0 13.3-9 22.8 22.8 0 0 0 4.9-14.8 25.3 25.3 0 0 0-2.8-12.2zm73.9 33.5a6 6 0 0 1-4.2-3.5c-.8-1.7-1.2-4.4-1.2-8.2V160h-27.4v32.8c0 3.8-.4 6.5-1.2 8.2a6.1 6.1 0 0 1-4.1 3.5 44.7 44.7 0 0 1-9.7.8v2.7l27.8-.4 29.6.4v-2.7a43 43 0 0 1-9.6-.8zm127-3.7a5.4 5.4 0 0 1-4.1 1.8 4.2 4.2 0 0 1-3.7-1.9q-1.3-1.9-2.4-6.9l-2.8-14a18.1 18.1 0 0 0-8.7-12.6c-4.7-2.8-11.6-4.5-20.8-5a82 82 0 0 0 12.6-2.2h-55.6v33.7a26.4 26.4 0 0 1-.7 7.4 5 5 0 0 1-2.6 3.2 20.5 20.5 0 0 1-6.3 1v2.7c5.1-.2 13.1-.4 24-.4s17.3.2 22.6.4v-2.7a20.5 20.5 0 0 1-6.3-1 5 5 0 0 1-2.6-3.2 25.6 25.6 0 0 1-.8-7.4v-31h6.2c3.1 0 5.5 1.6 7 4.8s2.8 8 3.7 14.3l2.1 13.5c.8 5.3 2.9 9.1 6.3 11.3s8.3 3.3 14.5 3.3a35 35 0 0 0 11.3-1.6 22.6 22.6 0 0 0 8.9-5.7zm96.2 2.3a18 18 0 0 1-3.8-6.4L356.8 160h-29.5l3.4 9.1h-25.3l3.5-9.1h-3.2l-11.5 29.5a42.6 42.6 0 0 1-6.1 11.7c-2 2.4-4.1 3.8-6.3 4.1v2.7c2.7-.2 6.2-.4 10.4-.4s11 .2 17.7.4v-2.7c-4-.1-7.1-.9-9.1-2.2s-3.1-3.9-3.1-7.6 1.5-10 4.4-17.6l2.3-6.1h27.2l8 22.2a20.9 20.9 0 0 1 1.7 6.4 3.9 3.9 0 0 1-2.2 3.7c-1.5.7-3.9 1.1-7.3 1.2v2.7c4.8-.2 12.4-.4 22.7-.4s18 .2 24.6.4v-2.7a6.7 6.7 0 0 1-4.2-2.2zm59.2 1.4a6.5 6.5 0 0 1-4.2-3.5c-.7-1.7-1.1-4.4-1.1-8.2V160h-27.4v32.8c0 3.8-.4 6.5-1.2 8.2a6.5 6.5 0 0 1-4.2 3.5 43 43 0 0 1-9.6.8v2.7l27.7-.4 29.6.4v-2.7a43 43 0 0 1-9.6-.8zm72.3-.2a5.1 5.1 0 0 1-2.7-3.2 26.4 26.4 0 0 1-.7-7.4V160h-27.4v33.7a32.2 32.2 0 0 1-.6 7.4 5.1 5.1 0 0 1-2.7 3.2 20.5 20.5 0 0 1-6.3 1v2.7c5.2-.2 13.2-.4 24.1-.4s17.3.2 22.5.4v-2.7a20.3 20.3 0 0 1-6.2-1zM591 160a102.6 102.6 0 0 1-2.7 24.7c-1.8 7.1-4.4 12.7-7.7 16.8s-7.3 6-11.7 6-8.1-1.9-11.6-5.8-6.3-9.4-8.4-16.5a92.1 92.1 0 0 1-3.1-24.7v-.5h-28.3v1c0 10.2 2.1 18.9 6.3 26.3a41.8 41.8 0 0 0 17.8 16.8c7.7 3.9 16.6 5.8 26.8 5.8a54.2 54.2 0 0 0 26.4-6.3 44.9 44.9 0 0 0 18.1-17.8 53.1 53.1 0 0 0 6.5-25.8zm109 0v10.8L689.8 160h-40.1l43.9 48 5.1-.2 4.4.2v-48zm-61.8 42.3a9.8 9.8 0 0 1-3.5-6.4c-.6-2.9-.8-7.7-.8-14.3V160h-3.1v24.3a85.9 85.9 0 0 1-.7 12.1 11.2 11.2 0 0 1-2.7 6 13.2 13.2 0 0 1-6.3 2.9v2.7c2.8-.2 6.5-.4 11.2-.4 6.5 0 11.6.2 15.2.4v-2.7q-6.4-.9-9.3-3z"/><path d="M62.9 112.8a16.3 16.3 0 0 1-1.1 4.5 2 2 0 0 1-1.9 1.4 4.2 4.2 0 0 1-1.8-.4l-2.8-1.5a47.4 47.4 0 0 0-9.3-4 47.6 47.6 0 0 0-12.6-1.4 50 50 0 0 0-16.7 2.7 26.8 26.8 0 0 0-12.1 8.6c-3.1 3.8-4.6 8.6-4.6 14.2a23.7 23.7 0 0 0 3.1 12.3 35.9 35.9 0 0 0 7.9 9.4l3.1 2.5h44.7c-2.7-2.3-6.1-4.8-10.1-7.6-7.5-5.2-12.6-8.9-15.3-10.9a29.2 29.2 0 0 1-6.2-6.6 15.5 15.5 0 0 1-2.3-8.4c0-4 1.3-7 3.8-9.2a14.9 14.9 0 0 1 10-3.3 17.6 17.6 0 0 1 11.9 4.4 30.6 30.6 0 0 1 8.1 11.5 43.9 43.9 0 0 1 3.5 14.7h3.1c0-15.5.2-26.5.7-32.9zm103.7.5c-8.5.3-23.1.4-43.9.4s-35.6-.1-44.2-.4c.6 10 .9 18.9.9 26.8a80.6 80.6 0 0 1-.4 9.6h3.1c3-11.9 6.8-20.4 11.5-25.6s9.7-7.7 15.2-7.7h.1v44.7h27.4v-44.7h.1c5.5 0 10.5 2.6 15.2 7.8s8.5 13.7 11.4 25.5h3.1c-.2-2.3-.4-5.5-.4-9.6 0-7.9.3-16.8.9-26.8zm82.5 5.9c-6.7-3.9-16.9-5.8-30.6-5.8l-9.3.2h-12.4c-10.3 0-18.1-.1-23.2-.4v2.8a20.3 20.3 0 0 1 6.2 1 5.1 5.1 0 0 1 2.7 3.2 30.9 30.9 0 0 1 .7 7.4v33.5h54.6q9-2.4 13.8-6.9a22.8 22.8 0 0 0 7.6-17.3c0-8-3.4-13.9-10.1-17.7zm-19.6 30.9a14.5 14.5 0 0 1-5 7.8c-2.5 1.9-5.9 2.9-10.3 2.9h-3.7v-33.2a33.6 33.6 0 0 1 .6-7.3 5.6 5.6 0 0 1 2.1-3.4 9.5 9.5 0 0 1 4.7-.9q6.9 0 9.9 5.7c2 3.7 3 9.3 3 16.7a43.9 43.9 0 0 1-1.3 11.7zm98.9-36.8a84.2 84.2 0 0 1-14.2 0l-18.6 47.8h3.2l9.6-24.9 9 24.9h29.5zm120.7 0c-8.5.3-23.2.4-44 .4s-35.6-.1-44.1-.4c.6 10 .9 18.9.9 26.8a80.6 80.6 0 0 1-.4 9.6h3.1c3-11.9 6.8-20.4 11.4-25.6s9.7-7.7 15.2-7.7h.2v44.7h27.4v-44.7h.1c5.4 0 10.5 2.6 15.1 7.8s8.5 13.7 11.5 25.5h3.1a80.6 80.6 0 0 1-.4-9.6c0-7.9.3-16.8.9-26.8zm31 .4c-10.9 0-18.9-.1-24.1-.4v2.7a19.7 19.7 0 0 1 6.2 1 5.1 5.1 0 0 1 2.7 3.2 26.4 26.4 0 0 1 .7 7.4v33.5H493v-33.5a26.4 26.4 0 0 1 .7-7.4 5 5 0 0 1 2.6-3.2 20.5 20.5 0 0 1 6.3-1v-2.7c-5.2.3-12.8.4-22.5.4zm123 20.3a42.4 42.4 0 0 0-17.8-16.8c-7.7-3.9-16.6-5.8-26.8-5.8a54.9 54.9 0 0 0-26.5 6.3 45.3 45.3 0 0 0-18 17.8 52.3 52.3 0 0 0-6.5 25.6h28.3a99.2 99.2 0 0 1 2.8-24.4c1.8-7.2 4.4-12.8 7.7-16.9s7.2-6 11.7-6 8.1 1.9 11.6 5.8 6.3 9.4 8.3 16.5a88.3 88.3 0 0 1 3.1 24.7v.3h28.4v-.8c0-10.2-2.1-18.9-6.3-26.3zm31.7-20.7c-3.3.3-7.5.4-12.5.4s-8.4-.1-11.2-.4v2.7a20.5 20.5 0 0 1 6.3 1 4.7 4.7 0 0 1 2.6 3.2 25.6 25.6 0 0 1 .8 7.4v33.5h3.1v-17.6l16 17.6H680zm56.7.4c-6.4 0-11.5-.1-15.1-.4v2.7q6.5.9 9.3 3a9.8 9.8 0 0 1 3.5 6.4 93.4 93.4 0 0 1 .8 14.3v21.4h3.1V137a87 87 0 0 1 .7-12.1 11.2 11.2 0 0 1 2.7-6 12.4 12.4 0 0 1 6.2-2.9v-2.7a109.6 109.6 0 0 1-11.2.4z"/></symbol><symbol id="photography" viewBox="0 0 675 209.7"><path d="M42 58.4c10.7 0 19.3-1.5 25.8-4.6a37.3 37.3 0 0 0 7.7-4.6H53.4c-2.4 4.3-6.7 6.5-12.7 6.5H37v-6.5H9.6v33.5a26.9 26.9 0 0 1-.7 7.4 4.3 4.3 0 0 1-2.6 3.1A17.4 17.4 0 0 1 0 94.3V97l24.2-.4c6.4 0 15.7.1 27.8.4v-3.1a36.6 36.6 0 0 1-9.6-.9 6.1 6.1 0 0 1-4.3-3.4 23.9 23.9 0 0 1-1.1-8.3V58.4zm146.7 34.8a4.7 4.7 0 0 1-2.7-3.1 26.9 26.9 0 0 1-.7-7.4V49.2h-85.2v33.5a26.9 26.9 0 0 1-.7 7.4 4.3 4.3 0 0 1-2.6 3.1 17.4 17.4 0 0 1-6.3 1.1V97c5.1-.3 13.2-.4 24.1-.4s17.2.1 22.5.4v-2.7a16.7 16.7 0 0 1-6.2-1.1 4.7 4.7 0 0 1-2.7-3.1 26.9 26.9 0 0 1-.7-7.4V50.3h30.4v32.4a30.9 30.9 0 0 1-.7 7.4 4.6 4.6 0 0 1-2.6 3.1 17.4 17.4 0 0 1-6.3 1.1V97c5.6-.3 13.5-.4 23.9-.4s17.9.1 22.7.4v-2.7a16.3 16.3 0 0 1-6.2-1.1zm87.4-44a104.3 104.3 0 0 1-2.8 24.4c-1.8 7.2-4.4 12.8-7.7 16.8s-7.2 6.1-11.7 6.1-8.1-2-11.6-5.8-6.3-9.4-8.4-16.5a92.1 92.1 0 0 1-3.1-24.7v-.3h-28.3v.8c0 10.2 2.1 18.9 6.3 26.3a43 43 0 0 0 17.8 16.8c7.7 3.9 16.6 5.8 26.8 5.8a54.2 54.2 0 0 0 26.4-6.3 44.9 44.9 0 0 0 18.1-17.8 52.6 52.6 0 0 0 6.5-25.6zm99.4 44.2a5.7 5.7 0 0 1-4.1-3.4c-.8-1.7-1.2-4.4-1.2-8.2V49.2h-27.4v32.6c0 3.8-.4 6.5-1.2 8.2a5.9 5.9 0 0 1-4.2 3.4 36.6 36.6 0 0 1-9.6.9V97c12.1-.3 21.4-.4 27.8-.4s16.9.1 29.6.4v-2.7a38.1 38.1 0 0 1-9.7-.9zm106.6-44.2a99.5 99.5 0 0 1-2.7 24.4q-2.7 10.8-7.8 16.8c-3.3 4.1-7.2 6.1-11.6 6.1s-8.1-2-11.6-5.8-6.3-9.4-8.4-16.5a88.3 88.3 0 0 1-3.1-24.7v-.3h-28.3v.8c0 10.2 2.1 18.9 6.3 26.3a41.9 41.9 0 0 0 17.8 16.8c7.6 3.9 16.5 5.8 26.7 5.8a54.9 54.9 0 0 0 26.5-6.3A46.2 46.2 0 0 0 504 74.8a52.6 52.6 0 0 0 6.5-25.6z"/><path d="M91.1 14.7c-3-4-7.5-7.1-13.6-9.3S63.9 2.1 55 2.1H33.3C22.9 2.1 15.1 2 10 1.7v2.9a19.1 19.1 0 0 1 6.2 1.1 4.7 4.7 0 0 1 2.7 3.1 26.9 26.9 0 0 1 .7 7.4v33.5H47V16.2a41.3 41.3 0 0 1 .5-7.2 4.8 4.8 0 0 1 2.2-3.4 8.1 8.1 0 0 1 4.6-1 10.3 10.3 0 0 1 10 6.2c2 4.1 3 10.6 3 19.3s-1.2 14.4-3.6 19l-.3.6h22.1a25.4 25.4 0 0 0 6.1-6.7 27.9 27.9 0 0 0 4-14.3 22.8 22.8 0 0 0-4.5-14zm91.1-12.4c-10.4 0-18.3-.1-23.9-.4v2.7c2.9.2 5 .5 6.2 1.1a4.7 4.7 0 0 1 2.7 3.1 31.5 31.5 0 0 1 .7 7.4v31.9h-30.4V16.2a26.9 26.9 0 0 1 .7-7.4 4.3 4.3 0 0 1 2.6-3.1 19.9 19.9 0 0 1 6.3-1.1V1.9c-5.3.3-12.8.4-22.5.4s-18.9-.1-24.1-.4v2.7a19.1 19.1 0 0 1 6.2 1.1 4.7 4.7 0 0 1 2.7 3.1 26.9 26.9 0 0 1 .7 7.4v33.5h85.2V16.2a26.9 26.9 0 0 1 .7-7.4 4.6 4.6 0 0 1 2.6-3.1 19.9 19.9 0 0 1 6.3-1.1V1.9c-4.9.3-12.4.4-22.7.4zm125.9 20.4a42.1 42.1 0 0 0-17.8-16.9C282.6 1.9 273.7 0 263.5 0a54.2 54.2 0 0 0-26.4 6.3A45.6 45.6 0 0 0 219 24.1a52.6 52.6 0 0 0-6.5 25.6h28.3a104.3 104.3 0 0 1 2.8-24.4c1.8-7.2 4.4-12.8 7.7-16.8s7.3-6.1 11.7-6.1 8.1 2 11.6 5.8 6.3 9.4 8.4 16.6a90.8 90.8 0 0 1 3.1 24.6v.3h28.3v-.8c0-10.1-2.1-18.9-6.3-26.2zM410.5 1.9c-8.5.3-23.2.4-43.9.4s-35.6-.1-44.2-.4c.6 10 .9 18.9.9 26.8a83.6 83.6 0 0 1-.4 9.7h3.1c3-11.9 6.8-20.5 11.5-25.6S347.2 5 352.6 5h.2v44.7h27.4V5h.1c5.4 0 10.5 2.6 15.2 7.8s8.5 13.8 11.4 25.6h3.1a83.6 83.6 0 0 1-.4-9.7c0-7.9.3-16.8.9-26.8zm103.6 20.8a41.5 41.5 0 0 0-17.8-16.9C488.7 1.9 479.8 0 469.6 0a54.6 54.6 0 0 0-26.5 6.3 46 46 0 0 0-18 17.8c-4.3 7.5-6.4 16-6.5 25.6h28.3a99.5 99.5 0 0 1 2.7-24.4c1.9-7.2 4.4-12.8 7.8-16.8s7.2-6.1 11.7-6.1 8 2 11.6 5.8 6.3 9.4 8.3 16.6a87 87 0 0 1 3.1 24.6v.3h28.4v-.8c0-10.1-2.1-18.9-6.4-26.2zM164.7 167.2c-11.5 0-20.1-.2-25.8-.5v2.7c4 .2 7 .7 8.8 1.5a6.8 6.8 0 0 1 3.8 4.3 33.6 33.6 0 0 1 1.1 9.9v13.5c0 3.2-1 5.4-2.9 6.7a11.5 11.5 0 0 1-6.6 1.7c-6.8 0-12.1-3.9-15.9-11.6s-5.8-19.5-5.8-35.1v-.3h-31a1.9 1.9 0 0 0-.1.8q0 15.4 5.7 26.4a38.1 38.1 0 0 0 17 16.7c7.6 3.9 16.9 5.8 28.1 5.8 6.2 0 13.8-2.2 22.8-6.5 4.2-2.1 7.3-3.1 9.2-3.1s2.3.8 3 2.4a15.2 15.2 0 0 1 1.2 5.3h2.7V181a44.7 44.7 0 0 1 .4-7.4 5.3 5.3 0 0 1 1.5-3.1 9 9 0 0 1 3.6-1.1v-2.7c-4.3.3-11.2.5-20.8.5zm122.9 34.6l-1.1-1.2a5.8 5.8 0 0 1-4.2 1.8 4.4 4.4 0 0 1-3.7-1.9q-1.4-2-2.4-6.9l-2.8-14a17.7 17.7 0 0 0-8.7-12.6c-4.7-2.8-11.6-4.5-20.8-5a88.7 88.7 0 0 0 11.7-2h-54.7v33.5a26.9 26.9 0 0 1-.7 7.4 4.6 4.6 0 0 1-2.6 3.1 19.9 19.9 0 0 1-6.3 1.1v2.7c5.1-.3 13.1-.4 24-.4s17.3.1 22.6.4v-2.7a19.9 19.9 0 0 1-6.3-1.1 4.6 4.6 0 0 1-2.6-3.1 26.9 26.9 0 0 1-.7-7.4v-31.1h6.1c3.1 0 5.5 1.6 7 4.9s2.8 8 3.7 14.3l2.1 13.5c.8 5.3 2.9 9 6.3 11.3s8.3 3.3 14.5 3.3a34.9 34.9 0 0 0 11.3-1.7l2.8-1.1a23.4 23.4 0 0 0 6.1-4.5z"/><path d="M373.2 202.9a18.6 18.6 0 0 1-3.8-6.5L355.2 160h-29.5l3.2 8.9h-25.2l3.4-8.9h-3.2l-11.4 29.3c-2.1 5.3-4.1 9.2-6.1 11.6l-.8.9a9.5 9.5 0 0 1-5.5 3.3v2.7a99.9 99.9 0 0 1 10.4-.4c5.1 0 11 .1 17.7.4v-2.7c-4.1-.2-7.1-.9-9.1-2.3s-3.1-3.9-3.1-7.5 1.4-10.1 4.3-17.6l2.3-6.1h27.3l8 22.1a21.6 21.6 0 0 1 1.7 6.4 3.8 3.8 0 0 1-2.2 3.7c-1.5.7-3.9 1.1-7.3 1.3v2.7c4.8-.3 12.4-.4 22.6-.4s18.1.1 24.6.4v-2.7a6.7 6.7 0 0 1-4.1-2.2zm50.1-33.7c10.7 0 19.4-1.6 25.9-4.6a43.6 43.6 0 0 0 7.7-4.6h-22.2c-2.4 4.3-6.6 6.4-12.7 6.4h-3.7V160H391v33.5a31.5 31.5 0 0 1-.7 7.4 4.7 4.7 0 0 1-2.7 3.1 19.9 19.9 0 0 1-6.3 1.1v2.7l24.2-.4c6.4 0 15.7.1 27.8.4v-3.1a36.6 36.6 0 0 1-9.6-.9 5.7 5.7 0 0 1-4.2-3.4c-.8-1.8-1.2-4.5-1.2-8.3v-22.9zM570 204a4.3 4.3 0 0 1-2.6-3.1 26.1 26.1 0 0 1-.8-7.4V160h-85.1v33.5a31.5 31.5 0 0 1-.7 7.4 4.7 4.7 0 0 1-2.7 3.1 19.9 19.9 0 0 1-6.3 1.1v2.7c5.2-.3 13.2-.4 24.1-.4s17.3.1 22.5.4v-2.7a19.7 19.7 0 0 1-6.2-1.1 4.7 4.7 0 0 1-2.7-3.1 31.5 31.5 0 0 1-.7-7.4V161h30.4v32.5a26.4 26.4 0 0 1-.7 7.4 4.3 4.3 0 0 1-2.6 3.1 19.9 19.9 0 0 1-6.3 1.1v2.7c5.6-.3 13.5-.4 23.9-.4s17.9.1 22.7.4v-2.7a19.1 19.1 0 0 1-6.2-1.1zm72.4 0a4.8 4.8 0 0 1-2.6-3.1 26.9 26.9 0 0 1-.7-7.4V160H607l4.7 8.6v24.9a30.9 30.9 0 0 1-.7 7.4 4.8 4.8 0 0 1-2.6 3.1 19.9 19.9 0 0 1-6.3 1.1v2.7c4.9-.3 12.6-.4 23.3-.4s18 .1 23.2.4v-2.7a19.7 19.7 0 0 1-6.2-1.1zM184 112.5a25.8 25.8 0 0 1-1.2 6.2c-.5 1.3-1.2 2-2.2 2a4.3 4.3 0 0 1-2.7-1.3 41 41 0 0 0-11.3-6.5 43.6 43.6 0 0 0-14.9-2.3c-10.2 0-19.2 2.1-27.1 6.4a45.6 45.6 0 0 0-18.6 17.8 50.9 50.9 0 0 0-6.6 25.5h31a93.6 93.6 0 0 1 2.5-21.4c1.7-6.9 4.5-12.7 8.5-17.2s9.2-6.8 15.7-6.8a27.4 27.4 0 0 1 7.4 1 20.5 20.5 0 0 1 6.5 3 24.4 24.4 0 0 1 6.8 6.8 28.7 28.7 0 0 1 3.8 8.7 90.2 90.2 0 0 1 1.9 11.9h3.1c0-16.1.1-27.4.5-33.8zm91.9 5.9c-6.7-3.8-17-5.7-30.7-5.7h-21.7c-10.3 0-18.1-.1-23.2-.4v2.8a17.6 17.6 0 0 1 6.2 1 4.9 4.9 0 0 1 2.7 3.2 26.4 26.4 0 0 1 .7 7.4v33.4h54.7c5.9-1.5 10.5-3.8 13.7-6.8a23 23 0 0 0 7.6-17.4c0-7.7-3.3-13.6-10-17.5zm-19.7 31a15.3 15.3 0 0 1-5 7.8c-2.4 1.9-5.9 2.9-10.2 2.9h-3.7v-33.2a33.7 33.7 0 0 1 .5-7.3 5.3 5.3 0 0 1 2.1-3.4 9.8 9.8 0 0 1 4.7-.9c4.6 0 7.9 1.8 9.9 5.6s3.1 9.4 3.1 16.8a44.6 44.6 0 0 1-1.4 11.7z"/><path d="M345.7 112.5a84.2 84.2 0 0 1-14.2 0l-18.6 47.8h3.2l9.6-24.8 9 24.8h29.5zm125.8 12.8c-3.1-4-7.6-7.1-13.7-9.3s-13.6-3.3-22.5-3.3h-21.7c-10.4 0-18.1-.1-23.3-.4v2.8a17.8 17.8 0 0 1 6.3 1 4.5 4.5 0 0 1 2.6 3.2 25.6 25.6 0 0 1 .8 7.4v33.4h27.3v-33.2a32.4 32.4 0 0 1 .6-7.3 5.3 5.3 0 0 1 2.1-3.4 9.4 9.4 0 0 1 4.6-.9c4.7 0 8 2 10 6.1s3 10.6 3 19.4-1.2 14.3-3.5 19l-.3.5h22.1a22.2 22.2 0 0 0 6-6.7 27.8 27.8 0 0 0 4.1-14.3 22.8 22.8 0 0 0-4.5-14zm91-12.4c-10.4 0-18.3-.1-23.8-.4v2.8a17.6 17.6 0 0 1 6.2 1 4.5 4.5 0 0 1 2.6 3.2 26.4 26.4 0 0 1 .7 7.4v31.8h-30.4v-31.8a30.9 30.9 0 0 1 .7-7.4 4.9 4.9 0 0 1 2.7-3.2 17.8 17.8 0 0 1 6.3-1v-2.8c-5.3.3-12.8.4-22.6.4s-18.9-.1-24.1-.4v2.8a17.8 17.8 0 0 1 6.3 1 4.5 4.5 0 0 1 2.6 3.2 25.6 25.6 0 0 1 .8 7.4v33.4h85.1v-33.4a30.9 30.9 0 0 1 .7-7.4 5 5 0 0 1 2.6-3.2 17.8 17.8 0 0 1 6.3-1v-2.8c-4.8.3-12.4.4-22.7.4zm102.1-.1c-5.1 0-11-.1-17.7-.4v2.7c7.2.3 10.8 3.7 10.8 10s-2.1 11.6-6.4 20.1l-6.1 12.2-19.3-37a4.8 4.8 0 0 1-.6-2.1c0-1.3.9-2.2 2.7-2.5a43.2 43.2 0 0 1 8.2-.5v-2.9c-12 .5-21.9.8-29.7.8s-13.1-.3-18.6-.8v2.9a5.6 5.6 0 0 1 3.6 1.8 24.7 24.7 0 0 1 4.2 5.7l20.3 37.5h32.1v-2.4l12.5-24.9c4.9-9.6 9.7-15.6 14.4-17.9v-2.7a99.9 99.9 0 0 1-10.4.4z"/></symbol></svg>