<svg xmlns="http://www.w3.org/2000/svg"><symbol id="miscellaneous" viewBox="0 0 787.33 216.45"><path d="M401.18 167.7h-9.07l9.07 9.59v-9.59zM76.81 48.95h-7.17l3.83 8.6 3.34-8.6zm-58.39 23.1a78.26 78.26 0 0 1-.69 12.1 10.79 10.79 0 0 1-2.7 6 12.62 12.62 0 0 1-6.23 2.9v2.7c2.73-.26 6.46-.39 11.21-.39q9.75 0 15.16.39v-2.7q-6.53-.93-9.3-3a9.87 9.87 0 0 1-3.56-6.43 90.92 90.92 0 0 1-.79-14.3V49h-3.1zm75.88 9.43a23.81 23.81 0 0 1-.83 7.38 5 5 0 0 1-3 3.16 23.51 23.51 0 0 1-7.09 1.06v2.7q7.73-.39 24-.39 15.62 0 23.93.39v-2.7a18.4 18.4 0 0 1-6.26-1.08 4.69 4.69 0 0 1-2.64-3.16 28.27 28.27 0 0 1-.69-7.38V49H94.3z"/><path d="M73.47 57.55l-3.83-8.6H39.06l20.5 46.7h2.17l18.26-46.7h-3.18l-3.34 8.6zm74.94 23.93a28.27 28.27 0 0 1-.69 7.38 4.71 4.71 0 0 1-2.63 3.14 18.73 18.73 0 0 1-6.3 1.06v2.7q7.71-.39 24.06-.39 14.64 0 22.54.39v-2.7a18.38 18.38 0 0 1-6.22-1.06 4.78 4.78 0 0 1-2.67-3.16 26.66 26.66 0 0 1-.73-7.38V49h-27.36zM220.46 55a110.8 110.8 0 0 1 10.81 8 29.55 29.55 0 0 1 6.5 7.78 19.18 19.18 0 0 1 2.4 9.59 11.74 11.74 0 0 1-4.35 9.69q-4.35 3.49-11.86 3.5-12.06 0-17.87-10t-6.65-26h-3.1q0 28.88-.6 39.15h3.1a17.23 17.23 0 0 1 1.16-4.55 2.07 2.07 0 0 1 1.91-1.39c1 0 2.53.64 4.55 1.91a51.7 51.7 0 0 0 10.19 3.66 58.28 58.28 0 0 0 13.74 1.35 54.93 54.93 0 0 0 18.52-3 29.5 29.5 0 0 0 13.25-9 22.55 22.55 0 0 0 4.95-14.8 25.67 25.67 0 0 0-2.8-12.19 32.74 32.74 0 0 0-7.22-9.2l-.68-.59h-44.6q3.71 2.81 8.65 6.09zm62.63 20.05a41.74 41.74 0 0 0 17.79 16.84q11.47 5.81 26.77 5.8a38.37 38.37 0 0 0 9.82-1.15 35.86 35.86 0 0 0 7.74-3 70.88 70.88 0 0 0 7.42-4.64 5.55 5.55 0 0 1 2.77-1.13c1 0 1.7.63 2.21 1.88a22.79 22.79 0 0 1 1.08 6.1h3.1q-.53-9.94-.53-35.07h-3.09a96.88 96.88 0 0 1-1.88 13.35 29.61 29.61 0 0 1-3.73 9.26 21.11 21.11 0 0 1-6.85 6.71 22.82 22.82 0 0 1-12.53 4q-9.69 0-15.32-6.82a39.27 39.27 0 0 1-7.85-17 103.43 103.43 0 0 1-2.2-21.18h-31.05q.05 15.07 6.33 26.05zM382 81.48a28.27 28.27 0 0 1-.69 7.38A4.72 4.72 0 0 1 378.7 92a18.73 18.73 0 0 1-6.3 1.06v2.7q15.69-.39 47.27-.39 21.75 0 30.91.39-.91-8.9-.92-22.67 0-7.59.4-12.4H447q-2.06 11.48-6.1 18.63t-9 10.25a18.29 18.29 0 0 1-9.79 3.09h-4.49a17 17 0 0 1-5.33-.59 3.66 3.66 0 0 1-2.29-2.29 17.76 17.76 0 0 1-.63-5.6V49.05h1.39a17.17 17.17 0 0 1 8.9 2.34 19.06 19.06 0 0 1 6.49 6.39 24.8 24.8 0 0 1 3.39 9.13h3.1q-.76-12.07-.84-18H382zm94.62.09a28.31 28.31 0 0 1-.69 7.39 4.72 4.72 0 0 1-2.64 3.16 18.91 18.91 0 0 1-6.29 1v2.71q15.69-.41 47.26-.4 21.75 0 30.92.4-.93-9.43-.93-24.06 0-7.59.4-12.4h-3.1a50.54 50.54 0 0 1-5.93 16.12 46.34 46.34 0 0 1-10 12.49q-5.57 4.75-10.25 4.75h-4.47a12.37 12.37 0 0 1-4.48-.59 3.44 3.44 0 0 1-1.91-2.34 20.8 20.8 0 0 1-.53-5.57V49h-27.36zM225.05 214.54zm-.92-24.06q0-7.59.39-12.4h-3.1a50.3 50.3 0 0 1-5.93 16.12 46.12 46.12 0 0 1-10 12.49q-5.56 4.76-10.25 4.75h-4.48a12.14 12.14 0 0 1-4.48-.6 3.42 3.42 0 0 1-1.91-2.33 21.26 21.26 0 0 1-.53-5.58V167.7h-27.35v32.53a28.17 28.17 0 0 1-.69 7.38 4.72 4.72 0 0 1-2.63 3.17 19 19 0 0 1-6.3 1.05v2.71q15.69-.4 47.26-.4 21.54 0 30.72.39v-2.21q-.72-8.88-.72-21.84zm.72 24.06zm48.85-38.9h-25.25l3.06-7.94h-3.25l-11 28.31c-2.06 5.37-4.09 9.25-6.09 11.67s-4.1 3.8-6.3 4.15v.49c.06.75.13 1.49.2 2.2 2.65-.25 6-.38 10.22-.38q7.57 0 17.66.4v-2.71c-4-.13-7.08-.87-9.13-2.24s-3.06-3.89-3.06-7.58q0-6.25 4.35-17.6l2.31-6.06h27.22l8 22.15a20.63 20.63 0 0 1 1.65 6.39 3.75 3.75 0 0 1-2.21 3.69q-2.21 1-7.28 1.25v2.71q7.24-.4 22.67-.4 14.83 0 24.59.4v-2.71a6.66 6.66 0 0 1-4.15-2.2 18.68 18.68 0 0 1-3.83-6.43l-13.77-35.5h-29.5z"/><path d="M224.85 214.53h.2c-.07-.71-.14-1.45-.2-2.2zm176.33-37.24l-9.07-9.59H352l42.86 46.84c1.81-.14 3.5-.2 5.08-.2a42.33 42.33 0 0 1 4.42.2V167.7h-3.17zM332 190.81a78 78 0 0 1-.69 12.09 10.8 10.8 0 0 1-2.71 6 12.49 12.49 0 0 1-6.23 2.9v2.71c2.73-.27 6.46-.4 11.21-.4q9.75 0 15.16.4v-2.71q-6.52-.92-9.29-3a9.81 9.81 0 0 1-3.56-6.42 89.76 89.76 0 0 1-.79-14.31V167.7H332zm98.52 9.42a27.64 27.64 0 0 1-.7 7.38 4.72 4.72 0 0 1-2.63 3.17 19 19 0 0 1-6.3 1.05v2.71q15.69-.4 47.27-.4 21.75 0 30.91.4a226.17 226.17 0 0 1-.92-22.68q0-7.58.39-12.39h-3.09q-2.06 11.46-6.1 18.62t-9 10.25a18.17 18.17 0 0 1-9.79 3.1h-4.48a17 17 0 0 1-5.34-.6 3.63 3.63 0 0 1-2.27-2.3 17.79 17.79 0 0 1-.63-5.61V167.8h1.39a17.17 17.17 0 0 1 8.9 2.34 19.06 19.06 0 0 1 6.49 6.39 24.87 24.87 0 0 1 3.39 9.13h3.1q-.76-12.06-.85-18h-49.74zm150.06-9.06q-2.75 10.77-7.75 16.81t-11.66 6q-6.33 0-11.61-5.8t-8.37-16.51a88.58 88.58 0 0 1-3.09-24h-28.35q0 15.12 6.33 26.1a41.82 41.82 0 0 0 17.79 16.85q11.48 5.79 26.77 5.8a54.26 54.26 0 0 0 26.43-6.33 45.32 45.32 0 0 0 18.1-17.8 52 52 0 0 0 6.44-24.62H583.3a99.69 99.69 0 0 1-2.72 23.5zm114.53-14.41q0 16.81-5.37 25.88t-18.23 9.06a18.49 18.49 0 0 1-9.49-2.17 13.26 13.26 0 0 1-5.54-7.29q-1.85-5.1-1.84-13.87V167.7h-27.43v7.94a109.92 109.92 0 0 0 .9 15.3 35.27 35.27 0 0 0 3.29 11 21.93 21.93 0 0 0 6.89 8q9.09 6.53 25.38 6.53 21.48 0 29-12.59 5.54-9 5.54-28.61v-7.57h-3.1zm45.62-2.96a113.32 113.32 0 0 1 10.81 8 29.54 29.54 0 0 1 6.49 7.78 19.16 19.16 0 0 1 2.41 9.59 11.75 11.75 0 0 1-4.36 9.69q-4.35 3.49-11.86 3.49-12.06 0-17.86-10t-6.66-26h-3.1q0 28.88-.59 39.16h3.09a17.74 17.74 0 0 1 1.12-4.55 2.08 2.08 0 0 1 1.92-1.38c1 0 2.52.63 4.55 1.91a51.37 51.37 0 0 0 10.18 3.66 58.33 58.33 0 0 0 13.74 1.35 54.78 54.78 0 0 0 18.53-3 29.53 29.53 0 0 0 13.25-9 22.6 22.6 0 0 0 4.94-14.8 25.58 25.58 0 0 0-2.8-12.19 32.7 32.7 0 0 0-7.22-9.19l-.68-.6h-44.56q3.7 2.77 8.66 6.08zm-515.68 40.72h-.14zM39.15 1.92q-11.67.39-27.95.39c-4.74 0-8.48-.13-11.2-.39v2.7a18.8 18.8 0 0 1 6.23 1A4.85 4.85 0 0 1 8.9 8.84a27.14 27.14 0 0 1 .72 7.38v33.49h3.1v-39l17.12 39h30.57zm59.39.39H86.81l-18.44 47.4h3.18L85.49 14v35.71h27.42V16.22a27.73 27.73 0 0 1 .7-7.42 4.73 4.73 0 0 1 2.6-3.13 18.6 18.6 0 0 1 6.26-1V1.92q-8.29.39-23.93.39zm55.51 0q-16.35 0-24.06-.39v2.7a18.8 18.8 0 0 1 6.23 1 4.82 4.82 0 0 1 2.66 3.17 26.66 26.66 0 0 1 .73 7.38v33.54H167V16.22a28.27 28.27 0 0 1 .69-7.38 4.72 4.72 0 0 1 2.63-3.17 19 19 0 0 1 6.3-1V1.92q-7.93.39-22.57.39zm96.5-.92a16.63 16.63 0 0 1-1.05 4.51 2.08 2.08 0 0 1-1.92 1.42 4.18 4.18 0 0 1-1.78-.43c-.61-.28-1.56-.78-2.83-1.48a46.94 46.94 0 0 0-9.29-4A45.09 45.09 0 0 0 221.09 0a48.4 48.4 0 0 0-16.68 2.77 26.87 26.87 0 0 0-12.16 8.54 22.08 22.08 0 0 0-4.59 14.2 24.06 24.06 0 0 0 3.14 12.36 35.32 35.32 0 0 0 7.91 9.4c.92.77 1.93 1.59 3 2.44h44.69q-4-3.37-10.06-7.58-11.28-7.85-15.26-11a27.13 27.13 0 0 1-6.26-6.59 15 15 0 0 1-2.28-8.37q0-5.94 3.82-9.23a14.71 14.71 0 0 1 10-3.3 17.67 17.67 0 0 1 11.86 4.42 30.64 30.64 0 0 1 8.14 11.47 45.35 45.35 0 0 1 3.53 14.77H253q0-23.28.66-33zm99.34.53q-.66 8-3.43 8a4.58 4.58 0 0 1-2.64-1.19 47.43 47.43 0 0 0-11.1-6.46A36.66 36.66 0 0 0 319 0a54.21 54.21 0 0 0-26.46 6.33 45.37 45.37 0 0 0-18.07 17.8A52.43 52.43 0 0 0 268 49.71h31a103.33 103.33 0 0 1 2.21-21.63 39.17 39.17 0 0 1 7.84-17q5.64-6.83 15.33-6.83a22.79 22.79 0 0 1 12.52 4 23 23 0 0 1 6.86 6.69 28.81 28.81 0 0 1 3.72 8.7 81.3 81.3 0 0 1 1.88 12h3.1q0-24.2.53-33.75zm89.19 0q-8.38.39-28.22.39-31.58 0-47.26-.39v2.7a18.75 18.75 0 0 1 6.23 1 4.85 4.85 0 0 1 2.67 3.17 27.14 27.14 0 0 1 .72 7.38v33.54H423v-.27l-.06-6.06q0-5.21.52-13.12h-3.09a25.94 25.94 0 0 1-3.37 8.31 22.64 22.64 0 0 1-6.36 6.78 14.7 14.7 0 0 1-8.64 2.71h-1.38V13.52a17.79 17.79 0 0 1 .59-5.52 3.61 3.61 0 0 1 2.27-2.34 17 17 0 0 1 5.34-.6h1.78a21.31 21.31 0 0 1 15.85 6.83q6.63 6.81 9 22.51h3.1a90.29 90.29 0 0 1-.4-9.76q0-10.07.93-22.72zm43.18.49q-16.35 0-24.06-.39v2.7a18.8 18.8 0 0 1 6.23 1 4.82 4.82 0 0 1 2.66 3.17 26.66 26.66 0 0 1 .73 7.38v33.54h27.36V16.32a23.88 23.88 0 0 1 .82-7.38 5.05 5.05 0 0 1 3-3.17 24 24 0 0 1 7.09-1V2q-8.28.41-23.83.41zM162.12 121.06q-16.35 0-24.06-.39v2.71a18.49 18.49 0 0 1 6.23 1 4.8 4.8 0 0 1 2.67 3.17 26.7 26.7 0 0 1 .73 7.38v33.49H175V135a23.86 23.86 0 0 1 .83-7.38 5.05 5.05 0 0 1 3-3.17 23.65 23.65 0 0 1 7.09-1v-2.71q-8.24.32-23.8.32zm110.48-.39q-2.84.26-7.05.26c-2.81 0-5.19-.09-7.12-.26l-18.6 47.79h3.23l9.57-24.86 9 24.86h29.49z"/><path d="M393.89 121.06q-9.63 0-15.09-.39v2.71q6.52.9 9.26 3a9.83 9.83 0 0 1 3.52 6.41 89.76 89.76 0 0 1 .79 14.31v21.36h3.17v-24.05a78.14 78.14 0 0 1 .69-12.11 10.92 10.92 0 0 1 2.67-6 12.21 12.21 0 0 1 6.2-2.89v-2.71q-4.02.36-11.21.36zm-56.69-.39q-5 .39-12.46.39c-4.74 0-8.48-.13-11.2-.39v2.71a18.59 18.59 0 0 1 6.23 1 4.85 4.85 0 0 1 2.67 3.17 27.19 27.19 0 0 1 .72 7.38v33.49h3.1v-17.5l16.05 17.54h40.09zm150.36 0q-8.37.39-28.21.39-31.58 0-47.27-.39v2.71a18.49 18.49 0 0 1 6.23 1 4.8 4.8 0 0 1 2.67 3.17 26.7 26.7 0 0 1 .73 7.38v33.49h49.77v-.27l-.07-6.05c0-3.47.18-7.86.53-13.13h-3.1a25.69 25.69 0 0 1-3.36 8.31 22.64 22.64 0 0 1-6.36 6.78 14.63 14.63 0 0 1-8.67 2.71h-1.38v-34.5a17.86 17.86 0 0 1 .62-5.57 3.64 3.64 0 0 1 2.28-2.34 16.93 16.93 0 0 1 5.33-.6h1.78a21.33 21.33 0 0 1 15.86 6.83q6.62 6.82 9 22.51H487a93.48 93.48 0 0 1-.39-9.76c.03-6.67.39-14.24.95-22.67zm108.96 20.74a41.84 41.84 0 0 0-17.79-16.86q-11.47-5.79-26.77-5.8a54.21 54.21 0 0 0-26.46 6.33 45.33 45.33 0 0 0-18.07 17.81 52.36 52.36 0 0 0-6.43 25.57h28.34A101.06 101.06 0 0 1 532 144q2.75-10.77 7.75-16.81t11.66-6c4.22 0 8.09 2 11.61 5.8s6.3 9.37 8.37 16.52a89.36 89.36 0 0 1 3.1 24.68v.27h28.33v-.79q.03-15.24-6.3-26.26zm91.3-20.35q-9.63 0-15.16-.39v2.71q6.52.9 9.29 3a9.74 9.74 0 0 1 3.56 6.41 89.76 89.76 0 0 1 .79 14.31v21.36h3.1v-24.05a78.14 78.14 0 0 1 .69-12.11 10.73 10.73 0 0 1 2.71-6 12.41 12.41 0 0 1 6.23-2.89v-2.71c-2.73.23-6.46.36-11.21.36zm-55.24 0q-16.16 0-23.73-.39v2.71a18.4 18.4 0 0 1 6.26 1 4.75 4.75 0 0 1 2.61 3.13 28.26 28.26 0 0 1 .69 7.42v33.49h27.42V135a23.92 23.92 0 0 1 .82-7.38 5 5 0 0 1 3-3.17 23.62 23.62 0 0 1 7.08-1v-2.71q-8.25.32-24.15.32zm138.23-.91a16.38 16.38 0 0 1-1.06 4.51 2.06 2.06 0 0 1-1.91 1.41 4.31 4.31 0 0 1-1.78-.42c-.61-.29-1.56-.79-2.83-1.48a46.24 46.24 0 0 0-9.3-4 45 45 0 0 0-12.59-1.45 48.38 48.38 0 0 0-16.67 2.77 27 27 0 0 0-12.17 8.54 22.17 22.17 0 0 0-4.58 14.2 24.22 24.22 0 0 0 3.13 12.37A35.81 35.81 0 0 0 719 166c.92.77 1.94 1.59 3 2.44h44.7q-4-3.37-10.06-7.57-11.28-7.84-15.26-11a27 27 0 0 1-6.26-6.59 15 15 0 0 1-2.28-8.37q0-5.94 3.82-9.23a14.71 14.71 0 0 1 10-3.3 17.67 17.67 0 0 1 11.86 4.42 30.72 30.72 0 0 1 8.14 11.47 45.35 45.35 0 0 1 3.53 14.77h3.1q0-23.28.66-32.95z"/></symbol><symbol id="photography" viewBox="0 0 675 209.7"><path d="M42 58.4c10.7 0 19.3-1.5 25.8-4.6a37.3 37.3 0 0 0 7.7-4.6H53.4c-2.4 4.3-6.7 6.5-12.7 6.5H37v-6.5H9.6v33.5a26.9 26.9 0 0 1-.7 7.4 4.3 4.3 0 0 1-2.6 3.1A17.4 17.4 0 0 1 0 94.3V97l24.2-.4c6.4 0 15.7.1 27.8.4v-3.1a36.6 36.6 0 0 1-9.6-.9 6.1 6.1 0 0 1-4.3-3.4 23.9 23.9 0 0 1-1.1-8.3V58.4zm146.7 34.8a4.7 4.7 0 0 1-2.7-3.1 26.9 26.9 0 0 1-.7-7.4V49.2h-85.2v33.5a26.9 26.9 0 0 1-.7 7.4 4.3 4.3 0 0 1-2.6 3.1 17.4 17.4 0 0 1-6.3 1.1V97c5.1-.3 13.2-.4 24.1-.4s17.2.1 22.5.4v-2.7a16.7 16.7 0 0 1-6.2-1.1 4.7 4.7 0 0 1-2.7-3.1 26.9 26.9 0 0 1-.7-7.4V50.3h30.4v32.4a30.9 30.9 0 0 1-.7 7.4 4.6 4.6 0 0 1-2.6 3.1 17.4 17.4 0 0 1-6.3 1.1V97c5.6-.3 13.5-.4 23.9-.4s17.9.1 22.7.4v-2.7a16.3 16.3 0 0 1-6.2-1.1zm87.4-44a104.3 104.3 0 0 1-2.8 24.4c-1.8 7.2-4.4 12.8-7.7 16.8s-7.2 6.1-11.7 6.1-8.1-2-11.6-5.8-6.3-9.4-8.4-16.5a92.1 92.1 0 0 1-3.1-24.7v-.3h-28.3v.8c0 10.2 2.1 18.9 6.3 26.3a43 43 0 0 0 17.8 16.8c7.7 3.9 16.6 5.8 26.8 5.8a54.2 54.2 0 0 0 26.4-6.3 44.9 44.9 0 0 0 18.1-17.8 52.6 52.6 0 0 0 6.5-25.6zm99.4 44.2a5.7 5.7 0 0 1-4.1-3.4c-.8-1.7-1.2-4.4-1.2-8.2V49.2h-27.4v32.6c0 3.8-.4 6.5-1.2 8.2a5.9 5.9 0 0 1-4.2 3.4 36.6 36.6 0 0 1-9.6.9V97c12.1-.3 21.4-.4 27.8-.4s16.9.1 29.6.4v-2.7a38.1 38.1 0 0 1-9.7-.9zm106.6-44.2a99.5 99.5 0 0 1-2.7 24.4q-2.7 10.8-7.8 16.8c-3.3 4.1-7.2 6.1-11.6 6.1s-8.1-2-11.6-5.8-6.3-9.4-8.4-16.5a88.3 88.3 0 0 1-3.1-24.7v-.3h-28.3v.8c0 10.2 2.1 18.9 6.3 26.3a41.9 41.9 0 0 0 17.8 16.8c7.6 3.9 16.5 5.8 26.7 5.8a54.9 54.9 0 0 0 26.5-6.3A46.2 46.2 0 0 0 504 74.8a52.6 52.6 0 0 0 6.5-25.6z"/><path d="M91.1 14.7c-3-4-7.5-7.1-13.6-9.3S63.9 2.1 55 2.1H33.3C22.9 2.1 15.1 2 10 1.7v2.9a19.1 19.1 0 0 1 6.2 1.1 4.7 4.7 0 0 1 2.7 3.1 26.9 26.9 0 0 1 .7 7.4v33.5H47V16.2a41.3 41.3 0 0 1 .5-7.2 4.8 4.8 0 0 1 2.2-3.4 8.1 8.1 0 0 1 4.6-1 10.3 10.3 0 0 1 10 6.2c2 4.1 3 10.6 3 19.3s-1.2 14.4-3.6 19l-.3.6h22.1a25.4 25.4 0 0 0 6.1-6.7 27.9 27.9 0 0 0 4-14.3 22.8 22.8 0 0 0-4.5-14zm91.1-12.4c-10.4 0-18.3-.1-23.9-.4v2.7c2.9.2 5 .5 6.2 1.1a4.7 4.7 0 0 1 2.7 3.1 31.5 31.5 0 0 1 .7 7.4v31.9h-30.4V16.2a26.9 26.9 0 0 1 .7-7.4 4.3 4.3 0 0 1 2.6-3.1 19.9 19.9 0 0 1 6.3-1.1V1.9c-5.3.3-12.8.4-22.5.4s-18.9-.1-24.1-.4v2.7a19.1 19.1 0 0 1 6.2 1.1 4.7 4.7 0 0 1 2.7 3.1 26.9 26.9 0 0 1 .7 7.4v33.5h85.2V16.2a26.9 26.9 0 0 1 .7-7.4 4.6 4.6 0 0 1 2.6-3.1 19.9 19.9 0 0 1 6.3-1.1V1.9c-4.9.3-12.4.4-22.7.4zm125.9 20.4a42.1 42.1 0 0 0-17.8-16.9C282.6 1.9 273.7 0 263.5 0a54.2 54.2 0 0 0-26.4 6.3A45.6 45.6 0 0 0 219 24.1a52.6 52.6 0 0 0-6.5 25.6h28.3a104.3 104.3 0 0 1 2.8-24.4c1.8-7.2 4.4-12.8 7.7-16.8s7.3-6.1 11.7-6.1 8.1 2 11.6 5.8 6.3 9.4 8.4 16.6a90.8 90.8 0 0 1 3.1 24.6v.3h28.3v-.8c0-10.1-2.1-18.9-6.3-26.2zM410.5 1.9c-8.5.3-23.2.4-43.9.4s-35.6-.1-44.2-.4c.6 10 .9 18.9.9 26.8a83.6 83.6 0 0 1-.4 9.7h3.1c3-11.9 6.8-20.5 11.5-25.6S347.2 5 352.6 5h.2v44.7h27.4V5h.1c5.4 0 10.5 2.6 15.2 7.8s8.5 13.8 11.4 25.6h3.1a83.6 83.6 0 0 1-.4-9.7c0-7.9.3-16.8.9-26.8zm103.6 20.8a41.5 41.5 0 0 0-17.8-16.9C488.7 1.9 479.8 0 469.6 0a54.6 54.6 0 0 0-26.5 6.3 46 46 0 0 0-18 17.8c-4.3 7.5-6.4 16-6.5 25.6h28.3a99.5 99.5 0 0 1 2.7-24.4c1.9-7.2 4.4-12.8 7.8-16.8s7.2-6.1 11.7-6.1 8 2 11.6 5.8 6.3 9.4 8.3 16.6a87 87 0 0 1 3.1 24.6v.3h28.4v-.8c0-10.1-2.1-18.9-6.4-26.2zM164.7 167.2c-11.5 0-20.1-.2-25.8-.5v2.7c4 .2 7 .7 8.8 1.5a6.8 6.8 0 0 1 3.8 4.3 33.6 33.6 0 0 1 1.1 9.9v13.5c0 3.2-1 5.4-2.9 6.7a11.5 11.5 0 0 1-6.6 1.7c-6.8 0-12.1-3.9-15.9-11.6s-5.8-19.5-5.8-35.1v-.3h-31a1.9 1.9 0 0 0-.1.8q0 15.4 5.7 26.4a38.1 38.1 0 0 0 17 16.7c7.6 3.9 16.9 5.8 28.1 5.8 6.2 0 13.8-2.2 22.8-6.5 4.2-2.1 7.3-3.1 9.2-3.1s2.3.8 3 2.4a15.2 15.2 0 0 1 1.2 5.3h2.7V181a44.7 44.7 0 0 1 .4-7.4 5.3 5.3 0 0 1 1.5-3.1 9 9 0 0 1 3.6-1.1v-2.7c-4.3.3-11.2.5-20.8.5zm122.9 34.6l-1.1-1.2a5.8 5.8 0 0 1-4.2 1.8 4.4 4.4 0 0 1-3.7-1.9q-1.4-2-2.4-6.9l-2.8-14a17.7 17.7 0 0 0-8.7-12.6c-4.7-2.8-11.6-4.5-20.8-5a88.7 88.7 0 0 0 11.7-2h-54.7v33.5a26.9 26.9 0 0 1-.7 7.4 4.6 4.6 0 0 1-2.6 3.1 19.9 19.9 0 0 1-6.3 1.1v2.7c5.1-.3 13.1-.4 24-.4s17.3.1 22.6.4v-2.7a19.9 19.9 0 0 1-6.3-1.1 4.6 4.6 0 0 1-2.6-3.1 26.9 26.9 0 0 1-.7-7.4v-31.1h6.1c3.1 0 5.5 1.6 7 4.9s2.8 8 3.7 14.3l2.1 13.5c.8 5.3 2.9 9 6.3 11.3s8.3 3.3 14.5 3.3a34.9 34.9 0 0 0 11.3-1.7l2.8-1.1a23.4 23.4 0 0 0 6.1-4.5z"/><path d="M373.2 202.9a18.6 18.6 0 0 1-3.8-6.5L355.2 160h-29.5l3.2 8.9h-25.2l3.4-8.9h-3.2l-11.4 29.3c-2.1 5.3-4.1 9.2-6.1 11.6l-.8.9a9.5 9.5 0 0 1-5.5 3.3v2.7a99.9 99.9 0 0 1 10.4-.4c5.1 0 11 .1 17.7.4v-2.7c-4.1-.2-7.1-.9-9.1-2.3s-3.1-3.9-3.1-7.5 1.4-10.1 4.3-17.6l2.3-6.1h27.3l8 22.1a21.6 21.6 0 0 1 1.7 6.4 3.8 3.8 0 0 1-2.2 3.7c-1.5.7-3.9 1.1-7.3 1.3v2.7c4.8-.3 12.4-.4 22.6-.4s18.1.1 24.6.4v-2.7a6.7 6.7 0 0 1-4.1-2.2zm50.1-33.7c10.7 0 19.4-1.6 25.9-4.6a43.6 43.6 0 0 0 7.7-4.6h-22.2c-2.4 4.3-6.6 6.4-12.7 6.4h-3.7V160H391v33.5a31.5 31.5 0 0 1-.7 7.4 4.7 4.7 0 0 1-2.7 3.1 19.9 19.9 0 0 1-6.3 1.1v2.7l24.2-.4c6.4 0 15.7.1 27.8.4v-3.1a36.6 36.6 0 0 1-9.6-.9 5.7 5.7 0 0 1-4.2-3.4c-.8-1.8-1.2-4.5-1.2-8.3v-22.9zM570 204a4.3 4.3 0 0 1-2.6-3.1 26.1 26.1 0 0 1-.8-7.4V160h-85.1v33.5a31.5 31.5 0 0 1-.7 7.4 4.7 4.7 0 0 1-2.7 3.1 19.9 19.9 0 0 1-6.3 1.1v2.7c5.2-.3 13.2-.4 24.1-.4s17.3.1 22.5.4v-2.7a19.7 19.7 0 0 1-6.2-1.1 4.7 4.7 0 0 1-2.7-3.1 31.5 31.5 0 0 1-.7-7.4V161h30.4v32.5a26.4 26.4 0 0 1-.7 7.4 4.3 4.3 0 0 1-2.6 3.1 19.9 19.9 0 0 1-6.3 1.1v2.7c5.6-.3 13.5-.4 23.9-.4s17.9.1 22.7.4v-2.7a19.1 19.1 0 0 1-6.2-1.1zm72.4 0a4.8 4.8 0 0 1-2.6-3.1 26.9 26.9 0 0 1-.7-7.4V160H607l4.7 8.6v24.9a30.9 30.9 0 0 1-.7 7.4 4.8 4.8 0 0 1-2.6 3.1 19.9 19.9 0 0 1-6.3 1.1v2.7c4.9-.3 12.6-.4 23.3-.4s18 .1 23.2.4v-2.7a19.7 19.7 0 0 1-6.2-1.1zM184 112.5a25.8 25.8 0 0 1-1.2 6.2c-.5 1.3-1.2 2-2.2 2a4.3 4.3 0 0 1-2.7-1.3 41 41 0 0 0-11.3-6.5 43.6 43.6 0 0 0-14.9-2.3c-10.2 0-19.2 2.1-27.1 6.4a45.6 45.6 0 0 0-18.6 17.8 50.9 50.9 0 0 0-6.6 25.5h31a93.6 93.6 0 0 1 2.5-21.4c1.7-6.9 4.5-12.7 8.5-17.2s9.2-6.8 15.7-6.8a27.4 27.4 0 0 1 7.4 1 20.5 20.5 0 0 1 6.5 3 24.4 24.4 0 0 1 6.8 6.8 28.7 28.7 0 0 1 3.8 8.7 90.2 90.2 0 0 1 1.9 11.9h3.1c0-16.1.1-27.4.5-33.8zm91.9 5.9c-6.7-3.8-17-5.7-30.7-5.7h-21.7c-10.3 0-18.1-.1-23.2-.4v2.8a17.6 17.6 0 0 1 6.2 1 4.9 4.9 0 0 1 2.7 3.2 26.4 26.4 0 0 1 .7 7.4v33.4h54.7c5.9-1.5 10.5-3.8 13.7-6.8a23 23 0 0 0 7.6-17.4c0-7.7-3.3-13.6-10-17.5zm-19.7 31a15.3 15.3 0 0 1-5 7.8c-2.4 1.9-5.9 2.9-10.2 2.9h-3.7v-33.2a33.7 33.7 0 0 1 .5-7.3 5.3 5.3 0 0 1 2.1-3.4 9.8 9.8 0 0 1 4.7-.9c4.6 0 7.9 1.8 9.9 5.6s3.1 9.4 3.1 16.8a44.6 44.6 0 0 1-1.4 11.7z"/><path d="M345.7 112.5a84.2 84.2 0 0 1-14.2 0l-18.6 47.8h3.2l9.6-24.8 9 24.8h29.5zm125.8 12.8c-3.1-4-7.6-7.1-13.7-9.3s-13.6-3.3-22.5-3.3h-21.7c-10.4 0-18.1-.1-23.3-.4v2.8a17.8 17.8 0 0 1 6.3 1 4.5 4.5 0 0 1 2.6 3.2 25.6 25.6 0 0 1 .8 7.4v33.4h27.3v-33.2a32.4 32.4 0 0 1 .6-7.3 5.3 5.3 0 0 1 2.1-3.4 9.4 9.4 0 0 1 4.6-.9c4.7 0 8 2 10 6.1s3 10.6 3 19.4-1.2 14.3-3.5 19l-.3.5h22.1a22.2 22.2 0 0 0 6-6.7 27.8 27.8 0 0 0 4.1-14.3 22.8 22.8 0 0 0-4.5-14zm91-12.4c-10.4 0-18.3-.1-23.8-.4v2.8a17.6 17.6 0 0 1 6.2 1 4.5 4.5 0 0 1 2.6 3.2 26.4 26.4 0 0 1 .7 7.4v31.8h-30.4v-31.8a30.9 30.9 0 0 1 .7-7.4 4.9 4.9 0 0 1 2.7-3.2 17.8 17.8 0 0 1 6.3-1v-2.8c-5.3.3-12.8.4-22.6.4s-18.9-.1-24.1-.4v2.8a17.8 17.8 0 0 1 6.3 1 4.5 4.5 0 0 1 2.6 3.2 25.6 25.6 0 0 1 .8 7.4v33.4h85.1v-33.4a30.9 30.9 0 0 1 .7-7.4 5 5 0 0 1 2.6-3.2 17.8 17.8 0 0 1 6.3-1v-2.8c-4.8.3-12.4.4-22.7.4zm102.1-.1c-5.1 0-11-.1-17.7-.4v2.7c7.2.3 10.8 3.7 10.8 10s-2.1 11.6-6.4 20.1l-6.1 12.2-19.3-37a4.8 4.8 0 0 1-.6-2.1c0-1.3.9-2.2 2.7-2.5a43.2 43.2 0 0 1 8.2-.5v-2.9c-12 .5-21.9.8-29.7.8s-13.1-.3-18.6-.8v2.9a5.6 5.6 0 0 1 3.6 1.8 24.7 24.7 0 0 1 4.2 5.7l20.3 37.5h32.1v-2.4l12.5-24.9c4.9-9.6 9.7-15.6 14.4-17.9v-2.7a99.9 99.9 0 0 1-10.4.4z"/></symbol><symbol id="branding" viewBox="0 0 592.4 211.6"><path fill="none" d="M146.7 46.5a20.9 20.9 0 0 0 4.5-.4H143v.4zm-98 41a4.5 4.5 0 0 0 2.5 3.1 13.3 13.3 0 0 0 5.6.9c9.6 0 14.5-7.9 14.5-23.7 0-7.1-1.7-12.4-5.2-16.1s-8.8-5.6-16.2-5.6H48v34.2a26.2 26.2 0 0 0 .7 7.2zm224.9 115.4a5.5 5.5 0 0 0 2.9 3.4 17.4 17.4 0 0 0 6.4.9c9 0 15.4-3.8 19.4-11.5s5.9-19.1 5.9-34.3v-.2h-35.4v34.4a25.8 25.8 0 0 0 .8 7.3z"/><path d="M66.1 51.7c3.5 3.7 5.2 9 5.2 16.1 0 15.8-4.9 23.7-14.5 23.7a13.3 13.3 0 0 1-5.6-.9 4.5 4.5 0 0 1-2.5-3.1 26.2 26.2 0 0 1-.7-7.2V46.1H20.6v34.2a26.9 26.9 0 0 1-.7 7.4 4.3 4.3 0 0 1-2.6 3.1 19.9 19.9 0 0 1-6.3 1.1v2.7c5.2-.3 13-.4 23.5-.4l14.5.2 10.1.2C72 94.6 82 92.4 89 88.1s10.6-10.9 10.6-19.7a17.8 17.8 0 0 0-3.9-11c-2.6-3.5-6.8-6.4-12.5-8.7a49.9 49.9 0 0 0-8.5-2.6H49.9c7.4 0 12.8 1.9 16.2 5.6zm179.6 4h-25.2l3.7-9.6h-3.3l-11.6 30c-2.1 5.3-4.1 9.2-6.1 11.6l-.8.9-1.2-1.2a5.4 5.4 0 0 1-4.1 1.8 4.4 4.4 0 0 1-3.7-1.9q-1.3-2-2.4-6.9l-2.8-14a17.7 17.7 0 0 0-8.7-12.6c-4.7-2.8-11.6-4.5-20.8-5 0 0 1.1-1.4 5-2.7h-12.5a20.9 20.9 0 0 1-4.5.4H143v-.4h-27.3v34.2a26.9 26.9 0 0 1-.7 7.4 4.6 4.6 0 0 1-2.6 3.1 19.9 19.9 0 0 1-6.3 1.1v2.7c5.1-.3 13.1-.4 24-.4s17.3.1 22.6.4v-2.7a19.9 19.9 0 0 1-6.3-1.1 4.6 4.6 0 0 1-2.6-3.1 26.1 26.1 0 0 1-.8-7.4V49.2h6.2c3.1 0 5.5 1.6 7 4.9s2.8 8 3.7 14.3l2.1 13.5c.8 5.3 2.9 9 6.3 11.3s8.3 3.3 14.5 3.3a34.9 34.9 0 0 0 11.3-1.7l2.8-1.1v.9a98.7 98.7 0 0 1 10.4-.4c5.1 0 11 .1 17.7.4v-2.7c-4.1-.2-7.1-.9-9.2-2.3s-3-3.9-3-7.5 1.4-10.1 4.3-17.6l2.3-6.1h27.3l8 22.1a21.6 21.6 0 0 1 1.7 6.4 3.8 3.8 0 0 1-2.3 3.7c-1.4.7-3.9 1.1-7.2 1.3v2.7c4.8-.3 12.4-.4 22.6-.4s18.1.1 24.6.4v-2.7a6.7 6.7 0 0 1-4.1-2.2 20.2 20.2 0 0 1-3.9-6.5l-14.4-37.1h-29.4zM307 70.8a72.8 72.8 0 0 1-.7 12.1 10.2 10.2 0 0 1-2.7 6.1 12.4 12.4 0 0 1-6.2 2.9v2.7a110.9 110.9 0 0 1 11.2-.4c6.5 0 11.6.1 15.2.4v-2.7q-6.6-.9-9.3-3a9.5 9.5 0 0 1-3.6-6.4 94 94 0 0 1-.8-14.4v-22H307zm69.2-13.5l-10.6-11.2h-40l44.3 48.5a45.2 45.2 0 0 1 5.1-.2 30.3 30.3 0 0 1 4.4.2V46.1h-3.2zm-68 104.1c0 15.2-2 26.6-5.9 34.3s-10.4 11.5-19.4 11.5a17.4 17.4 0 0 1-6.4-.9 5.5 5.5 0 0 1-2.9-3.4 25.8 25.8 0 0 1-.8-7.3v-34.4h-27.4v34.2a26.9 26.9 0 0 1-.7 7.4 4.5 4.5 0 0 1-2.6 3.1 19.9 19.9 0 0 1-6.3 1.1v2.7c5.2-.3 13-.4 23.5-.4 2.3 0 5.9 0 10.9.2l9.4.2c11.8 0 22-2 30.5-6.1a44.3 44.3 0 0 0 19.6-17 47.3 47.3 0 0 0 6.8-25.4h-28.3zm45.5 34a26.9 26.9 0 0 1-.7 7.4 4.5 4.5 0 0 1-2.6 3.1 19.9 19.9 0 0 1-6.3 1.1v2.7c5.2-.3 13.2-.4 24.1-.4s17.2.1 22.5.4V207a19.7 19.7 0 0 1-6.2-1.1 4.9 4.9 0 0 1-2.7-3.1 26.9 26.9 0 0 1-.7-7.4v-34.2h-27.4zm123.6-23l-10.6-11.2h-40l44.3 48.5a45.2 45.2 0 0 1 5.1-.2 30.3 30.3 0 0 1 4.4.2v-48.5h-3.2zm-69.2 13.5a72.8 72.8 0 0 1-.7 12.1 10.2 10.2 0 0 1-2.7 6.1 12.4 12.4 0 0 1-6.2 2.9v2.7a110.9 110.9 0 0 1 11.2-.4c6.5 0 11.6.1 15.2.4V207q-6.6-.9-9.3-3a9.8 9.8 0 0 1-3.6-6.5 92.5 92.5 0 0 1-.8-14.3v-22h-3.1zm89.1-23.2q0 15.5 5.7 26.4a38.1 38.1 0 0 0 17 16.7c7.6 3.9 16.9 5.8 28.1 5.8 6.2 0 13.8-2.2 22.8-6.5 4.2-2.1 7.3-3.1 9.2-3.1s2.2.8 3 2.4a15.2 15.2 0 0 1 1.2 5.3h2.7v-26.8a44.7 44.7 0 0 1 .4-7.4 5 5 0 0 1 1.5-3.1 7.7 7.7 0 0 1 3.6-1.1v-2.7c-4.3.3-11.2.5-20.8.5-11.5 0-20.1-.2-25.8-.5v2.7a27.5 27.5 0 0 1 8.8 1.5 6.6 6.6 0 0 1 3.8 4.3 33.6 33.6 0 0 1 1.1 9.9v13.5c0 3.2-1 5.4-2.9 6.7a11.5 11.5 0 0 1-6.6 1.7c-6.8 0-12.1-3.9-15.9-11.6s-5.8-19.5-5.8-35.2v-.9h-31c0 .5-.1 1-.1 1.5z"/><path fill="none" d="M271.8 117.5a16.5 16.5 0 0 0-6.3 1 5.2 5.2 0 0 0-2.9 3.4 22.2 22.2 0 0 0-.8 7.2v33.1h35.4c0-15.2-2.1-26.4-6.1-33.7s-10.6-11-19.3-11zM50.9 38.9c1.9-4 2.8-9.4 2.8-16.1S53 10.9 51.5 7.6a7.4 7.4 0 0 0-7.2-4.9 8.6 8.6 0 0 0-4.7 1 5 5 0 0 0-2.1 3.4 41.3 41.3 0 0 0-.5 7.2v30.5h3.7c4.8 0 8.2-2 10.2-5.9zM151 36.8a43.9 43.9 0 0 0 1.3-11.7c0-7.4-1-12.9-3-16.7s-5.3-5.7-9.9-5.7a8.4 8.4 0 0 0-4.7 1 5 5 0 0 0-2.1 3.4 32 32 0 0 0-.6 7.2v32.8h8.2a13.3 13.3 0 0 0 5.8-2.5 14.5 14.5 0 0 0 5-7.8z"/><path d="M38.9 47.1h24.8a85 85 0 0 0-13.3-1.6v-.3a49.1 49.1 0 0 0 17.2-5 29.3 29.3 0 0 0 10.5-8.8 17.7 17.7 0 0 0 3.4-10 16.7 16.7 0 0 0-4-11.2c-2.8-3.1-6.9-5.6-12.3-7.4S53 .1 45 .1l-9.4.2H23.3C12.9.4 5.1.3 0 0v2.7a16.7 16.7 0 0 1 6.2 1.1 4.7 4.7 0 0 1 2.7 3.1 26.9 26.9 0 0 1 .7 7.4v32.8h29.3zM37 14.3a41.3 41.3 0 0 1 .5-7.2 5 5 0 0 1 2.1-3.4 8.6 8.6 0 0 1 4.7-1 7.4 7.4 0 0 1 7.2 4.9c1.5 3.3 2.2 8.4 2.2 15.2s-.9 12.1-2.8 16.1-5.4 5.9-10.2 5.9H37zm95-.3a32 32 0 0 1 .6-7.2 5.3 5.3 0 0 1 2.1-3.4 8.4 8.4 0 0 1 4.7-1q6.9 0 9.9 5.7c2 3.8 3 9.4 3 16.7a45.2 45.2 0 0 1-1.3 11.8 14.7 14.7 0 0 1-5 7.7 13.4 13.4 0 0 1-5.8 2.6h21.4c4.9-1.6 8.7-3.6 11.5-6.3a22.6 22.6 0 0 0 7.6-17.3c0-7.9-3.4-13.8-10.1-17.7S153.7-.1 140-.1h-21.7c-10.3.2-18.1.1-23.2-.2v2.7a19.7 19.7 0 0 1 6.2 1.1 4.9 4.9 0 0 1 2.7 3.1 31.5 31.5 0 0 1 .7 7.4v32.9H132zm90.5 8.9l8.8 24.2h29.4L242.4 0a66.7 66.7 0 0 1-7 .3 70.2 70.2 0 0 1-7.1-.3l-18.4 47.1h3.3zm145.9.8a73.6 73.6 0 0 1 .7-12.1 10.5 10.5 0 0 1 2.6-6 12.8 12.8 0 0 1 6.2-2.9V0a108.4 108.4 0 0 1-11.2.4c-6.4 0-11.4-.1-15.1-.4v2.7q6.6.9 9.3 3a9.8 9.8 0 0 1 3.5 6.4c.6 2.9.8 7.7.8 14.3v20.7h3.2zm-69.3 6.6l15.5 16.8h40L310 0c-3.3.3-7.4.4-12.4.4a109.6 109.6 0 0 1-11.2-.4v2.7a17.2 17.2 0 0 1 6.2 1.1 4.7 4.7 0 0 1 2.7 3.1 26.9 26.9 0 0 1 .7 7.4v32.8h3.1zm-37.3 98.8a22.2 22.2 0 0 1 .8-7.2 5.2 5.2 0 0 1 2.9-3.4 16.5 16.5 0 0 1 6.3-1c8.7 0 15.2 3.7 19.3 11s6.1 18.5 6.1 33.7h28.3v-.4q0-22.8-13.8-34.8c-9.3-7.9-23.3-11.9-41.9-11.9l-21.7.4h-4.8c-5.8 0-11.9-.2-18.5-.5v2.7a19.7 19.7 0 0 1 6.2 1 5.1 5.1 0 0 1 2.7 3.2 26.9 26.9 0 0 1 .7 7.4v32.8h27.4zm108.3.3a26.9 26.9 0 0 1 .7-7.4 4.7 4.7 0 0 1 2.6-3.2 20.5 20.5 0 0 1 6.3-1v-2.7c-5.3.3-12.8.4-22.5.4s-19-.1-24.1-.4v2.7a19.7 19.7 0 0 1 6.2 1 5.1 5.1 0 0 1 2.7 3.2 26.9 26.9 0 0 1 .7 7.4v32.8h27.4zm99.4 9.4a73.6 73.6 0 0 1 .7-12.1 9.9 9.9 0 0 1 2.7-6 12 12 0 0 1 6.1-2.9v-2.7a108.4 108.4 0 0 1-11.2.4c-6.4 0-11.4-.1-15.1-.4v2.7q6.6.9 9.3 3a9.8 9.8 0 0 1 3.5 6.4c.6 2.9.8 7.7.8 14.3v20.7h3.2zm-69.3 6.5l15.5 16.9h40l-44.5-47.1c-3.4.3-7.5.4-12.5.4a109.6 109.6 0 0 1-11.2-.4v2.7a20.3 20.3 0 0 1 6.2 1 5.1 5.1 0 0 1 2.7 3.2 26.9 26.9 0 0 1 .7 7.4v32.8h3.1zm119.6-3.9a40.3 40.3 0 0 1 8.5-17.2 20 20 0 0 1 15.7-6.8 27.6 27.6 0 0 1 7.4 1.1 21.4 21.4 0 0 1 6.5 2.9 27.4 27.4 0 0 1 6.8 6.8 30.9 30.9 0 0 1 3.7 8.7 67.4 67.4 0 0 1 1.9 11.9h3.1c0-16.1.2-27.3.6-33.7h-3.1a26.9 26.9 0 0 1-1.2 6.2c-.5 1.3-1.3 1.9-2.2 1.9a3.8 3.8 0 0 1-2.7-1.3 39.5 39.5 0 0 0-26.2-8.7 57.4 57.4 0 0 0-27.2 6.3 46 46 0 0 0-18.5 17.8 51.3 51.3 0 0 0-6.6 24.9h31a94.7 94.7 0 0 1 2.5-20.8z"/></symbol><symbol id="motion" viewBox="0 0 792 216"><path d="M74.4 173.5c-11.5 0-20.2-.2-25.8-.5v2.7a27.5 27.5 0 0 1 8.8 1.5 6.6 6.6 0 0 1 3.8 4.3c.7 2.1 1 5.4 1 9.9v13.5c0 3.2-.9 5.4-2.8 6.7a11.6 11.6 0 0 1-6.7 1.7c-6.7 0-12-3.9-15.9-11.6s-5.7-19.5-5.7-35.2v-.2H0v.8q0 15.5 5.7 26.4a37.2 37.2 0 0 0 17 16.7c7.5 3.9 16.9 5.8 28.1 5.8 6.2 0 13.8-2.2 22.8-6.5 4.2-2.1 7.2-3.1 9.1-3.1s2.3.8 3 2.4a11.8 11.8 0 0 1 1.2 5.3h2.8v-26.8a44.7 44.7 0 0 1 .4-7.4 5 5 0 0 1 1.5-3.1 6.9 6.9 0 0 1 3.6-1.1V173c-4.3.3-11.3.5-20.8.5zm122.9 34.6l-1.2-1.2a5.4 5.4 0 0 1-4.1 1.8 4.6 4.6 0 0 1-3.8-1.9c-.9-1.3-1.6-3.6-2.3-6.9l-2.8-14a18 18 0 0 0-8.7-12.6c-4.7-2.8-11.7-4.5-20.9-5a83.3 83.3 0 0 0 11.7-2h-54.6v33.5a30.6 30.6 0 0 1-.7 7.3 4.9 4.9 0 0 1-2.7 3.2 19.9 19.9 0 0 1-6.3 1.1v2.7c5.2-.3 13.2-.4 24.1-.4s17.2.1 22.5.4v-2.7a19.7 19.7 0 0 1-6.2-1.1 4.9 4.9 0 0 1-2.7-3.2 30.6 30.6 0 0 1-.7-7.3v-31.1h6.1c3.2 0 5.6 1.6 7.1 4.9s2.8 8 3.7 14.3l2 13.4c.8 5.4 2.9 9.1 6.4 11.4s8.3 3.3 14.5 3.3a35.3 35.3 0 0 0 11.3-1.7l2.8-1.1a25.2 25.2 0 0 0 6.1-4.5z"/><path d="M281.8 209.2a18.6 18.6 0 0 1-3.8-6.5l-14.1-36.4h-29.5l3.2 8.9h-25.2l3.4-8.9h-3.3l-11.4 29.2c-2 5.4-4.1 9.3-6.1 11.7l-.7.9a9.8 9.8 0 0 1-5.5 3.3v2.7a97.5 97.5 0 0 1 10.4-.4c5 0 10.9.1 17.6.4v-2.7c-4-.2-7.1-.9-9.1-2.3s-3.1-3.9-3.1-7.6 1.5-10 4.4-17.6l2.3-6h27.2l8.1 22.1a20.6 20.6 0 0 1 1.6 6.4 3.7 3.7 0 0 1-2.2 3.7c-1.5.7-3.9 1.1-7.3 1.3v2.7c4.9-.3 12.4-.4 22.7-.4s18.1.1 24.6.4v-2.7a7.2 7.2 0 0 1-4.2-2.2z"/><path d="M324 175.4q16 0 25.8-4.5a40.2 40.2 0 0 0 7.7-4.6h-22.1c-2.4 4.3-6.7 6.4-12.7 6.4H319v-6.4h-27.4v33.5a26.1 26.1 0 0 1-.7 7.3 4.5 4.5 0 0 1-2.6 3.2 19.9 19.9 0 0 1-6.3 1.1v2.7l24.2-.4c6.4 0 15.7.1 27.8.4V211a38.1 38.1 0 0 1-9.7-.9 6.3 6.3 0 0 1-4.2-3.4c-.8-1.8-1.1-4.5-1.1-8.3v-23zm143.6 34.9a5 5 0 0 1-2.6-3.2 26.1 26.1 0 0 1-.7-7.3v-33.5h-85.2v33.5a26.1 26.1 0 0 1-.7 7.3 4.5 4.5 0 0 1-2.6 3.2 19.9 19.9 0 0 1-6.3 1.1v2.7c5.1-.3 13.2-.4 24-.4s17.3.1 22.6.4v-2.7a19.1 19.1 0 0 1-6.2-1.1 4.9 4.9 0 0 1-2.7-3.2 26.1 26.1 0 0 1-.7-7.3v-32.5h30.4v32.5a30.9 30.9 0 0 1-.7 7.4 5.1 5.1 0 0 1-2.6 3.1 19.9 19.9 0 0 1-6.3 1.1v2.7c5.5-.3 13.5-.4 23.9-.4s17.8.1 22.6.4v-2.7a19.7 19.7 0 0 1-6.2-1.1zm-373-91.5a22.3 22.3 0 0 1-1.1 6.2c-.6 1.3-1.3 2-2.2 2a4.3 4.3 0 0 1-2.7-1.3 43.1 43.1 0 0 0-11.4-6.5 43.6 43.6 0 0 0-14.9-2.3c-10.1 0-19.2 2.1-27.1 6.4a45.3 45.3 0 0 0-18.5 17.8c-4.4 7.4-6.6 15.9-6.7 25.5h31a93.6 93.6 0 0 1 2.6-21.4 38.7 38.7 0 0 1 8.5-17.2c4-4.6 9.2-6.8 15.6-6.8a26.9 26.9 0 0 1 7.4 1 22.2 22.2 0 0 1 6.6 3 24 24 0 0 1 6.7 6.8 26.4 26.4 0 0 1 3.8 8.7 76.2 76.2 0 0 1 1.9 11.9h3.1c0-16.1.2-27.4.5-33.8zm91.9 5.9q-10-5.7-30.6-5.7h-21.7c-10.4 0-18.1-.1-23.3-.4v2.8c2.9.1 5 .4 6.2 1a4.9 4.9 0 0 1 2.7 3.2 26.4 26.4 0 0 1 .7 7.4v33.4h54.7c6-1.5 10.6-3.8 13.8-6.8a23.2 23.2 0 0 0 7.5-17.4c0-7.7-3.3-13.6-10-17.5zm-19.6 31a15.5 15.5 0 0 1-5.1 7.8c-2.4 1.9-5.8 2.9-10.2 2.9h-3.7v-33.2a32.4 32.4 0 0 1 .6-7.3 4.6 4.6 0 0 1 2.1-3.4 9.4 9.4 0 0 1 4.6-.9c4.6 0 7.9 1.8 10 5.6s3 9.4 3 16.8a45 45 0 0 1-1.3 11.7zm88.4-36.9a68.1 68.1 0 0 1-7 .3c-2.9 0-5.2-.1-7.2-.3l-18.6 47.8h3.3l9.5-24.8 9.1 24.8h29.5z"/><path d="M373.1 131.6c-3-4-7.6-7.1-13.7-9.3s-13.5-3.3-22.5-3.3h-21.7c-10.3 0-18.1-.1-23.2-.4v2.8a17.6 17.6 0 0 1 6.2 1 4.9 4.9 0 0 1 2.7 3.2 26.4 26.4 0 0 1 .7 7.4v33.4H329v-33.2a33.7 33.7 0 0 1 .5-7.3 5.3 5.3 0 0 1 2.1-3.4 9.8 9.8 0 0 1 4.7-.9c4.6 0 8 2 10 6.1s3 10.6 3 19.4-1.2 14.3-3.6 19l-.3.5h22.1a24 24 0 0 0 6.1-6.7 27.6 27.6 0 0 0 4-14.3 22.8 22.8 0 0 0-4.5-14zm88.1-12.4c-10.4 0-18.4-.1-23.9-.4v2.8a17.6 17.6 0 0 1 6.2 1 4.9 4.9 0 0 1 2.7 3.2 32.2 32.2 0 0 1 .6 7.4V165h-30.3v-31.8a26.4 26.4 0 0 1 .7-7.4 4.5 4.5 0 0 1 2.6-3.2 17.8 17.8 0 0 1 6.3-1v-2.8c-5.3.3-12.8.4-22.6.4s-18.9-.1-24-.4v2.8a17.6 17.6 0 0 1 6.2 1 4.9 4.9 0 0 1 2.7 3.2 26.4 26.4 0 0 1 .7 7.4v33.4h85.2v-33.4a26.4 26.4 0 0 1 .7-7.4 4.5 4.5 0 0 1 2.6-3.2c1.2-.6 3.3-.9 6.2-1v-2.8c-4.8.3-12.4.4-22.6.4zm241.9 57.4a30.6 30.6 0 0 0-7.2-9.2l-2.1-1.8h-44.7c2.8 2.2 6.2 4.6 10.2 7.3a117.1 117.1 0 0 1 10.8 8 29.4 29.4 0 0 1 6.5 7.8 19 19 0 0 1 2.4 9.6 11.9 11.9 0 0 1-4.3 9.7c-2.9 2.3-6.9 3.5-11.9 3.5-8 0-14-3.4-17.8-10.1s-6.1-15.3-6.7-26h-3.1c0 19.3-.2 32.3-.6 39.2h3.1a19.2 19.2 0 0 1 1.1-4.6 2.2 2.2 0 0 1 1.9-1.4c1.1 0 2.6.7 4.6 1.9a49.5 49.5 0 0 0 10.2 3.7 57.7 57.7 0 0 0 13.7 1.4 54 54 0 0 0 18.5-3 29.7 29.7 0 0 0 13.3-9 22.6 22.6 0 0 0 4.9-14.8 25.3 25.3 0 0 0-2.8-12.2z"/><path d="M709.2 118.4a16 16 0 0 1-1 4.5 2.2 2.2 0 0 1-1.9 1.4 3.9 3.9 0 0 1-1.8-.4l-2.8-1.5a38.7 38.7 0 0 0-21.9-5.4 46.8 46.8 0 0 0-16.7 2.8 27 27 0 0 0-12.2 8.5 22.3 22.3 0 0 0-4.5 14.2 24 24 0 0 0 3.1 12.4 37.3 37.3 0 0 0 7.9 9.4l3 2.4h44.7c-2.7-2.3-6-4.8-10-7.6-7.6-5.2-12.6-8.9-15.3-10.9a29.8 29.8 0 0 1-6.3-6.6 15 15 0 0 1-2.2-8.4c0-3.9 1.2-7 3.8-9.2a14.6 14.6 0 0 1 9.9-3.3 17.9 17.9 0 0 1 11.9 4.4 30.8 30.8 0 0 1 8.2 11.5 49.3 49.3 0 0 1 3.5 14.7h3.1c0-15.5.2-26.5.6-32.9zM525 209.9a4.9 4.9 0 0 1-2.7-3.2 30.9 30.9 0 0 1-.7-7.4v-33.7h-27.3v33.7a30.9 30.9 0 0 1-.7 7.4 4.9 4.9 0 0 1-2.7 3.2 17.8 17.8 0 0 1-6.3 1v2.7c5.2-.2 13.2-.3 24.1-.3s17.3.1 22.5.3v-2.7a17.6 17.6 0 0 1-6.2-1z"/><path d="M518.7 119.3c-10.9 0-18.9-.1-24.1-.4v2.7a19.9 19.9 0 0 1 6.3 1.1 4.3 4.3 0 0 1 2.6 3.1 26.1 26.1 0 0 1 .8 7.4v33.5h27.3v-33.5a31.5 31.5 0 0 1 .7-7.4 4.7 4.7 0 0 1 2.7-3.1c1.2-.6 3.3-.9 6.2-1.1v-2.7c-5.2.3-12.7.4-22.5.4z"/><path fill="none" d="M273.2 49.4H287V14l-13.8 35.4zm440 0H729l-15.8-17.2v17.2zM652.8 8.2c-3.5-3.8-7.4-5.8-11.6-5.8s-8.4 2-11.7 6.1-5.9 9.6-7.7 16.8a102.3 102.3 0 0 0-2.8 24.1h45.2a87 87 0 0 0-3.1-24.6c-2-7.2-4.8-12.7-8.3-16.6zm-259.2 0c-3.5-3.8-7.3-5.8-11.6-5.8s-8.3 2-11.6 6.1-5.9 9.6-7.8 16.8a97.5 97.5 0 0 0-2.7 24.1h45.2a87 87 0 0 0-3.1-24.6c-2-7.2-4.8-12.7-8.4-16.6zM214.2 49.4h17l-17-38.7v38.7z"/><path d="M214.2 10.7l17 38.7h30.6L240.7 1.9c-7.8.3-17.1.4-28 .4a110.9 110.9 0 0 1-11.2-.4v2.7a16.7 16.7 0 0 1 6.2 1.1 4.7 4.7 0 0 1 2.7 3.1 26.9 26.9 0 0 1 .7 7.4v33.2h3.1zM287 14v35.4h27.4V16.2a26.4 26.4 0 0 1 .7-7.4 4.6 4.6 0 0 1 2.6-3.1 17.4 17.4 0 0 1 6.3-1.1V1.9c-5.6.3-13.5.4-24 .4h-11.7L270 49.4h3.2zm75.6 11.3c1.9-7.2 4.4-12.8 7.8-16.8s7.2-6.1 11.6-6.1 8.1 2 11.6 5.8 6.4 9.4 8.4 16.6a87 87 0 0 1 3.1 24.6h28.3a.7.7 0 0 0 .1-.5c0-10.1-2.1-18.9-6.4-26.3a41.9 41.9 0 0 0-17.8-16.8C401.7 1.9 392.8 0 382.6 0s-18.8 2.1-26.5 6.3A46.2 46.2 0 0 0 338 24.1a52.5 52.5 0 0 0-6.4 25.3h28.3a97.5 97.5 0 0 1 2.7-24.1zM499.3 5h.1c5.4 0 10.4 2.6 15.1 7.8s8.5 13.7 11.4 25.6h3.1c-.2-2.4-.3-5.6-.3-9.7 0-7.9.3-16.8.9-26.8-8.6.3-23.2.4-44 .4s-35.6-.1-44.2-.4c.7 10 1 18.9 1 26.8 0 4.1-.2 7.3-.4 9.7h3.1c3-11.9 6.8-20.5 11.4-25.6S466.2 5 471.7 5h.1v44.4h27.5zm74.2 11.2a26.9 26.9 0 0 1 .7-7.4 4.3 4.3 0 0 1 2.6-3.1 17.4 17.4 0 0 1 6.3-1.1V1.9c-5.3.3-12.8.4-22.5.4s-19-.1-24.1-.4v2.7a16.7 16.7 0 0 1 6.2 1.1 4.7 4.7 0 0 1 2.7 3.1 26.9 26.9 0 0 1 .7 7.4v33.2h27.4zm48.3 9.1c1.8-7.2 4.4-12.8 7.7-16.8s7.2-6.1 11.7-6.1 8.1 2 11.6 5.8 6.3 9.4 8.3 16.6a87 87 0 0 1 3.1 24.6h28.4v-.5c0-10.1-2.1-18.9-6.3-26.3a43 43 0 0 0-17.8-16.8C660.8 1.9 651.9 0 641.7 0a54.6 54.6 0 0 0-26.5 6.3 45.3 45.3 0 0 0-18 17.8c-4.2 7.4-6.3 15.8-6.5 25.3H619a102.3 102.3 0 0 1 2.8-24.1zm91.4 6.9L729 49.4h40L724.1 1.9c-3.3.3-7.5.4-12.5.4s-8.4-.1-11.2-.4v2.7a17.4 17.4 0 0 1 6.3 1.1 4.6 4.6 0 0 1 2.6 3.1 26.1 26.1 0 0 1 .8 7.4v33.2h3.1zm69.2-6.6a87 87 0 0 1 .7-12.1 11.2 11.2 0 0 1 2.7-6 12.4 12.4 0 0 1 6.2-2.9V1.9a109.6 109.6 0 0 1-11.2.4c-6.4 0-11.5-.1-15.1-.4v2.7q6.4.9 9.3 3a9.8 9.8 0 0 1 3.5 6.4 93.4 93.4 0 0 1 .8 14.3v21.1h3.1z"/><path fill="none" d="M770.3 49h-10.4l10.4 11V49zM613.1 74.4q3.1 10.8 8.4 16.5c3.5 3.9 7.4 5.8 11.6 5.8s8.3-2 11.7-6 5.9-9.6 7.7-16.8a102.1 102.1 0 0 0 2.7-24.7V49H610v.7a87.8 87.8 0 0 0 3.1 24.7zM261.1 49h-8.4l4.5 10 3.9-10zM354 74.4c2.1 7.2 4.8 12.7 8.4 16.5s7.3 5.8 11.6 5.8 8.3-2 11.6-6 6-9.6 7.8-16.8a102.1 102.1 0 0 0 2.7-24.7V49h-45.2v.7a87.8 87.8 0 0 0 3.1 24.7z"/><path d="M202.1 73.5a72.8 72.8 0 0 1-.7 12.1 9.9 9.9 0 0 1-2.7 6c-1.3 1.4-3.4 2.3-6.2 2.9v2.7c2.7-.2 6.5-.3 11.2-.3 6.5 0 11.6.1 15.2.3v-2.7q-6.6-.9-9.3-3c-1.9-1.3-3.1-3.5-3.6-6.4a92.5 92.5 0 0 1-.8-14.3V49h-3.1zM257.2 59l-4.5-10h-30.6l21.1 48.1h2.2L264.2 49h-3.1l-3.9 10zM278 82.9a25.6 25.6 0 0 1-.8 7.4 5.2 5.2 0 0 1-3.1 3.2c-1.4.6-3.8.9-7.1 1v2.7q7.8-.3 24-.3c10.5 0 18.4.1 24 .3v-2.7a17.8 17.8 0 0 1-6.3-1 4.8 4.8 0 0 1-2.6-3.2 26.4 26.4 0 0 1-.7-7.4V49H278zm118.1-33.7a102.1 102.1 0 0 1-2.7 24.7q-2.7 10.8-7.8 16.8c-3.3 4-7.2 6-11.6 6s-8.1-1.9-11.6-5.8-6.3-9.3-8.4-16.5a87.8 87.8 0 0 1-3.1-24.7V49h-28.3c0 .4-.1.8-.1 1.2 0 10.2 2.2 19 6.4 26.3a41.5 41.5 0 0 0 17.8 16.9c7.6 3.8 16.5 5.8 26.7 5.8a53.9 53.9 0 0 0 26.5-6.4A45.6 45.6 0 0 0 418 75a52.4 52.4 0 0 0 6.4-26h-28.3zM462.8 82a23.9 23.9 0 0 1-1.1 8.3 6.3 6.3 0 0 1-4.2 3.4c-2 .6-5.2.8-9.6.8v2.7l27.7-.3 29.6.3v-2.7c-4.4 0-7.6-.2-9.6-.8a6.3 6.3 0 0 1-4.2-3.4c-.8-1.8-1.2-4.5-1.2-8.3V49h-27.4zm74.3.9a26.4 26.4 0 0 1-.7 7.4 4.5 4.5 0 0 1-2.6 3.2 17.8 17.8 0 0 1-6.3 1v2.7q7.7-.3 24-.3c9.8 0 17.3.1 22.6.3v-2.7a17.2 17.2 0 0 1-6.2-1 4.9 4.9 0 0 1-2.7-3.2 26.4 26.4 0 0 1-.7-7.4V49h-27.4zm118.1-33.7a102.1 102.1 0 0 1-2.7 24.7c-1.8 7.2-4.4 12.8-7.7 16.8s-7.3 6-11.7 6-8.1-1.9-11.6-5.8-6.3-9.3-8.4-16.5a87.8 87.8 0 0 1-3.1-24.7V49h-28.3v1.2c0 10.2 2.1 19 6.3 26.3a42.1 42.1 0 0 0 17.8 16.9c7.6 3.8 16.6 5.8 26.8 5.8s18.7-2.1 26.4-6.4A44.9 44.9 0 0 0 677.1 75c4.3-7.5 6.4-16.2 6.5-26h-28.4zM770.3 60l-10.4-11h-40.1l44.1 48.2h9.5V49h-3.1zM701 73.5a89.3 89.3 0 0 1-.6 12.1 11.2 11.2 0 0 1-2.7 6c-1.4 1.4-3.5 2.3-6.3 2.9v2.7c2.7-.2 6.5-.3 11.2-.3 6.5 0 11.6.1 15.2.3v-2.7q-6.6-.9-9.3-3c-1.8-1.3-3-3.5-3.6-6.4a92.5 92.5 0 0 1-.8-14.3V49H701zM539.8 167c0 10.2 2.1 18.9 6.3 26.3a42.4 42.4 0 0 0 17.8 16.8c7.7 3.9 16.6 5.8 26.8 5.8a41.3 41.3 0 0 0 9.8-1.1 39.6 39.6 0 0 0 7.8-3c2.2-1.2 4.7-2.8 7.4-4.6a5.3 5.3 0 0 1 2.8-1.2c.9 0 1.7.7 2.2 1.9a26.9 26.9 0 0 1 1.1 6.1h3c-.3-6.6-.5-18.3-.5-35.1h-3.1a79.5 79.5 0 0 1-1.9 13.4 29.7 29.7 0 0 1-3.7 9.3 20.5 20.5 0 0 1-6.8 6.6 22.8 22.8 0 0 1-12.6 4c-6.4 0-11.5-2.2-15.3-6.8a38.7 38.7 0 0 1-7.8-17 101.6 101.6 0 0 1-2.2-21.9v-.5h-31.1z"/><path d="M583.1 145.6a39.7 39.7 0 0 1 7.8-17.1c3.8-4.5 8.9-6.8 15.3-6.8a24.4 24.4 0 0 1 19.4 10.7 28.2 28.2 0 0 1 3.7 8.7 67.2 67.2 0 0 1 1.9 12h3.1c0-16.1.2-27.3.5-33.7h-3.1c-.4 5.4-1.5 8-3.4 8a4.6 4.6 0 0 1-2.6-1.2 48.2 48.2 0 0 0-11.1-6.4 37.6 37.6 0 0 0-13.8-2.3 54.2 54.2 0 0 0-26.4 6.3 45.6 45.6 0 0 0-18.1 17.8c-4.2 7.4-6.3 15.8-6.5 25.3h31.1a96.1 96.1 0 0 1 2.2-21.3z"/></symbol><symbol id="illustration" viewBox="0 0 703.1 209.9"><path d="M139.4 90.8a4.8 4.8 0 0 1-2.6-3.2 25.3 25.3 0 0 1-.8-7.3V46.5h-27.3v33.8a26.1 26.1 0 0 1-.7 7.3 4.8 4.8 0 0 1-2.6 3.2 19.9 19.9 0 0 1-6.3 1.1v2.7c5.1-.3 13.1-.4 24-.4s17.3.1 22.6.4v-2.7a19.9 19.9 0 0 1-6.3-1.1zm89-20.3c0-5 .1-9.2.4-12.4h-3.1a50.5 50.5 0 0 1-5.9 16.1 46.2 46.2 0 0 1-10 12.5c-3.7 3.2-7.1 4.8-10.3 4.8h-4.4a12.1 12.1 0 0 1-4.5-.6 3.4 3.4 0 0 1-1.9-2.4 18.1 18.1 0 0 1-.6-5.5V46.5h-27.3v33.8a30.6 30.6 0 0 1-.7 7.3 5 5 0 0 1-2.6 3.2 19.9 19.9 0 0 1-6.3 1.1v2.7c10.4-.3 26.2-.4 47.2-.4 14.5 0 24.8.1 30.9.4-.6-6.3-.9-14.3-.9-24.1zm83.2 0c0-5 .1-9.2.4-12.4h-3.1a48.4 48.4 0 0 1-6 16.1 42.7 42.7 0 0 1-10 12.5q-5.5 4.8-10.2 4.8h-4.5a12.4 12.4 0 0 1-4.5-.6 3.7 3.7 0 0 1-1.9-2.4 23.2 23.2 0 0 1-.5-5.5V46.5h-27.4v33.8a26.1 26.1 0 0 1-.7 7.3 4.5 4.5 0 0 1-2.6 3.2 19.9 19.9 0 0 1-6.3 1.1v2.7c10.5-.3 26.2-.4 47.3-.4 14.5 0 24.8.1 30.9.4-.6-6.3-.9-14.3-.9-24.1zm78.1-24v10.3c0 11.2-1.8 19.8-5.4 25.9s-9.6 9-18.2 9a19.1 19.1 0 0 1-9.5-2.1 13.6 13.6 0 0 1-5.5-7.3c-1.3-3.4-1.9-8.1-1.9-13.9V46.5h-27.4v9.2a110.4 110.4 0 0 0 .9 15.3 36.3 36.3 0 0 0 3.3 11 22.9 22.9 0 0 0 6.9 8c6 4.3 14.5 6.5 25.4 6.5 14.3 0 24-4.2 29-12.6 3.7-6 5.5-15.6 5.5-28.6v-8.8z"/><path d="M113.1.4c-10.9 0-18.9-.1-24-.4v2.7a17.2 17.2 0 0 1 6.2 1.1A4.7 4.7 0 0 1 98 6.9a31.5 31.5 0 0 1 .7 7.4v33.5H126V14.3a31.5 31.5 0 0 1 .7-7.4 4.7 4.7 0 0 1 2.7-3.1 17.4 17.4 0 0 1 6.3-1.1V0c-5.3.3-12.8.4-22.6.4zm52.1 0c-10.9 0-18.9-.1-24.1-.4v2.7a17.4 17.4 0 0 1 6.3 1.1 4.3 4.3 0 0 1 2.6 3.1 26.1 26.1 0 0 1 .8 7.4v33.5h27.3V14.3a22.3 22.3 0 0 1 .9-7.4 4.7 4.7 0 0 1 3-3.1 21.8 21.8 0 0 1 7.1-1.1V0c-5.6.3-13.5.4-23.9.4zm83.2 0c-10.9 0-19-.1-24.1-.4v2.7a16.7 16.7 0 0 1 6.2 1.1 4.7 4.7 0 0 1 2.7 3.1 26.9 26.9 0 0 1 .7 7.4v33.5h27.4V14.3a26.1 26.1 0 0 1 .8-7.4 5.1 5.1 0 0 1 3-3.1 22.3 22.3 0 0 1 7.1-1.1V0c-5.5.3-13.5.4-23.8.4zm132.8 0c-6.4 0-11.5-.1-15.1-.4v2.7c4.3.6 7.4 1.6 9.2 3a9.5 9.5 0 0 1 3.6 6.4 93.4 93.4 0 0 1 .8 14.3v21.4h3.1V23.7a73.6 73.6 0 0 1 .7-12.1 9.9 9.9 0 0 1 2.7-6 12.4 12.4 0 0 1 6.2-2.9V0a109.6 109.6 0 0 1-11.2.4zM326 .4c-10.8 0-18.7-.1-23.8-.4v2.7a17.4 17.4 0 0 1 6.3 1.1 4.6 4.6 0 0 1 2.6 3.1 26.4 26.4 0 0 1 .7 7.4v33.5h27.4V14.3a26.1 26.1 0 0 1 .8-7.4 5 5 0 0 1 3.1-3.1 21.8 21.8 0 0 1 7.1-1.1V0c-5.6.3-13.6.4-24.2.4zM77.8 171a34.1 34.1 0 0 0-7.2-9.2l-2.1-1.8H23.7c2.8 2.1 6.3 4.6 10.3 7.3a101.3 101.3 0 0 1 10.8 8 28.2 28.2 0 0 1 6.5 7.8 19 19 0 0 1 2.4 9.6c0 4.1-1.4 7.3-4.3 9.6s-6.9 3.5-11.9 3.5c-8.1 0-14-3.3-17.9-10s-6.1-15.3-6.6-26H9.9c0 19.2-.2 32.3-.6 39.1h3.1a18.2 18.2 0 0 1 1.1-4.5 2.1 2.1 0 0 1 1.9-1.4c1 0 2.5.6 4.6 1.9a46.7 46.7 0 0 0 10.1 3.7 59.3 59.3 0 0 0 13.8 1.3 56.5 56.5 0 0 0 18.5-2.9 30.3 30.3 0 0 0 13.3-9 22.8 22.8 0 0 0 4.9-14.8 25.3 25.3 0 0 0-2.8-12.2zm73.9 33.5a6 6 0 0 1-4.2-3.5c-.8-1.7-1.2-4.4-1.2-8.2V160h-27.4v32.8c0 3.8-.4 6.5-1.2 8.2a6.1 6.1 0 0 1-4.1 3.5 44.7 44.7 0 0 1-9.7.8v2.7l27.8-.4 29.6.4v-2.7a43 43 0 0 1-9.6-.8zm127-3.7a5.4 5.4 0 0 1-4.1 1.8 4.2 4.2 0 0 1-3.7-1.9q-1.3-1.9-2.4-6.9l-2.8-14a18.1 18.1 0 0 0-8.7-12.6c-4.7-2.8-11.6-4.5-20.8-5a82 82 0 0 0 12.6-2.2h-55.6v33.7a26.4 26.4 0 0 1-.7 7.4 5 5 0 0 1-2.6 3.2 20.5 20.5 0 0 1-6.3 1v2.7c5.1-.2 13.1-.4 24-.4s17.3.2 22.6.4v-2.7a20.5 20.5 0 0 1-6.3-1 5 5 0 0 1-2.6-3.2 25.6 25.6 0 0 1-.8-7.4v-31h6.2c3.1 0 5.5 1.6 7 4.8s2.8 8 3.7 14.3l2.1 13.5c.8 5.3 2.9 9.1 6.3 11.3s8.3 3.3 14.5 3.3a35 35 0 0 0 11.3-1.6 22.6 22.6 0 0 0 8.9-5.7zm96.2 2.3a18 18 0 0 1-3.8-6.4L356.8 160h-29.5l3.4 9.1h-25.3l3.5-9.1h-3.2l-11.5 29.5a42.6 42.6 0 0 1-6.1 11.7c-2 2.4-4.1 3.8-6.3 4.1v2.7c2.7-.2 6.2-.4 10.4-.4s11 .2 17.7.4v-2.7c-4-.1-7.1-.9-9.1-2.2s-3.1-3.9-3.1-7.6 1.5-10 4.4-17.6l2.3-6.1h27.2l8 22.2a20.9 20.9 0 0 1 1.7 6.4 3.9 3.9 0 0 1-2.2 3.7c-1.5.7-3.9 1.1-7.3 1.2v2.7c4.8-.2 12.4-.4 22.7-.4s18 .2 24.6.4v-2.7a6.7 6.7 0 0 1-4.2-2.2zm59.2 1.4a6.5 6.5 0 0 1-4.2-3.5c-.7-1.7-1.1-4.4-1.1-8.2V160h-27.4v32.8c0 3.8-.4 6.5-1.2 8.2a6.5 6.5 0 0 1-4.2 3.5 43 43 0 0 1-9.6.8v2.7l27.7-.4 29.6.4v-2.7a43 43 0 0 1-9.6-.8zm72.3-.2a5.1 5.1 0 0 1-2.7-3.2 26.4 26.4 0 0 1-.7-7.4V160h-27.4v33.7a32.2 32.2 0 0 1-.6 7.4 5.1 5.1 0 0 1-2.7 3.2 20.5 20.5 0 0 1-6.3 1v2.7c5.2-.2 13.2-.4 24.1-.4s17.3.2 22.5.4v-2.7a20.3 20.3 0 0 1-6.2-1zM591 160a102.6 102.6 0 0 1-2.7 24.7c-1.8 7.1-4.4 12.7-7.7 16.8s-7.3 6-11.7 6-8.1-1.9-11.6-5.8-6.3-9.4-8.4-16.5a92.1 92.1 0 0 1-3.1-24.7v-.5h-28.3v1c0 10.2 2.1 18.9 6.3 26.3a41.8 41.8 0 0 0 17.8 16.8c7.7 3.9 16.6 5.8 26.8 5.8a54.2 54.2 0 0 0 26.4-6.3 44.9 44.9 0 0 0 18.1-17.8 53.1 53.1 0 0 0 6.5-25.8zm109 0v10.8L689.8 160h-40.1l43.9 48 5.1-.2 4.4.2v-48zm-61.8 42.3a9.8 9.8 0 0 1-3.5-6.4c-.6-2.9-.8-7.7-.8-14.3V160h-3.1v24.3a85.9 85.9 0 0 1-.7 12.1 11.2 11.2 0 0 1-2.7 6 13.2 13.2 0 0 1-6.3 2.9v2.7c2.8-.2 6.5-.4 11.2-.4 6.5 0 11.6.2 15.2.4v-2.7q-6.4-.9-9.3-3z"/><path d="M62.9 112.8a16.3 16.3 0 0 1-1.1 4.5 2 2 0 0 1-1.9 1.4 4.2 4.2 0 0 1-1.8-.4l-2.8-1.5a47.4 47.4 0 0 0-9.3-4 47.6 47.6 0 0 0-12.6-1.4 50 50 0 0 0-16.7 2.7 26.8 26.8 0 0 0-12.1 8.6c-3.1 3.8-4.6 8.6-4.6 14.2a23.7 23.7 0 0 0 3.1 12.3 35.9 35.9 0 0 0 7.9 9.4l3.1 2.5h44.7c-2.7-2.3-6.1-4.8-10.1-7.6-7.5-5.2-12.6-8.9-15.3-10.9a29.2 29.2 0 0 1-6.2-6.6 15.5 15.5 0 0 1-2.3-8.4c0-4 1.3-7 3.8-9.2a14.9 14.9 0 0 1 10-3.3 17.6 17.6 0 0 1 11.9 4.4 30.6 30.6 0 0 1 8.1 11.5 43.9 43.9 0 0 1 3.5 14.7h3.1c0-15.5.2-26.5.7-32.9zm103.7.5c-8.5.3-23.1.4-43.9.4s-35.6-.1-44.2-.4c.6 10 .9 18.9.9 26.8a80.6 80.6 0 0 1-.4 9.6h3.1c3-11.9 6.8-20.4 11.5-25.6s9.7-7.7 15.2-7.7h.1v44.7h27.4v-44.7h.1c5.5 0 10.5 2.6 15.2 7.8s8.5 13.7 11.4 25.5h3.1c-.2-2.3-.4-5.5-.4-9.6 0-7.9.3-16.8.9-26.8zm82.5 5.9c-6.7-3.9-16.9-5.8-30.6-5.8l-9.3.2h-12.4c-10.3 0-18.1-.1-23.2-.4v2.8a20.3 20.3 0 0 1 6.2 1 5.1 5.1 0 0 1 2.7 3.2 30.9 30.9 0 0 1 .7 7.4v33.5h54.6q9-2.4 13.8-6.9a22.8 22.8 0 0 0 7.6-17.3c0-8-3.4-13.9-10.1-17.7zm-19.6 30.9a14.5 14.5 0 0 1-5 7.8c-2.5 1.9-5.9 2.9-10.3 2.9h-3.7v-33.2a33.6 33.6 0 0 1 .6-7.3 5.6 5.6 0 0 1 2.1-3.4 9.5 9.5 0 0 1 4.7-.9q6.9 0 9.9 5.7c2 3.7 3 9.3 3 16.7a43.9 43.9 0 0 1-1.3 11.7zm98.9-36.8a84.2 84.2 0 0 1-14.2 0l-18.6 47.8h3.2l9.6-24.9 9 24.9h29.5zm120.7 0c-8.5.3-23.2.4-44 .4s-35.6-.1-44.1-.4c.6 10 .9 18.9.9 26.8a80.6 80.6 0 0 1-.4 9.6h3.1c3-11.9 6.8-20.4 11.4-25.6s9.7-7.7 15.2-7.7h.2v44.7h27.4v-44.7h.1c5.4 0 10.5 2.6 15.1 7.8s8.5 13.7 11.5 25.5h3.1a80.6 80.6 0 0 1-.4-9.6c0-7.9.3-16.8.9-26.8zm31 .4c-10.9 0-18.9-.1-24.1-.4v2.7a19.7 19.7 0 0 1 6.2 1 5.1 5.1 0 0 1 2.7 3.2 26.4 26.4 0 0 1 .7 7.4v33.5H493v-33.5a26.4 26.4 0 0 1 .7-7.4 5 5 0 0 1 2.6-3.2 20.5 20.5 0 0 1 6.3-1v-2.7c-5.2.3-12.8.4-22.5.4zm123 20.3a42.4 42.4 0 0 0-17.8-16.8c-7.7-3.9-16.6-5.8-26.8-5.8a54.9 54.9 0 0 0-26.5 6.3 45.3 45.3 0 0 0-18 17.8 52.3 52.3 0 0 0-6.5 25.6h28.3a99.2 99.2 0 0 1 2.8-24.4c1.8-7.2 4.4-12.8 7.7-16.9s7.2-6 11.7-6 8.1 1.9 11.6 5.8 6.3 9.4 8.3 16.5a88.3 88.3 0 0 1 3.1 24.7v.3h28.4v-.8c0-10.2-2.1-18.9-6.3-26.3zm31.7-20.7c-3.3.3-7.5.4-12.5.4s-8.4-.1-11.2-.4v2.7a20.5 20.5 0 0 1 6.3 1 4.7 4.7 0 0 1 2.6 3.2 25.6 25.6 0 0 1 .8 7.4v33.5h3.1v-17.6l16 17.6H680zm56.7.4c-6.4 0-11.5-.1-15.1-.4v2.7q6.5.9 9.3 3a9.8 9.8 0 0 1 3.5 6.4 93.4 93.4 0 0 1 .8 14.3v21.4h3.1V137a87 87 0 0 1 .7-12.1 11.2 11.2 0 0 1 2.7-6 12.4 12.4 0 0 1 6.2-2.9v-2.7a109.6 109.6 0 0 1-11.2.4z"/></symbol></svg>