<svg xmlns="http://www.w3.org/2000/svg"><symbol id="blogger" viewBox="0 0 64 64"><rect width="64" height="64" fill="#6268af" rx="15.7" ry="15.7"/><path fill-rule="evenodd" d="M9.6 0h44.8A9.6 9.6 0 0 1 64 9.6v44.8a9.6 9.6 0 0 1-9.6 9.6H9.6A9.6 9.6 0 0 1 0 54.4V9.6A9.6 9.6 0 0 1 9.6 0z"/><path fill="#fff" fill-rule="evenodd" d="M25 12.3h8.3c5.3 0 11.4 5.9 11.4 11.5v1.1a2.4 2.4 0 0 0 2.7 2.3h1.7c2.1 0 2.7 1.2 2.7 2.9v9.5a12.2 12.2 0 0 1-12.1 12.1H23.9c-5.8 0-11.5-5.4-11.5-11.9v-15A12.4 12.4 0 0 1 25 12.3zm0 10.4h7.2a2.3 2.3 0 1 1 0 4.6H25a2.3 2.3 0 1 1 0-4.6zM25 37h14.2a2.3 2.3 0 1 1 0 4.6H25a2.3 2.3 0 1 1 0-4.6z"/></symbol><symbol id="dog" viewBox="0 0 64 64"><path d="M60.1 43.4a2.1 2.1 0 0 1-3.6 0A81.6 81.6 0 0 1 46 13a1.9 1.9 0 0 1 1.9-2.2l.9.2c4.9 2.6 23 13.6 11.3 32.4zm-8.9-1.2a5.2 5.2 0 0 1-.1 5 21.7 21.7 0 0 1-18 11v-6.4l.4-.3 4.4-3.9a2.7 2.7 0 0 0-1.9-4.7h-8.7a2.7 2.7 0 0 0-1.8 4.8l4.4 3.9.4.3v6.4A20.1 20.1 0 0 1 12 46.2a5.1 5.1 0 0 1 .1-4.5c6-11.4 8-24.1 8.7-29.9a5.2 5.2 0 0 1 3.5-4.3c6.7-2.2 8.2-2.2 14.8 0a5.2 5.2 0 0 1 3.5 4.2c2.5 17.1 6.6 26.6 8.6 30.5zM18 13A81.6 81.6 0 0 1 7.4 43.4a2.1 2.1 0 0 1-3.6 0c-11.6-18.8 6.5-29.8 11.4-32.3l.9-.2A1.9 1.9 0 0 1 18 13z"/><path d="M35.3 46.8l-2.9 2.6a1.1 1.1 0 0 1-1.4 0l-3-2.6a1.1 1.1 0 0 1 .7-1.9h5.8a1.1 1.1 0 0 1 .8 1.9z"/></symbol><symbol id="facebook" viewBox="0 0 64 64"><path fill-rule="evenodd" d="M9.6 0h44.8A9.6 9.6 0 0 1 64 9.6v44.8a9.6 9.6 0 0 1-9.6 9.6H9.6A9.6 9.6 0 0 1 0 54.4V9.6A9.6 9.6 0 0 1 9.6 0z"/><path fill="#fff" d="M44.2 64V39.2h8.3l1.2-9.7h-9.5v-6.1c0-2.8.8-4.7 4.8-4.7h5.1V10a68.5 68.5 0 0 0-7.5-.4c-7.4 0-12.4 4.5-12.4 12.8v7.1h-8.4v9.7h8.3V64z"/></symbol><symbol id="hamburger" viewBox="0 0 64 64"><path d="M10.6 36a4 4 0 0 1 0-8h42.8a4 4 0 0 1 0 8zm42.8-18.1H10.6a4 4 0 0 1 0-8h42.8a4 4 0 0 1 0 8zM10.6 54.1a4 4 0 1 1 0-8h42.8a4 4 0 1 1 0 8z"/></symbol><symbol id="instagram" viewBox="0 0 64 64"><path fill-rule="evenodd" d="M9.6 0h44.8A9.6 9.6 0 0 1 64 9.6v44.8a9.6 9.6 0 0 1-9.6 9.6H9.6A9.6 9.6 0 0 1 0 54.4V9.6A9.6 9.6 0 0 1 9.6 0z"/><path fill="#fff" d="M32 12.9h9.4a12.9 12.9 0 0 1 4.3.8 7.7 7.7 0 0 1 4.4 4.4 12.9 12.9 0 0 1 .8 4.3c.1 2.5.1 3.2.1 9.4s0 6.9-.1 9.4a12.9 12.9 0 0 1-.8 4.3 7.7 7.7 0 0 1-4.4 4.4 12.9 12.9 0 0 1-4.3.8H22.6a12.9 12.9 0 0 1-4.3-.8 7.7 7.7 0 0 1-4.4-4.4 12.9 12.9 0 0 1-.8-4.3c-.1-2.5-.1-3.2-.1-9.4s0-6.9.1-9.4a12.9 12.9 0 0 1 .8-4.3 7.7 7.7 0 0 1 4.4-4.4 12.9 12.9 0 0 1 4.3-.8H32m0-4.2h-9.6a17.1 17.1 0 0 0-5.6 1.3 11.9 11.9 0 0 0-6.8 6.8 17.1 17.1 0 0 0-1.1 5.6c-.1 2.5-.1 3.3-.1 9.6s0 7.1.1 9.6a17.1 17.1 0 0 0 1.1 5.6 11.9 11.9 0 0 0 6.8 6.8 17.1 17.1 0 0 0 5.6 1.1h19.2a17.1 17.1 0 0 0 5.6-1.1 11.9 11.9 0 0 0 6.8-6.8 17.1 17.1 0 0 0 1.1-5.6c.1-2.5.1-3.3.1-9.6s0-7.1-.1-9.6a17.1 17.1 0 0 0-1.1-5.6 11.9 11.9 0 0 0-6.8-6.8 17.1 17.1 0 0 0-5.6-1.1z"/><path fill="#fff" d="M32 20.1A11.9 11.9 0 1 0 43.9 32 11.9 11.9 0 0 0 32 20.1zm0 19.7a7.7 7.7 0 1 1 7.7-7.8 7.7 7.7 0 0 1-7.7 7.7z"/><circle cx="44.4" cy="19.6" r="2.8" fill="#fff"/></symbol><symbol id="logo" viewBox="0 0 64 64"><path d="M51.2 51.1L37.7 32.5a7.6 7.6 0 0 0-12.3 0L12 51.1a5.6 5.6 0 0 0 7.7 7.9l2.9-1.9a16.2 16.2 0 0 1 18.1 0l2.8 1.9a5.6 5.6 0 0 0 7.7-7.9z"/><ellipse cx="7.4" cy="31.9" rx="7.4" ry="10"/><ellipse cx="22.7" cy="14" rx="7.4" ry="10"/><ellipse cx="41.8" cy="14" rx="7.4" ry="10"/><ellipse cx="56.6" cy="32.2" rx="7.4" ry="10"/></symbol><symbol id="tumblr" viewBox="0 0 64 64"><rect width="64" height="64" fill="#6268af" rx="15.7" ry="15.7"/><path fill-rule="evenodd" d="M9.6 0h44.8A9.6 9.6 0 0 1 64 9.6v44.8a9.6 9.6 0 0 1-9.6 9.6H9.6A9.6 9.6 0 0 1 0 54.4V9.6A9.6 9.6 0 0 1 9.6 0z"/><path fill="#fff" d="M45.1 51.6c-1.5 1.6-5 2.7-8.2 2.8h-.3c-10.5 0-12.8-7.7-12.8-12.3V29.5h-4.2a.9.9 0 0 1-.9-.9v-5.9a1.5 1.5 0 0 1 1-1.4c5.4-1.9 7.1-6.6 7.4-10.2.1-1 .6-1.4 1.4-1.4h6.2a.9.9 0 0 1 .9.9v10h7.2a.9.9 0 0 1 .9.9v7.1a.9.9 0 0 1-.9.9h-7.3v11.6c0 2.9 1.9 3.7 3.1 3.7a8.7 8.7 0 0 0 2.8-.6 1.9 1.9 0 0 1 1.1-.2.9.9 0 0 1 .6.7l1.9 5.6c.3.4.4.9.1 1.3z"/></symbol><symbol id="twitter" viewBox="0 0 64 64"><path fill-rule="evenodd" d="M9.6 0h44.8A9.6 9.6 0 0 1 64 9.6v44.8a9.6 9.6 0 0 1-9.6 9.6H9.6A9.6 9.6 0 0 1 0 54.4V9.6A9.6 9.6 0 0 1 9.6 0z"/><path fill="#fff" d="M24.9 50.6c16.4 0 25.3-13.6 25.3-25.3v-1.2a18.1 18.1 0 0 0 4.4-4.6 17.8 17.8 0 0 1-5.1 1.4 8.9 8.9 0 0 0 4-4.9 17.8 17.8 0 0 1-5.7 2.2 8.9 8.9 0 0 0-15.2 8.1A25.3 25.3 0 0 1 14.3 17a8.9 8.9 0 0 0 2.8 11.9 8.8 8.8 0 0 1-4-1.1 8.9 8.9 0 0 0 7.1 8.7 8.9 8.9 0 0 1-2.3.3l-1.7-.2a8.9 8.9 0 0 0 8.3 6.2 17.9 17.9 0 0 1-11.1 3.8h-2.1a25.2 25.2 0 0 0 13.7 4"/></symbol><symbol id="x" viewBox="0 0 64 64"><path d="M51.3 55.3a4 4 0 0 1-2.8-1.2L9.9 15.5a4 4 0 0 1 5.7-5.7l38.5 38.7a4 4 0 0 1-2.8 6.8z"/><path d="M12.7 55.3a4 4 0 0 1-2.8-6.8L48.5 9.9a4 4 0 0 1 5.7 5.7L15.5 54.1a4 4 0 0 1-2.8 1.2z"/></symbol></svg>