<?xml version="1.0" encoding="utf-8"?>
<!-- Generator: Adobe Illustrator 22.0.1, SVG Export Plug-In . SVG Version: 6.00 Build 0)  -->
<svg version="1.1" id="Layer_1" xmlns="http://www.w3.org/2000/svg" xmlns:xlink="http://www.w3.org/1999/xlink" x="0px" y="0px"
	 viewBox="0 0 904 175.7" style="enable-background:new 0 0 904 175.7;" xml:space="preserve">
<style type="text/css">
	.st0{fill:#050505;}
</style>
<path d="M172.9,82.7v9H77.7v40.4L0,87.2l77.7-44.8v40.3L172.9,82.7L172.9,82.7z"/>
<g>
	<g>
		<path class="st0" d="M339.3,4.2c-13.8,0-27.3-0.2-40.7-0.8V8c5.8,0.2,10.6,1.8,14.2,4.6c3.6,2.8,5.6,6.6,5.6,11.2
			c0,6.4-3.6,13.6-10.8,21.6l-8,9.2c-9,9.8-16.4,17-22.5,21.2c-6,4.4-12.2,6.8-18.8,7.2V29.1c0-6.2,0.4-10.4,1.2-13.2
			c0.8-2.8,2.4-4.6,4.8-5.6c2.2-1,6-1.6,11.2-2V3.4c-9.4,0.6-22.9,0.8-40.3,0.8c-19.4,0-33.7-0.2-42.9-0.8v4.8c5.2,0.4,8.8,1,11.2,2
			c2.2,1,3.8,2.8,4.6,5.6c1,2.8,1.4,7,1.4,13.2V88h106.8l-16-26.7L324,34.5c12.4-13.8,25.5-22.7,39.5-26.5V3.4
			C356.9,4,348.9,4.2,339.3,4.2z"/>
		<path class="st0" d="M412.4,4.2c-19,0-33.3-0.2-42.3-0.8v4.8c5.2,0.4,9,1,11.2,2c2.2,1,3.8,2.8,4.6,5.6c0.8,2.6,1.2,7,1.2,13.2V88
			h48.9V29.1c0-6.2,0.6-10.4,1.6-13.2c0.8-2.8,2.6-4.6,5.2-5.6c2.8-1,7-1.6,12.6-2V3.4C445.7,4,431.5,4.2,412.4,4.2z M510.9,4.2
			c-11.4,0-20.4-0.2-26.9-0.8v4.8c7.6,1.2,13.2,3,16.4,5.4c3.4,2.4,5.4,6.2,6.4,11.4c1,5.2,1.4,13.6,1.4,25.5V88h5.6V45.7
			c0-9.4,0.4-16.6,1.2-21.4c0.8-4.8,2.4-8.4,4.8-10.8c2.4-2.4,6-4,11-5.2V3.4C526.1,4,519.5,4.2,510.9,4.2z"/>
		<path class="st0" d="M685.1,26.3c-5.4-7-13.6-12.6-24.5-16.6c-10.8-4-24.3-5.8-40.1-5.8c-3,0-8.6,0-16.6,0.2
			c-8,0.2-15.4,0.2-22.1,0.2c-18.4,0-32.3-0.2-41.3-0.8v4.8c5,0.4,8.6,1,11,2c2.2,1,3.8,2.8,4.8,5.6c0.8,2.8,1.2,7,1.2,13.2V88h48.7
			V29.1c0-5.8,0.4-10,1-13c0.8-2.8,2-4.8,3.8-6c1.8-1.2,4.6-1.8,8.2-1.8c8.4,0,14.2,3.8,17.8,11c3.6,7.4,5.4,18.8,5.4,34.5
			c0,14.2-2.2,25.7-6.4,33.9c0,0.2-0.2,0.2-0.2,0.4h39.9c4.2-3.4,7.6-7.2,10-11.4c4.8-8,7.2-16.6,7.2-25.5
			C693.1,41.7,690.3,33.5,685.1,26.3z"/>
		<path class="st0" d="M875.9,40.5c-7.6-13.2-18-23.3-31.7-30.1C830.6,3.6,814.6,0,796.5,0c-17.6,0-33.5,3.8-47.1,11.4
			c-13.8,7.4-24.5,18-32.3,31.7c-7.4,13-11.2,28.1-11.4,44.9H756c0-16.2,1.6-30.5,5-42.9c3.2-12.8,7.8-22.9,13.6-29.9
			c6-7.2,13-10.8,20.8-10.8c7.6,0,14.4,3.4,20.6,10.4c6.4,6.8,11.2,16.6,15,29.3c3.6,12.8,5.4,27.3,5.4,43.9h50.5v-0.8
			C887.1,69.2,883.3,53.5,875.9,40.5z"/>
	</g>
	<g>
		<path class="st0" d="M379.6,161.5c-2.2-2.2-4.2-5-6.4-8.6l-39.9-66.4H226.5v60.3c0,6-0.4,10.4-1.2,13c-0.8,2.8-2.4,4.8-4.8,5.8
			c-2.2,1-6,1.6-11.2,1.8v4.8c9.2-0.4,23.5-0.8,42.9-0.8c17.4,0,30.9,0.4,40.3,0.8v-4.8c-5.2-0.2-8.8-0.8-11.2-1.8
			c-2.2-1-3.8-3-4.6-5.8c-1-2.6-1.4-7-1.4-13V87.1c2.2,0.4,4.2,1.2,5.6,2.6c1.6,1.4,3.4,4,5.8,8l34.9,58.9c1.6,3,2.4,5,2.4,6.2
			c0,1.6-1,2.6-3,3.2c-2.2,0.8-5.6,1.2-10.8,1.4v4.8c11.2-0.4,22.7-0.8,34.5-0.8c15.2,0,29.7,0.4,43.3,0.8v-4.8
			C384.4,165.7,381.8,163.7,379.6,161.5z"/>
		<path class="st0" d="M525.1,86.5v18.4c0,20-3.2,35.5-9.6,46.1c-6.4,10.8-17.2,16.2-32.5,16.2c-6.8,0-12.4-1.4-16.8-4
			c-4.4-2.4-7.6-6.8-9.8-12.8c-2.2-6.2-3.4-14.4-3.4-24.9V86.5h-48.9v16.4c0,10.8,0.6,19.8,1.6,27.3c1.2,7.4,3,14,6,19.6
			c2.8,5.6,6.8,10.4,12.2,14.2c10.8,7.8,25.9,11.6,45.1,11.6c25.7,0,42.9-7.4,51.7-22.5c6.6-10.6,10-27.7,10-50.9V86.5H525.1z"/>
		<path class="st0" d="M632.2,103.5c19,0,34.5-2.8,45.9-8.2c5.8-2.6,10.6-5.6,14.6-8.8h-39.9c-4.2,8.2-12,12.2-23.1,12.2h-6.6V86.5
			h-48.7v60.3c0,6-0.4,10.4-1.2,13c-0.8,2.8-2.4,4.8-4.8,5.8c-2.2,1-6,1.6-11,1.8v4.8c26.1-0.4,40.3-0.8,43.1-0.8
			c11.4,0,27.9,0.4,49.5,0.8v-5.6c-7.8,0-13.6-0.4-17.2-1.4c-3.6-1-6.2-3-7.6-6.2c-1.2-3-2-8-2-14.6v-40.9H632.2z"/>
		<path class="st0" d="M853.5,86.5v0.2c0,16.4-1.6,31.1-4.8,43.9c-3.2,12.8-7.8,22.9-13.8,30.1c-6,7-12.8,10.6-20.8,10.6
			c-7.4,0-14.2-3.4-20.6-10.2c-6.2-7-11.2-16.8-14.8-29.5c-3.8-12.8-5.6-27.5-5.6-43.9v-1.2h-50.3c-0.2,0.6-0.2,1.4-0.2,2
			c0,18,3.8,33.7,11.4,46.9c7.4,13,18,23.1,31.7,29.9c13.6,7,29.5,10.4,47.7,10.4c17.6,0,33.3-3.8,47.1-11.2
			c13.6-7.6,24.5-18,32.1-31.7c7.6-13.4,11.4-29.1,11.6-46.3H853.5z"/>
	</g>
</g>
</svg>
