<?xml version="1.0" encoding="utf-8"?>
<!-- Generator: Adobe Illustrator 24.1.0, SVG Export Plug-In . SVG Version: 6.00 Build 0)  -->
<svg version="1.1" id="Layer_1" xmlns="http://www.w3.org/2000/svg" xmlns:xlink="http://www.w3.org/1999/xlink" x="0px" y="0px"
	 viewBox="0 0 473.9 117" style="enable-background:new 0 0 473.9 117;" xml:space="preserve">
<style type="text/css">
	.st0{fill:#FFFFFF;}
</style>
<g id="Layer_2_1_">
	<g id="Down">
		<path class="st0" d="M97.8,2.8c-9.2,0-18.1-0.1-27-0.5v3c3.4,0,6.7,1.1,9.4,3.1c2.4,1.8,3.8,4.5,3.8,7.5c0,4.3-2.4,9.1-7.2,14.4
			l-5.4,6.1c-6,6.6-10.9,11.4-14.9,14.2c-3.7,2.8-8,4.4-12.6,4.8v-36c-0.1-3,0.2-6,0.8-8.9c0.5-1.7,1.6-3,3.2-3.7
			c1.5-0.7,4-1.1,7.5-1.3V2.3c-6.3,0.4-15.2,0.5-26.8,0.5S6.1,2.7,0,2.3v3.2c2.6,0,5.1,0.5,7.5,1.3c1.5,0.7,2.6,2.1,3,3.7
			c0.7,1.9,1,4.7,1,8.9v39.2h71.1L72,40.8L87.7,23c8.3-9.2,17-15.1,26.3-17.7v-3C109.6,2.7,104.3,2.8,97.8,2.8z M146.6,2.8
			c-12.7,0-22.2-0.1-28.2-0.5v3.2c3.5,0.2,6,0.6,7.5,1.3c1.5,0.7,2.7,2.1,3.1,3.7c0.6,2.9,0.9,5.9,0.8,8.9v39.2h32.5V19.4
			c0-4.2,0.4-7,1.1-8.9c0.5-1.7,1.8-3.1,3.5-3.7c2.7-0.8,5.6-1.3,8.4-1.3V2.3C168.7,2.7,159.3,2.8,146.6,2.8L146.6,2.8z M212.1,2.8
			c-7.6,0-13.6-0.1-17.9-0.5v3.2c5.1,0.8,8.8,2,11,3.6s3.6,4.1,4.2,7.6s1,9.1,1,16.9v25h3.7V30.4c-0.1-4.7,0.2-9.5,0.8-14.2
			c0.6-3.3,1.6-5.7,3.2-7.3s4-2.6,7.4-3.4V2.3C221,2.7,216.6,2.9,212.1,2.8z M328.1,17.5c-3.6-4.7-9.1-8.4-16.3-11.1
			s-16.1-3.9-26.7-3.9c-2,0-5.7,0-11,0.2h-14.7c-12.3,0-21.5-0.1-27.5-0.5v3.3c2.5,0,5,0.5,7.3,1.3c1.5,0.7,2.7,2.1,3.2,3.7
			c0.6,1.9,0.8,4.7,0.8,8.9v39.2h32.5V19.4c-0.1-2.9,0.1-5.8,0.6-8.7c0.4-1.6,1.3-3,2.6-4c1.6-0.9,3.5-1.3,5.4-1.2
			c5.6,0,9.5,2.5,11.9,7.3s3.6,12.6,3.6,23s-1.4,17.1-4.2,22.5c0,0.2-0.2,0.2-0.2,0.3H322c2.7-2.1,4.9-4.7,6.7-7.6
			c3.1-5.1,4.8-11,4.8-17C333.5,28.1,331.6,22.3,328.1,17.5z M455.2,27c-4.9-8.7-12.2-15.6-21.1-20.1C425,2.4,414.4,0,402.3,0
			S380.1,2.5,371,7.6c-9,4.8-16.5,12.1-21.5,21.1c-5,8.7-7.5,18.7-7.6,29.9h33.5c0-10.8,1-20.3,3.3-28.6s5.2-15.2,9.1-19.9
			s8.7-7.2,13.9-7.2s9.6,2.3,13.7,7s7.5,11.1,10,19.5c2.5,9.5,3.8,19.3,3.6,29.2h33.7v-0.5C462.7,46.1,460.1,35.6,455.2,27z"/>
		<path class="st0" d="M124.7,107.5c-1.7-1.7-3.1-3.6-4.3-5.7L93.9,57.6H22.7v40.2c0,4-0.2,6.9-0.8,8.7c-0.4,1.7-1.6,3.1-3.2,3.8
			c-1.5,0.7-4,1.1-7.5,1.2v3.2c6.2-0.2,15.7-0.5,28.6-0.5s20.6,0.3,26.8,0.5v-3.2c-2.5,0-5-0.4-7.4-1.2c-1.6-0.7-2.7-2.1-3.1-3.8
			c-0.7-1.8-0.9-4.7-0.9-8.7V58c1.4,0.2,2.6,0.8,3.7,1.7c1.5,1.6,2.9,3.4,3.9,5.4L86,104.3c0.8,1.3,1.4,2.7,1.6,4.2
			c0,1-0.7,1.7-2,2.1c-2.3,0.6-4.8,0.9-7.2,0.9v3.2c7.5-0.2,15.1-0.5,22.9-0.5c10.2,0,19.8,0.3,28.9,0.5v-3.2
			C128.2,110.5,126.3,109.1,124.7,107.5z M221.6,57.6v12.3c0,13.3-2.1,23.6-6.4,30.7s-11.5,10.8-21.6,10.8c-4.6,0-8.3-0.9-11.2-2.7
			s-5.1-4.5-6.6-8.5s-2.2-9.6-2.2-16.6v-26H141v10.9c-0.1,6.1,0.3,12.2,1.1,18.2c0.6,4.6,2,9,4,13.1c1.9,3.8,4.6,7.1,8.1,9.5
			c7.2,5.2,17.2,7.7,30,7.7c17.1,0,28.6-4.9,34.5-14.9c4.4-7.1,6.7-18.5,6.7-34V57.6H221.6z M292.9,68.9c12.7,0,23-1.8,30.6-5.4
			c3.4-1.6,6.7-3.6,9.7-5.9h-26.5c-2.8,5.5-8.1,8.1-15.4,8.1h-4.4v-8.1h-32.4v40.2c0.1,2.9-0.2,5.8-0.8,8.7
			c-0.4,1.7-1.6,3.1-3.2,3.8c-2.4,0.8-4.9,1.2-7.4,1.2v3.2c17.4-0.2,26.8-0.5,28.7-0.5c7.6,0,18.6,0.3,33,0.5V111
			c-3.9,0.1-7.7-0.2-11.5-0.9c-2.3-0.5-4.1-2.1-5.1-4.2c-0.8-2-1.3-5.3-1.3-9.7V68.9H292.9z M440.3,57.6c0.1,9.9-1,19.8-3.2,29.4
			c-2.2,8.5-5.2,15.2-9.2,20s-8.6,7.1-13.9,7.1s-9.5-2.3-13.8-6.8s-7.4-11.3-9.8-19.7s-3.8-18.3-3.8-29.2v-0.8h-33.5
			c-0.1,0.4-0.1,0.9-0.1,1.3c0,12.1,2.5,22.5,7.6,31.3c4.9,8.6,12.2,15.6,21.1,19.9c9.1,4.6,19.6,6.9,31.7,6.9s22.2-2.5,31.4-7.5
			c9-4.8,16.4-12.2,21.4-21.1c5-8.9,7.6-19.3,7.7-30.8L440.3,57.6z"/>
	</g>
</g>
</svg>
