<svg xmlns="http://www.w3.org/2000/svg" width="473.9" height="117" viewBox="0 0 473.9 117"><title>kupo-logo-alone</title><g id="Layer_2" data-name="Layer 2"><g id="Down"><path d="M97.8,2.8c-9.2,0-18.1-.1-27-.5v3a16.2,16.2,0,0,1,9.4,3.1A9.3,9.3,0,0,1,84,15.9q0,6.4-7.2,14.4l-5.4,6.1c-6,6.6-10.9,11.4-14.9,14.2a24,24,0,0,1-12.6,4.8v-36a36.6,36.6,0,0,1,.8-8.9,5.7,5.7,0,0,1,3.2-3.7c1.5-.7,4-1.1,7.5-1.3V2.3c-6.3.4-15.2.5-26.8.5S6.1,2.7,0,2.3V5.5A23.1,23.1,0,0,1,7.5,6.8a5.7,5.7,0,0,1,3,3.7c.7,1.9,1,4.7,1,8.9V58.6H82.6L72,40.8,87.7,23C96,13.8,104.7,7.9,114,5.3v-3C109.6,2.7,104.3,2.8,97.8,2.8Z" fill="#050505"/><path d="M146.6,2.8c-12.7,0-22.2-.1-28.2-.5V5.5c3.5.2,6,.6,7.5,1.3a5.8,5.8,0,0,1,3.1,3.7,36,36,0,0,1,.8,8.9V58.6h32.5V19.4c0-4.2.4-7,1.1-8.9a5.4,5.4,0,0,1,3.5-3.7,29.4,29.4,0,0,1,8.4-1.3V2.3C168.7,2.7,159.3,2.8,146.6,2.8Zm65.5,0c-7.6,0-13.6-.1-17.9-.5V5.5c5.1.8,8.8,2,11,3.6s3.6,4.1,4.2,7.6,1,9.1,1,16.9v25h3.7V30.4a98.6,98.6,0,0,1,.8-14.2c.6-3.3,1.6-5.7,3.2-7.3s4-2.6,7.4-3.4V2.3A118.3,118.3,0,0,1,212.1,2.8Z" fill="#050505"/><path d="M328.1,17.5c-3.6-4.7-9.1-8.4-16.3-11.1s-16.1-3.9-26.7-3.9c-2,0-5.7,0-11,.2H259.4c-12.3,0-21.5-.1-27.5-.5V5.5a22.7,22.7,0,0,1,7.3,1.3,6,6,0,0,1,3.2,3.7c.6,1.9.8,4.7.8,8.9V58.6h32.5V19.4a46.7,46.7,0,0,1,.6-8.7,7,7,0,0,1,2.6-4,9.8,9.8,0,0,1,5.4-1.2c5.6,0,9.5,2.5,11.9,7.3s3.6,12.6,3.6,23-1.4,17.1-4.2,22.5c0,.2-.2.2-.2.3H322a28,28,0,0,0,6.7-7.6,32.7,32.7,0,0,0,4.8-17A27.4,27.4,0,0,0,328.1,17.5Z" fill="#050505"/><path d="M455.2,27A49.9,49.9,0,0,0,434.1,6.9C425,2.4,414.4,0,402.3,0S380.1,2.5,371,7.6a53.2,53.2,0,0,0-21.5,21.1c-5,8.7-7.5,18.7-7.6,29.9h33.5c0-10.8,1-20.3,3.3-28.6s5.2-15.2,9.1-19.9,8.7-7.2,13.9-7.2,9.6,2.3,13.7,7,7.5,11.1,10,19.5A107,107,0,0,1,429,58.6h33.7v-.5C462.7,46.1,460.1,35.6,455.2,27Z" fill="#050505"/><path d="M124.7,107.5a28.1,28.1,0,0,1-4.3-5.7L93.9,57.6H22.7V97.8c0,4-.2,6.9-.8,8.7a5.4,5.4,0,0,1-3.2,3.8q-2.2,1-7.5,1.2v3.2c6.2-.2,15.7-.5,28.6-.5s20.6.3,26.8.5v-3.2a20.9,20.9,0,0,1-7.4-1.2,5.5,5.5,0,0,1-3.1-3.8c-.7-1.8-.9-4.7-.9-8.7V58a7.5,7.5,0,0,1,3.7,1.7,24.3,24.3,0,0,1,3.9,5.4L86,104.3a10.6,10.6,0,0,1,1.6,4.2c0,1-.7,1.7-2,2.1a26.3,26.3,0,0,1-7.2.9v3.2c7.5-.2,15.1-.5,22.9-.5,10.2,0,19.8.3,28.9.5v-3.2A21.7,21.7,0,0,1,124.7,107.5Z" fill="#050505"/><path d="M221.6,57.6V69.9c0,13.3-2.1,23.6-6.4,30.7s-11.5,10.8-21.6,10.8c-4.6,0-8.3-.9-11.2-2.7s-5.1-4.5-6.6-8.5-2.2-9.6-2.2-16.6v-26H141V68.5a130.3,130.3,0,0,0,1.1,18.2,42.8,42.8,0,0,0,4,13.1,25.3,25.3,0,0,0,8.1,9.5c7.2,5.2,17.2,7.7,30,7.7,17.1,0,28.6-4.9,34.5-14.9,4.4-7.1,6.7-18.5,6.7-34V57.6Z" fill="#050505"/><path d="M292.9,68.9c12.7,0,23-1.8,30.6-5.4a51.9,51.9,0,0,0,9.7-5.9H306.7c-2.8,5.5-8.1,8.1-15.4,8.1h-4.4V57.6H254.5V97.8a35.3,35.3,0,0,1-.8,8.7,5.6,5.6,0,0,1-3.2,3.8,20.9,20.9,0,0,1-7.4,1.2v3.2c17.4-.2,26.8-.5,28.7-.5,7.6,0,18.6.3,33,.5V111a52.7,52.7,0,0,1-11.5-.9,7.5,7.5,0,0,1-5.1-4.2c-.8-2-1.3-5.3-1.3-9.7V68.9Z" fill="#050505"/><path d="M440.3,57.6h0A123.4,123.4,0,0,1,437.1,87c-2.2,8.5-5.2,15.2-9.2,20s-8.6,7.1-13.9,7.1-9.5-2.3-13.8-6.8-7.4-11.3-9.8-19.7-3.8-18.3-3.8-29.2v-.8H353.1a5.7,5.7,0,0,0-.1,1.3c0,12.1,2.5,22.5,7.6,31.3a48.9,48.9,0,0,0,21.1,19.9c9.1,4.6,19.6,6.9,31.7,6.9s22.2-2.5,31.4-7.5a53.6,53.6,0,0,0,21.4-21.1c5-8.9,7.6-19.3,7.7-30.8Z" fill="#050505"/></g></g></svg>