<svg xmlns="http://www.w3.org/2000/svg" width="473.9" height="117" viewBox="0 0 473.9 117"><g id="Layer_2"><g id="Down" fill="#050505"><path d="M97.8 2.8c-9.2 0-18.1-.1-27-.5v3a16.2 16.2 0 0 1 9.4 3.1 9.3 9.3 0 0 1 3.8 7.5q0 6.4-7.2 14.4l-5.4 6.1c-6 6.6-10.9 11.4-14.9 14.2a24 24 0 0 1-12.6 4.8v-36a36.6 36.6 0 0 1 .8-8.9 5.7 5.7 0 0 1 3.2-3.7c1.5-.7 4-1.1 7.5-1.3V2.3c-6.3.4-15.2.5-26.8.5S6.1 2.7 0 2.3v3.2a23.1 23.1 0 0 1 7.5 1.3 5.7 5.7 0 0 1 3 3.7c.7 1.9 1 4.7 1 8.9v39.2h71.1L72 40.8 87.7 23c8.3-9.2 17-15.1 26.3-17.7v-3c-4.4.4-9.7.5-16.2.5zm48.8 0c-12.7 0-22.2-.1-28.2-.5v3.2c3.5.2 6 .6 7.5 1.3a5.8 5.8 0 0 1 3.1 3.7 36 36 0 0 1 .8 8.9v39.2h32.5V19.4c0-4.2.4-7 1.1-8.9a5.4 5.4 0 0 1 3.5-3.7 29.4 29.4 0 0 1 8.4-1.3V2.3c-6.6.4-16 .5-28.7.5zm65.5 0c-7.6 0-13.6-.1-17.9-.5v3.2c5.1.8 8.8 2 11 3.6s3.6 4.1 4.2 7.6 1 9.1 1 16.9v25h3.7V30.4a98.6 98.6 0 0 1 .8-14.2c.6-3.3 1.6-5.7 3.2-7.3s4-2.6 7.4-3.4V2.3a118.3 118.3 0 0 1-13.4.5zm116 14.7c-3.6-4.7-9.1-8.4-16.3-11.1s-16.1-3.9-26.7-3.9c-2 0-5.7 0-11 .2h-14.7c-12.3 0-21.5-.1-27.5-.5v3.3a22.7 22.7 0 0 1 7.3 1.3 6 6 0 0 1 3.2 3.7c.6 1.9.8 4.7.8 8.9v39.2h32.5V19.4a46.7 46.7 0 0 1 .6-8.7 7 7 0 0 1 2.6-4 9.8 9.8 0 0 1 5.4-1.2c5.6 0 9.5 2.5 11.9 7.3s3.6 12.6 3.6 23-1.4 17.1-4.2 22.5c0 .2-.2.2-.2.3H322a28 28 0 0 0 6.7-7.6 32.7 32.7 0 0 0 4.8-17 27.4 27.4 0 0 0-5.4-16.5zM455.2 27a49.9 49.9 0 0 0-21.1-20.1C425 2.4 414.4 0 402.3 0S380.1 2.5 371 7.6a53.2 53.2 0 0 0-21.5 21.1c-5 8.7-7.5 18.7-7.6 29.9h33.5c0-10.8 1-20.3 3.3-28.6s5.2-15.2 9.1-19.9 8.7-7.2 13.9-7.2 9.6 2.3 13.7 7 7.5 11.1 10 19.5a107 107 0 0 1 3.6 29.2h33.7v-.5c0-12-2.6-22.5-7.5-31.1z"/><path d="M124.7 107.5a28.1 28.1 0 0 1-4.3-5.7L93.9 57.6H22.7v40.2c0 4-.2 6.9-.8 8.7a5.4 5.4 0 0 1-3.2 3.8q-2.2 1-7.5 1.2v3.2c6.2-.2 15.7-.5 28.6-.5s20.6.3 26.8.5v-3.2a20.9 20.9 0 0 1-7.4-1.2 5.5 5.5 0 0 1-3.1-3.8c-.7-1.8-.9-4.7-.9-8.7V58a7.5 7.5 0 0 1 3.7 1.7 24.3 24.3 0 0 1 3.9 5.4L86 104.3a10.6 10.6 0 0 1 1.6 4.2c0 1-.7 1.7-2 2.1a26.3 26.3 0 0 1-7.2.9v3.2c7.5-.2 15.1-.5 22.9-.5 10.2 0 19.8.3 28.9.5v-3.2a21.7 21.7 0 0 1-5.5-4zm96.9-49.9v12.3c0 13.3-2.1 23.6-6.4 30.7s-11.5 10.8-21.6 10.8c-4.6 0-8.3-.9-11.2-2.7s-5.1-4.5-6.6-8.5-2.2-9.6-2.2-16.6v-26H141v10.9a130.3 130.3 0 0 0 1.1 18.2 42.8 42.8 0 0 0 4 13.1 25.3 25.3 0 0 0 8.1 9.5c7.2 5.2 17.2 7.7 30 7.7 17.1 0 28.6-4.9 34.5-14.9 4.4-7.1 6.7-18.5 6.7-34V57.6zm71.3 11.3c12.7 0 23-1.8 30.6-5.4a51.9 51.9 0 0 0 9.7-5.9h-26.5c-2.8 5.5-8.1 8.1-15.4 8.1h-4.4v-8.1h-32.4v40.2a35.3 35.3 0 0 1-.8 8.7 5.6 5.6 0 0 1-3.2 3.8 20.9 20.9 0 0 1-7.4 1.2v3.2c17.4-.2 26.8-.5 28.7-.5 7.6 0 18.6.3 33 .5V111a52.7 52.7 0 0 1-11.5-.9 7.5 7.5 0 0 1-5.1-4.2c-.8-2-1.3-5.3-1.3-9.7V68.9zm147.4-11.3a123.4 123.4 0 0 1-3.2 29.4c-2.2 8.5-5.2 15.2-9.2 20s-8.6 7.1-13.9 7.1-9.5-2.3-13.8-6.8-7.4-11.3-9.8-19.7-3.8-18.3-3.8-29.2v-.8h-33.5a5.7 5.7 0 0 0-.1 1.3c0 12.1 2.5 22.5 7.6 31.3a48.9 48.9 0 0 0 21.1 19.9c9.1 4.6 19.6 6.9 31.7 6.9s22.2-2.5 31.4-7.5a53.6 53.6 0 0 0 21.4-21.1c5-8.9 7.6-19.3 7.7-30.8z"/></g></g></svg>