<svg xmlns="http://www.w3.org/2000/svg"><symbol id="kupo-logo-white" viewBox="0 0 714.2 175.7"><path fill="#fafafa" d="M190.9 161.5a50.3 50.3 0 0 1-6.4-8.7l-39.3-65.4H87.3a10.3 10.3 0 0 1 5 2.6 41 41 0 0 1 5.7 8l34.8 58.8q2.5 4.3 2.5 6.2c0 1.5-1 2.6-3.1 3.2s-5.7 1.1-10.7 1.3v4.8q16.6-.7 34.3-.7 23 0 43.2.7v-4.8a32.5 32.5 0 0 1-8.1-6zM88 160q-1.3-4.1-1.3-13.1V87.4H38.1v59.5q0 9-1.2 13.1a8.4 8.4 0 0 1-4.7 5.6q-3.5 1.5-11.2 1.9v4.8q13.7-.7 42.8-.7 26 0 40.1.7v-4.8q-7.6-.3-11.1-1.9A8.6 8.6 0 0 1 88 160zm248.1-72.6v17.8q0 29.9-9.6 46t-32.4 16.1q-10.3 0-16.9-3.9t-9.8-13q-3.3-9.1-3.3-24.7V87.4h-48.7v15.8a198.4 198.4 0 0 0 1.6 27.2 62.7 62.7 0 0 0 5.9 19.6 39.2 39.2 0 0 0 12.3 14.2q16.2 11.6 45.1 11.6 38.2 0 51.6-22.4 9.8-16 9.8-50.9V87.4zm106.8 16.2q28.6 0 45.9-8.1a69.8 69.8 0 0 0 13.7-8.2h-39.3q-6.5 11.5-22.7 11.5H434V87.4h-48.7v59.5q0 9-1.2 13.1a8.4 8.4 0 0 1-4.7 5.6q-3.5 1.5-11.2 1.9v4.8l43-.7q17.1 0 49.5.7v-5.5q-11.7 0-17.2-1.5a10.9 10.9 0 0 1-7.5-6.2q-2.1-4.6-2-14.7v-40.8zm220.9-16.2q0 24.4-4.9 43.4t-13.8 29.9q-8.9 10.7-20.7 10.7t-20.6-10.3q-9.4-10.3-14.9-29.4t-5.5-43.9v-.5H533v1.4q0 27.1 11.3 46.7a74.3 74.3 0 0 0 31.6 29.9q20.4 10.3 47.6 10.3t47-11.2a80.7 80.7 0 0 0 32.2-31.6q11.2-19.9 11.5-45.5z"/><path fill="#fafafa" d="M146.5 4.1q-20.5 0-40.5-.7V8q8.7.3 14.2 4.6a13.5 13.5 0 0 1 5.5 11.3q0 9.6-10.7 21.6l-8.1 9.1Q93.5 69.4 84.5 75.8A36.5 36.5 0 0 1 65.7 83V28.8q0-9 1.2-13.1a8.4 8.4 0 0 1 4.7-5.6Q75 8.6 82.8 8.2V3.4q-14.1.7-40.1.7-29 0-42.7-.7v4.8q7.6.4 11.1 1.9a8.5 8.5 0 0 1 4.8 5.6q1.3 4.1 1.3 13.1v59.6h107L107.8 61l23.6-26.7Q149.8 13.6 170.6 8V3.4q-9.7.7-24.1.7zm171.3 0q-17.1 0-27-.7v4.8q11.6 1.7 16.5 5.3t6.4 11.5q1.4 7.7 1.4 25.4v38h5.5V45.6q0-14.3 1.2-21.5t4.8-10.7c2.4-2.4 6.1-4.1 11.1-5.2V3.4q-7.2.7-19.9.7zm-140.4-.7v4.8q7.7.4 11.1 1.9a8.4 8.4 0 0 1 4.6 5.6q1.2 4.1 1.2 13.2v59.5h48.8V28.8q0-9 1.5-13.1a8.9 8.9 0 0 1 5.4-5.6q3.9-1.5 12.6-1.9V3.4q-14.8.7-43 .7t-42.2-.7zm314 22.7q-8-10.7-24.2-16.6t-40-5.9l-16.6.2-21.9.2q-27.7 0-41.4-.7v4.9q7.6.4 11.1 1.9a8.6 8.6 0 0 1 4.8 5.6q1.3 4.1 1.3 13.1v59.6H413V28.8a62.3 62.3 0 0 1 1-12.9c.7-2.9 1.9-4.9 3.8-6s4.6-1.7 8.3-1.7q12.4 0 17.8 11t5.3 34.3q0 21.3-6.3 33.8l-.5 1h39.3a43 43 0 0 0 10.8-12 49.2 49.2 0 0 0 7-25.3 40.2 40.2 0 0 0-8.1-24.9zm190.5 14.2a74.4 74.4 0 0 0-31.6-29.9Q629.9 0 602.7 0t-47 11.3a80.8 80.8 0 0 0-32.1 31.6Q512.3 62.7 512 88.4h50.4q0-24.4 4.9-43.4T581 15.1q8.9-10.7 20.8-10.7t20.6 10.3Q631.8 25 637.3 44t5.5 43.9v.5h50.4V87q0-27.1-11.3-46.7zM87.3 87.4z"/></symbol><symbol id="kupo-logo" viewBox="0 0 714.2 175.7"><path d="M190.9 161.5a50.3 50.3 0 0 1-6.4-8.7l-39.3-65.4H87.3a10.3 10.3 0 0 1 5 2.6 41 41 0 0 1 5.7 8l34.8 58.8q2.5 4.3 2.5 6.2c0 1.5-1 2.6-3.1 3.2s-5.7 1.1-10.7 1.3v4.8q16.6-.7 34.3-.7 23 0 43.2.7v-4.8a32.5 32.5 0 0 1-8.1-6zM88 160q-1.3-4.1-1.3-13.1V87.4H38.1v59.5q0 9-1.2 13.1a8.4 8.4 0 0 1-4.7 5.6q-3.5 1.5-11.2 1.9v4.8q13.7-.7 42.8-.7 26 0 40.1.7v-4.8q-7.6-.3-11.1-1.9A8.6 8.6 0 0 1 88 160zm248.1-72.6v17.8q0 29.9-9.6 46t-32.4 16.1q-10.3 0-16.9-3.9t-9.8-13q-3.3-9.1-3.3-24.7V87.4h-48.7v15.8a198.4 198.4 0 0 0 1.6 27.2 62.7 62.7 0 0 0 5.9 19.6 39.2 39.2 0 0 0 12.3 14.2q16.2 11.6 45.1 11.6 38.2 0 51.6-22.4 9.8-16 9.8-50.9V87.4zm106.8 16.2q28.6 0 45.9-8.1a69.8 69.8 0 0 0 13.7-8.2h-39.3q-6.5 11.5-22.7 11.5H434V87.4h-48.7v59.5q0 9-1.2 13.1a8.4 8.4 0 0 1-4.7 5.6q-3.5 1.5-11.2 1.9v4.8l43-.7q17.1 0 49.5.7v-5.5q-11.7 0-17.2-1.5a10.9 10.9 0 0 1-7.5-6.2q-2.1-4.6-2-14.7v-40.8zm220.9-16.2q0 24.4-4.9 43.4t-13.8 29.9q-8.9 10.7-20.7 10.7t-20.6-10.3q-9.4-10.3-14.9-29.4t-5.5-43.9v-.5H533v1.4q0 27.1 11.3 46.7a74.3 74.3 0 0 0 31.6 29.9q20.4 10.3 47.6 10.3t47-11.2a80.7 80.7 0 0 0 32.2-31.6q11.2-19.9 11.5-45.5z"/><path d="M146.5 4.1q-20.5 0-40.5-.7V8q8.7.3 14.2 4.6a13.5 13.5 0 0 1 5.5 11.3q0 9.6-10.7 21.6l-8.1 9.1Q93.5 69.4 84.5 75.8A36.5 36.5 0 0 1 65.7 83V28.8q0-9 1.2-13.1a8.4 8.4 0 0 1 4.7-5.6Q75 8.6 82.8 8.2V3.4q-14.1.7-40.1.7-29 0-42.7-.7v4.8q7.6.4 11.1 1.9a8.5 8.5 0 0 1 4.8 5.6q1.3 4.1 1.3 13.1v59.6h107L107.8 61l23.6-26.7Q149.8 13.6 170.6 8V3.4q-9.7.7-24.1.7zm171.3 0q-17.1 0-27-.7v4.8q11.6 1.7 16.5 5.3t6.4 11.5q1.4 7.7 1.4 25.4v38h5.5V45.6q0-14.3 1.2-21.5t4.8-10.7c2.4-2.4 6.1-4.1 11.1-5.2V3.4q-7.2.7-19.9.7zm-140.4-.7v4.8q7.7.4 11.1 1.9a8.4 8.4 0 0 1 4.6 5.6q1.2 4.1 1.2 13.2v59.5h48.8V28.8q0-9 1.5-13.1a8.9 8.9 0 0 1 5.4-5.6q3.9-1.5 12.6-1.9V3.4q-14.8.7-43 .7t-42.2-.7zm314 22.7q-8-10.7-24.2-16.6t-40-5.9l-16.6.2-21.9.2q-27.7 0-41.4-.7v4.9q7.6.4 11.1 1.9a8.6 8.6 0 0 1 4.8 5.6q1.3 4.1 1.3 13.1v59.6H413V28.8a62.3 62.3 0 0 1 1-12.9c.7-2.9 1.9-4.9 3.8-6s4.6-1.7 8.3-1.7q12.4 0 17.8 11t5.3 34.3q0 21.3-6.3 33.8l-.5 1h39.3a43 43 0 0 0 10.8-12 49.2 49.2 0 0 0 7-25.3 40.2 40.2 0 0 0-8.1-24.9zm190.5 14.2a74.4 74.4 0 0 0-31.6-29.9Q629.9 0 602.7 0t-47 11.3a80.8 80.8 0 0 0-32.1 31.6Q512.3 62.7 512 88.4h50.4q0-24.4 4.9-43.4T581 15.1q8.9-10.7 20.8-10.7t20.6 10.3Q631.8 25 637.3 44t5.5 43.9v.5h50.4V87q0-27.1-11.3-46.7zM87.3 87.4z"/></symbol></svg>