<svg xmlns="http://www.w3.org/2000/svg" width="992.9" height="992.9" viewBox="0 0 992.9 992.9"><title>pin-favicon</title><g id="Layer_2" data-name="Layer 2"><g id="Stuff"><path d="M857,0H135.9C61.2,0,0,61.2,0,135.9V857c0,74.8,61.2,135.9,135.9,135.9H857c74.7,0,135.9-61.1,135.9-135.9V135.9C992.9,61.2,931.7,0,857,0Zm52.3,856.3c-57.6-1.7-118.5-3.4-182.9-3.4-49.9,0-98.2,1.7-145.6,3.4V836c22-.9,36.4-2.5,45.7-5.9s12.7-6.8,12.7-13.6c0-5.1-3.4-13.5-10.2-26.2l-147.3-249c-10.2-16.9-17.8-27.9-24.6-33.8s-14.3-9.3-23.7-11V748.8c0,25.4,1.7,44,6,55s10.1,20.3,19.5,24.6,25.3,6.7,47.4,7.6v20.3c-39.8-1.7-96.6-3.4-170.2-3.4-82.2,0-142.3,1.7-181.2,3.4V836c22-.9,38.1-3.4,47.4-7.6s16.9-12.7,20.3-24.6,5.1-29.6,5.1-55V493.9H156.4V245c0-26.3-1.7-44-5.9-55.9s-10.2-19.5-19.5-23.7-25.4-6.8-47.4-8.5V136.6c39,2.5,99.1,3.4,181.2,3.4,73.7,0,130.4-.9,170.2-3.4v20.3c-22,1.7-38.1,4.3-47.4,8.5s-17,11.8-20.4,23.7-5,29.6-5,55.9V473.6c27.9-1.7,54.2-11.9,79.6-30.5s56.7-48.2,94.8-89.7l33.9-39q45.6-50.8,45.7-91.4c0-19.5-8.5-35.6-23.7-47.4s-35.6-18.7-60.1-19.5V136.6c56.7,2.5,113.4,3.4,171.8,3.4,40.7,0,74.6-.9,102.5-3.4v19.5c-59.3,16.1-114.3,53.3-166.8,111.7L540,381.3l67.7,112.6H679L847.5,774.2c9.3,15.2,17.8,27.1,27.1,36.4A141,141,0,0,0,909.3,836Z"/></g></g></svg>