<svg xmlns="http://www.w3.org/2000/svg"><symbol id="album-art" viewBox="0 0 538.4 210.1"><path d="M140.4 90.7a20.2 20.2 0 0 1-3.8-6.5l-13.8-35.4H93.3l2.9 7.9H71l3-7.9h-3.2l-11 28.3c-2.1 5.3-4.1 9.2-6.1 11.6s-4.1 3.8-6.3 4.2v2.7a97.5 97.5 0 0 1 10.4-.4c5 0 10.9.1 17.6.4v-2.7c-4-.1-7-.9-9.1-2.3s-3.1-3.8-3.1-7.5 1.5-10.1 4.4-17.6l2.3-6.1h27.2l8.1 22.1a20.6 20.6 0 0 1 1.6 6.4 3.7 3.7 0 0 1-2.2 3.7 19.4 19.4 0 0 1-7.3 1.3v2.7c4.9-.3 12.4-.4 22.7-.4s18.1.1 24.6.4v-2.7a6.7 6.7 0 0 1-4.2-2.2zm85.5-19.2c0-5 .1-9.2.4-12.4h-3.1a50.5 50.5 0 0 1-5.9 16.1 46.2 46.2 0 0 1-10 12.5c-3.7 3.2-7.2 4.8-10.3 4.8h-4.5a11.8 11.8 0 0 1-4.4-.6 3.6 3.6 0 0 1-2-2.3 24.8 24.8 0 0 1-.5-5.6V48.8h-27.3v32.5a31.5 31.5 0 0 1-.7 7.4 4.7 4.7 0 0 1-2.7 3.1 17.4 17.4 0 0 1-6.3 1.1v2.7c10.5-.3 26.3-.4 47.3-.4 14.5 0 24.8.1 30.9.4-.6-6.3-.9-14.3-.9-24.1zm91.2-13.1c-2.6-3.5-6.7-6.4-12.5-8.7a23.4 23.4 0 0 0-2.4-.9h-20.6a14.9 14.9 0 0 1 6 3.9c3.4 3.7 5.1 9 5.1 16.1q0 23.7-14.4 23.7a13.8 13.8 0 0 1-5.7-.9 4.7 4.7 0 0 1-2.5-3.1 32 32 0 0 1-.6-7.2V48.8h-27.4v32.5a26.9 26.9 0 0 1-.7 7.4 4.6 4.6 0 0 1-2.6 3.1 17.4 17.4 0 0 1-6.3 1.1v2.7c5.1-.3 13-.4 23.5-.4l14.5.2 10 .2c12.9 0 22.9-2.2 30-6.5s10.6-10.9 10.6-19.7a17.4 17.4 0 0 0-4-11zm81.9-9.6v9c0 11.2-1.8 19.8-5.4 25.9s-9.7 9.1-18.2 9.1a18.8 18.8 0 0 1-9.5-2.2 13.7 13.7 0 0 1-5.6-7.3c-1.2-3.4-1.8-8-1.8-13.9V48.8h-27.4v7.9a131 131 0 0 0 .8 15.3 35.5 35.5 0 0 0 3.3 11 22 22 0 0 0 6.9 8c6.1 4.3 14.6 6.5 25.4 6.5 14.3 0 24-4.2 29-12.6 3.7-6 5.6-15.6 5.6-28.6v-7.5zm133.2 43a4.7 4.7 0 0 1-2.7-3.1 31.5 31.5 0 0 1-.7-7.4V48.8h-27.4v32.5a26.1 26.1 0 0 1-.8 7.4 5.1 5.1 0 0 1-3 3.1 22.3 22.3 0 0 1-7.1 1.1v2.7c5.1-.3 13.1-.4 24-.4s18.4.1 23.9.4v-2.7a16.7 16.7 0 0 1-6.2-1.1zm-51.6-34.4l-3.8-8.6h-30.6l20.5 46.7h2.2l18.2-46.7h-3.2zm-51.2 26.1a93.4 93.4 0 0 1-.8-14.3V48.8h-3v23.1a88.1 88.1 0 0 1-.7 12.1 11.2 11.2 0 0 1-2.7 6 13.2 13.2 0 0 1-6.3 2.9v2.7c2.8-.3 6.5-.4 11.2-.4 6.5 0 11.6.1 15.2.4v-2.7q-6.6-.9-9.3-3a10.4 10.4 0 0 1-3.6-6.4z"/><path d="M92.4.7a68.1 68.1 0 0 1-7 .3 70.2 70.2 0 0 1-7.1-.3l-19 48.8h3.2l10-25.8 9.3 25.8h29.6zm68.8.4c-10.9 0-18.9-.1-24-.4v2.7a19.7 19.7 0 0 1 6.2 1.1 4.9 4.9 0 0 1 2.7 3.1 31.5 31.5 0 0 1 .7 7.4v34.5h27.3V15a22.3 22.3 0 0 1 .9-7.4 4.9 4.9 0 0 1 3-3.1 25 25 0 0 1 7.1-1.1V.7c-5.6.3-13.5.4-23.9.4zm137.2 10.2c-2.7-3.2-6.8-5.6-12.2-7.4s-12.3-2.7-20.3-2.7h-9.3l-12.3.2c-10.4 0-18.2-.2-23.3-.4v2.8a20.3 20.3 0 0 1 6.2 1 5.1 5.1 0 0 1 2.7 3.2 26.4 26.4 0 0 1 .7 7.4v34.4H258v-1.6h1.9a31.4 31.4 0 0 1 10.3 1.6h20.5a69.3 69.3 0 0 0-19.3-3.2v-.3a49.1 49.1 0 0 0 17.2-5c4.7-2.6 8.2-5.5 10.5-8.8a17.7 17.7 0 0 0 3.4-10.1 16.3 16.3 0 0 0-4.1-11.1zm-26.6 28.6c-1.9 4-5.3 6-10.1 6H258V15.4a43.5 43.5 0 0 1 .5-7.3 5.6 5.6 0 0 1 2.1-3.4 9.8 9.8 0 0 1 4.7-.9 7.3 7.3 0 0 1 7.2 4.9c1.5 3.3 2.2 8.4 2.2 15.2s-.9 12.1-2.9 16zm61.9-38.8C323 1.1 315.1 1 310 .7v2.7a19.9 19.9 0 0 1 6.3 1.1 4.8 4.8 0 0 1 2.6 3.1 30.9 30.9 0 0 1 .7 7.4v34.5H347V15a26.1 26.1 0 0 1 .8-7.4 5.3 5.3 0 0 1 3.1-3.1 24.1 24.1 0 0 1 7-1.1V.7c-5.5.3-13.6.4-24.2.4zm55.3 0c-6.4 0-11.5-.1-15.2-.4v2.7q6.6.9 9.3 3a9.8 9.8 0 0 1 3.6 6.5 92.5 92.5 0 0 1 .8 14.3v22.3h3.1v-25a72.8 72.8 0 0 1 .7-12.1 10.2 10.2 0 0 1 2.7-6.1 12.4 12.4 0 0 1 6.2-2.9V.7a110.9 110.9 0 0 1-11.2.4zm54.6-.4c-7.8.3-17.1.4-27.9.4-4.8 0-8.5-.1-11.3-.4v2.7a19.9 19.9 0 0 1 6.3 1.1 4.5 4.5 0 0 1 2.6 3.1 26.1 26.1 0 0 1 .8 7.4v34.5h3.1v-40l17.5 40h30.6zm59.4.4h-11.7l-18.8 48.4h3.1l14.3-36.6v36.6h27.5V15a26.4 26.4 0 0 1 .7-7.4 4.5 4.5 0 0 1 2.6-3.1c1.2-.6 3.3-.9 6.2-1.1V.7c-5.5.3-13.5.4-23.9.4zM93.1 203.3a19.6 19.6 0 0 1-3.9-6.4l-13.7-35.5H46l2.8 7.9H23.6l3.1-7.9h-3.3l-11 28.3c-2.1 5.4-4.1 9.2-6.1 11.7s-4.1 3.8-6.3 4.1v2.7c2.7-.2 6.2-.4 10.4-.4s10.9.2 17.7.4v-2.7c-4.1-.1-7.1-.9-9.1-2.2s-3.1-3.9-3.1-7.6 1.4-10 4.3-17.6l2.3-6.1h27.3l8 22.2a20.9 20.9 0 0 1 1.7 6.4 3.8 3.8 0 0 1-2.3 3.7c-1.4.7-3.9 1.1-7.2 1.2v2.7c4.8-.2 12.3-.4 22.6-.4s18.1.2 24.6.4v-2.7a6.7 6.7 0 0 1-4.1-2.2zm102.7-2.3a5.6 5.6 0 0 1-4.2 1.8 4.2 4.2 0 0 1-3.7-1.9 18.7 18.7 0 0 1-2.3-6.9l-2.9-14a17.6 17.6 0 0 0-8.6-12.5c-4.8-2.9-11.7-4.3-20.9-5.3l-4.1-.8h-38.9v32.5a26.4 26.4 0 0 1-.7 7.4 4.7 4.7 0 0 1-2.6 3.2 20.5 20.5 0 0 1-6.3 1v2.7c5.1-.2 13.2-.4 24.1-.4s17.2.2 22.5.4v-2.7a19.7 19.7 0 0 1-6.2-1 5.1 5.1 0 0 1-2.7-3.2 26.4 26.4 0 0 1-.7-7.4v-31h6.1c3.2 0 5.5 1.6 7.1 4.8s2.7 8 3.7 14.4l2 13.4c.8 5.3 2.9 9.1 6.4 11.3s8.2 3.3 14.4 3.3a36.1 36.1 0 0 0 11.4-1.6 23.3 23.3 0 0 0 8.9-5.7zm62 3.7a6 6 0 0 1-4.2-3.5c-.8-1.7-1.2-4.4-1.2-8.2v-31.6H225V193c0 3.8-.4 6.5-1.2 8.2a6.1 6.1 0 0 1-4.1 3.5 44.7 44.7 0 0 1-9.7.8v2.7l27.8-.4 29.6.4v-2.7a43 43 0 0 1-9.6-.8z"/><path d="M45.1 112.9a70.2 70.2 0 0 1-7.1.3 70.2 70.2 0 0 1-7.1-.3l-19 48.7h3.3l9.9-25.8 9.4 25.8H64zm119.6 5.9c-6.7-3.9-16.9-5.8-30.6-5.8l-9.4.2h-12.3c-10.4 0-18.1-.1-23.3-.4v2.7a19.2 19.2 0 0 1 6.2 1 5.1 5.1 0 0 1 2.7 3.2 26.9 26.9 0 0 1 .7 7.4v34.4h50.4c8.1-1.5 14.1-4.1 18.1-7.8a23 23 0 0 0 7.5-17.3c0-7.9-3.3-13.8-10-17.6zM145 149.7a14 14 0 0 1-5 7.8c-2.4 2-5.8 2.9-10.2 2.9h-3.7v-33.2a33.6 33.6 0 0 1 .6-7.3 4.8 4.8 0 0 1 2.1-3.4 9.1 9.1 0 0 1 4.6-.9c4.6 0 7.9 1.9 10 5.7s3 9.3 3 16.7a43.6 43.6 0 0 1-1.4 11.7zm126.3-36.8c-8.6.3-23.2.4-44 .4s-35.6-.1-44.2-.4c.6 10 .9 18.9.9 26.8a80.6 80.6 0 0 1-.4 9.6h3.1c3-11.9 6.8-20.4 11.5-25.6s9.7-7.7 15.2-7.7h.1v45.6h27.4V116h.2c5.4 0 10.4 2.6 15.1 7.8s8.5 13.7 11.4 25.5h3.1c-.2-2.3-.4-5.5-.4-9.6 0-7.9.3-16.8 1-26.8z"/></symbol><symbol id="illustration" viewBox="0 0 712.7 210.1"><path d="M128.9 91.3a4.7 4.7 0 0 1-2.7-3.1 26.9 26.9 0 0 1-.7-7.4V47H98.1v33.8a26.9 26.9 0 0 1-.7 7.4 4.3 4.3 0 0 1-2.6 3.1 17.4 17.4 0 0 1-6.3 1.1v2.7c5.1-.3 13.1-.4 24-.4s17.3.1 22.6.4v-2.7a16.7 16.7 0 0 1-6.2-1.1zM217.8 71c0-5 .2-9.1.4-12.4h-3.1a51.9 51.9 0 0 1-5.9 16.2 47.4 47.4 0 0 1-10 12.5c-3.7 3.1-7.1 4.7-10.2 4.7h-4.5a12.1 12.1 0 0 1-4.5-.6 3.4 3.4 0 0 1-1.9-2.3 20 20 0 0 1-.5-5.6V47h-27.4v33.8a26.9 26.9 0 0 1-.7 7.4 4.6 4.6 0 0 1-2.6 3.1 17.4 17.4 0 0 1-6.3 1.1v2.7c10.4-.3 26.2-.4 47.2-.4 14.5 0 24.8.1 31 .4a227.1 227.1 0 0 1-1-24.1zm83.2 0c0-5 .1-9.1.4-12.4h-3.1a51.9 51.9 0 0 1-5.9 16.2 49.5 49.5 0 0 1-10 12.5c-3.7 3.1-7.2 4.7-10.3 4.7h-4.5a11.8 11.8 0 0 1-4.4-.6 3.6 3.6 0 0 1-2-2.3 24.8 24.8 0 0 1-.5-5.6V47h-27.3v33.8a31.5 31.5 0 0 1-.7 7.4 4.7 4.7 0 0 1-2.7 3.1 17.4 17.4 0 0 1-6.3 1.1v2.7c10.5-.3 26.2-.4 47.3-.4 14.5 0 24.8.1 30.9.4-.6-6.3-.9-14.3-.9-24.1zm78.1-24v10.3c0 11.2-1.8 19.9-5.3 25.9s-9.7 9.1-18.3 9.1a19.3 19.3 0 0 1-9.5-2.2 13.6 13.6 0 0 1-5.5-7.3c-1.2-3.4-1.8-8-1.8-13.9V47h-27.5v9.2a110.4 110.4 0 0 0 .9 15.3 35.5 35.5 0 0 0 3.3 11 22 22 0 0 0 6.9 8c6.1 4.3 14.5 6.5 25.4 6.5 14.3 0 24-4.2 29-12.6 3.7-6 5.5-15.5 5.5-28.6V47z"/><path d="M102.5.9C91.6.9 83.6.8 78.5.5v2.7a19.7 19.7 0 0 1 6.2 1.1 4.9 4.9 0 0 1 2.7 3.1 26.9 26.9 0 0 1 .7 7.4v33.5h27.4V14.8a32.8 32.8 0 0 1 .6-7.4 4.9 4.9 0 0 1 2.7-3.1 19.9 19.9 0 0 1 6.3-1.1V.5c-5.3.3-12.8.4-22.6.4zm52.1 0c-10.9 0-18.9-.1-24-.4v2.7a19.7 19.7 0 0 1 6.2 1.1 4.9 4.9 0 0 1 2.7 3.1 31.5 31.5 0 0 1 .7 7.4v33.5h27.3V14.8a22.3 22.3 0 0 1 .9-7.4 4.9 4.9 0 0 1 3-3.1 25 25 0 0 1 7.1-1.1V.5c-5.5.3-13.5.4-23.9.4zm83.2 0c-10.9 0-18.9-.1-24.1-.4v2.7a19.9 19.9 0 0 1 6.3 1.1 5.1 5.1 0 0 1 2.6 3.1 26.9 26.9 0 0 1 .7 7.4v33.5h27.4V14.8a26.1 26.1 0 0 1 .8-7.4 5.3 5.3 0 0 1 3.1-3.1 24.1 24.1 0 0 1 7-1.1V.5c-5.5.3-13.4.4-23.8.4zm132.8 0c-6.4 0-11.4-.1-15.1-.4v2.7q6.5.9 9.3 3a10.1 10.1 0 0 1 3.5 6.5c.6 2.9.8 7.6.8 14.3v21.3h3.1v-24a72.8 72.8 0 0 1 .7-12.1 11.5 11.5 0 0 1 2.7-6.1 12.4 12.4 0 0 1 6.2-2.9V.5a109.6 109.6 0 0 1-11.2.4zm-55.2 0c-10.8 0-18.7-.1-23.7-.4v2.7a19.1 19.1 0 0 1 6.2 1.1 4.5 4.5 0 0 1 2.6 3.1 26.4 26.4 0 0 1 .7 7.4v33.5h27.4V14.8a22.3 22.3 0 0 1 .9-7.4 4.9 4.9 0 0 1 3-3.1 25 25 0 0 1 7.1-1.1V.5c-5.6.3-13.6.4-24.2.4zm-247 170.6a34.1 34.1 0 0 0-7.2-9.2l-2.2-1.8H14.3c2.8 2.2 6.2 4.6 10.3 7.3a117.1 117.1 0 0 1 10.8 8 31.4 31.4 0 0 1 6.5 7.8 19 19 0 0 1 2.4 9.6 11.9 11.9 0 0 1-4.4 9.7c-2.9 2.3-6.8 3.5-11.8 3.5-8.1 0-14-3.4-17.9-10.1s-6.1-15.3-6.6-26H.5c0 19.3-.2 32.3-.6 39.2H3a15.3 15.3 0 0 1 1.1-4.6 2.1 2.1 0 0 1 1.9-1.4c1 0 2.5.7 4.5 1.9a49.5 49.5 0 0 0 10.2 3.7 58.6 58.6 0 0 0 13.8 1.4 54 54 0 0 0 18.5-3 29.9 29.9 0 0 0 13.2-9 22.6 22.6 0 0 0 5-14.8 25.3 25.3 0 0 0-2.8-12.2zm73.8 33.5a5.9 5.9 0 0 1-4.1-3.4c-.8-1.8-1.2-4.5-1.2-8.3v-32.8h-27.4v32.8c0 3.8-.4 6.5-1.2 8.3a5.9 5.9 0 0 1-4.2 3.4c-2 .6-5.2.8-9.6.8v2.7l27.8-.4 29.6.4v-2.7c-4.4 0-7.6-.2-9.7-.8zm127.1-3.6a5.7 5.7 0 0 1-4.1 1.7 4.2 4.2 0 0 1-3.7-1.9 19.7 19.7 0 0 1-2.4-6.8l-2.8-14.1a18 18 0 0 0-8.7-12.5c-4.7-2.9-11.7-4.5-20.8-5.1a71.4 71.4 0 0 0 12.6-2.2h-55.6v33.7a30.9 30.9 0 0 1-.7 7.4 4.9 4.9 0 0 1-2.7 3.2c-1.2.6-3.3.9-6.2 1v2.7c5.1-.2 13.1-.4 24-.4s17.3.2 22.6.4v-2.7a17.8 17.8 0 0 1-6.3-1 4.5 4.5 0 0 1-2.6-3.2 25.6 25.6 0 0 1-.8-7.4v-31h6.2c3.1 0 5.5 1.6 7 4.8s2.8 8 3.7 14.4l2.1 13.4c.7 5.3 2.9 9.1 6.3 11.3s8.3 3.4 14.5 3.4a34.9 34.9 0 0 0 11.3-1.7 22.6 22.6 0 0 0 8.9-5.7zm96.2 2.2a18 18 0 0 1-3.8-6.4l-14.3-36.7h-29.5l3.4 9.1H296l3.5-9.1h-3.2L284.8 190c-2.1 5.4-4.1 9.3-6.1 11.7s-4.1 3.8-6.3 4.1v2.7c2.7-.2 6.2-.4 10.4-.4s11 .2 17.7.4v-2.7c-4-.1-7.1-.8-9.1-2.2s-3.1-3.9-3.1-7.6 1.4-10 4.4-17.6l2.3-6.1h27.2l8 22.2a20.9 20.9 0 0 1 1.7 6.4 3.8 3.8 0 0 1-2.2 3.7c-1.5.7-3.9 1.1-7.3 1.2v2.7c4.8-.2 12.4-.4 22.7-.4s18 .2 24.5.4v-2.7a6.7 6.7 0 0 1-4.1-2.2zm59.2 1.4a6.3 6.3 0 0 1-4.2-3.4 23.9 23.9 0 0 1-1.1-8.3v-32.8h-27.5v32.8c0 3.8-.3 6.5-1.1 8.3a6.3 6.3 0 0 1-4.2 3.4c-2 .6-5.2.8-9.6.8v2.7l27.7-.4 29.6.4v-2.7c-4.4 0-7.6-.2-9.6-.8zm72.3-.2a4.9 4.9 0 0 1-2.7-3.2 26.4 26.4 0 0 1-.7-7.4v-33.7h-27.4v33.7a26.4 26.4 0 0 1-.7 7.4 4.5 4.5 0 0 1-2.6 3.2 17.8 17.8 0 0 1-6.3 1v2.7c5.2-.2 13.2-.4 24.1-.4s17.2.2 22.5.4v-2.7a17.6 17.6 0 0 1-6.2-1zm84.6-44.3a102.1 102.1 0 0 1-2.7 24.7c-1.8 7.2-4.4 12.8-7.7 16.8s-7.3 6-11.7 6-8.1-1.9-11.6-5.8-6.3-9.4-8.4-16.5a91.6 91.6 0 0 1-3.1-24.7v-.5h-28.3v1c0 10.2 2.1 18.9 6.3 26.3a41.3 41.3 0 0 0 17.8 16.8c7.6 3.9 16.6 5.9 26.8 5.9a54.6 54.6 0 0 0 26.4-6.4 44.9 44.9 0 0 0 18.1-17.8 53.1 53.1 0 0 0 6.5-25.8zm109 0v10.8l-10.3-10.8h-40l43.9 48 5.1-.2 4.4.2v-48zm-61.8 42.3c-1.8-1.3-3-3.5-3.6-6.4a93.4 93.4 0 0 1-.8-14.3v-21.6h-3v24.3a85.9 85.9 0 0 1-.7 12.1 11.2 11.2 0 0 1-2.7 6c-1.4 1.4-3.5 2.3-6.3 2.9v2.7c2.8-.2 6.5-.4 11.2-.4 6.5 0 11.6.2 15.2.4v-2.7q-6.6-.9-9.3-3z"/><path d="M73.5 113.3a14.5 14.5 0 0 1-1.1 4.5 1.9 1.9 0 0 1-1.9 1.4 4.2 4.2 0 0 1-1.8-.4l-2.8-1.5a41.7 41.7 0 0 0-9.3-3.9 43.4 43.4 0 0 0-12.6-1.5 47.6 47.6 0 0 0-16.7 2.8 26.7 26.7 0 0 0-12.1 8.5 22 22 0 0 0-4.6 14.2 24 24 0 0 0 3.1 12.4 37.6 37.6 0 0 0 7.9 9.4l3.1 2.4h44.7c-2.7-2.2-6.1-4.8-10.1-7.6-7.5-5.2-12.6-8.8-15.2-10.9a27.7 27.7 0 0 1-6.3-6.6 15.1 15.1 0 0 1-2.3-8.4 11.7 11.7 0 0 1 3.8-9.2 14.9 14.9 0 0 1 10-3.3 18.1 18.1 0 0 1 11.9 4.4 31.4 31.4 0 0 1 8.1 11.5 43.9 43.9 0 0 1 3.5 14.7h3.1c0-15.5.2-26.4.7-32.9zm103.7.5c-8.5.3-23.1.4-43.9.4s-35.6-.1-44.2-.4c.6 10 .9 18.9.9 26.8a83.6 83.6 0 0 1-.4 9.7h3.1c3-11.9 6.8-20.5 11.5-25.6s9.7-7.8 15.2-7.8h.1v44.7h27.4v-44.7h.2c5.4 0 10.4 2.6 15.1 7.8s8.5 13.7 11.4 25.6h3.1c-.2-2.4-.4-5.6-.4-9.7 0-7.9.3-16.8.9-26.8zm82.5 5.9c-6.7-3.8-16.9-5.8-30.6-5.8l-9.3.2h-12.4c-10.3 0-18.1-.1-23.2-.4v2.7a19.7 19.7 0 0 1 6.2 1.1 4.7 4.7 0 0 1 2.7 3.1 31.5 31.5 0 0 1 .7 7.4v33.5h54.6q9-2.4 13.8-6.9a22.6 22.6 0 0 0 7.6-17.3c0-7.8-3.4-13.7-10.1-17.6zm-19.6 31a14.7 14.7 0 0 1-5 7.7c-2.5 2-5.9 2.9-10.3 2.9h-3.7v-33.2a32 32 0 0 1 .6-7.2 5 5 0 0 1 2.1-3.4 8.4 8.4 0 0 1 4.7-1q6.9 0 9.9 5.7c2 3.8 3 9.3 3 16.7a45.2 45.2 0 0 1-1.3 11.8zm98.9-36.9a84.2 84.2 0 0 1-14.2 0l-18.6 47.8h3.2l9.6-24.8 9 24.8h29.5zm120.7 0c-8.5.3-23.2.4-44 .4s-35.6-.1-44.1-.4c.6 10 .9 18.9.9 26.8a83.6 83.6 0 0 1-.4 9.7h3.1c3-11.9 6.8-20.5 11.4-25.6s9.7-7.8 15.2-7.8h.2v44.7h27.4v-44.7h.1c5.4 0 10.5 2.6 15.1 7.8s8.5 13.7 11.5 25.6h3.1a83.6 83.6 0 0 1-.4-9.7c0-7.9.3-16.8.9-26.8zm31 .4c-10.9 0-18.9-.1-24.1-.4v2.7a19.9 19.9 0 0 1 6.3 1.1 4.8 4.8 0 0 1 2.6 3.1 26.9 26.9 0 0 1 .7 7.4v33.5h27.4v-33.5a26.9 26.9 0 0 1 .7-7.4 4.6 4.6 0 0 1 2.6-3.1 19.9 19.9 0 0 1 6.3-1.1v-2.7c-5.2.3-12.8.4-22.5.4zm123 20.3a43 43 0 0 0-17.8-16.8c-7.7-3.9-16.6-5.8-26.8-5.8a54.9 54.9 0 0 0-26.5 6.3 46 46 0 0 0-18 17.8 52.6 52.6 0 0 0-6.5 25.6h28.3a99.2 99.2 0 0 1 2.8-24.4c1.8-7.2 4.4-12.8 7.7-16.8s7.2-6.1 11.7-6.1 8.1 2 11.6 5.8 6.3 9.4 8.3 16.6a87 87 0 0 1 3.1 24.6v.3H620v-.8c0-10.1-2.1-18.9-6.3-26.3zm31.7-20.7c-3.3.3-7.5.4-12.5.4s-8.4-.1-11.2-.4v2.7a19.9 19.9 0 0 1 6.3 1.1 4.3 4.3 0 0 1 2.6 3.1 26.1 26.1 0 0 1 .8 7.4v33.5h3.1v-17.5l16 17.5h40.1zm56.7.4c-6.4 0-11.5-.1-15.1-.4v2.7q6.4.9 9.3 3a9.8 9.8 0 0 1 3.5 6.4 94 94 0 0 1 .8 14.4v21.3h3.1v-24.1a85.3 85.3 0 0 1 .7-12 11.2 11.2 0 0 1 2.7-6.1 12.4 12.4 0 0 1 6.2-2.9v-2.7a109.6 109.6 0 0 1-11.2.4z"/></symbol><symbol id="internship" viewBox="0 0 678.8 219.4"><path d="M52.4 91.8a4.9 4.9 0 0 1-2.7-3.1 26.9 26.9 0 0 1-.7-7.4V47H21.6v34.3a26.9 26.9 0 0 1-.7 7.4 4.5 4.5 0 0 1-2.6 3.1 17.4 17.4 0 0 1-6.3 1.1v2.7c5.2-.3 13.2-.4 24.1-.4s17.2.1 22.5.4v-2.7a17.2 17.2 0 0 1-6.2-1.1zM145.2 47v11.3L134.5 47H94.4l44.5 48.6a45.2 45.2 0 0 1 5.1-.2 30.3 30.3 0 0 1 4.4.2V47zM79.9 83.4a91.9 91.9 0 0 1-.8-14.2V47H76v24.8a72.8 72.8 0 0 1-.7 12.1c-.4 2.8-1.3 4.8-2.7 6.1a12.4 12.4 0 0 1-6.2 2.9v2.7a110.9 110.9 0 0 1 11.2-.4c6.5 0 11.6.1 15.2.4v-2.7q-6.6-.9-9.3-3a9.8 9.8 0 0 1-3.6-6.5zM227.4 92a6.3 6.3 0 0 1-4.2-3.4 23.3 23.3 0 0 1-1.1-8.2V47h-27.4v33.4c0 3.7-.4 6.5-1.2 8.2a6.3 6.3 0 0 1-4.2 3.4 36.6 36.6 0 0 1-9.6.9v2.7c12.1-.3 21.4-.4 27.8-.4s16.9.1 29.6.4v-2.7a37.5 37.5 0 0 1-9.7-.9zm109.2-19.1c0-5.1.1-9.2.4-12.4h-3.1c-1.4 7.7-3.4 13.9-6.1 18.6s-5.7 8.2-9 10.3a18.8 18.8 0 0 1-9.8 3.1h-4.4a17.3 17.3 0 0 1-5.4-.6 4 4 0 0 1-2.3-2.3 18.8 18.8 0 0 1-.6-5.6V48.8h1.4a16.7 16.7 0 0 1 8.9 2.4 19.9 19.9 0 0 1 6.5 6.4 24.9 24.9 0 0 1 3.4 9.1h3.1q-.9-13.4-.9-19.2V47H269v34.3a31.5 31.5 0 0 1-.7 7.4 4.9 4.9 0 0 1-2.7 3.1 17.4 17.4 0 0 1-6.3 1.1v2.7c10.5-.3 26.2-.4 47.3-.4 14.5 0 24.8.1 30.9.4-.6-5.9-.9-13.5-.9-22.7zM384.1 47h-27.4v34.3a26.9 26.9 0 0 1-.7 7.4 4.8 4.8 0 0 1-2.6 3.1 17.4 17.4 0 0 1-6.3 1.1v2.7c5.1-.3 13.1-.4 24-.4s17.3.1 22.6.4v-2.7a17.4 17.4 0 0 1-6.3-1.1 4.8 4.8 0 0 1-2.6-3.1 26.9 26.9 0 0 1-.7-7.4V50.2h6.1c3.1 0 5.5 1.6 7 4.9s2.8 8 3.7 14.3l2.1 13.5c.8 5.3 2.9 9 6.3 11.3s8.3 3.3 14.5 3.3a34.9 34.9 0 0 0 11.3-1.7 20.7 20.7 0 0 0 8.9-5.6l-1.7-1.8a5.8 5.8 0 0 1-4.2 1.8 4.4 4.4 0 0 1-3.7-1.9q-1.3-2-2.4-6.9l-2.8-14a17.9 17.9 0 0 0-8.7-12.6c-4.7-2.8-11.6-4.5-20.8-5 0 0 .1-1.5 2.4-2.8h-18zm139.4 0v11.3L512.8 47h-40.1l44.5 48.6a45.2 45.2 0 0 1 5.1-.2 30.3 30.3 0 0 1 4.4.2V47zm-65.3 36.4a91.9 91.9 0 0 1-.8-14.2V47h-3.1v24.8a72.8 72.8 0 0 1-.7 12.1c-.4 2.8-1.3 4.8-2.7 6.1a12.4 12.4 0 0 1-6.2 2.9v2.7a110.9 110.9 0 0 1 11.2-.4c6.5 0 11.6.1 15.2.4v-2.7q-6.6-.9-9.3-3a9.8 9.8 0 0 1-3.6-6.5zM24.1.4C13.2.4 5.1.3 0 0v2.7a16.7 16.7 0 0 1 6.2 1.1 4.7 4.7 0 0 1 2.7 3.1 26.9 26.9 0 0 1 .7 7.4V47H37V14.3a26.9 26.9 0 0 1 .7-7.4 4.3 4.3 0 0 1 2.6-3.1 17.4 17.4 0 0 1 6.3-1.1V0c-5.3.3-12.8.4-22.5.4zM78 0c-3.3.3-7.4.4-12.4.4A109.6 109.6 0 0 1 54.4 0v2.7a17.2 17.2 0 0 1 6.2 1.1 4.7 4.7 0 0 1 2.7 3.1 26.9 26.9 0 0 1 .7 7.4V47h3.1V30.3L82.4 47h40.1zm56.7.4c-6.4 0-11.4-.1-15.1-.4v2.7q6.6.9 9.3 3a9.8 9.8 0 0 1 3.5 6.4c.6 2.9.8 7.7.8 14.3V47h3.2V23.7a73.6 73.6 0 0 1 .7-12.1 9.9 9.9 0 0 1 2.7-6 12 12 0 0 1 6.1-2.9V0a108.4 108.4 0 0 1-11.2.4zM240.4 0c-8.5.3-23.2.4-44 .4S160.8.3 152.3 0c.6 10 .9 18.9.9 26.8a80.6 80.6 0 0 1-.4 9.6h3.1c3-11.9 6.8-20.4 11.4-25.6s9.7-7.7 15.2-7.7h.2V47h27.4V3.1h.1c5.4 0 10.5 2.6 15.1 7.8s8.5 13.7 11.5 25.5h3.1a80.6 80.6 0 0 1-.4-9.6c0-7.9.3-16.8.9-26.8zm82.4 0c-5.6.3-15 .4-28.2.4-21.1 0-36.8-.1-47.3-.4v2.7a17.4 17.4 0 0 1 6.3 1.1 4.8 4.8 0 0 1 2.6 3.1 26.9 26.9 0 0 1 .7 7.4V47h49.8v-5.5q0-5.2.6-13.2h-3.1a26.1 26.1 0 0 1-3.4 8.4 23.7 23.7 0 0 1-6.3 6.7 14.9 14.9 0 0 1-8.7 2.7h-1.4V11.6A19.3 19.3 0 0 1 285 6a3.7 3.7 0 0 1 2.3-2.3 17 17 0 0 1 5.3-.6h1.8a21.5 21.5 0 0 1 15.9 6.8q6.6 6.9 9 22.5h3.1a82.5 82.5 0 0 1-.4-9.7c-.1-6.7.2-14.3.8-22.7z"/><path d="M410.6 5.9C403.9 2.1 393.7.1 380 .1l-9.3.2h-12.4c-10.3.1-18.1 0-23.2-.3v2.7a17.2 17.2 0 0 1 6.2 1.1 4.7 4.7 0 0 1 2.7 3.1 31.5 31.5 0 0 1 .7 7.4V47H372V14.3a32 32 0 0 1 .6-7.2 5 5 0 0 1 2.1-3.4 8.6 8.6 0 0 1 4.7-1q6.9 0 9.9 5.7c2 3.8 3 9.3 3 16.7a43.9 43.9 0 0 1-1.3 11.7 14.5 14.5 0 0 1-5 7.8 13.4 13.4 0 0 1-5.1 2.4h21.2c-1.1.3 6.8-2.1 11-6.1a22.8 22.8 0 0 0 7.6-17.3c0-7.9-3.4-13.8-10.1-17.7zM456.3 0c-3.3.3-7.4.4-12.4.4a109.6 109.6 0 0 1-11.2-.4v2.7a17.2 17.2 0 0 1 6.2 1.1 4.7 4.7 0 0 1 2.7 3.1 26.9 26.9 0 0 1 .7 7.4V47h3.1V30.3L460.7 47h40.1zm56.7.4c-6.4 0-11.4-.1-15.1-.4v2.7q6.6.9 9.3 3a9.8 9.8 0 0 1 3.5 6.4c.6 2.9.8 7.7.8 14.3V47h3.2V23.7a73.6 73.6 0 0 1 .7-12.1 10.5 10.5 0 0 1 2.6-6 12.8 12.8 0 0 1 6.2-2.9V0a108.4 108.4 0 0 1-11.2.4zm-88.1 180.1a34.1 34.1 0 0 0-7.2-9.2l-2.8-2.4h-44.8c2.9 2.3 6.6 5 11 7.9a101.3 101.3 0 0 1 10.8 8 29.7 29.7 0 0 1 6.5 7.8 19 19 0 0 1 2.4 9.6 11.9 11.9 0 0 1-4.4 9.7c-2.9 2.3-6.8 3.5-11.8 3.5-8.1 0-14-3.4-17.9-10.1s-6.1-15.3-6.7-26h-3.1c0 19.2-.1 32.3-.5 39.2h3.1a14.5 14.5 0 0 1 1.1-4.6 2.1 2.1 0 0 1 1.9-1.4c1 0 2.5.7 4.5 1.9a49.5 49.5 0 0 0 10.2 3.7 58.7 58.7 0 0 0 13.8 1.3 54.4 54.4 0 0 0 18.5-2.9 29.9 29.9 0 0 0 13.2-9 22.6 22.6 0 0 0 5-14.8 26.4 26.4 0 0 0-2.8-12.2zm109.5 33.3a4.7 4.7 0 0 1-2.6-3.2 25.6 25.6 0 0 1-.8-7.4v-34.3h-85.1v34.3a30.9 30.9 0 0 1-.7 7.4 5.1 5.1 0 0 1-2.7 3.2 19.9 19.9 0 0 1-6.3 1v2.7c5.2-.2 13.2-.4 24.1-.4s17.3.2 22.6.4v-2.7a20.5 20.5 0 0 1-6.3-1 4.7 4.7 0 0 1-2.6-3.2 25.6 25.6 0 0 1-.8-7.4v-32.4h30.4v32.4a25.9 25.9 0 0 1-.7 7.4 4.5 4.5 0 0 1-2.6 3.2 19.7 19.7 0 0 1-6.2 1v2.7c5.5-.2 13.5-.4 23.8-.4s17.9.2 22.7.4v-2.7a19.7 19.7 0 0 1-6.2-1zm54.2 0a5.1 5.1 0 0 1-2.7-3.2 26.4 26.4 0 0 1-.7-7.4v-34.3h-27.4v34.3a26.4 26.4 0 0 1-.7 7.4 5 5 0 0 1-2.6 3.2 20.5 20.5 0 0 1-6.3 1v2.7c5.1-.2 13.1-.4 24-.4s17.3.2 22.6.4v-2.7a19.2 19.2 0 0 1-6.2-1zm55.7-34.9q16.1 0 25.8-4.5a37 37 0 0 0 8.7-5.5h-22.7a.4.4 0 0 1-.1.3c-2.4 4.7-6.7 7-13 7h-3.7v-7.3h-27.4v34.3a26.4 26.4 0 0 1-.7 7.4 4.7 4.7 0 0 1-2.6 3.2 20.5 20.5 0 0 1-6.3 1v2.7l24.2-.4 27.8.4v-3.1a44.7 44.7 0 0 1-9.7-.8 6.5 6.5 0 0 1-4.2-3.5 23.5 23.5 0 0 1-1.1-8.3v-22.9zM408 121.4a18.2 18.2 0 0 1-1.1 4.5 2.1 2.1 0 0 1-1.9 1.5 4.1 4.1 0 0 1-1.8-.5l-2.8-1.5a53.9 53.9 0 0 0-9.3-3.9 43.4 43.4 0 0 0-12.6-1.5 49.6 49.6 0 0 0-16.7 2.8 26.7 26.7 0 0 0-12.1 8.5 22 22 0 0 0-4.6 14.2 24 24 0 0 0 3.1 12.4 35.6 35.6 0 0 0 7.9 9.4l2 1.6h44.8c-2.5-2-5.6-4.3-9.1-6.7-7.5-5.3-12.6-8.9-15.3-11a27.3 27.3 0 0 1-6.2-6.6 14.2 14.2 0 0 1-2.3-8.3c0-4 1.3-7.1 3.8-9.3a14.9 14.9 0 0 1 10-3.3 17.8 17.8 0 0 1 11.8 4.4 30.5 30.5 0 0 1 8.2 11.5 46.4 46.4 0 0 1 3.5 14.8h3.1c0-15.5.2-26.5.7-33zm97.9.9c-10.4 0-18.3-.1-23.8-.4v2.7a19.7 19.7 0 0 1 6.2 1.1 4.5 4.5 0 0 1 2.6 3.2 26.4 26.4 0 0 1 .7 7.4v31.8h-30.4v-31.8a30.9 30.9 0 0 1 .7-7.4 5 5 0 0 1 2.6-3.2 19.9 19.9 0 0 1 6.3-1.1v-2.7c-5.2.3-12.7.4-22.5.4s-18.9-.1-24.1-.4v2.7a19.9 19.9 0 0 1 6.3 1.1 4.5 4.5 0 0 1 2.6 3.2 25.6 25.6 0 0 1 .8 7.4v32.6H519v-32.6a30.9 30.9 0 0 1 .7-7.4 5 5 0 0 1 2.6-3.2 19.9 19.9 0 0 1 6.3-1.1v-2.7c-4.8.3-12.4.4-22.7.4zm54.3 0c-10.9 0-18.9-.1-24-.4v2.7a19.7 19.7 0 0 1 6.2 1.1 4.9 4.9 0 0 1 2.7 3.2 30.9 30.9 0 0 1 .7 7.4v32.6h27.3v-32.6a30.9 30.9 0 0 1 .7-7.4 4.9 4.9 0 0 1 2.7-3.2 19.9 19.9 0 0 1 6.3-1.1v-2.7c-5.3.3-12.8.4-22.6.4zm111.2 12.4c-3-4-7.6-7.1-13.6-9.3s-13.6-3.3-22.6-3.3h-21.6c-10.4 0-18.2-.1-23.3-.4v2.7a19.7 19.7 0 0 1 6.2 1.1 4.9 4.9 0 0 1 2.7 3.2 26.4 26.4 0 0 1 .7 7.4v32.6h27.4v-32.4a41.8 41.8 0 0 1 .5-7.3 5.3 5.3 0 0 1 2.1-3.4 9.7 9.7 0 0 1 4.7-1 10.4 10.4 0 0 1 10 6.2c2 4.2 3 10.6 3 19.4s-1.2 14.1-3.5 18.7h22.7a25.4 25.4 0 0 0 5.1-5.9 27.6 27.6 0 0 0 4-14.3 22.8 22.8 0 0 0-4.5-14z"/></symbol><symbol id="liquid" viewBox="0 0 497.8 224.8"><path d="M8 79.3a32.8 32.8 0 0 1-.6 7.4 4.7 4.7 0 0 1-2.7 3.1 19.9 19.9 0 0 1-6.3 1.1v2.7c10.5-.3 26.2-.4 47.3-.4 14.5 0 24.8.1 30.9.4-.6-6.3-.9-14.3-.9-24.1 0-5 .1-9.2.4-12.4H73a48.4 48.4 0 0 1-6 16.1 44.1 44.1 0 0 1-9.9 12.5c-3.8 3.2-7.2 4.8-10.3 4.8h-4.5a12.8 12.8 0 0 1-4.5-.6 3.7 3.7 0 0 1-1.9-2.4 23.2 23.2 0 0 1-.5-5.5V46.7H8zm84.6 0a31.5 31.5 0 0 1-.7 7.4 4.7 4.7 0 0 1-2.7 3.1 19.9 19.9 0 0 1-6.3 1.1v2.7c5.2-.3 13.2-.4 24.1-.4s17.3.1 22.5.4v-2.7a19.7 19.7 0 0 1-6.2-1.1 4.7 4.7 0 0 1-2.7-3.1 26.9 26.9 0 0 1-.7-7.4V46.7H92.6zm107.8 96.8q-2.8 10.7-7.8 16.8t-11.7 6c-4.2 0-8-1.9-11.6-5.8s-6.3-9.4-8.3-16.5a87.3 87.3 0 0 1-3.1-24h-28.4c.1 9.3 1.8 17.4 5.4 24.3a41.8 41.8 0 0 0 15.3 16.7 54.7 54.7 0 0 0 23.2 7.4l-5.6 2.2c-2.4 1.1-4.3 1.8-5.8 2.4a31.4 31.4 0 0 1-4.9 1.5 26 26 0 0 0-10.3-2.4 11.8 11.8 0 0 0-5.6 1.1 3.4 3.4 0 0 0-1.9 3 3.3 3.3 0 0 0 1.8 3.1 9 9 0 0 0 4.6 1 24.4 24.4 0 0 0 11.4-3.3 14.7 14.7 0 0 1 3.2.9l11.9 5.2c6 2.6 11.6 4.8 16.8 6.5a52.2 52.2 0 0 0 16.1 2.6 36.1 36.1 0 0 0 9.4-1.2 21.7 21.7 0 0 0 7.5-3.5 21.1 21.1 0 0 0 6.6-9.6 52.8 52.8 0 0 0 3.2-15.2l-2.5-.8a24.5 24.5 0 0 1-7.7 7.7 36.4 36.4 0 0 1-11.9 4.2 115.8 115.8 0 0 1-23.2 1.9l-24.7-.5a73.9 73.9 0 0 0 7.8-2.7c2.9-1.2 5.3-2.1 6.9-2.6a40.6 40.6 0 0 1 5.7-1.2 52.8 52.8 0 0 0 25.6-6.8 45.1 45.1 0 0 0 17.4-17.8 52.8 52.8 0 0 0 6.2-24.1h-28.3a103.3 103.3 0 0 1-2.7 23.5zm114.5-14.5c0 11.3-1.8 19.9-5.4 25.9s-9.6 9.1-18.2 9.1a18.1 18.1 0 0 1-9.5-2.2c-2.5-1.4-4.3-3.9-5.5-7.3s-1.9-8-1.9-13.8v-20.7H247v7.9a110.4 110.4 0 0 0 .9 15.3 34.7 34.7 0 0 0 3.3 11 21.3 21.3 0 0 0 6.9 8c6 4.4 14.5 6.5 25.3 6.5 14.4 0 24-4.2 29-12.6 3.7-6 5.6-15.5 5.6-28.6v-7.5h-3.1zm27.7 23.5a30.9 30.9 0 0 1-.7 7.4 5.1 5.1 0 0 1-2.7 3.2 20.5 20.5 0 0 1-6.3 1v2.7c5.2-.2 13.2-.4 24.1-.4s17.3.2 22.6.4v-2.7a20.5 20.5 0 0 1-6.3-1 4.7 4.7 0 0 1-2.6-3.2 25.6 25.6 0 0 1-.8-7.4v-32.5h-27.3zm110.9.3c-3.9 7.7-10.4 11.6-19.3 11.6-2.9 0-5-.3-6.4-1a5.2 5.2 0 0 1-3-3.3 26.3 26.3 0 0 1-.8-7.3v-32.8h-27.3v32.5a26.4 26.4 0 0 1-.7 7.4 5 5 0 0 1-2.6 3.2 20.5 20.5 0 0 1-6.3 1v2.7c5.1-.2 13-.4 23.5-.4l10.8.2 9.4.2c11.9 0 22-2 30.6-6a44.4 44.4 0 0 0 19.6-17.1 47.5 47.5 0 0 0 6.7-23.7h-28.3c-.1 14.4-2.1 25.4-5.9 32.8z"/><path d="M45.4 14.3a26.1 26.1 0 0 1 .8-7.4 5 5 0 0 1 3.1-3.1 21.3 21.3 0 0 1 7.1-1.1V0c-5.6.3-13.5.4-23.9.4S13.6.3 8.4 0v2.7a17.4 17.4 0 0 1 6.3 1.1 4.6 4.6 0 0 1 2.6 3.1 26.1 26.1 0 0 1 .8 7.4v34h27.3zm84.5 0a26.9 26.9 0 0 1 .7-7.4 4.6 4.6 0 0 1 2.6-3.1 17.4 17.4 0 0 1 6.3-1.1V0c-5.2.3-12.7.4-22.5.4S98.1.3 92.9 0v2.7a17.4 17.4 0 0 1 6.3 1.1 4.6 4.6 0 0 1 2.6 3.1 26.1 26.1 0 0 1 .8 7.4v34h27.3zm38 139.6a102.1 102.1 0 0 1 2.7-24.7q2.7-10.8 7.8-16.8c3.3-4 7.2-6 11.6-6s8.1 1.9 11.6 5.8 6.3 9.3 8.4 16.5a87.8 87.8 0 0 1 3.1 24.7v.8h28.3v-1.4c0-10.1-2.1-18.9-6.3-26.2a41.5 41.5 0 0 0-17.8-16.9c-7.6-3.8-16.6-5.8-26.7-5.8s-18.8 2.1-26.5 6.4a45.6 45.6 0 0 0-18.1 17.8c-4.3 7.5-6.4 16.3-6.5 26.1h28.4zM328 129.6a72.8 72.8 0 0 1 .7-12.1 10.5 10.5 0 0 1 2.7-6.1c1.3-1.3 3.4-2.2 6.2-2.9v-2.7a109.6 109.6 0 0 1-11.2.4c-6.4 0-11.5-.1-15.2-.4v2.7q6.6 1.1 9.3 3a9.8 9.8 0 0 1 3.6 6.5 92.5 92.5 0 0 1 .8 14.3v21.9h3.1zm-43.6-9.5a25.3 25.3 0 0 1 .8-7.3 5.2 5.2 0 0 1 3.1-3.2c1.4-.6 3.8-.9 7.1-1.1v-2.7c-5.6.3-13.6.4-24.2.4s-18.7-.1-23.8-.4v2.7a19.9 19.9 0 0 1 6.3 1.1 4.8 4.8 0 0 1 2.6 3.1 26.4 26.4 0 0 1 .7 7.4v34.1h27.4zm95.5 0a30.6 30.6 0 0 1 .7-7.3 4.9 4.9 0 0 1 2.7-3.2 19.9 19.9 0 0 1 6.3-1.1v-2.7c-5.3.3-12.8.4-22.6.4s-18.9-.1-24-.4v2.7a19.7 19.7 0 0 1 6.2 1.1 4.9 4.9 0 0 1 2.7 3.2 30.6 30.6 0 0 1 .7 7.3v34.1h27.3zm54.2-.2a27.5 27.5 0 0 1 .7-7.3 5.8 5.8 0 0 1 2.9-3.4 17.8 17.8 0 0 1 6.4-.9c8.7 0 15.1 3.6 19.2 11s6.2 18.6 6.2 33.8c0 .4-.1.7-.1 1.1h28.3a9.2 9.2 0 0 0 .1-1.6c0-15.3-4.6-26.9-13.9-34.8s-23.2-12-41.9-12l-21.7.4h-4.8c-5.7 0-11.9-.2-18.4-.5v2.7a19.7 19.7 0 0 1 6.2 1.1 4.9 4.9 0 0 1 2.7 3.2 26.1 26.1 0 0 1 .7 7.3v34.1h27.4z"/></symbol><symbol id="misc" viewBox="0 0 894.4 204.9"><path d="M508.2 156.2h-9.1l9.1 9.6v-9.6zM79.8 47h-7.2l3.9 8.6 3.3-8.6zM21.4 70.1a72.8 72.8 0 0 1-.7 12.1 10.5 10.5 0 0 1-2.7 6.1c-1.3 1.3-3.4 2.2-6.2 2.9v2.7a110.9 110.9 0 0 1 11.2-.4c6.5 0 11.6.1 15.2.4v-2.7q-6.6-1-9.3-3a9.8 9.8 0 0 1-3.6-6.5 92.5 92.5 0 0 1-.8-14.3V47h-3.1zm75.9 9.5a25.3 25.3 0 0 1-.8 7.3 5.2 5.2 0 0 1-3.1 3.2 24.1 24.1 0 0 1-7 1.1v2.7c5.1-.3 13.1-.4 23.9-.4s18.4.1 24 .4v-2.7a19.9 19.9 0 0 1-6.3-1.1 4.8 4.8 0 0 1-2.6-3.2 26.1 26.1 0 0 1-.7-7.3V47H97.3z"/><path d="M76.5 55.6L72.6 47H42.1l20.5 46.7h2.1L83 47h-3.2l-3.3 8.6zm74.9 24a26.1 26.1 0 0 1-.7 7.3 4.5 4.5 0 0 1-2.6 3.2 19.9 19.9 0 0 1-6.3 1.1v2.7c5.1-.3 13.2-.4 24.1-.4s17.2.1 22.5.4v-2.7a19.1 19.1 0 0 1-6.2-1.1 4.9 4.9 0 0 1-2.7-3.2 26.1 26.1 0 0 1-.7-7.3V47h-27.4zm72.1-26.5c4.4 3 8 5.7 10.8 8a31.4 31.4 0 0 1 6.5 7.8 19 19 0 0 1 2.4 9.6 11.8 11.8 0 0 1-4.4 9.7c-2.9 2.3-6.8 3.5-11.8 3.5-8.1 0-14-3.4-17.9-10s-6.1-15.4-6.7-26.1h-3.1c0 19.3-.2 32.3-.6 39.2h3.1a15.7 15.7 0 0 1 1.2-4.6 1.9 1.9 0 0 1 1.9-1.3c1 0 2.5.6 4.5 1.9a55.9 55.9 0 0 0 10.2 3.6 58 58 0 0 0 13.8 1.4 54.4 54.4 0 0 0 18.5-3 29.9 29.9 0 0 0 13.2-9 22.5 22.5 0 0 0 5-14.8 26.4 26.4 0 0 0-2.8-12.2 32.6 32.6 0 0 0-7.3-9.2l-.6-.6h-44.6c2.5 1.9 5.4 3.9 8.7 6.1zm62.6 20A41.5 41.5 0 0 0 303.9 90c7.6 3.8 16.6 5.8 26.7 5.8a37.3 37.3 0 0 0 9.9-1.2 33.3 33.3 0 0 0 7.7-2.9 87.5 87.5 0 0 0 7.4-4.7 6.3 6.3 0 0 1 2.8-1.1c1 0 1.7.6 2.2 1.9a20.8 20.8 0 0 1 1.1 6.1h3.1c-.4-6.7-.5-18.4-.5-35.1h-3.1a105.3 105.3 0 0 1-1.9 13.3 30.1 30.1 0 0 1-3.7 9.3 22.1 22.1 0 0 1-6.9 6.7 23.3 23.3 0 0 1-12.5 4c-6.5 0-11.6-2.3-15.3-6.8a39.8 39.8 0 0 1-7.9-17.1 109.4 109.4 0 0 1-2.2-21.2h-31q0 15.2 6.3 26.1zm98.9 6.5a26.1 26.1 0 0 1-.7 7.3 4.5 4.5 0 0 1-2.6 3.2 19.9 19.9 0 0 1-6.3 1.1v2.7c10.5-.3 26.2-.4 47.3-.4 14.5 0 24.8.1 30.9.4-.6-6-.9-13.5-.9-22.7 0-5.1.1-9.2.4-12.4H450c-1.4 7.6-3.4 13.8-6.1 18.6s-5.7 8.2-9 10.3a18.8 18.8 0 0 1-9.8 3.1h-4.5a17 17 0 0 1-5.3-.6 3.7 3.7 0 0 1-2.3-2.3 18.8 18.8 0 0 1-.6-5.6V47.1h1.4a17 17 0 0 1 8.9 2.4 18.9 18.9 0 0 1 6.5 6.4 24.9 24.9 0 0 1 3.4 9.1h3.1c-.6-8.1-.8-14-.9-18H385zM179 188.7a26.4 26.4 0 0 1-.7 7.4 4.7 4.7 0 0 1-2.6 3.2 20.5 20.5 0 0 1-6.3 1v2.7c10.5-.2 26.2-.4 47.3-.4 14.5 0 24.8.2 30.9.4-.6-6.3-1-14.3-1-24 0-5.1.2-9.2.4-12.4h-3.1a49 49 0 0 1-5.9 16.1 45.8 45.8 0 0 1-10 12.5c-3.7 3.1-7.1 4.7-10.2 4.7h-4.5a12.1 12.1 0 0 1-4.5-.6 3.5 3.5 0 0 1-1.9-2.3 19.6 19.6 0 0 1-.5-5.6v-35.2H179zm152.2-9.7c0-5.1.1-9.2.4-12.4h-3.1a51.6 51.6 0 0 1-6 16.1 45.8 45.8 0 0 1-10 12.5c-3.7 3.1-7.1 4.7-10.2 4.7h-4.5a12.1 12.1 0 0 1-4.5-.6 3.5 3.5 0 0 1-1.9-2.3 24.1 24.1 0 0 1-.5-5.6v-35.2h-27.4v32.5a26.4 26.4 0 0 1-.7 7.4 4.7 4.7 0 0 1-2.6 3.2 20.5 20.5 0 0 1-6.3 1v2.7c10.5-.2 26.2-.4 47.3-.4 14.3 0 24.6.2 30.7.4v-2.2c-.5-5.9-.7-13.2-.7-21.8zm49.5-14.9h-25.2l3-7.9h-3.2l-11 28.3c-2.1 5.4-4.1 9.3-6.1 11.7s-4.1 3.8-6.3 4.1v.5a15 15 0 0 0 .2 2.2c2.6-.2 6-.4 10.2-.4s10.9.2 17.7.4v-2.7c-4.1-.1-7.1-.9-9.2-2.2s-3-3.9-3-7.6 1.4-10 4.3-17.6l2.3-6.1h27.2l8.1 22.2a20 20 0 0 1 1.6 6.4 3.8 3.8 0 0 1-2.2 3.7c-1.4.7-3.9 1.1-7.3 1.2v2.7c4.9-.2 12.4-.4 22.7-.4s18.1.2 24.6.4v-2.7a6.5 6.5 0 0 1-4.1-2.2 19.6 19.6 0 0 1-3.9-6.4l-13.7-35.5h-29.6z"/><path d="M331.9 203h.2a15 15 0 0 1-.2-2.2zm176.3-37.2l-9.1-9.6H459l42.9 46.8 5.1-.2 4.4.2v-46.8h-3.2zM439 179.3a72.8 72.8 0 0 1-.7 12.1 11.2 11.2 0 0 1-2.7 6 12.4 12.4 0 0 1-6.2 2.9v2.7c2.7-.2 6.4-.4 11.2-.4 6.5 0 11.5.2 15.1.4v-2.7q-6.4-.9-9.3-3a9.8 9.8 0 0 1-3.5-6.4 93.4 93.4 0 0 1-.8-14.3v-20.4H439zm98.5 9.4a32.2 32.2 0 0 1-.6 7.4 5.1 5.1 0 0 1-2.7 3.2 20.5 20.5 0 0 1-6.3 1v2.7c10.5-.2 26.2-.4 47.3-.4 14.5 0 24.8.2 30.9.4-.6-5.9-.9-13.5-.9-22.7 0-5 .1-9.1.4-12.3h-3.1c-1.4 7.6-3.4 13.8-6.1 18.6s-5.7 8.2-9 10.2a17.9 17.9 0 0 1-9.8 3.1h-4.5a17 17 0 0 1-5.3-.6 3.5 3.5 0 0 1-2.3-2.3 18.4 18.4 0 0 1-.6-5.6v-35.1h1.4a17.9 17.9 0 0 1 8.9 2.3 19.9 19.9 0 0 1 6.5 6.4 25.4 25.4 0 0 1 3.4 9.2h3.1q-.7-12.1-.9-18h-49.8zm150.1-9c-1.8 7.1-4.4 12.7-7.7 16.8s-7.3 6-11.7 6-8.1-1.9-11.6-5.8-6.3-9.4-8.4-16.5a91.3 91.3 0 0 1-3.1-24h-28.3q0 15.2 6.3 26.1a41.3 41.3 0 0 0 17.8 16.8c7.7 3.9 16.6 5.8 26.8 5.8a54.2 54.2 0 0 0 26.4-6.3 44.9 44.9 0 0 0 18.1-17.8 51.1 51.1 0 0 0 6.4-24.6h-28.3a93.1 93.1 0 0 1-2.7 23.5zm114.5-14.4c0 11.2-1.8 19.8-5.3 25.8s-9.7 9.1-18.3 9.1a18.3 18.3 0 0 1-9.5-2.2 13.2 13.2 0 0 1-5.5-7.3q-1.8-5.1-1.8-13.8v-20.7h-27.5v7.9a108.4 108.4 0 0 0 .9 15.3 34.7 34.7 0 0 0 3.3 11 21.3 21.3 0 0 0 6.9 8c6.1 4.4 14.5 6.5 25.4 6.5 14.3 0 24-4.2 29-12.6 3.7-6 5.5-15.5 5.5-28.6v-7.5h-3.1zm45.7-3a127.1 127.1 0 0 1 10.8 8 28.2 28.2 0 0 1 6.5 7.8 19 19 0 0 1 2.4 9.6 11.9 11.9 0 0 1-4.4 9.7c-2.9 2.3-6.8 3.4-11.9 3.4-8 0-13.9-3.3-17.8-10s-6.1-15.3-6.7-26h-3.1c0 19.2-.2 32.3-.6 39.1h3.1a14 14 0 0 1 1.2-4.5 2 2 0 0 1 1.9-1.4c1 0 2.5.7 4.5 1.9a49.5 49.5 0 0 0 10.2 3.7 58.3 58.3 0 0 0 13.7 1.3 57.2 57.2 0 0 0 18.6-2.9 29.9 29.9 0 0 0 13.2-9 22.6 22.6 0 0 0 5-14.8 26.4 26.4 0 0 0-2.8-12.2 32.6 32.6 0 0 0-7.3-9.2l-.6-.6h-44.6c2.5 1.8 5.4 3.9 8.7 6.1zM39.1 0c-7.7.3-17 .4-27.9.4A110.9 110.9 0 0 1 0 0v2.7a17.2 17.2 0 0 1 6.2 1.1 4.7 4.7 0 0 1 2.7 3.1 26.9 26.9 0 0 1 .7 7.4v33.5h3.1v-39l17.1 39h30.6zm59.4.4H86.8L68.4 47.8h3.1l14-35.7v35.7h27.4V14.3a26.4 26.4 0 0 1 .7-7.4 4.6 4.6 0 0 1 2.6-3.1 17.4 17.4 0 0 1 6.3-1.1V0c-5.6.3-13.5.4-24 .4zm55.5 0c-10.9 0-18.9-.1-24-.4v2.7a17.2 17.2 0 0 1 6.2 1.1 4.7 4.7 0 0 1 2.7 3.1 26.9 26.9 0 0 1 .7 7.4v33.5H167V14.3a26.9 26.9 0 0 1 .7-7.4 4.3 4.3 0 0 1 2.6-3.1 17.4 17.4 0 0 1 6.3-1.1V0c-5.3.3-12.8.4-22.6.4zm96.5-.9a16.9 16.9 0 0 1-1 4.5 2.1 2.1 0 0 1-1.9 1.4 3.9 3.9 0 0 1-1.8-.4L243 3.5a47.4 47.4 0 0 0-9.3-4 47.6 47.6 0 0 0-12.6-1.4A49.6 49.6 0 0 0 204.4.8a27.2 27.2 0 0 0-12.2 8.6 22.3 22.3 0 0 0-4.5 14.2 24.3 24.3 0 0 0 3.1 12.4 35.2 35.2 0 0 0 7.9 9.3l3 2.5h44.7c-2.7-2.3-6-4.8-10-7.6-7.5-5.2-12.6-8.9-15.3-10.9a29.2 29.2 0 0 1-6.2-6.6 14.5 14.5 0 0 1-2.3-8.4c0-4 1.3-7 3.8-9.2s5.9-3.3 10-3.3a17.3 17.3 0 0 1 11.8 4.4 30.8 30.8 0 0 1 8.2 11.5 46.5 46.5 0 0 1 3.5 14.7h3.1c0-15.5.2-26.5.6-32.9zm99.4.5c-.5 5.4-1.6 8-3.4 8a4.5 4.5 0 0 1-2.7-1.2A48.2 48.2 0 0 0 332.7.4 35.4 35.4 0 0 0 319-1.9c-10 0-18.8 2.1-26.5 6.3a46.2 46.2 0 0 0-18.1 17.8 52.5 52.5 0 0 0-6.4 25.6h31a98.8 98.8 0 0 1 2.2-21.6A40.3 40.3 0 0 1 309 9.1c3.8-4.5 8.9-6.8 15.4-6.8a22.5 22.5 0 0 1 12.5 4 23.3 23.3 0 0 1 6.9 6.7 30.9 30.9 0 0 1 3.7 8.7 93.9 93.9 0 0 1 1.9 12.1h3.1c0-16.2.1-27.4.5-33.8zm89.2 0c-5.6.3-15 .4-28.2.4-21.1 0-36.8-.1-47.3-.4v2.7a16.7 16.7 0 0 1 6.2 1.1 4.7 4.7 0 0 1 2.7 3.1 26.9 26.9 0 0 1 .7 7.4v33.5H423v-6.3c0-3.5.2-7.9.5-13.2h-3a26.1 26.1 0 0 1-3.4 8.4 22.7 22.7 0 0 1-6.4 6.7 14.4 14.4 0 0 1-8.6 2.7h-1.4V11.6a19.3 19.3 0 0 1 .6-5.6 3.7 3.7 0 0 1 2.3-2.3 17 17 0 0 1 5.3-.6h1.8a21.4 21.4 0 0 1 15.8 6.8q6.8 6.9 9 22.5h3.1c-.2-2.3-.4-5.6-.4-9.7-.1-6.7.3-14.3.9-22.7zM181.7 109.6c-10.9 0-19-.2-24.1-.4v2.7a17.6 17.6 0 0 1 6.2 1 4.9 4.9 0 0 1 2.7 3.2 26.4 26.4 0 0 1 .7 7.4V157h27.4v-33.5c0-3.4.2-5.9.8-7.4a5 5 0 0 1 3-3.2 22.9 22.9 0 0 1 7.1-1v-2.7c-5.5.2-13.5.4-23.8.4zm84.5 0c-10.9 0-19-.2-24.1-.4v2.7a17.2 17.2 0 0 1 6.2 1 4.9 4.9 0 0 1 2.7 3.2 26.4 26.4 0 0 1 .7 7.4V157h27.4v-33.5a25.6 25.6 0 0 1 .8-7.4 5.3 5.3 0 0 1 3-3.2 22.9 22.9 0 0 1 7.1-1v-2.7c-5.5.2-13.5.4-23.8.4zm110.4-.4l-7 .2-7.1-.2-18.6 47.8h3.2l9.6-24.9 9 24.9h29.5z"/><path d="M497.9 109.6c-6.4 0-11.4-.2-15.1-.4v2.7q6.6.9 9.3 3a9.6 9.6 0 0 1 3.5 6.4 93.4 93.4 0 0 1 .8 14.3V157h3.2v-24.1a72.8 72.8 0 0 1 .7-12.1 10.5 10.5 0 0 1 2.6-6 12 12 0 0 1 6.2-2.9v-2.7c-2.6.2-6.4.4-11.2.4zm-56.7-.4c-3.3.2-7.5.4-12.4.4s-8.5-.2-11.2-.4v2.7a17.6 17.6 0 0 1 6.2 1 4.9 4.9 0 0 1 2.7 3.2 26.4 26.4 0 0 1 .7 7.4V157h3.1v-17.6l16 17.6h40.1zm150.4 0c-5.6.2-15 .4-28.2.4-21.1 0-36.8-.2-47.3-.4v2.7c2.9.1 5 .4 6.2 1a4.9 4.9 0 0 1 2.7 3.2 26.4 26.4 0 0 1 .7 7.4V157h49.8v-6.4c0-3.4.2-7.8.6-13.1H573a25.6 25.6 0 0 1-3.4 8.3 24.1 24.1 0 0 1-6.3 6.8 14.9 14.9 0 0 1-8.7 2.7h-1.4v-34.5a18.8 18.8 0 0 1 .6-5.6 3.3 3.3 0 0 1 2.3-2.3 17 17 0 0 1 5.3-.6h1.8a21.1 21.1 0 0 1 15.9 6.8q6.6 6.8 9 22.5h3.1a83.3 83.3 0 0 1-.4-9.8c-.1-6.6.2-14.2.8-22.6zm109 20.7a42.6 42.6 0 0 0-17.8-16.9 59.8 59.8 0 0 0-26.8-5.8 54.7 54.7 0 0 0-26.5 6.4 44.7 44.7 0 0 0-18 17.8A52 52 0 0 0 605 157h28.3a100.1 100.1 0 0 1 2.8-24.5c1.8-7.2 4.4-12.8 7.7-16.8s7.2-6 11.7-6 8.1 1.9 11.6 5.8 6.3 9.4 8.3 16.5a87.8 87.8 0 0 1 3.1 24.7v.3h28.4v-.8c0-10.2-2.1-18.9-6.3-26.3zm91.3-20.3c-6.5 0-11.5-.2-15.2-.4v2.7q6.4.9 9.3 3a9.6 9.6 0 0 1 3.5 6.4c.6 2.9.8 7.7.8 14.3V157h3.1v-24.1a85.9 85.9 0 0 1 .7-12.1 11.2 11.2 0 0 1 2.7-6c1.4-1.4 3.4-2.3 6.3-2.9v-2.7c-2.8.2-6.5.4-11.2.4zm-55.3 0c-10.8 0-18.7-.2-23.7-.4v2.7c2.9.1 5 .4 6.2 1a4.9 4.9 0 0 1 2.7 3.1 33.2 33.2 0 0 1 .6 7.5V157h27.5v-33.5c0-3.4.2-5.9.8-7.4a4.8 4.8 0 0 1 3-3.2 22.9 22.9 0 0 1 7.1-1v-2.7c-5.5.2-13.6.4-24.2.4zm138.2-1a15.1 15.1 0 0 1-1 4.5 2.1 2.1 0 0 1-1.9 1.5 4.1 4.1 0 0 1-1.8-.5 17.7 17.7 0 0 1-2.8-1.4 47.4 47.4 0 0 0-9.3-4 43.4 43.4 0 0 0-12.6-1.5 49.6 49.6 0 0 0-16.7 2.8 27.2 27.2 0 0 0-12.2 8.6c-3 3.8-4.5 8.5-4.5 14.2a23.9 23.9 0 0 0 3.1 12.3 35.6 35.6 0 0 0 7.9 9.4l3 2.5h44.7c-2.7-2.3-6-4.8-10-7.6-7.5-5.3-12.6-8.9-15.3-11a25.6 25.6 0 0 1-6.2-6.6 14.2 14.2 0 0 1-2.3-8.3c0-4 1.3-7.1 3.8-9.3s5.9-3.3 10-3.3a17.4 17.4 0 0 1 11.8 4.5 30.4 30.4 0 0 1 8.2 11.4 47.1 47.1 0 0 1 3.5 14.8h3.1q0-23.2.6-33z"/></symbol><symbol id="motion-reel" viewBox="0 0 705.7 215.3"><path fill="none" d="M186.9 49.5h13.8V14.1l-13.8 35.4zm440 0h15.8l-15.8-17.2v17.2zM566.5 8.3c-3.5-3.8-7.4-5.8-11.6-5.8s-8.3 2-11.7 6.1-5.9 9.6-7.7 16.8a102.3 102.3 0 0 0-2.8 24.1H578a90.8 90.8 0 0 0-3.1-24.6c-2.1-7.2-4.9-12.7-8.4-16.6zm-259.1 0c-3.6-3.8-7.4-5.8-11.6-5.8s-8.4 2-11.7 6.1-5.9 9.6-7.8 16.8a108.1 108.1 0 0 0-2.7 24.1h45.2a87 87 0 0 0-3.1-24.6c-2-7.2-4.8-12.7-8.3-16.6zM127.9 49.5h17l-17-38.7v38.7z"/><path d="M127.9 10.8l17 38.7h30.6L154.4 2c-7.8.3-17.1.4-28 .4a110.9 110.9 0 0 1-11.2-.4v2.7a16.7 16.7 0 0 1 6.2 1.1 4.7 4.7 0 0 1 2.7 3.1 26.9 26.9 0 0 1 .7 7.4v33.2h3.1zm72.8 3.3v35.4h27.4V16.3a30.9 30.9 0 0 1 .7-7.4 4.6 4.6 0 0 1 2.6-3.1 17.4 17.4 0 0 1 6.3-1.1V2c-5.6.3-13.5.4-23.9.4H202l-18.3 47.1h3.2zm75.6 11.3q2.8-10.8 7.8-16.8c3.3-4.1 7.2-6.1 11.7-6.1s8 2 11.6 5.8 6.3 9.4 8.3 16.6a87 87 0 0 1 3.1 24.6h28.4V49c0-10.1-2.1-18.9-6.4-26.3A41.9 41.9 0 0 0 323 5.9C315.4 2 306.5.1 296.3.1a54.6 54.6 0 0 0-26.5 6.3 45.3 45.3 0 0 0-18 17.8 51.4 51.4 0 0 0-6.5 25.3h28.3a108.1 108.1 0 0 1 2.7-24.1zM413 5.1h.1c5.4 0 10.4 2.6 15.1 7.8s8.5 13.7 11.5 25.6h3.1a83.6 83.6 0 0 1-.4-9.7c0-7.9.3-16.8.9-26.8-8.5.3-23.2.4-44 .4s-35.6-.1-44.1-.4c.6 10 .9 18.9.9 26.8 0 4.1-.2 7.3-.4 9.7h3.1c3-11.9 6.8-20.5 11.4-25.6s9.7-7.8 15.2-7.8h.1v44.4H413zm74.2 11.2a26.9 26.9 0 0 1 .7-7.4 4.3 4.3 0 0 1 2.6-3.1 17.4 17.4 0 0 1 6.3-1.1V2c-5.3.3-12.8.4-22.5.4s-19-.1-24.1-.4v2.7a16.7 16.7 0 0 1 6.2 1.1 4.7 4.7 0 0 1 2.7 3.1 26.9 26.9 0 0 1 .7 7.4v33.2h27.4zm48.3 9.1c1.8-7.2 4.4-12.8 7.7-16.8s7.2-6.1 11.7-6.1 8.1 2 11.6 5.8 6.3 9.4 8.4 16.6a90.8 90.8 0 0 1 3.1 24.6h28.3V49c0-10.1-2.1-18.9-6.3-26.3a42.4 42.4 0 0 0-17.8-16.8C574.5 2 565.6.1 555.4.1a54.9 54.9 0 0 0-26.5 6.3 45.3 45.3 0 0 0-18 17.8c-4.2 7.4-6.3 15.8-6.5 25.3h28.3a102.3 102.3 0 0 1 2.8-24.1zm91.4 6.9l15.8 17.2h40.1L637.8 2c-3.3.3-7.5.4-12.5.4s-8.4-.1-11.2-.4v2.7a17.4 17.4 0 0 1 6.3 1.1 4.3 4.3 0 0 1 2.6 3.1 26.1 26.1 0 0 1 .8 7.4v33.2h3.1zm69.2-6.6a87 87 0 0 1 .7-12.1 11.2 11.2 0 0 1 2.7-6 12.4 12.4 0 0 1 6.2-2.9V2a109.6 109.6 0 0 1-11.2.4c-6.4 0-11.5-.1-15.1-.4v2.7c4.4.6 7.4 1.6 9.3 3a9.8 9.8 0 0 1 3.5 6.4 93.4 93.4 0 0 1 .8 14.3v21.1h3.1z"/><path fill="none" d="M684 49.1h-10.4l10.4 11v-11zM526.8 74.5q3.2 10.8 8.4 16.5c3.5 3.9 7.4 5.8 11.6 5.8s8.3-2 11.7-6 5.9-9.6 7.7-16.8a102.1 102.1 0 0 0 2.7-24.7v-.2h-45.2v.7a91.6 91.6 0 0 0 3.1 24.7zm-352-25.4h-8.4l4.5 10 3.9-10zm92.9 25.4q3.2 10.8 8.4 16.5c3.5 3.9 7.4 5.8 11.6 5.8s8.3-2 11.6-6 6-9.6 7.8-16.8a102.1 102.1 0 0 0 2.7-24.7v-.2h-45.2v.7a87.8 87.8 0 0 0 3.1 24.7z"/><path d="M115.8 73.6a72.8 72.8 0 0 1-.7 12.1 9.9 9.9 0 0 1-2.7 6c-1.3 1.4-3.4 2.3-6.2 2.9v2.7c2.7-.2 6.5-.3 11.2-.3 6.5 0 11.6.1 15.2.3v-2.7q-6.6-.9-9.3-3c-1.9-1.3-3.1-3.5-3.6-6.4a92.5 92.5 0 0 1-.8-14.3V49.1h-3.1zm55.1-14.5l-4.5-10h-30.6L157 97.2h2.1l18.8-48.1h-3.1l-3.9 10zM191.7 83a25.6 25.6 0 0 1-.8 7.4 5.2 5.2 0 0 1-3.1 3.2 21.7 21.7 0 0 1-7 1v2.7c5.1-.2 13.1-.3 23.9-.3s18.4.1 24 .3v-2.7a17.8 17.8 0 0 1-6.3-1 5 5 0 0 1-2.6-3.2 30.9 30.9 0 0 1-.7-7.4V49.1h-27.4zm118.1-33.7a102.1 102.1 0 0 1-2.7 24.7q-2.7 10.8-7.8 16.8c-3.3 4-7.2 6-11.6 6s-8.1-1.9-11.6-5.8-6.3-9.3-8.4-16.5a87.8 87.8 0 0 1-3.1-24.7v-.7h-28.3v1.2c0 10.2 2.1 19 6.3 26.3a41.5 41.5 0 0 0 17.8 16.9c7.6 3.8 16.6 5.8 26.7 5.8a53.9 53.9 0 0 0 26.5-6.4 45.6 45.6 0 0 0 18.1-17.8c4.3-7.5 6.4-16.2 6.5-26h-28.4zm66.7 32.8a23.9 23.9 0 0 1-1.1 8.3 6.3 6.3 0 0 1-4.2 3.4c-2 .6-5.2.8-9.6.8v2.7l27.7-.3 29.6.3v-2.7c-4.4 0-7.6-.2-9.6-.8a6.3 6.3 0 0 1-4.2-3.4c-.8-1.8-1.1-4.5-1.1-8.3v-33h-27.5zm74.3.9a26.4 26.4 0 0 1-.7 7.4 4.5 4.5 0 0 1-2.6 3.2 17.8 17.8 0 0 1-6.3 1v2.7c5.1-.2 13.2-.3 24.1-.3s17.2.1 22.5.3v-2.7a17.2 17.2 0 0 1-6.2-1 4.9 4.9 0 0 1-2.7-3.2 26.4 26.4 0 0 1-.7-7.4V49.1h-27.4zm118.1-33.7a102.1 102.1 0 0 1-2.7 24.7c-1.8 7.2-4.4 12.8-7.7 16.8s-7.3 6-11.7 6-8.1-1.9-11.6-5.8-6.3-9.3-8.4-16.5a91.6 91.6 0 0 1-3.1-24.7v-.7h-28.3v1.2c0 10.2 2.1 19 6.3 26.3a42.1 42.1 0 0 0 17.8 16.9 59.8 59.8 0 0 0 26.8 5.8c9.9 0 18.7-2.1 26.4-6.4a44.9 44.9 0 0 0 18.1-17.8c4.3-7.5 6.4-16.2 6.5-26h-28.4zM684 60.1l-10.4-11h-40.1l44.1 48.2h9.5V49.1H684zm-69.2 13.5a85.9 85.9 0 0 1-.7 12.1 11.2 11.2 0 0 1-2.7 6c-1.4 1.4-3.5 2.3-6.3 2.9v2.7c2.8-.2 6.5-.3 11.2-.3 6.5 0 11.6.1 15.2.3v-2.7q-6.4-.9-9.3-3c-1.8-1.3-3-3.5-3.6-6.4a96 96 0 0 1-.7-14.3V49.1h-3.1z"/><path fill="none" d="M64.9 156.9a43.6 43.6 0 0 0 1.4-11.7c0-7.4-1-13-3-16.7s-5.4-5.7-10-5.7a9.1 9.1 0 0 0-4.6.9 5.3 5.3 0 0 0-2.2 3.4 43.5 43.5 0 0 0-.5 7.3v33.2h3.7c4.4 0 7.8-1 10.2-2.9a14 14 0 0 0 5-7.8z"/><path d="M46 134.4a43.5 43.5 0 0 1 .5-7.3 5.3 5.3 0 0 1 2.2-3.4 9.1 9.1 0 0 1 4.6-.9c4.6 0 7.9 1.9 10 5.7s3 9.3 3 16.7a43.6 43.6 0 0 1-1.4 11.7 14 14 0 0 1-5 7.8c-2.4 1.9-5.8 2.9-10.2 2.9h24.5q8.3-2.2 12.9-6.6a23 23 0 0 0 7.5-17.3c0-8-3.3-13.9-10-17.7s-16.9-5.8-30.6-5.8l-9.4.2H32.3c-10.4 0-18.2-.1-23.3-.4v2.7a19.7 19.7 0 0 1 6.2 1 5.1 5.1 0 0 1 2.7 3.2 26.4 26.4 0 0 1 .7 7.4v33.2H46zm119.7 27.2c0-3.5.2-7.9.5-13.2h-3.1a25.3 25.3 0 0 1-3.3 8.3 21.9 21.9 0 0 1-6.4 6.8 14.9 14.9 0 0 1-8.7 2.7h-1.4v-34.5a18.1 18.1 0 0 1 .7-5.6 3.6 3.6 0 0 1 2.2-2.3 17.3 17.3 0 0 1 5.4-.6h1.8a21.4 21.4 0 0 1 15.8 6.8q6.6 6.9 9 22.5h3.1c-.2-2.3-.4-5.6-.4-9.7 0-6.7.3-14.3.9-22.7-5.5.3-14.9.4-28.2.4-21 0-36.8-.1-47.2-.4v2.7a20.3 20.3 0 0 1 6.2 1 5.1 5.1 0 0 1 2.7 3.2 26.4 26.4 0 0 1 .7 7.4v33.2h49.8zm87.7 0q0-5.2.6-13.2h-3.1a25.6 25.6 0 0 1-3.4 8.3 21.9 21.9 0 0 1-6.4 6.8 14.4 14.4 0 0 1-8.6 2.7h-1.4v-34.5a18.8 18.8 0 0 1 .6-5.6 3.7 3.7 0 0 1 2.3-2.3 17 17 0 0 1 5.3-.6h1.8A21.6 21.6 0 0 1 257 130q6.6 6.9 9 22.5h3.1a82.5 82.5 0 0 1-.4-9.7c0-6.7.3-14.3.9-22.7-5.6.3-15 .4-28.2.4-21.1 0-36.8-.1-47.3-.4v2.7a19.7 19.7 0 0 1 6.2 1 5.1 5.1 0 0 1 2.7 3.2 26.4 26.4 0 0 1 .7 7.4v33.2h49.8zm65.4-27.2a25.6 25.6 0 0 1 .8-7.4 5.4 5.4 0 0 1 3.1-3.2 25.1 25.1 0 0 1 7.1-1v-2.7c-5.6.3-13.5.4-23.9.4s-18.9-.1-24.1-.4v2.7a20.5 20.5 0 0 1 6.3 1 4.7 4.7 0 0 1 2.6 3.2 25.6 25.6 0 0 1 .8 7.4v33.2h27.3z"/><path fill="none" d="M40.7 167.3l3.1-.2H37v.2z"/><path d="M40.7 167.3H37v-.2H9.6V201a26.4 26.4 0 0 1-.7 7.4 4.7 4.7 0 0 1-2.6 3.2 20.5 20.5 0 0 1-6.3 1v2.7c5.1-.2 13.2-.4 24.1-.4s17.2.2 22.5.4v-2.7a19.7 19.7 0 0 1-6.2-1 5.1 5.1 0 0 1-2.7-3.2 26.4 26.4 0 0 1-.7-7.4v-31h6.1c3.2 0 5.5 1.6 7.1 4.8s2.7 8 3.7 14.3l2 13.5c.8 5.3 2.9 9.1 6.4 11.3s8.2 3.3 14.4 3.3a36.1 36.1 0 0 0 11.4-1.6 23.3 23.3 0 0 0 8.9-5.7l-1.8-1.8a5.6 5.6 0 0 1-4.2 1.8 4.3 4.3 0 0 1-3.7-1.9 18.7 18.7 0 0 1-2.3-6.9l-2.9-14a18 18 0 0 0-8.6-12.6c-4.8-2.8-11.7-4.5-20.9-5a75.6 75.6 0 0 0 13.3-2.4H43.8zM107 201a26.4 26.4 0 0 1-.7 7.4 5 5 0 0 1-2.6 3.2 20.5 20.5 0 0 1-6.3 1v2.7c10.4-.2 26.2-.4 47.2-.4 14.5 0 24.8.2 30.9.4-.6-5.9-.9-13.5-.9-22.7 0-5 .1-9.1.4-12.4h-3.1a57.8 57.8 0 0 1-6.1 18.7c-2.7 4.7-5.7 8.2-8.9 10.2a18.2 18.2 0 0 1-9.8 3.1h-4.5a17.3 17.3 0 0 1-5.4-.6 3.4 3.4 0 0 1-2.2-2.3 15.1 15.1 0 0 1-.7-5.6v-35.1h1.4a17.6 17.6 0 0 1 8.9 2.3 19 19 0 0 1 6.5 6.4 25.6 25.6 0 0 1 3.4 9.1h3.1c-.6-8.9-.8-15.3-.8-19.1v-.2H107zm87.7 0a26.4 26.4 0 0 1-.7 7.4 4.7 4.7 0 0 1-2.6 3.2 20.5 20.5 0 0 1-6.3 1v2.7c10.5-.2 26.2-.4 47.3-.4 14.5 0 24.8.2 30.9.4-.6-5.9-.9-13.5-.9-22.7 0-5 .1-9.1.3-12.4h-3c-1.4 7.7-3.4 13.9-6.1 18.7s-5.7 8.2-9 10.2a17.9 17.9 0 0 1-9.8 3.1h-4.5a17 17 0 0 1-5.3-.6 3.5 3.5 0 0 1-2.3-2.3 18.4 18.4 0 0 1-.6-5.6v-35.1h1.4a17.9 17.9 0 0 1 8.9 2.3 19.9 19.9 0 0 1 6.5 6.4 25.4 25.4 0 0 1 3.3 9.1h3.1c-.5-8.9-.8-15.3-.8-19.1v-.2h-49.8zm87.8-33.9V201a30.9 30.9 0 0 1-.7 7.4 5.1 5.1 0 0 1-2.7 3.2 20.5 20.5 0 0 1-6.3 1v2.7c10.5-.2 26.2-.4 47.3-.4 14.5 0 24.8.2 30.9.4q-.9-9.5-.9-24c0-5.1.1-9.2.4-12.4h-3.1a52.3 52.3 0 0 1-5.9 16.1 49.5 49.5 0 0 1-10 12.5c-3.7 3.1-7.2 4.7-10.3 4.7h-4.5a11.8 11.8 0 0 1-4.4-.6 3.3 3.3 0 0 1-2-2.3 24.1 24.1 0 0 1-.5-5.6v-36.6z"/></symbol><symbol id="paint" viewBox="0 0 479.3 208.3"><path d="M42 56.4q16.1 0 25.8-4.5a37.5 37.5 0 0 0 7.7-4.7H53.4c-2.4 4.3-6.7 6.5-12.7 6.5H37v-6.5H9.6v33.5a26.4 26.4 0 0 1-.7 7.4 4.7 4.7 0 0 1-2.6 3.2 20.5 20.5 0 0 1-6.3 1V95l24.2-.4L52 95v-3.1a44.7 44.7 0 0 1-9.7-.8 6.2 6.2 0 0 1-4.2-3.5 23.5 23.5 0 0 1-1.1-8.3V56.4zm127.1 33.7a19.6 19.6 0 0 1-3.9-6.4l-14.1-36.5h-29.5l3.2 8.9H99.6l3.4-8.9h-3.2L88.4 76.5c-2.1 5.4-4.1 9.3-6.1 11.7S78.2 92 76 92.3V95c2.7-.2 6.2-.4 10.4-.4s11 .2 17.7.4v-2.7c-4.1-.1-7.1-.9-9.1-2.2s-3.1-3.9-3.1-7.6 1.4-10 4.3-17.6l2.3-6.1h27.3l8 22.2a20.9 20.9 0 0 1 1.7 6.4 3.8 3.8 0 0 1-2.3 3.7c-1.4.7-3.9 1.1-7.2 1.2V95c4.8-.2 12.4-.4 22.6-.4s18.1.2 24.6.4v-2.7a6.7 6.7 0 0 1-4.1-2.2zm44.5 1.2a5.1 5.1 0 0 1-2.7-3.2 30.9 30.9 0 0 1-.7-7.4V47.2h-27.3v33.5a30.9 30.9 0 0 1-.7 7.4 5.1 5.1 0 0 1-2.7 3.2 20.5 20.5 0 0 1-6.3 1V95c5.2-.2 13.2-.4 24.1-.4s17.3.2 22.5.4v-2.7a20.3 20.3 0 0 1-6.2-1zm31.1-2c-1.9-1.4-3-3.5-3.6-6.4a93.4 93.4 0 0 1-.8-14.3V47.2h-3.1v24.1a72.8 72.8 0 0 1-.7 12.1 9.9 9.9 0 0 1-2.7 6 12.4 12.4 0 0 1-6.2 2.9V95c2.7-.2 6.5-.4 11.2-.4 6.5 0 11.6.2 15.2.4v-2.7q-6.6-.9-9.3-3zm61.8-42.1v10.6l-10-10.6h-40.1L300.1 95l5.1-.2 4.4.2V47.2zm82.2 44.3a5.8 5.8 0 0 1-4.2-3.5c-.8-1.7-1.2-4.4-1.2-8.2V47.2h-27.4v32.6c0 3.8-.4 6.5-1.2 8.2a5.8 5.8 0 0 1-4.2 3.5 43 43 0 0 1-9.6.8V95l27.8-.4 29.6.4v-2.7a43 43 0 0 1-9.6-.8z"/><path d="M91.3 12.8c-3-4-7.5-7.1-13.6-9.3S64.1.1 55.2.1l-9.4.2H33.5C23.1.4 15.4.3 10.2 0v2.7a16.7 16.7 0 0 1 6.2 1.1 4.7 4.7 0 0 1 2.7 3.1 26.9 26.9 0 0 1 .7 7.4v33.5h27.4V14.3a32 32 0 0 1 .6-7.2 4.4 4.4 0 0 1 2.1-3.4 8.1 8.1 0 0 1 4.6-1 10.3 10.3 0 0 1 10 6.2c2 4.1 3 10.6 3 19.3s-1.2 14.3-3.6 19l-.3.6h22.1a22.9 22.9 0 0 0 6.1-6.8 27.4 27.4 0 0 0 4.1-14.2 22.8 22.8 0 0 0-4.6-14zM142.8 0a70.2 70.2 0 0 1-7.1.3 70.2 70.2 0 0 1-7.1-.3L110 47.8h3.2l9.6-24.9 9 24.9h29.5zm64.7.4c-10.9 0-18.9-.1-24.1-.4v2.7a17.4 17.4 0 0 1 6.3 1.1 4.7 4.7 0 0 1 2.7 3.1 31.5 31.5 0 0 1 .7 7.4v33.5h27.3V14.3a31.5 31.5 0 0 1 .7-7.4 4.7 4.7 0 0 1 2.7-3.1 16.9 16.9 0 0 1 6.3-1.1V0c-5.3.3-12.8.4-22.6.4zm110.7 0c-6.4 0-11.5-.1-15.1-.4v2.7q6.4.9 9.3 3a9.8 9.8 0 0 1 3.5 6.4 93.4 93.4 0 0 1 .8 14.3v21.4h3.1V23.7a87 87 0 0 1 .7-12.1 11.2 11.2 0 0 1 2.7-6 12.4 12.4 0 0 1 6.2-2.9V0a109.6 109.6 0 0 1-11.2.4zM261.5 0c-3.3.3-7.5.4-12.5.4s-8.4-.1-11.2-.4v2.7a17.4 17.4 0 0 1 6.3 1.1 4.6 4.6 0 0 1 2.6 3.1 26.1 26.1 0 0 1 .8 7.4v33.5h3.1V30.3l16 17.5h40.1zm162.4 0c-8.6.3-23.2.4-44 .4S344.3.3 335.7 0c.6 10 .9 18.9.9 26.8a83.6 83.6 0 0 1-.4 9.7h3.2c2.9-12 6.7-20.5 11.4-25.7s9.7-7.7 15.2-7.7h.1v44.7h27.4V3.1h.2c5.4 0 10.4 2.6 15.1 7.8s8.5 13.7 11.4 25.6h3.1c-.2-2.4-.4-5.6-.4-9.7 0-7.9.3-16.8 1-26.8zM268.6 202.7a5.1 5.1 0 0 1-2.7-3.2 26.4 26.4 0 0 1-.7-7.4v-33.5h-27.4v33.5a26.4 26.4 0 0 1-.7 7.4 4.7 4.7 0 0 1-2.6 3.2 20.5 20.5 0 0 1-6.3 1v2.7c5.1-.2 13.1-.4 24-.4s17.3.2 22.6.4v-2.7a19.7 19.7 0 0 1-6.2-1zm31-2a9.8 9.8 0 0 1-3.5-6.4 93.4 93.4 0 0 1-.8-14.3v-21.4h-3.1v24.1a72.8 72.8 0 0 1-.7 12.1 11.2 11.2 0 0 1-2.7 6 12.4 12.4 0 0 1-6.2 2.9v2.7c2.7-.2 6.4-.4 11.2-.4 6.5 0 11.5.2 15.1.4v-2.7q-6.4-.9-9.3-3zm61.8-42.1v10.6l-10-10.6h-40.1l43.8 47.8 5-.2 4.5.2v-47.8zm94.3 7.2c-11.5 0-20.1-.1-25.8-.4v2.7a25.4 25.4 0 0 1 8.8 1.4 6.8 6.8 0 0 1 3.8 4.3c.7 2.1 1 5.4 1 10v13.5c0 3.1-.9 5.4-2.8 6.7s-3.8 1.6-6.7 1.6c-6.7 0-12-3.8-15.9-11.6s-5.7-19.4-5.7-35.1v-.3h-31.1v.8c0 10.4 1.9 19.2 5.7 26.5a38.2 38.2 0 0 0 17 16.7c7.5 3.8 16.9 5.7 28.1 5.7 6.2 0 13.8-2.1 22.8-6.5 4.2-2 7.2-3.1 9.1-3.1s2.3.8 3 2.5a12.9 12.9 0 0 1 1.3 5.2h2.7v-26.7a44 44 0 0 1 .4-7.4 4.7 4.7 0 0 1 1.5-3.1 6.1 6.1 0 0 1 3.6-1.1v-2.7c-4.3.3-11.3.4-20.8.4z"/><path d="M262.5 111.8c-10.9 0-19-.1-24.1-.4v2.7a16.7 16.7 0 0 1 6.2 1.1 4.7 4.7 0 0 1 2.7 3.1 26.9 26.9 0 0 1 .7 7.4v33.5h27.4v-33.5a26.9 26.9 0 0 1 .7-7.4 4.3 4.3 0 0 1 2.6-3.1 17.4 17.4 0 0 1 6.3-1.1v-2.7c-5.3.3-12.8.4-22.5.4zm110.6 0c-6.4 0-11.4-.1-15.1-.4v2.7q6.6.9 9.3 3a9.8 9.8 0 0 1 3.5 6.4c.6 2.9.8 7.7.8 14.3v21.4h3.2v-24.1a73.6 73.6 0 0 1 .7-12.1 10.5 10.5 0 0 1 2.6-6 12.8 12.8 0 0 1 6.2-2.9v-2.7a108.4 108.4 0 0 1-11.2.4zm-56.7-.4c-3.3.3-7.4.4-12.4.4a109.6 109.6 0 0 1-11.2-.4v2.7a17.2 17.2 0 0 1 6.2 1.1 4.7 4.7 0 0 1 2.7 3.1 26.9 26.9 0 0 1 .7 7.4v33.5h3.1v-17.5l16.1 17.5h40zm159.8 0a26.9 26.9 0 0 1-1.2 6.2c-.5 1.3-1.3 1.9-2.2 1.9a4.1 4.1 0 0 1-2.7-1.2 40.5 40.5 0 0 0-11.4-6.5 43 43 0 0 0-14.8-2.3 57.4 57.4 0 0 0-27.2 6.3 46 46 0 0 0-18.5 17.8 51.3 51.3 0 0 0-6.7 25.6h31.1a89.1 89.1 0 0 1 2.5-21.5 40.3 40.3 0 0 1 8.5-17.2 20 20 0 0 1 15.7-6.8 27.6 27.6 0 0 1 7.4 1.1 24.2 24.2 0 0 1 6.5 2.9 27.4 27.4 0 0 1 6.8 6.8 30.9 30.9 0 0 1 3.7 8.7 67.4 67.4 0 0 1 1.9 11.9h3.1c0-16.1.2-27.3.6-33.7z"/></symbol><symbol id="portfolio" viewBox="0 0 647.2 216.8"><path fill="none" d="M50.7 56.2c5.6 0 9.6-1.9 12.1-5.5H47v5.5zm91.8 34c3.5 3.8 7.4 5.8 11.6 5.8s8.3-2 11.7-6.1 5.9-9.6 7.7-16.8a92.3 92.3 0 0 0 2.7-23.4H131a91.3 91.3 0 0 0 3.1 24q3.2 10.7 8.4 16.5zm184.4 118.4c3.5 3.8 7.4 5.8 11.6 5.8s8.3-2 11.7-6.1 5.9-9.6 7.7-16.8a92.3 92.3 0 0 0 2.7-23.4h-45.2a91.3 91.3 0 0 0 3.1 24q3.2 10.7 8.4 16.5zm248.2 0c3.5 3.8 7.4 5.8 11.6 5.8s8.3-2 11.6-6.1 6-9.6 7.8-16.8a102.4 102.4 0 0 0 2.7-23.4h-45.2a91.3 91.3 0 0 0 3.1 24q3.1 10.7 8.4 16.5z"/><path d="M50.7 55.2H47v-5.5H19.6v32.5a26.9 26.9 0 0 1-.7 7.4 4.3 4.3 0 0 1-2.6 3.1 17.4 17.4 0 0 1-6.3 1.1v2.7l24.2-.4c6.4 0 15.7.1 27.8.4v-3.1a36.6 36.6 0 0 1-9.6-.9 6.1 6.1 0 0 1-4.3-3.4 23.9 23.9 0 0 1-1.1-8.3V57.9h5c10.7 0 19.3-1.6 25.8-4.6a38.4 38.4 0 0 0 6.4-3.6H62.8c-2.5 3.6-6.5 5.5-12.1 5.5zm122.8 17.9c-1.8 7.2-4.4 12.8-7.7 16.8s-7.3 6.1-11.7 6.1-8.1-2-11.6-5.8-6.3-9.4-8.4-16.5a91.3 91.3 0 0 1-3.1-24h-28.3q0 15 6.3 26.1a42.4 42.4 0 0 0 17.8 16.8c7.7 3.9 16.6 5.8 26.8 5.8a54.2 54.2 0 0 0 26.4-6.3 45.6 45.6 0 0 0 18.1-17.8 51.1 51.1 0 0 0 6.4-24.6h-28.3a92.3 92.3 0 0 1-2.7 23.4zm48.3-23.4v32.5a26.9 26.9 0 0 1-.7 7.4 4.6 4.6 0 0 1-2.6 3.1 17.4 17.4 0 0 1-6.3 1.1v2.7c5.1-.3 13.1-.4 24-.4s17.3.1 22.6.4v-2.7a16.3 16.3 0 0 1-6.2-1.1 4.7 4.7 0 0 1-2.7-3.1 26.9 26.9 0 0 1-.7-7.4V51.1h6.1c3.2 0 5.5 1.7 7 4.9s2.8 8 3.7 14.3l2.1 13.5c.8 5.3 2.9 9.1 6.3 11.3s8.3 3.3 14.5 3.3a35 35 0 0 0 11.3-1.6 21.9 21.9 0 0 0 8.9-5.7l-1.7-1.8a5.8 5.8 0 0 1-4.2 1.8 4.4 4.4 0 0 1-3.7-1.9q-1.3-2-2.4-6.9l-2.8-14a17.6 17.6 0 0 0-8.7-12.6 45.1 45.1 0 0 0-20.8-6m74.5 31.6c0 3.7-.4 6.5-1.2 8.2a6.1 6.1 0 0 1-4.2 3.4 36.6 36.6 0 0 1-9.6.9v2.7c12.1-.3 21.4-.4 27.8-.4s16.9.1 29.6.4v-2.7a37.5 37.5 0 0 1-9.7-.9 6.1 6.1 0 0 1-4.2-3.4 23.3 23.3 0 0 1-1.1-8.2V49.7h-27.4zM214.2 200.6a31.5 31.5 0 0 1-.7 7.4 4.7 4.7 0 0 1-2.7 3.1 17.4 17.4 0 0 1-6.3 1.1v2.7l24.2-.4c6.5 0 15.7.1 27.9.4v-3.1a37.5 37.5 0 0 1-9.7-.9 6.1 6.1 0 0 1-4.2-3.4c-.8-1.8-1.2-4.5-1.2-8.3v-31h1.4a16.7 16.7 0 0 1 8.9 2.3 19.9 19.9 0 0 1 6.5 6.4 24.9 24.9 0 0 1 3.4 9.1h3.1c-.5-8-.8-14-.8-17.9h-49.8zm143.7-9.1c-1.8 7.2-4.4 12.8-7.7 16.8s-7.3 6.1-11.7 6.1-8.1-2-11.6-5.8-6.3-9.4-8.4-16.5a91.3 91.3 0 0 1-3.1-24h-28.3q0 15 6.3 26.1a42.4 42.4 0 0 0 17.8 16.8c7.7 3.9 16.6 5.8 26.8 5.8a54.2 54.2 0 0 0 26.4-6.3 45.6 45.6 0 0 0 18.1-17.8 51.1 51.1 0 0 0 6.4-24.6h-28.3a92.3 92.3 0 0 1-2.7 23.4zm48.3 9.1a26.9 26.9 0 0 1-.7 7.4 4.6 4.6 0 0 1-2.6 3.1 17.4 17.4 0 0 1-6.3 1.1v2.7c10.4-.3 26.2-.4 47.2-.4 14.5 0 24.8.1 30.9.4-.6-6.3-.9-14.3-.9-24.1 0-5 .2-9.1.4-12.4h-3.1a51.9 51.9 0 0 1-5.9 16.2 49.5 49.5 0 0 1-10 12.5c-3.7 3.1-7.1 4.7-10.2 4.7h-4.5a12.1 12.1 0 0 1-4.5-.6 3.4 3.4 0 0 1-1.9-2.3 19.3 19.3 0 0 1-.6-5.6v-35.2h-27.3zm84.5 0a26.9 26.9 0 0 1-.7 7.4 4.6 4.6 0 0 1-2.6 3.1 17.4 17.4 0 0 1-6.3 1.1v2.7c5.1-.3 13.1-.4 24-.4s17.3.1 22.6.4v-2.7a16.3 16.3 0 0 1-6.2-1.1 4.7 4.7 0 0 1-2.7-3.1 26.9 26.9 0 0 1-.7-7.4v-32.5h-27.4zm115.4-9.1q-2.7 10.8-7.8 16.8c-3.3 4.1-7.2 6.1-11.6 6.1s-8.1-2-11.6-5.8-6.3-9.4-8.4-16.5a91.3 91.3 0 0 1-3.1-24h-28.3q0 15 6.3 26.1a41.9 41.9 0 0 0 17.8 16.8c7.6 3.9 16.6 5.8 26.7 5.8a54.9 54.9 0 0 0 26.5-6.3 46.2 46.2 0 0 0 18.1-17.8 52.3 52.3 0 0 0 6.4-24.6h-28.3a102.4 102.4 0 0 1-2.7 23.4z"/><path fill="none" d="M163.1 24.8c-2-7.2-4.8-12.7-8.3-16.6s-7.4-5.8-11.6-5.8-8.4 2-11.7 6.1-5.9 9.6-7.7 16.8A97 97 0 0 0 121 50v.7h45.2v-1.3a87 87 0 0 0-3.1-24.6zm93.3-14.5q-3-5.7-9.9-5.7a8.6 8.6 0 0 0-4.7 1 5 5 0 0 0-2.1 3.4 33.2 33.2 0 0 0-.5 7.2v33.2h3.6c4.4 0 7.9-.9 10.3-2.9a14.7 14.7 0 0 0 5-7.7 44.9 44.9 0 0 0 1.4-11.8c0-7.4-1.1-12.9-3.1-16.7zm111.2 132.9c-2.1-7.2-4.9-12.7-8.4-16.6s-7.4-5.8-11.6-5.8-8.3 2.1-11.7 6.1-5.9 9.6-7.7 16.8a97 97 0 0 0-2.8 24.7v.7h45.2c0-.4.1-.8.1-1.3a90.8 90.8 0 0 0-3.1-24.6zm248.1 0c-2-7.2-4.8-12.7-8.3-16.6s-7.4-5.8-11.6-5.8-8.4 2.1-11.7 6.1-5.9 9.6-7.8 16.8a102.1 102.1 0 0 0-2.7 24.7v.7h45.2v-1.3a87 87 0 0 0-3.1-24.6zM57.3 30.1c0-8.7-1-15.2-3-19.3a10.3 10.3 0 0 0-10-6.2 8.6 8.6 0 0 0-4.7 1A5 5 0 0 0 37.5 9a41.3 41.3 0 0 0-.5 7.2v34.5h15.8a8.3 8.3 0 0 0 .9-1.6c2.4-4.6 3.6-11 3.6-19z"/><path d="M37 16.2a41.3 41.3 0 0 1 .5-7.2 5 5 0 0 1 2.1-3.4 8.6 8.6 0 0 1 4.7-1 10.3 10.3 0 0 1 10 6.2c2 4.1 3 10.6 3 19.3s-1.2 14.4-3.6 19a8.3 8.3 0 0 1-.9 1.6h21.4a24.7 24.7 0 0 0 7.4-7.8 27.3 27.3 0 0 0 4-14.2 22.8 22.8 0 0 0-4.5-14c-3-4-7.5-7.1-13.6-9.3S53.9 2 45 2l-9.4.2H23.3c-10.4.1-18.2 0-23.3-.3v2.7a16.7 16.7 0 0 1 6.2 1.1 4.7 4.7 0 0 1 2.7 3.1 26.9 26.9 0 0 1 .7 7.4v34.5H37zM121 50a97 97 0 0 1 2.8-24.7c1.8-7.2 4.4-12.8 7.7-16.8s7.2-6.1 11.7-6.1 8.1 2 11.6 5.8 6.3 9.4 8.3 16.6a87 87 0 0 1 3.1 24.6v1.3h28.3a10.9 10.9 0 0 0 .1-1.8c0-10.1-2.1-18.9-6.3-26.3a43 43 0 0 0-17.8-16.8C162.8 1.9 153.9 0 143.7 0a54.6 54.6 0 0 0-26.5 6.3 45.3 45.3 0 0 0-18 17.8c-4.4 7.7-6.5 16.5-6.5 26.4v.2H121zm159.2-7.2a22.8 22.8 0 0 0 7.6-17.3c0-7.9-3.4-13.8-10.1-17.7S260.8 2 247.1 2l-9.3.2h-12.4c-10.3 0-18.1-.1-23.2-.4v2.8a17.2 17.2 0 0 1 6.2 1.1 4.7 4.7 0 0 1 2.7 3.1 26.9 26.9 0 0 1 .7 7.4v34.5h50.3c8.1-1.6 14.2-4.2 18.1-7.9zm-27.1 3.7c-2.4 2-5.9 2.9-10.3 2.9h-3.6V16.2a33.2 33.2 0 0 1 .5-7.2 5 5 0 0 1 2.1-3.4 8.6 8.6 0 0 1 4.7-1q6.9 0 9.9 5.7c2 3.8 3.1 9.3 3.1 16.7a44.9 44.9 0 0 1-1.4 11.8 14.7 14.7 0 0 1-5 7.7zM356.7 5h.1c5.4 0 10.5 2.6 15.1 7.8s8.5 13.7 11.5 25.6h3.1a83.6 83.6 0 0 1-.4-9.7c0-7.9.3-16.8.9-26.8-8.5.3-23.2.4-44 .4s-35.6-.1-44.1-.4c.6 10 .9 18.9.9 26.8a83.6 83.6 0 0 1-.4 9.7h3.1c3-11.9 6.8-20.5 11.4-25.6S323.6 5 329.1 5h.2v45.7h27.4zM274 167.8v-6c0-3.5.2-7.9.5-13.1h-3.1a28.8 28.8 0 0 1-3.4 8.3 23.1 23.1 0 0 1-6.4 6.8 14.9 14.9 0 0 1-8.7 2.7h-1.4v-34.6a15.8 15.8 0 0 1 .7-5.6 3.6 3.6 0 0 1 2.2-2.3 17.3 17.3 0 0 1 5.4-.6h1.8c5.4 0 10.4 2.3 14.9 6.9s7.7 12 9.9 22.4h3.1a81.4 81.4 0 0 1-.4-9.7c0-6.7.3-14.2.9-22.7-5.5.3-15 .4-28.2.4-21 0-36.8-.1-47.2-.4v2.7a19.7 19.7 0 0 1 6.2 1.1 4.7 4.7 0 0 1 2.7 3.1 31.5 31.5 0 0 1 .7 7.4v34.5H274zm51.4.6a97 97 0 0 1 2.8-24.7c1.8-7.2 4.4-12.8 7.7-16.8s7.2-6.1 11.7-6.1 8.1 2 11.6 5.8 6.3 9.4 8.4 16.6a90.8 90.8 0 0 1 3.1 24.6c0 .5-.1.9-.1 1.3h28.3a10.9 10.9 0 0 0 .1-1.8c0-10.1-2.1-18.9-6.3-26.3a43 43 0 0 0-17.8-16.8c-7.7-3.9-16.6-5.8-26.8-5.8a54.9 54.9 0 0 0-26.5 6.3 46 46 0 0 0-18 17.8 53.2 53.2 0 0 0-6.5 26.4v.2h28.3zm118.2-33.8c0-3.4.2-5.8.8-7.4a4.7 4.7 0 0 1 3-3.1 25 25 0 0 1 7.1-1.1v-2.7c-5.5.3-13.5.4-23.9.4s-18.9-.1-24-.4v2.7a19.7 19.7 0 0 1 6.2 1.1 4.7 4.7 0 0 1 2.7 3.1 26.9 26.9 0 0 1 .7 7.4v34.5h27.4zm84.5 0a26.9 26.9 0 0 1 .7-7.4 4.3 4.3 0 0 1 2.6-3.1 19.9 19.9 0 0 1 6.3-1.1v-2.7c-5.3.3-12.8.4-22.6.4s-18.9-.1-24-.4v2.7a19.7 19.7 0 0 1 6.2 1.1 4.7 4.7 0 0 1 2.7 3.1 26.9 26.9 0 0 1 .7 7.4v34.5h27.4zm45.5 33.8a102.1 102.1 0 0 1 2.7-24.7q2.9-10.8 7.8-16.8c3.3-4 7.2-6.1 11.7-6.1s8 2 11.6 5.8 6.3 9.4 8.3 16.6a87 87 0 0 1 3.1 24.6v1.3h28.3c0-.6.1-1.2.1-1.8 0-10.1-2.1-18.9-6.4-26.3a42.2 42.2 0 0 0-17.7-16.8c-7.7-3.9-16.6-5.8-26.8-5.8a54.6 54.6 0 0 0-26.5 6.3 46 46 0 0 0-18 17.8c-4.4 7.7-6.5 16.5-6.5 26.4v.2h28.3z"/></symbol><symbol id="quotebook" viewBox="0 0 538.1 210.1"><path d="M58.4 59.9zM222 171.6c-2.6-3.4-6.7-6.3-12.4-8.6s-12.8-3.7-21.5-4.1H148v35.3a29.6 29.6 0 0 1-.7 7.2 4.8 4.8 0 0 1-2.6 3.2 20.3 20.3 0 0 1-6.2 1v2.7c5-.3 12.8-.4 23.2-.4 4.8 0 9.6 0 14.3.2l9.8.2c12.8 0 22.6-2.2 29.6-6.4s10.4-10.8 10.4-19.4a18.1 18.1 0 0 0-3.8-10.9zm-38.4 33.6a14.8 14.8 0 0 1-5.5-.8 4.9 4.9 0 0 1-2.5-3.2 28.3 28.3 0 0 1-.7-7v-33.7h1.9c7.3 0 12.7 1.8 16 5.5s5.1 8.9 5.1 15.9c0 15.5-4.8 23.3-14.3 23.3zm146.2-46.3h-28v2a99.2 99.2 0 0 1-2.7 24.3c-1.8 7.1-4.3 12.6-7.6 16.6s-7.1 5.9-11.5 5.9-8-1.9-11.4-5.7-6.3-9.2-8.3-16.3a88.5 88.5 0 0 1-3.1-24.3 20.1 20.1 0 0 1 .1-2.5h-27.9c-.1 1-.1 2-.1 3 0 10 2.1 18.7 6.2 25.9a40.9 40.9 0 0 0 17.6 16.6q11.3 5.7 26.4 5.7c9.7 0 18.4-2 26-6.2a45 45 0 0 0 17.9-17.5 52.7 52.7 0 0 0 6.4-26zm106.7 0h-27.9v2a99.2 99.2 0 0 1-2.7 24.3c-1.8 7.1-4.4 12.6-7.6 16.6s-7.2 5.9-11.5 5.9-8-1.9-11.5-5.7-6.2-9.2-8.2-16.3a84.9 84.9 0 0 1-3.1-24.3v-2.5h-27.9v3c0 10 2 18.7 6.2 25.9a41.2 41.2 0 0 0 17.5 16.6q11.4 5.7 26.4 5.7c9.8 0 18.5-2 26.1-6.2a44.7 44.7 0 0 0 17.8-17.5c4.3-7.6 6.4-16.2 6.4-26zm97.1 43.4a24.9 24.9 0 0 1-3.6-4.8l-23.2-38.6h-58v35.3a25.3 25.3 0 0 1-.7 7.2 4.5 4.5 0 0 1-2.6 3.2 19.7 19.7 0 0 1-6.2 1v2.7c5.1-.3 13-.4 23.7-.4s17.1.1 22.3.4v-2.7a20.3 20.3 0 0 1-6.2-1 5 5 0 0 1-2.6-3.2 25.3 25.3 0 0 1-.7-7.2v-33.1a5.7 5.7 0 0 1 3.1 1.5 22.7 22.7 0 0 1 3.2 4.4l19.3 32.6a9 9 0 0 1 1.4 3.5q0 1.2-1.8 1.8a28.3 28.3 0 0 1-5.9.7v2.7c6.1-.3 12.5-.4 19-.4 8.5 0 16.5.1 24 .4v-2.7a16.4 16.4 0 0 1-4.5-3.3z"/><path d="M199 125.1c-2.7-3.1-6.8-5.6-12.2-7.3s-12-2.6-19.9-2.6h-21.4c-10.2 0-17.8-.1-22.9-.4v2.7a19 19 0 0 1 6.1 1 4.9 4.9 0 0 1 2.7 3.2 29.6 29.6 0 0 1 .7 7.2v30.8h40.2v-.3a47.4 47.4 0 0 0 16.9-5c4.6-2.5 8.1-5.3 10.4-8.6a17.9 17.9 0 0 0 3.4-9.9 16.9 16.9 0 0 0-4-10.8zm-26.3 28.2c-1.8 4-5.2 5.9-10 5.9h-3.6v-30.1a32.8 32.8 0 0 1 .5-7.1 5.6 5.6 0 0 1 2.1-3.4 9.1 9.1 0 0 1 4.6-.9c3.3 0 5.7 1.6 7.1 4.9s2.2 8.2 2.2 14.9-1 11.9-2.9 15.8zm135-17.8a40.9 40.9 0 0 0-17.6-16.6c-7.5-3.8-16.3-5.8-26.4-5.8a53.1 53.1 0 0 0-26.1 6.3 44.7 44.7 0 0 0-17.8 17.5 51.2 51.2 0 0 0-6.3 23h27.9a89 89 0 0 1 2.7-21.8c1.8-7.1 4.3-12.6 7.6-16.6s7.1-5.9 11.5-5.9 8 1.9 11.4 5.7 6.3 9.2 8.3 16.2a84.3 84.3 0 0 1 3 22.4h28c-.2-9.4-2.3-17.5-6.2-24.4zm106.7 0a40.7 40.7 0 0 0-17.5-16.6 58.3 58.3 0 0 0-26.4-5.8 53.1 53.1 0 0 0-26.1 6.3 44.7 44.7 0 0 0-17.8 17.5 51.2 51.2 0 0 0-6.3 23h27.9a94.4 94.4 0 0 1 2.6-21.8c1.8-7.1 4.4-12.6 7.7-16.6s7.1-5.9 11.5-5.9 7.9 1.9 11.4 5.7 6.2 9.2 8.3 16.2a88.6 88.6 0 0 1 3 22.4h27.9c-.2-9.4-2.2-17.5-6.2-24.4zm90.3-20.1c-7.6 0-15.1-.1-22.5-.4v2.6a13.3 13.3 0 0 1 7.9 2.5 7.5 7.5 0 0 1 3 6.2c0 3.6-2 7.6-5.9 12l-4.5 5.1a83.9 83.9 0 0 1-12.4 11.8 20.4 20.4 0 0 1-10.4 4v-30.1a25.3 25.3 0 0 1 .7-7.2 4.5 4.5 0 0 1 2.6-3.2 19.7 19.7 0 0 1 6.2-1V115c-5.2.3-12.6.4-22.2.4s-18.7-.1-23.7-.4v2.7a19.5 19.5 0 0 1 6.1 1 4.8 4.8 0 0 1 2.6 3.2 25.3 25.3 0 0 1 .7 7.2v30.8h58l-7.7-12.9 13.1-14.8c6.8-7.7 14.1-12.6 21.8-14.6V115c-3.6.3-8.1.4-13.4.4zM97.8 90.2a23.3 23.3 0 0 1-7.5 7.5 36.7 36.7 0 0 1-11.7 4.1c-6 1.3-13.6 1.9-22.7 1.9l-24.3-.5a66 66 0 0 0 7.7-2.7l6.8-2.5a36.3 36.3 0 0 1 5.6-1.2 51.1 51.1 0 0 0 25.1-6.7 44.7 44.7 0 0 0 17.1-17.4 52.1 52.1 0 0 0 6.1-24.6H72.2A95.3 95.3 0 0 1 69.5 72c-1.8 7.1-4.3 12.6-7.6 16.5s-7.1 6-11.5 6-7.9-1.9-11.3-5.7-6.2-9.2-8.3-16.2a89.3 89.3 0 0 1-3-24.3v-.2H0v.8c0 9.1 1.8 17.2 5.3 24a40 40 0 0 0 15 16.3 52 52 0 0 0 22.8 7.3l-5.6 2.2-5.6 2.3a31.4 31.4 0 0 1-4.9 1.5 25.1 25.1 0 0 0-10.1-2.4 10.9 10.9 0 0 0-5.4 1.1 3.2 3.2 0 0 0-1.9 3 3.3 3.3 0 0 0 1.7 3 8.8 8.8 0 0 0 4.5 1 23 23 0 0 0 11.2-3.3 14.7 14.7 0 0 1 3.2.9l11.7 5.1a145.9 145.9 0 0 0 16.5 6.4 49.8 49.8 0 0 0 15.8 2.6 35.2 35.2 0 0 0 9.2-1.2 20.7 20.7 0 0 0 7.3-3.5 21.3 21.3 0 0 0 6.5-9.3 52.1 52.1 0 0 0 3.2-15zm186.3-42.1a95.3 95.3 0 0 1-2.7 23.9c-1.8 7.1-4.3 12.6-7.6 16.5s-7.1 6-11.4 6-7.9-1.9-11.4-5.7-6.2-9.2-8.2-16.2a89.3 89.3 0 0 1-3-24.3v-.2H212v.8c0 9.9 2 18.5 6.2 25.7a40.4 40.4 0 0 0 17.4 16.6c7.5 3.7 16.3 5.6 26.3 5.6s18.3-2 25.9-6.2a44.5 44.5 0 0 0 17.8-17.4 51.6 51.6 0 0 0 6.3-25.1zm96.3 43.4a5.9 5.9 0 0 1-4.1-3.4c-.8-1.7-1.1-4.4-1.1-8.1V48.1h-27V80c0 3.7-.3 6.4-1.1 8.1a5.9 5.9 0 0 1-4.1 3.4 41.6 41.6 0 0 1-9.4.8V95c11.9-.3 20.9-.4 27.2-.4s16.6.1 29 .4v-2.7a41.6 41.6 0 0 1-9.4-.8zm106.4-18.8c0-4.9.2-9 .4-12.1h-3c-1.4 7.5-3.4 13.6-6 18.2s-5.6 8.1-8.8 10.1a18 18 0 0 1-9.6 3h-4.4a15.9 15.9 0 0 1-5.2-.6 3.4 3.4 0 0 1-2.3-2.2 18.1 18.1 0 0 1-.6-5.5V49.1h1.4a17.1 17.1 0 0 1 8.7 2.3 18.4 18.4 0 0 1 6.4 6.3 25.6 25.6 0 0 1 3.3 8.9h3c-.5-8.5-.8-14.7-.8-18.5h-48.8v32.8a29.9 29.9 0 0 1-.7 7.3 4.8 4.8 0 0 1-2.6 3.1 19.7 19.7 0 0 1-6.2 1V95c10.3-.3 25.8-.4 46.4-.4 14.2 0 24.3.1 30.3.4-.6-5.9-.9-13.3-.9-22.3zM182.1 48.4v8.8c0 10.9-1.8 19.3-5.3 25.2s-9.4 8.8-17.7 8.8a18.2 18.2 0 0 1-9.2-2.1 12.9 12.9 0 0 1-5.4-7.1q-1.8-4.9-1.8-13.5V48.4H116v7.7a103.3 103.3 0 0 0 .9 14.9 32.8 32.8 0 0 0 3.2 10.7 21.8 21.8 0 0 0 6.7 7.8c5.9 4.2 14.1 6.3 24.7 6.3 13.9 0 23.3-4 28.2-12.2 3.6-5.9 5.4-15.1 5.4-27.8v-7.4z"/><path d="M107.5 22.2A41 41 0 0 0 90 5.7C82.5 1.9 73.8 0 63.8 0a53.7 53.7 0 0 0-26 6.2 44.5 44.5 0 0 0-17.7 17.5 51.4 51.4 0 0 0-6.4 25.1h27.8a107.2 107.2 0 0 1 2.7-24c1.8-7 4.3-12.5 7.6-16.5s7.1-5.9 11.5-5.9 7.9 1.9 11.4 5.7 6.1 9.2 8.2 16.2a88.5 88.5 0 0 1 3 24.2v.3h27.8V48c0-10-2.1-18.6-6.2-25.8zm212 0A41.6 41.6 0 0 0 302 5.7C294.5 1.9 285.7 0 275.7 0a53.3 53.3 0 0 0-25.9 6.2 43.9 43.9 0 0 0-17.7 17.5c-4.2 7.3-6.3 15.6-6.4 25.1h27.8a96.7 96.7 0 0 1 2.7-24c1.8-7 4.3-12.5 7.6-16.5s7.1-5.9 11.4-5.9 8 1.9 11.4 5.7 6.2 9.2 8.2 16.2a88.3 88.3 0 0 1 3.1 24.2v.3h27.8V48c0-10-2.1-18.6-6.2-25.8zm99.1-20.3c-8.3.2-22.7.4-43.1.4s-34.9-.2-43.3-.4c.6 9.8.9 18.5.9 26.2 0 4.1-.2 7.3-.4 9.5h3c3-11.6 6.7-20 11.2-25.1s9.6-7.6 15-7.6h.1v43.9h26.9V4.9h.1c5.3 0 10.3 2.6 14.9 7.7s8.3 13.4 11.2 25h3c-.2-2.2-.4-5.4-.4-9.5 0-7.7.3-16.4.9-26.2zm80.2 0c-5.5.2-14.7.4-27.7.4-20.6 0-36.1-.2-46.3-.4v2.6a19 19 0 0 1 6.1 1.1 4.8 4.8 0 0 1 2.6 3.1 25.3 25.3 0 0 1 .7 7.2v32.9H483v-6.2c0-3.5.1-7.7.5-12.9h-3.1a22.4 22.4 0 0 1-3.3 8.1 22.1 22.1 0 0 1-6.2 6.7 14.2 14.2 0 0 1-8.5 2.6H461V13.3a17.4 17.4 0 0 1 .7-5.5 3.6 3.6 0 0 1 2.2-2.3 16.3 16.3 0 0 1 5.2-.6h1.8a20.7 20.7 0 0 1 15.5 6.7c4.4 4.5 7.3 11.8 8.9 22.1h3a80.6 80.6 0 0 1-.4-9.6q0-9.7.9-22.2zm-300.2.5c-6.3 0-11.2-.1-14.8-.4v2.6c4.2.6 7.3 1.6 9 3a9.3 9.3 0 0 1 3.5 6.2 88.3 88.3 0 0 1 .8 13.9v21.7h3V25.1a70.3 70.3 0 0 1 .7-11.8 9.8 9.8 0 0 1 2.6-5.8 12 12 0 0 1 6.1-2.9V2a105.6 105.6 0 0 1-10.9.4zM121.7 2v2.6c2.9.2 4.9.5 6.1 1.1a4.4 4.4 0 0 1 2.6 3 30.8 30.8 0 0 1 .6 7.2v33.5h26.7V15.9a24.5 24.5 0 0 1 .8-7.2 4.5 4.5 0 0 1 3-3 23.3 23.3 0 0 1 6.9-1.1V2c-5.4.3-13.3.4-23.6.4s-18.1-.1-23.1-.4z"/></symbol><symbol id="rebrand" viewBox="0 0 505.5 210.1"><path d="M267.2 5.9C260.5 2 250.3.1 236.6.1l-9.3.2h-12.4c-10.3.1-18.1 0-23.2-.3v2.7a17.2 17.2 0 0 1 6.2 1.1 4.7 4.7 0 0 1 2.7 3.1 26.9 26.9 0 0 1 .7 7.4v33.2h27.3V14.3a33.6 33.6 0 0 1 .6-7.3 5 5 0 0 1 2.1-3.3 8.6 8.6 0 0 1 4.7-1q6.9 0 9.9 5.7c2 3.8 3.1 9.3 3.1 16.7a43.6 43.6 0 0 1-1.4 11.7 14.5 14.5 0 0 1-5 7.8 15.5 15.5 0 0 1-8.9 2.9H257c5.5-1.6 9.7-3.8 12.7-6.6a22.8 22.8 0 0 0 7.6-17.3c0-8-3.4-13.9-10.1-17.7zM364.5 0c-5.6.3-15 .4-28.2.4C315.2.4 299.5.3 289 0v2.7a17.4 17.4 0 0 1 6.3 1.1 4.6 4.6 0 0 1 2.6 3.1 26.1 26.1 0 0 1 .8 7.4v33.2h49.7v-6c0-3.5.1-7.9.5-13.2h-3.1a26.1 26.1 0 0 1-3.4 8.4 22.4 22.4 0 0 1-6.3 6.7 14.9 14.9 0 0 1-8.7 2.7H326V11.6a18.8 18.8 0 0 1 .6-5.6 4 4 0 0 1 2.3-2.3 17 17 0 0 1 5.3-.6h1.8a21.5 21.5 0 0 1 15.9 6.8q6.6 6.9 9 22.5h3.1a82.5 82.5 0 0 1-.4-9.7c0-6.7.3-14.3.9-22.7zm-287 124q-4.1-4.8-12.3-7.5a68.9 68.9 0 0 0-20.2-2.6H23.3c-10.4 0-18.1-.1-23.3-.4v2.7a19.9 19.9 0 0 1 6.3 1.1 4.5 4.5 0 0 1 2.6 3.2 25.3 25.3 0 0 1 .8 7.3V161H37v-.3h1.9a43.3 43.3 0 0 1 5.3.3h21.1a88.2 88.2 0 0 0-14.9-2 50.5 50.5 0 0 0 17.2-5.1c4.7-2.5 8.2-5.4 10.5-8.8a17.6 17.6 0 0 0 3.5-10 16.8 16.8 0 0 0-4.1-11.1zm-26.6 28.6q-2.9 6-10.2 6H37V128a32 32 0 0 1 .6-7.2 5.3 5.3 0 0 1 2.1-3.4 9.2 9.2 0 0 1 4.6-1c3.4 0 5.8 1.7 7.3 5s2.2 8.3 2.2 15.2-1 12-2.9 16zm117.8-33c-6.7-3.8-16.9-5.7-30.7-5.7h-21.6c-10.4 0-18.2-.1-23.3-.4v2.7a19.7 19.7 0 0 1 6.2 1.1 4.9 4.9 0 0 1 2.7 3.2 26.1 26.1 0 0 1 .7 7.3V161h27.4v-33a41.3 41.3 0 0 1 .5-7.2 5.3 5.3 0 0 1 2.1-3.4 9.7 9.7 0 0 1 4.7-1q6.9 0 9.9 5.7c2.1 3.8 3.1 9.4 3.1 16.8a44.6 44.6 0 0 1-1.4 11.7 14.7 14.7 0 0 1-5 7.8c-2.2 1.7-5.1 2.6-8.8 2.8h23.3q8.1-2.2 12.6-6.6a22.6 22.6 0 0 0 7.6-17.3c0-7.9-3.3-13.8-10-17.7zm81.8-5.9a68.8 68.8 0 0 1-7.1.3c-2.8 0-5.1-.1-7.1-.3l-18.5 47.5h3.3l9.4-24.5 8.9 24.5h29.5zm126.3.4c-6.4 0-11.5-.1-15.1-.4v2.7q6.4 1 9.3 3a10.1 10.1 0 0 1 3.5 6.5 92.5 92.5 0 0 1 .8 14.3v21h3.1v-23.7a85.9 85.9 0 0 1 .7-12.1 11.9 11.9 0 0 1 2.7-6.1c1.3-1.3 3.4-2.2 6.2-2.9v-2.7a109.6 109.6 0 0 1-11.2.4zm-56.7-.4c-3.3.3-7.5.4-12.5.4s-8.4-.1-11.2-.4v2.7a19.9 19.9 0 0 1 6.3 1.1 4.5 4.5 0 0 1 2.6 3.2 25.3 25.3 0 0 1 .8 7.3v33.2h3.1V144l15.7 17.2H365zm161.7 12c-9.2-8-23.2-12-41.9-12l-21.6.4h-4.9c-5.7 0-11.9-.1-18.4-.5v2.7a19.7 19.7 0 0 1 6.2 1.1 4.9 4.9 0 0 1 2.7 3.2 26.1 26.1 0 0 1 .7 7.3v33.2H432v-33.3a23.3 23.3 0 0 1 .8-7.3 5.2 5.2 0 0 1 2.9-3.4 16.8 16.8 0 0 1 6.3-.9c8.7 0 15.1 3.6 19.2 11s6.2 18.6 6.2 33.8v.2h28.3v-.7c0-15.3-4.6-26.9-13.9-34.8zM244.7 46.4zm-98.5 113.7z"/><path d="M297.9 87.3a5.8 5.8 0 0 1-4.2 1.8 4.4 4.4 0 0 1-3.7-1.9q-1.3-2-2.4-6.9l-2.8-14a17.7 17.7 0 0 0-8.7-12.6c-4.7-2.8-11.6-4.5-20.8-5-3.6-1.1-6.9-1.2-3.2-2.3h-39.8v33.8a26.9 26.9 0 0 1-.7 7.4 4.6 4.6 0 0 1-2.6 3.1 19.9 19.9 0 0 1-6.3 1.1v2.7c5.1-.3 13.1-.4 24-.4s17.3.1 22.6.4v-2.7a19.9 19.9 0 0 1-6.3-1.1 4.6 4.6 0 0 1-2.6-3.1 26.1 26.1 0 0 1-.8-7.4V49.1h6.2c3.1 0 5.5 1.6 7 4.9s2.8 8 3.7 14.3l2.1 13.5c.8 5.3 2.9 9 6.3 11.3s8.3 3.3 14.5 3.3a34.9 34.9 0 0 0 11.3-1.7 21.7 21.7 0 0 0 8.9-5.6zm79.4-15.5c0-5 .1-9.2.4-12.4h-3.1c-1.4 7.7-3.4 13.9-6.1 18.6s-5.7 8.2-9 10.3a17.9 17.9 0 0 1-9.8 3.1h-4.5a17 17 0 0 1-5.3-.6 4 4 0 0 1-2.3-2.3 18.8 18.8 0 0 1-.6-5.6V47.7h1.4a16.7 16.7 0 0 1 8.9 2.4 18.9 18.9 0 0 1 6.5 6.4 24.9 24.9 0 0 1 3.4 9.1h3.1q-.9-13.3-.9-19.2h-49.7v33.8a31.5 31.5 0 0 1-.7 7.4 4.7 4.7 0 0 1-2.7 3.1 19.9 19.9 0 0 1-6.3 1.1v2.7c10.5-.3 26.2-.4 47.3-.4 14.5 0 24.8.1 30.9.4-.6-5.9-.9-13.5-.9-22.7zM95.7 171c-2.6-3.4-6.8-6.3-12.5-8.7a58.6 58.6 0 0 0-6.7-2.1H55.4q7.1 1.1 10.8 5.1t5.1 16.2c0 15.7-4.8 23.6-14.4 23.6a15.7 15.7 0 0 1-5.7-.8 5.2 5.2 0 0 1-2.5-3.2 29.6 29.6 0 0 1-.7-7.2v-33.7H20.7v33.7a30.9 30.9 0 0 1-.7 7.4 5.1 5.1 0 0 1-2.7 3.2 20.5 20.5 0 0 1-6.3 1v2.7c5.2-.2 13-.4 23.6-.4l14.5.2c4.8.2 8.1.2 10 .2 12.9 0 22.9-2.1 30-6.5s10.5-10.9 10.5-19.6a18.1 18.1 0 0 0-3.9-11.1zm103.6 30a5.6 5.6 0 0 1-4.2 1.8 4.3 4.3 0 0 1-3.7-1.9 18.8 18.8 0 0 1-2.3-6.8l-2.9-14.1a17.6 17.6 0 0 0-8.6-12.5c-4.8-2.9-11.7-4.6-20.9-5.1-2.4-.4-7.8-1.2-4.1-2.2h-38.9v33.7a26.4 26.4 0 0 1-.7 7.4 4.7 4.7 0 0 1-2.6 3.2 20.5 20.5 0 0 1-6.3 1v2.7c5.1-.2 13.2-.4 24.1-.4s17.2.2 22.5.4v-2.7a19.7 19.7 0 0 1-6.2-1 5.1 5.1 0 0 1-2.7-3.2 26.4 26.4 0 0 1-.7-7.4v-31h6.1c3.2 0 5.5 1.6 7.1 4.8s2.7 8 3.7 14.4l2 13.4c.8 5.3 2.9 9.1 6.4 11.3s8.2 3.3 14.4 3.3a36.1 36.1 0 0 0 11.4-1.6l2.7-1.2a23.9 23.9 0 0 0 6.2-4.5zm98.7 2.3a18 18 0 0 1-3.8-6.4l-14.3-36.7h-29.4l3.3 9.1h-25.3l3.6-9.1h-3.3l-11.5 29.5c-2 5.4-4.1 9.3-6.1 11.7l-.7.8a9.7 9.7 0 0 1-5.6 3.3v2.7c2.7-.2 6.2-.4 10.5-.4s10.9.2 17.6.4v-2.7c-4-.1-7.1-.9-9.1-2.2s-3.1-3.9-3.1-7.6 1.5-10 4.4-17.6l2.3-6.1h27.2l8.1 22.2a20 20 0 0 1 1.6 6.4 3.8 3.8 0 0 1-2.2 3.7c-1.5.7-3.9 1.1-7.3 1.2v2.7c4.8-.2 12.4-.4 22.7-.4s18.1.2 24.6.4v-2.7a6.7 6.7 0 0 1-4.2-2.2zm88.3-43.1V171l-10.2-10.8H336l43.9 48 5.1-.2 4.4.2v-48zM321 196.1c-.6-2.9-.8-7.7-.8-14.3v-21.6h-3.1v24.3a85.9 85.9 0 0 1-.7 12.1 11.2 11.2 0 0 1-2.7 6 12.8 12.8 0 0 1-6.3 2.9v2.7c2.8-.2 6.5-.4 11.2-.4 6.5 0 11.6.2 15.2.4v-2.7q-6.4-.9-9.3-3a9.8 9.8 0 0 1-3.5-6.4zm157.4-35.9c0 15-2 26.4-6 34s-10.4 11.6-19.3 11.6a15.3 15.3 0 0 1-6.4-1 5.1 5.1 0 0 1-2.9-3.3 22.9 22.9 0 0 1-.8-7.3v-34h-27.4v33.7a26.4 26.4 0 0 1-.7 7.4 4.7 4.7 0 0 1-2.6 3.2 20.5 20.5 0 0 1-6.3 1v2.7c5.1-.2 13-.4 23.5-.4l10.8.2 9.5.2c11.8 0 22-2 30.5-6a43.9 43.9 0 0 0 19.6-17.1 47.6 47.6 0 0 0 6.8-24.9z"/></symbol><symbol id="dingbats" viewBox="0 0 538.6 214.6"><path fill="none" d="M330 173.4l-3.2-8.9h-18.6l-3.4 8.9H330zM241.5 48.7h-10l10 10.5V48.7zm-203.7 41a5.2 5.2 0 0 0 2.9 3.4 17.1 17.1 0 0 0 6.4 1c9 0 15.4-3.9 19.3-11.6s5.9-18.9 6-33.8H37v33.8a22.2 22.2 0 0 0 .8 7.2zm195.1 115.5a4.9 4.9 0 0 0 2.5 3.2 15.4 15.4 0 0 0 5.6.8c9.6 0 14.4-7.9 14.4-23.6q0-10.7-5.1-16.2a17.3 17.3 0 0 0-9.3-4.9h-8.8V198a25.3 25.3 0 0 0 .7 7.2z"/><path d="M66.4 82.5c-3.9 7.7-10.3 11.6-19.3 11.6a17.1 17.1 0 0 1-6.4-1 5.2 5.2 0 0 1-2.9-3.4 22.2 22.2 0 0 1-.8-7.2V48.7H9.6v33.5a26.9 26.9 0 0 1-.7 7.4 4.3 4.3 0 0 1-2.6 3.1A17.4 17.4 0 0 1 0 93.8v2.7c5.1-.3 13-.4 23.5-.4l10.8.2 9.5.2c11.8 0 22-2 30.5-6a45.1 45.1 0 0 0 19.6-17.1c4.4-7.1 6.6-15.3 6.8-24.7H72.4c-.1 14.9-2 26.2-6 33.8zm51.5-.3a26.9 26.9 0 0 1-.7 7.4 4.3 4.3 0 0 1-2.6 3.1 17.4 17.4 0 0 1-6.3 1.1v2.7c5.1-.3 13.2-.4 24.1-.4s17.2.1 22.5.4v-2.7a17.2 17.2 0 0 1-6.2-1.1 4.7 4.7 0 0 1-2.7-3.1 26.9 26.9 0 0 1-.7-7.4V48.7h-27.4zm54.4-9.4a73.6 73.6 0 0 1-.7 12.1 9.9 9.9 0 0 1-2.7 6 12.4 12.4 0 0 1-6.2 2.9v2.7a109.6 109.6 0 0 1 11.2-.4c6.5 0 11.5.1 15.2.4v-2.7q-6.6-.9-9.3-3a9.5 9.5 0 0 1-3.6-6.4 93.4 93.4 0 0 1-.8-14.3V48.7h-3.1zm69.2-13.6l-10-10.5h-40l43.7 47.8 5.1-.2 4.4.2V48.7h-3.2zm19.9-9.7q0 15.4 5.7 26.4a37.7 37.7 0 0 0 17 16.7c7.6 3.9 16.9 5.8 28.1 5.8 6.2 0 13.8-2.2 22.8-6.5 4.2-2.1 7.3-3.1 9.2-3.1s2.2.8 3 2.4a15.2 15.2 0 0 1 1.2 5.3h2.7V69.7a44.7 44.7 0 0 1 .4-7.4 5.3 5.3 0 0 1 1.5-3.1 8 8 0 0 1 3.6-1.1v-2.7c-4.3.3-11.2.5-20.8.5-11.5 0-20.1-.2-25.8-.5v2.7a27.5 27.5 0 0 1 8.8 1.5 6.8 6.8 0 0 1 3.8 4.3 33.6 33.6 0 0 1 1.1 9.9v13.5c0 3.2-1 5.4-2.9 6.8a11.5 11.5 0 0 1-6.6 1.6c-6.8 0-12.1-3.9-16-11.6s-5.7-19.4-5.7-35.1v-.3h-31c0 .3-.1.5-.1.8zm-11.1 119.9q5.1 5.5 5.1 16.2c0 15.7-4.8 23.6-14.4 23.6a15.4 15.4 0 0 1-5.6-.8 4.9 4.9 0 0 1-2.5-3.2 25.3 25.3 0 0 1-.7-7.2v-33.5h-27.4V198a26.4 26.4 0 0 1-.7 7.4 4.7 4.7 0 0 1-2.6 3.2 20.5 20.5 0 0 1-6.3 1v2.7c5.1-.2 13-.4 23.5-.4l14.5.2 10.1.2c12.9 0 22.9-2.1 29.9-6.5s10.6-10.9 10.6-19.7a18 18 0 0 0-3.9-11q-3.9-5.1-12.6-8.7a54.3 54.3 0 0 0-5.7-1.9H241a17.3 17.3 0 0 1 9.3 4.9zm79.7 4h-25.2l3.4-8.9h-3.3l-11.4 29.3a42.6 42.6 0 0 1-6.1 11.7c-2 2.4-4.1 3.8-6.2 4.1v2.7c2.6-.2 6.1-.4 10.4-.4s10.9.2 17.6.4v-2.7c-4-.1-7.1-.9-9.1-2.2s-3.1-3.9-3.1-7.6 1.5-10.1 4.4-17.6l2.3-6.1h27.2l8.1 22.2a20 20 0 0 1 1.6 6.4 3.8 3.8 0 0 1-2.2 3.7c-1.5.7-3.9 1.1-7.3 1.2v2.7c4.9-.2 12.4-.4 22.7-.4s18.1.2 24.6.4v-2.7a6.7 6.7 0 0 1-4.2-2.2 18 18 0 0 1-3.8-6.4l-14.1-36.5h-29.5zm70-8.9v32.6c0 3.8-.4 6.5-1.2 8.2a6.1 6.1 0 0 1-4.1 3.5 44.7 44.7 0 0 1-9.7.8v2.7l27.8-.4 29.6.4v-2.7a43 43 0 0 1-9.6-.8 6 6 0 0 1-4.2-3.5c-.8-1.7-1.2-4.4-1.2-8.2v-32.6z"/><path fill="none" d="M232.2 163.9v.6h8.8a36.9 36.9 0 0 0-6.9-.6zM73.7 15.3C69.6 8 63.2 4.4 54.4 4.4a16.8 16.8 0 0 0-6.3.9 5.2 5.2 0 0 0-2.9 3.4 25.8 25.8 0 0 0-.8 7.3v33.7h35.4v-.5c0-15.3-2.1-26.6-6.1-33.9z"/><path d="M44.4 16a25.8 25.8 0 0 1 .8-7.3 5.2 5.2 0 0 1 2.9-3.4 16.8 16.8 0 0 1 6.3-.9c8.8 0 15.2 3.6 19.3 10.9s6.1 18.6 6.1 33.9v.5h28.3v-1.1q0-22.8-13.8-34.8C85 5.9 71 1.9 52.4 1.9l-21.7.4h-4.8c-5.8 0-11.9-.2-18.5-.5v2.8a16.7 16.7 0 0 1 6.2 1.1 4.7 4.7 0 0 1 2.7 3.1 26.9 26.9 0 0 1 .7 7.4v33.5h27.4zm108.3.2a26.9 26.9 0 0 1 .7-7.4 4.3 4.3 0 0 1 2.6-3.1 17.4 17.4 0 0 1 6.3-1.1V1.9c-5.3.3-12.8.4-22.5.4s-18.9-.1-24.1-.4v2.7a16.7 16.7 0 0 1 6.2 1.1 4.7 4.7 0 0 1 2.7 3.1 26.9 26.9 0 0 1 .7 7.4v33.5h27.4zm30.1 16l16.1 17.5H239L193.8 1.9c-3.4.3-7.5.4-12.5.4a110.9 110.9 0 0 1-11.2-.4v2.7a16.7 16.7 0 0 1 6.2 1.1 4.7 4.7 0 0 1 2.7 3.1 26.9 26.9 0 0 1 .7 7.4v33.5h3.1zm69.3-6.6a73.6 73.6 0 0 1 .7-12.1c.5-2.7 1.3-4.7 2.7-6a12 12 0 0 1 6.2-2.9V1.9a110.9 110.9 0 0 1-11.2.4c-6.5 0-11.5-.1-15.1-.4v2.7c4.3.6 7.4 1.6 9.2 3a9.8 9.8 0 0 1 3.5 6.4c.6 2.9.8 7.7.8 14.3v21.4h3.2zm50.3 2.6a40.3 40.3 0 0 1 8.5-17.2 20 20 0 0 1 15.7-6.8 27.6 27.6 0 0 1 7.4 1.1 24.2 24.2 0 0 1 6.5 2.9 25.8 25.8 0 0 1 6.8 6.8 28.2 28.2 0 0 1 3.7 8.7 78.6 78.6 0 0 1 2 12h3.1c0-16.2.1-27.4.5-33.8h-3.1a26.9 26.9 0 0 1-1.2 6.2c-.5 1.3-1.3 1.9-2.2 1.9a4.1 4.1 0 0 1-2.7-1.2A39.2 39.2 0 0 0 336 2.3 43 43 0 0 0 321.2 0C311 0 302 2.1 294.1 6.3a45.6 45.6 0 0 0-18.6 17.8 51.6 51.6 0 0 0-6.6 25.6h31a89.1 89.1 0 0 1 2.5-21.5zm-65.8 135v-.2a51.2 51.2 0 0 0 17.2-5.1c4.7-2.5 8.2-5.4 10.5-8.8a17.4 17.4 0 0 0 3.4-10 16.7 16.7 0 0 0-4-11.1q-4.2-4.8-12.3-7.5a68.9 68.9 0 0 0-20.2-2.6h-21.7c-10.4 0-18.2-.1-23.3-.4v2.7a19.1 19.1 0 0 1 6.2 1.1 4.9 4.9 0 0 1 2.7 3.2 26.1 26.1 0 0 1 .7 7.3v33.5h27.4v-.6h1.9a36.9 36.9 0 0 1 6.9.6m-8.8-33.3a41.3 41.3 0 0 1 .5-7.2 5 5 0 0 1 2.2-3.4 9 9 0 0 1 4.6-1c3.4 0 5.8 1.7 7.3 5s2.1 8.3 2.1 15.1-.9 12.1-2.8 16.1-5.3 6-10.2 6h-3.7zm85.5 8.7l9.1 24.8h29.5l-18.6-47.8a68.1 68.1 0 0 1-7 .3q-4.2 0-7.2-.3l-18.6 47.8h3.3zm109.7-19.9h.2c5.4 0 10.4 2.6 15.1 7.8s8.5 13.8 11.4 25.6h3.1c-.2-2.3-.4-5.6-.4-9.7 0-7.9.3-16.8 1-26.8-8.6.3-23.2.4-44 .4s-35.6-.1-44.2-.4c.6 10 .9 18.9.9 26.8 0 4.1-.1 7.4-.3 9.7h3c3-11.9 6.8-20.5 11.5-25.6s9.7-7.8 15.2-7.8h.1v44.7h27.4zm73.4 51.1a117.1 117.1 0 0 1 10.8 8 31.4 31.4 0 0 1 6.5 7.8 19 19 0 0 1 2.4 9.6c0 4.1-1.4 7.4-4.3 9.7s-6.9 3.5-11.9 3.5c-8 0-14-3.4-17.9-10s-6-15.4-6.6-26.1h-3.1c0 19.3-.2 32.3-.6 39.2h3.1a19.2 19.2 0 0 1 1.1-4.6 2.2 2.2 0 0 1 1.9-1.4c1 0 2.5.7 4.6 2a51.1 51.1 0 0 0 10.2 3.6 57.7 57.7 0 0 0 13.7 1.4 54 54 0 0 0 18.5-3 29.7 29.7 0 0 0 13.3-9 22.6 22.6 0 0 0 4.9-14.8 25.3 25.3 0 0 0-2.8-12.2 34.1 34.1 0 0 0-7.2-9.2l-2.1-1.8h-44.7c2.8 2.2 6.2 4.6 10.2 7.3z"/><path d="M509.3 158.2c-7.5-5.2-12.6-8.8-15.3-10.9a29.8 29.8 0 0 1-6.3-6.6 15 15 0 0 1-2.2-8.4c0-3.9 1.2-7 3.8-9.2a14.6 14.6 0 0 1 9.9-3.3 17.9 17.9 0 0 1 11.9 4.4 31.6 31.6 0 0 1 8.2 11.5 46.4 46.4 0 0 1 3.5 14.8h3.1c0-15.6.2-26.5.6-33h-3.1a15.1 15.1 0 0 1-1 4.5 2.1 2.1 0 0 1-1.9 1.4 3.9 3.9 0 0 1-1.8-.4l-2.8-1.5a47 47 0 0 0-9.3-3.9 43.4 43.4 0 0 0-12.6-1.5 47.2 47.2 0 0 0-16.7 2.8 27 27 0 0 0-12.2 8.5 22.5 22.5 0 0 0-4.5 14.2 24 24 0 0 0 3.1 12.4 35.6 35.6 0 0 0 7.9 9.4l2.7 2.2H519c-2.6-2.2-5.9-4.7-9.7-7.4z"/></symbol></svg>