<svg xmlns="http://www.w3.org/2000/svg"><symbol id="instagram" viewBox="0 0 64 64"><rect width="64" height="64" rx="32" ry="32"/><path fill="#fff" d="M32 16.9h7.4a14.1 14.1 0 0 1 3.5.6A9.6 9.6 0 0 1 45 19a9.6 9.6 0 0 1 1.4 2.1 14.1 14.1 0 0 1 .6 3.5c.1 1.9.1 2.5.1 7.4s0 5.5-.1 7.4a14.1 14.1 0 0 1-.6 3.5A9.6 9.6 0 0 1 45 45a9.6 9.6 0 0 1-2.1 1.4 14.1 14.1 0 0 1-3.5.6H24.6a14.1 14.1 0 0 1-3.5-.6A9.6 9.6 0 0 1 19 45a9.6 9.6 0 0 1-1.4-2.1 14.1 14.1 0 0 1-.6-3.5c-.1-1.9-.1-2.5-.1-7.4s0-5.5.1-7.4a14.1 14.1 0 0 1 .6-3.5A9.6 9.6 0 0 1 19 19a9.6 9.6 0 0 1 2.1-1.4 14.1 14.1 0 0 1 3.5-.6H32m0-3.3h-7.6a13.2 13.2 0 0 0-4.5.9 8.1 8.1 0 0 0-3.2 2.1 8.1 8.1 0 0 0-2.1 3.2 13.2 13.2 0 0 0-.9 4.5c-.1 2-.1 2.6-.1 7.6s0 5.6.1 7.6a13.2 13.2 0 0 0 .9 4.5 8.1 8.1 0 0 0 2.1 3.2 8.1 8.1 0 0 0 3.2 2.1 13.2 13.2 0 0 0 4.5.9h15.2a13.2 13.2 0 0 0 4.5-.9 9.4 9.4 0 0 0 5.3-5.3 13.2 13.2 0 0 0 .9-4.5c.1-2 .1-2.6.1-7.6s0-5.6-.1-7.6a13.2 13.2 0 0 0-.9-4.5 8.1 8.1 0 0 0-2.1-3.2 8.1 8.1 0 0 0-3.2-2.1 13.2 13.2 0 0 0-4.5-.9z"/><path fill="#fff" d="M32 22.5a9.5 9.5 0 1 0 9.5 9.5 9.6 9.6 0 0 0-9.5-9.5zm0 15.6a6.1 6.1 0 1 1 6.1-6.1 6.1 6.1 0 0 1-6.1 6.1z"/><circle cx="41.8" cy="22.2" r="2.2" fill="#fff"/></symbol><symbol id="twitter" viewBox="0 0 64 64"><rect width="64" height="64" rx="32" ry="32"/><path fill="#fff" d="M26 48.4c14.3 0 22.1-11.8 22.1-22.1v-1a16.9 16.9 0 0 0 3.9-4.1 13.7 13.7 0 0 1-4.5 1.3 8.1 8.1 0 0 0 3.4-4.3 17.2 17.2 0 0 1-4.9 1.9 7.6 7.6 0 0 0-5.7-2.5 7.8 7.8 0 0 0-7.8 7.8 8.8 8.8 0 0 0 .2 1.7 22 22 0 0 1-16-8.1 7.7 7.7 0 0 0-1.1 3.9 7.8 7.8 0 0 0 3.5 6.5 6.8 6.8 0 0 1-3.5-1 7.8 7.8 0 0 0 6.2 7.7l-2 .2h-1.5a7.9 7.9 0 0 0 7.3 5.4 15.8 15.8 0 0 1-9.7 3.3H14a22.5 22.5 0 0 0 12 3.5"/></symbol><symbol id="behance" viewBox="0 0 64 64"><rect width="64" height="64" rx="32" ry="32"/><path fill="#fff" d="M23.6 18.7a17.9 17.9 0 0 1 3.4.3 10 10 0 0 1 2.6 1 5.3 5.3 0 0 1 1.6 2 6.7 6.7 0 0 1 .6 3 6.7 6.7 0 0 1-.8 3.3 7.5 7.5 0 0 1-2.7 2.1 5.8 5.8 0 0 1 3.6 2.4 7.6 7.6 0 0 1 1.1 4.1 7.4 7.4 0 0 1-.7 3.4 6.6 6.6 0 0 1-2.1 2.3 7 7 0 0 1-2.9 1.3 12.6 12.6 0 0 1-3.3.5H11.5V18.7zM22.9 29a4.1 4.1 0 0 0 2.5-.7 2.7 2.7 0 0 0 .9-2.3 3.3 3.3 0 0 0-.3-1.5 2.4 2.4 0 0 0-.8-.9 2.8 2.8 0 0 0-1.3-.4l-1.4-.2h-5.3v6zm.3 11l1.6-.2 1.3-.5a2.8 2.8 0 0 0 .9-1 3.1 3.1 0 0 0 .4-1.7 3.3 3.3 0 0 0-1.1-2.8 4.9 4.9 0 0 0-3-.9h-6.1V40zm17.9-.1a4.4 4.4 0 0 0 3.3 1.1 4.3 4.3 0 0 0 2.7-.8 2.7 2.7 0 0 0 1.3-1.6H53a9.3 9.3 0 0 1-3.4 4.8 9.5 9.5 0 0 1-5.4 1.5 10.1 10.1 0 0 1-3.9-.8 6.9 6.9 0 0 1-3-2 7.1 7.1 0 0 1-1.9-3.1 10 10 0 0 1-.7-3.9 10 10 0 0 1 .7-3.9 9.6 9.6 0 0 1 1.9-3.1 9.5 9.5 0 0 1 3.1-2.1 9.8 9.8 0 0 1 8 .1 9 9 0 0 1 4.5 6 11.8 11.8 0 0 1 .4 4.2H39.8a4.9 4.9 0 0 0 1.3 3.6zm5.9-9.8a3.8 3.8 0 0 0-2.9-1 4.6 4.6 0 0 0-2.1.4 4 4 0 0 0-1.2 1 2.8 2.8 0 0 0-.7 1.3 7.9 7.9 0 0 0-.3 1.3h8.4a5.9 5.9 0 0 0-1.2-3zm-8.2-9.7h10.4v2.54H38.8z"/></symbol><symbol id="vimeo" viewBox="0 0 64 64"><rect width="64" height="64" rx="32" ry="32"/><path fill="#fff" d="M52.6 23.9c-.2 4.3-3.1 10-8.8 17.3S32.9 52.7 28.9 52.7s-4.7-2.3-6.4-7-2.4-8.5-3.5-12.8-2.7-7-4.2-7a12.9 12.9 0 0 0-3.4 2.1l-2-2.6 6.3-5.7c2.8-2.4 5-3.7 6.4-3.9 3.4-.3 5.4 2 6.2 6.9a94 94 0 0 0 1.8 10c.9 4.4 2 6.6 3.2 6.6s2.2-1.5 4-4.3 2.8-5.1 3-6.6-.8-3.7-3-3.7a7.9 7.9 0 0 0-3.2.8c2.2-7 6.2-10.4 12.2-10.2s6.6 3 6.3 8.6z"/></symbol><symbol id="email" viewBox="0 0 64 64"><rect width="64" height="64" rx="32" ry="32"/><path fill="#fff" d="M52.5 43.9H9.1V18.1h43.4zM11.9 41h37.8V21H11.9z"/><path fill="#fff" d="M30.8 35.6l-.8-.2L9.7 20.7a1.4 1.4 0 0 1-.5-1.6 1.3 1.3 0 0 1 1.3-1h40.6a1.5 1.5 0 0 1 1.4 1 1.4 1.4 0 0 1-.6 1.6L31.6 35.4zM14.9 21l15.9 11.4L46.7 21z"/><circle cx="47.6" cy="39" r="9" fill="#fff"/><path d="M51.2 44a10.5 10.5 0 0 1-4.1.9c-3.2 0-5.3-2-5.3-4.9a6.7 6.7 0 0 1 6.7-6.5c2.8 0 4.7 1.7 4.7 4.1a4.3 4.3 0 0 1-1.7 3.5 2.9 2.9 0 0 1-2 .7h-1.2l.2-.9a2.2 2.2 0 0 1-2.1 1 1.7 1.7 0 0 1-1.9-1.9c0-2.1 1.2-3.6 2.9-3.6a1.7 1.7 0 0 1 1.8 1.1v-.9H51v.7h-.9l-.7 3.8c.8-.1 1.1-.1 1.5-.4a3.8 3.8 0 0 0 1.5-3c0-2-1.6-3.4-3.9-3.4a5.8 5.8 0 0 0-5.8 5.7c0 2.4 1.7 4 4.4 4a8.5 8.5 0 0 0 3.7-.8zm-5.3-5.9a3.5 3.5 0 0 0-.4 1.7 1.2 1.2 0 0 0 1.3 1.4 1.8 1.8 0 0 0 1.7-1 4.3 4.3 0 0 0 .4-1.7 1.2 1.2 0 0 0-1.3-1.3 2 2 0 0 0-1.7.9z"/></symbol></svg>