<svg xmlns="http://www.w3.org/2000/svg"><symbol id="email" viewBox="0 0 64 64"><rect width="64" height="64" rx="32" ry="32"/><path fill="#fff" d="M10.3 19.1v25.8h43.4V19.1zM47.9 22L32 33.4 16.1 22zm3 20H13.1V23.3l18.1 13.1.8.2.8-.2 18.1-13.1z"/></symbol><symbol id="vimeo" viewBox="0 0 64 64"><rect width="64" height="64" rx="32" ry="32"/><path fill="#fff" d="M52.6 23.9c-.2 4.3-3.1 10-8.8 17.3S32.9 52.7 28.9 52.7s-4.7-2.3-6.4-7-2.4-8.5-3.5-12.8-2.7-7-4.2-7a12.9 12.9 0 0 0-3.4 2.1l-2-2.6 6.3-5.7c2.8-2.4 5-3.7 6.4-3.9 3.4-.3 5.4 2 6.2 6.9a94 94 0 0 0 1.8 10c.9 4.4 2 6.6 3.2 6.6s2.2-1.5 4-4.3 2.8-5.1 3-6.6-.8-3.7-3-3.7a7.9 7.9 0 0 0-3.2.8c2.2-7 6.2-10.4 12.2-10.2s6.6 3 6.3 8.6z"/></symbol><symbol id="s6" viewBox="0 0 64 64"><rect width="64" height="64" x=".2" rx="32" ry="32"/><path fill="#fff" fill-rule="evenodd" d="M47.7 26.2a9.8 9.8 0 0 0-4.5 0 13.9 13.9 0 0 0-4.7 2.1 14.7 14.7 0 0 1 12.2-11c1.1-.1.9-.8.8-1.5s-.7-.6-1.1-.5a27.8 27.8 0 0 0-9.4 2.9c-4.3 2.4-7.7 5.6-9.5 9.7a3.5 3.5 0 0 0-1.4-2.7l-1.8-.8a17.2 17.2 0 0 0-9 .2 7.5 7.5 0 0 0-3.6 2.2 5.2 5.2 0 0 0 .4 7.7 14.5 14.5 0 0 0 3.2 1.8 14.3 14.3 0 0 1 3.1 1.2 2.7 2.7 0 0 1 1.3 3.3 3.6 3.6 0 0 1-3 2.4c-.9.2-1.5.1-1.8-1a6.3 6.3 0 0 0-2.1-3.8 3.4 3.4 0 0 0-4.7.5 3 3 0 0 0 1 4.3 6 6 0 0 0 2.3 1 17.5 17.5 0 0 0 8.8.1c3.1-.7 5.4-2.3 6-6a5 5 0 0 0 .5 1.3 5.4 5.4 0 0 0 1.3 2.2 7.8 7.8 0 0 0 3.6 2.5 14.4 14.4 0 0 0 6.2.5c5.4-.7 10.1-5 10.9-10.1s-1.4-7.6-5-8.5zm-22.7 6L22 31a2.7 2.7 0 0 1-.8-4.2 3.6 3.6 0 0 1 1.8-1.2c.8-.3 1.2-.3 1.5.7a5.8 5.8 0 0 0 2.1 3.6 3.2 3.2 0 0 0 4.2-.3 18.1 18.1 0 0 0-.9 5.8v.3h-.1c-1.2-1.8-2.3-2.6-4.8-3.5zm18.1 9.1a4.3 4.3 0 0 1-1.4 1.3 2.6 2.6 0 0 1-4-1 8.6 8.6 0 0 1-.8-4.8 19.8 19.8 0 0 1 .7-5.3c.2-1.2 2-2.5 3.6-2.8a3.3 3.3 0 0 1 4 2.9 12.8 12.8 0 0 1-2.1 9.7z"/></symbol><symbol id="music" viewBox="0 0 64 64"><rect width="64" height="64" rx="32" ry="32"/><path fill="#fff" fill-rule="evenodd" d="M15.4 45.1c0 2.3 1.9 4.2 4.8 4.2h.3a5.1 5.1 0 0 0 5.4-5.4V25.2a.8.8 0 0 1 .6-.8l15.1-3.2a.6.6 0 0 1 .6.5v12.5a2.8 2.8 0 0 1-.6 2.1 1.8 1.8 0 0 1-1.5.8h-1.8a4.3 4.3 0 0 0-4.2 4.3c0 2.4 1.9 4.3 4.8 4.3h.3a5.2 5.2 0 0 0 5.4-5.5V13.8a1 1 0 0 0-1.2-1l-18.7 3.8a1.6 1.6 0 0 0-1.2 1.5v19.8a3.7 3.7 0 0 1-.6 2.1 2.4 2.4 0 0 1-1.6.8h-1.7a4.2 4.2 0 0 0-4.2 4.3z"/></symbol><symbol id="instagram" viewBox="0 0 64 64"><rect width="64" height="64" rx="32" ry="32"/><path fill="#fff" d="M32 16.9h7.4a14.1 14.1 0 0 1 3.5.6A9.6 9.6 0 0 1 45 19a9.6 9.6 0 0 1 1.4 2.1 14.1 14.1 0 0 1 .6 3.5c.1 1.9.1 2.5.1 7.4s0 5.5-.1 7.4a14.1 14.1 0 0 1-.6 3.5A9.6 9.6 0 0 1 45 45a9.6 9.6 0 0 1-2.1 1.4 14.1 14.1 0 0 1-3.5.6H24.6a14.1 14.1 0 0 1-3.5-.6A9.6 9.6 0 0 1 19 45a9.6 9.6 0 0 1-1.4-2.1 14.1 14.1 0 0 1-.6-3.5c-.1-1.9-.1-2.5-.1-7.4s0-5.5.1-7.4a14.1 14.1 0 0 1 .6-3.5A9.6 9.6 0 0 1 19 19a9.6 9.6 0 0 1 2.1-1.4 14.1 14.1 0 0 1 3.5-.6H32m0-3.3h-7.6a13.2 13.2 0 0 0-4.5.9 8.1 8.1 0 0 0-3.2 2.1 8.1 8.1 0 0 0-2.1 3.2 13.2 13.2 0 0 0-.9 4.5c-.1 2-.1 2.6-.1 7.6s0 5.6.1 7.6a13.2 13.2 0 0 0 .9 4.5 8.1 8.1 0 0 0 2.1 3.2 8.1 8.1 0 0 0 3.2 2.1 13.2 13.2 0 0 0 4.5.9h15.2a13.2 13.2 0 0 0 4.5-.9 9.4 9.4 0 0 0 5.3-5.3 13.2 13.2 0 0 0 .9-4.5c.1-2 .1-2.6.1-7.6s0-5.6-.1-7.6a13.2 13.2 0 0 0-.9-4.5 8.1 8.1 0 0 0-2.1-3.2 8.1 8.1 0 0 0-3.2-2.1 13.2 13.2 0 0 0-4.5-.9z"/><path fill="#fff" d="M32 22.5a9.5 9.5 0 1 0 9.5 9.5 9.6 9.6 0 0 0-9.5-9.5zm0 15.6a6.1 6.1 0 1 1 6.1-6.1 6.1 6.1 0 0 1-6.1 6.1z"/><circle cx="41.8" cy="22.2" r="2.2" fill="#fff"/></symbol></svg>