<svg xmlns="http://www.w3.org/2000/svg"><symbol id="resume" viewBox="0 0 64 64"><rect width="64" height="64" rx="32" ry="32"/><path fill="#fff" stroke="#fff" stroke-miterlimit="10" stroke-width=".75" d="M33.9 36.4a2.4 2.4 0 1 1 2.3 2.4 2.3 2.3 0 0 1-2.3-2.4zm-3.3 8.4a3.6 3.6 0 0 1 2.8-3.5 9.7 9.7 0 0 1 5.6-.1 3.8 3.8 0 0 1 3 3.6c0 .3-.1.3-.3.3H30.9c-.3 0-.3 0-.3-.3z"/><path fill="#fff" stroke="#fff" stroke-linecap="round" stroke-linejoin="round" stroke-width="2" d="M23.3 17.9h17.4m-17.4 5.6h17.4m-17.4 5.7h9.1"/><path fill="#fff" d="M44.9 13.1v35.1H19.1V13.1h25.8m0-2.5H19.1a2.5 2.5 0 0 0-2.5 2.5v35.1a2.5 2.5 0 0 0 2.5 2.5h25.8a2.5 2.5 0 0 0 2.5-2.5V13.1a2.5 2.5 0 0 0-2.5-2.5z"/></symbol><symbol id="vimeo" viewBox="0 0 64 64"><rect width="64" height="64" rx="32" ry="32"/><path fill="#fff" d="M52.6 23.9c-.2 4.3-3.1 10-8.8 17.3S32.9 52.7 28.9 52.7s-4.7-2.3-6.4-7-2.4-8.5-3.5-12.8-2.7-7-4.2-7a12.9 12.9 0 0 0-3.4 2.1l-2-2.6 6.3-5.7c2.8-2.4 5-3.7 6.4-3.9 3.4-.3 5.4 2 6.2 6.9a94 94 0 0 0 1.8 10c.9 4.4 2 6.6 3.2 6.6s2.2-1.5 4-4.3 2.8-5.1 3-6.6-.8-3.7-3-3.7a7.9 7.9 0 0 0-3.2.8c2.2-7 6.2-10.4 12.2-10.2s6.6 3 6.3 8.6z"/></symbol><symbol id="music" viewBox="0 0 64 64"><path fill-rule="evenodd" d="M54.6 9.4A31.9 31.9 0 1 0 64 32a31.9 31.9 0 0 0-9.4-22.6zm-10 30.8a5.2 5.2 0 0 1-5.4 5.5h-.3c-2.9 0-4.8-1.9-4.8-4.3a4.2 4.2 0 0 1 4.2-4.3h1.8a1.8 1.8 0 0 0 1.5-.8 2.8 2.8 0 0 0 .6-2.1V21.7a.6.6 0 0 0-.6-.5l-15.1 3.2a.8.8 0 0 0-.6.8v18.7a5.1 5.1 0 0 1-5.4 5.4h-.3c-2.9 0-4.8-1.9-4.8-4.2a4.2 4.2 0 0 1 4.2-4.3h1.7a2.4 2.4 0 0 0 1.6-.8 3.7 3.7 0 0 0 .6-2.1V18.1a1.4 1.4 0 0 1 1.1-1.4l18.8-3.8a.9.9 0 0 1 1.2.9z"/></symbol><symbol id="instagram" viewBox="0 0 64 64"><rect width="64" height="64" rx="32" ry="32"/><path fill="#fff" d="M32 16.9h7.4a14.1 14.1 0 0 1 3.5.6A9.6 9.6 0 0 1 45 19a9.6 9.6 0 0 1 1.4 2.1 14.1 14.1 0 0 1 .6 3.5c.1 1.9.1 2.5.1 7.4s0 5.5-.1 7.4a14.1 14.1 0 0 1-.6 3.5A9.6 9.6 0 0 1 45 45a9.6 9.6 0 0 1-2.1 1.4 14.1 14.1 0 0 1-3.5.6H24.6a14.1 14.1 0 0 1-3.5-.6A9.6 9.6 0 0 1 19 45a9.6 9.6 0 0 1-1.4-2.1 14.1 14.1 0 0 1-.6-3.5c-.1-1.9-.1-2.5-.1-7.4s0-5.5.1-7.4a14.1 14.1 0 0 1 .6-3.5A9.6 9.6 0 0 1 19 19a9.6 9.6 0 0 1 2.1-1.4 14.1 14.1 0 0 1 3.5-.6H32m0-3.3h-7.6a13.2 13.2 0 0 0-4.5.9 8.1 8.1 0 0 0-3.2 2.1 8.1 8.1 0 0 0-2.1 3.2 13.2 13.2 0 0 0-.9 4.5c-.1 2-.1 2.6-.1 7.6s0 5.6.1 7.6a13.2 13.2 0 0 0 .9 4.5 8.1 8.1 0 0 0 2.1 3.2 8.1 8.1 0 0 0 3.2 2.1 13.2 13.2 0 0 0 4.5.9h15.2a13.2 13.2 0 0 0 4.5-.9 9.4 9.4 0 0 0 5.3-5.3 13.2 13.2 0 0 0 .9-4.5c.1-2 .1-2.6.1-7.6s0-5.6-.1-7.6a13.2 13.2 0 0 0-.9-4.5 8.1 8.1 0 0 0-2.1-3.2 8.1 8.1 0 0 0-3.2-2.1 13.2 13.2 0 0 0-4.5-.9z"/><path fill="#fff" d="M32 22.5a9.5 9.5 0 1 0 9.5 9.5 9.6 9.6 0 0 0-9.5-9.5zm0 15.6a6.1 6.1 0 1 1 6.1-6.1 6.1 6.1 0 0 1-6.1 6.1z"/><circle cx="41.8" cy="22.2" r="2.2" fill="#fff"/></symbol><symbol id="email" viewBox="0 0 64 64"><rect width="64" height="64" rx="32" ry="32"/><path fill="#fff" d="M10.3 19.1v25.8h43.4V19.1zM47.9 22L32 33.4 16.1 22zm3 20H13.1V23.3l18.1 13.1.8.2.8-.2 18.1-13.1z"/></symbol><symbol id="download" viewBox="0 0 64 64"><rect width="64" height="64" rx="32" ry="32"/><path fill="#fff" d="M27.2 14.7V29a1.3 1.3 0 0 1-1.3 1.3h-4.1a1.3 1.3 0 0 0-.9 2.2L31 43.4a1.3 1.3 0 0 0 2 0l10.1-10.9a1.3 1.3 0 0 0-.9-2.2h-4.1a1.3 1.3 0 0 1-1.3-1.3V14.7a1.3 1.3 0 0 0-1.3-1.3h-7a1.3 1.3 0 0 0-1.3 1.3z"/><rect width="26.3" height="2.62" x="18.8" y="48.6" fill="#fff" rx="1.3" ry="1.3"/></symbol></svg>